<svg height="24" viewBox="0 0 24 24" width="24" xmlns="http://www.w3.org/2000/svg" xmlns:xlink="http://www.w3.org/1999/xlink"><linearGradient id="a" gradientUnits="objectBoundingBox" x1=".5" x2=".5" y1=".999" y2="-.001"><stop offset="0" stop-color="#6e2616"/><stop offset="1" stop-color="#9b4722"/></linearGradient><linearGradient id="b" x1=".501" x2=".501" xlink:href="#a" y1="0" y2="1"/><radialGradient id="c" cx=".5" cy=".5" gradientUnits="objectBoundingBox" r=".5"><stop offset="0" stop-color="#f4b31b"/><stop offset="1" stop-color="#cc932b"/></radialGradient><clipPath id="d"><path d="m0 0h20v20h-20z"/></clipPath><path d="m0 0h24v24h-24z" fill="none"/><g clip-path="url(#d)" transform="translate(2 2)"><path d="m0 0h20v20h-20z" fill="none"/><path d="m2.783 0h14.434a2.8 2.8 0 0 1 2.783 2.783v14.434a2.8 2.8 0 0 1 -2.783 2.783h-14.434a2.8 2.8 0 0 1 -2.783-2.783v-14.434a2.78 2.78 0 0 1 2.783-2.783" fill="url(#c)"/><path d="m18.333 0v7.882a2.123 2.123 0 0 1 -.612 1.5 2.084 2.084 0 0 1 -1.483.62h-14.143a2.084 2.084 0 0 1 -1.483-.622 2.123 2.123 0 0 1 -.612-1.497v-3.288c.773-8.424 8.736.105 12.435.105 2.942-.016 4.695-2.3 5.9-4.7" fill="url(#a)" transform="translate(.833 9.167)"/><path d="m2.108 0h14.132a2.1 2.1 0 0 1 2.093 2.1v3.16c-.653 8.733-8.714.015-12.44.015-2.924.001-4.676 2.34-5.893 4.725v-7.9a2.137 2.137 0 0 1 2.108-2.1" fill="url(#b)" transform="translate(.833 .833)"/></g></svg>