<svg fill="none" height="24" viewBox="0 0 24 24" width="24" xmlns="http://www.w3.org/2000/svg"><circle cx="13.4809" cy="2.50041" fill="#000" r="1.57463"/><path clip-rule="evenodd" d="m4.6543 5.05469c0-1.10547.89453-2 2-2h1.71679v6.79297c1.10352-1.0586 2.56051-1.6875 4.25001-1.6875 3.6816 0 6.7285 3.25004 6.7266 7.40234 0 2.3242-.8868 4.2578-2.3086 5.5781-1.3164 1.2227-3.0879 1.9219-5.0371 1.9219-2.96489 0-5.52934-1.793-6.69536-4.3711-.36523-.8125-.59375-1.7031-.65234-2.6367zm11.0859 10.53121c0 2.2735-1.6953 4.1211-3.7871 4.1211-2.08982 0-3.78513-1.8476-3.78513-4.1211 0-1.3867.62891-2.6171 1.59375-3.3632.61918-.4766 1.37498-.7579 2.19138-.7579.9844 0 1.8828.4102 2.5567 1.0782.7558.7539 1.2304 1.8398 1.2304 3.0429z" fill="#4e91e6" fill-rule="evenodd"/></svg>