<svg fill="none" height="48" viewBox="0 0 48 48" width="48" xmlns="http://www.w3.org/2000/svg"><path clip-rule="evenodd" d="m25.671 47.3078c-.4432.4432-1.0443.6923-1.671.6922-.6268-.0001-1.2278-.249-1.671-.6922-1.7782-1.7781-4.3381-4.338-4.3381-4.338h4.5059c.9314 0 1.8246-.37 2.4832-1.0286 2.9097-2.9096 10.9896-10.9896 10.9896-10.9896l.0486 6.0091s-7.045 7.0449-10.3472 10.3471zm-16.1457-10.9551c.6574.6573 1.549 1.0266 2.4787 1.0266h15.5442l-4.2147 4.2834h-16.9962v-8.4981s1.9404 1.9404 3.188 3.1881zm32.1374 5.31h-8.4981s1.9404-1.9404 3.1881-3.188c.6573-.6574 1.0266-1.549 1.0266-2.4787 0-4.1126 0-15.5442 0-15.5442l4.2834 4.2147zm-40.9705-15.9917c-.4432-.4432-.69229997-1.0443-.69219997-1.671.0001-.6268.24899997-1.2278.69219997-1.671 1.7781-1.7782 4.338-4.3381 4.338-4.3381v4.5059c0 .9314.37 1.8246 1.0286 2.4832 2.9096 2.9097 10.9896 10.9896 10.9896 10.9896l-6.0091.0486s-7.0449-7.045-10.3471-10.3472zm23.3078-12.6876c6.0803 0 11.0166 4.9363 11.0166 11.0166s-4.9363 11.0166-11.0166 11.0166-11.0166-4.9363-11.0166-11.0166 4.9363-11.0166 11.0166-11.0166zm23.3078 9.3456c.4432.4432.6922 1.0443.6922 1.671 0 .6268-.249 1.2278-.6922 1.671-1.7781 1.7782-4.338 4.3381-4.338 4.3381s0-2.7414 0-4.5059c0-.9314-.37-1.8246-1.0286-2.4832-2.9096-2.9097-10.9896-10.9896-10.9896-10.9896l6.0091-.0486s7.0449 7.045 10.3471 10.3472zm-40.9705-15.9917h8.4981s-1.9404 1.9404-3.1881 3.188c-.6573.6574-1.0266 1.549-1.0266 2.4787v15.5442l-4.2834-4.2147zm23.6718-1.3071s-2.7414 0-4.5059 0c-.9314 0-1.8246.37-2.4832 1.0286-2.9097 2.9096-10.9896 10.9896-10.9896 10.9896l-.0486-6.0091s7.045-7.0449 10.3472-10.3471c.4432-.4432 1.0443-.6922 1.671-.6922.6268 0 1.2278.249 1.671.6922 1.7782 1.7781 4.3381 4.338 4.3381 4.338zm11.6536 1.3071v8.4981s-1.9404-1.9404-3.188-3.1881c-.6574-.6573-1.549-1.0266-2.4787-1.0266-4.1126 0-15.5442 0-15.5442 0l4.2147-4.2834z" fill="#00194a" fill-rule="evenodd"/></svg>