<svg height="24" viewBox="0 0 24 24" width="24" xmlns="http://www.w3.org/2000/svg" xmlns:xlink="http://www.w3.org/1999/xlink"><clipPath id="a"><path d="m0 0h20v20h-20z"/></clipPath><path d="m0 0h24v24h-24z" fill="none"/><g clip-path="url(#a)" transform="translate(2 2)"><path d="m0 0h20v20h-20z" fill="none"/><path d="m16.23 10.417c-2.249-.012-4.38-1.622-5.992-3.042l.923-.923.03.026c1.07.917 2.667 2.285 4 2.538.1.009.2.015.295.015a.066.066 0 0 1 .019 0 1.612 1.612 0 0 0 -.005-3.225v-2.883a4.21 4.21 0 0 0 -2.255.749 9.554 9.554 0 0 0 -1.008.75c-1.585 1.33-2.882 2.966-4.487 4.278-.259.212-.523.411-.791.594-.2.134-.4.26-.6.375a5.309 5.309 0 0 1 -2.609.75 3.747 3.747 0 1 1 0-7.494 6.177 6.177 0 0 1 2.834.749 10.731 10.731 0 0 1 1.166.711l.055.039c.034.024.081.048.132.083l.268.182-.705 1.026a6.692 6.692 0 0 0 -3.734-1.483 2.408 2.408 0 0 0 -2.121 1.224 2.435 2.435 0 0 0 0 2.451 2.393 2.393 0 0 0 2.087 1.123c3.18 0 4.99-3.971 6.52-6.108q.239-.333.5-.644a7.752 7.752 0 0 1 .748-.778 5.694 5.694 0 0 1 3.973-1.5h.027v2.923h.77a3.747 3.747 0 0 1 0 7.494z" fill="#008ba0" transform="translate(0 4.583)"/></g></svg>