<svg height="24" viewBox="0 0 24 24" width="24" xmlns="http://www.w3.org/2000/svg" xmlns:xlink="http://www.w3.org/1999/xlink"><clipPath id="a"><path d="m0 0h20v20h-20z"/></clipPath><path d="m0 0h24v24h-24z" fill="none"/><g clip-path="url(#a)" transform="translate(2 2)"><path d="m0 0h20v20h-20z" fill="none"/><path d="m16.875-34.25a3.126 3.126 0 0 1 3.125 3.125 3.126 3.126 0 0 1 -3.125 3.125 3.126 3.126 0 0 1 -3.125-3.125 3.126 3.126 0 0 1 3.125-3.125zm-2.651-13.575a.222.222 0 0 1 .217-.175h5.476a.084.084 0 0 1 .071.039.084.084 0 0 1 0 .081l-9.4 19.761a.207.207 0 0 1 -.187.118h-.232a.208.208 0 0 1 -.162-.077.208.208 0 0 1 -.041-.175zm-3.158 0a.222.222 0 0 1 .217-.175h1.662a.221.221 0 0 1 .173.083.222.222 0 0 1 .044.186l-4.251 19.567a.208.208 0 0 1 -.2.164h-1.694a.207.207 0 0 1 -.162-.077.208.208 0 0 1 -.041-.175zm-1.666-.049a.221.221 0 0 1 .2-.126h.174a.221.221 0 0 1 .172.083.222.222 0 0 1 .044.186l-4.248 19.567a.208.208 0 0 1 -.2.164h-5.458a.084.084 0 0 1 -.071-.039.084.084 0 0 1 0-.081zm-6.275-.126a3.126 3.126 0 0 1 3.125 3.125 3.126 3.126 0 0 1 -3.125 3.125 3.126 3.126 0 0 1 -3.125-3.125 3.126 3.126 0 0 1 3.125-3.125z" fill="#662891" fill-rule="evenodd" transform="translate(0 48)"/></g></svg>