<svg height="24" viewBox="0 0 24 24" width="24" xmlns="http://www.w3.org/2000/svg" xmlns:xlink="http://www.w3.org/1999/xlink"><clipPath id="a"><path d="m0 0h20v20h-20z"/></clipPath><path d="m0 0h24v24h-24z" fill="none"/><g clip-path="url(#a)" transform="translate(2 2)"><path d="m0 0h20v20h-20z" fill="none"/><g fill-rule="evenodd"><path d="m1.8-33.014 3.2 5.55h2.389l-3.189-5.502.609-1.055 3.785 6.557h6.406l1.2-2.072h-6.37l-3.809-6.588 1.385-2.4h-2.429zm15 2.439 3.2-5.55-1.195-2.069-3.169 5.515h-1.217l3.781-6.556-3.2-5.55h-2.392l3.192 5.515-3.81 6.592h-2.772l1.215 2.1zm-6.021-11.1-.609-1.055-6.361.013 1.191-2.068h6.408l3.181 5.51-1.214 2.1-1.386-2.4h-7.61l-3.179 5.522-1.2-2.071 3.2-5.55z" fill="#b01116" transform="translate(0 46.124)"/><path d="m20.6-29.74a2.43 2.43 0 0 1 2.429 2.429 2.43 2.43 0 0 1 -2.429 2.429 2.43 2.43 0 0 1 -2.429-2.429 2.43 2.43 0 0 1 2.429-2.429z" fill="#00a1be" transform="translate(-10.6 37.348)"/></g></g></svg>