<svg height="24" viewBox="0 0 24 24" width="24" xmlns="http://www.w3.org/2000/svg" xmlns:xlink="http://www.w3.org/1999/xlink"><clipPath id="a"><path d="m0 0h20v20h-20z"/></clipPath><path d="m0 0h24v24h-24z" fill="none"/><g clip-path="url(#a)" transform="translate(2 2)"><path d="m0 0h20v20h-20z" fill="none"/><path d="m7.575 20-3.408-3.091h11.133v-8.017a4.311 4.311 0 0 0 -4.319-3.02c-3.541.001-4.132 2.628-4.132 2.628s-.783-4.333 5.636-4.333 6.682 4.669 6.682 4.669v9.787s-.2 1.377-1.182 1.377zm-7.575-8.828v-9.794s.2-1.378 1.181-1.378h10.41l3.409 3.091h-11.129v8.016a4.311 4.311 0 0 0 4.319 3.02c3.536 0 4.127-2.627 4.127-2.627s.783 4.333-5.636 4.333-6.681-4.661-6.681-4.661z" fill="#007d3d" transform="translate(.417)"/><path d="m3.7 0a3.705 3.705 0 1 1 -3.7 3.7 3.7 3.7 0 0 1 3.7-3.7z" fill="#fff400" transform="translate(6.473 6.266)"/></g></svg>