<svg xmlns="http://www.w3.org/2000/svg" id="Component_133_1" width="24" height="24" viewBox="0 0 24 24">
    <defs>
        <clipPath id="clip-path">
            <path d="M0 0H20V20H0z" class="cls-1"/>
        </clipPath>
        <style>
            .cls-1{fill:none}
        </style>
    </defs>
    <path id="Rectangle_1289" d="M0 0H24V24H0z" class="cls-1"/>
    <g id="Bank_Hekmat_Color" clip-path="url(#clip-path)" transform="translate(2 2)">
        <path id="Boundary" d="M0 0H20V20H0z" class="cls-1"/>
        <path id="Shape" fill="#324c88" d="M6.783 19.224a.758.758 0 1 1 .758.776.769.769 0 0 1-.758-.776zm3.77-1.532a.758.758 0 1 1 .758.777.769.769 0 0 1-.758-.778zm-7.521 0a.758.758 0 1 1 .758.777.769.769 0 0 1-.757-.778zm3.012-2.309a1.455 1.455 0 1 1 1.456 1.49 1.476 1.476 0 0 1-1.455-1.49zm4.549-3.106a1.455 1.455 0 1 1 1.455 1.49 1.475 1.475 0 0 1-1.454-1.49zm-9.037 0a1.476 1.476 0 0 1 1.455-1.49 1.49 1.49 0 0 1 0 2.98 1.476 1.476 0 0 1-1.454-1.49zm3.731-2.308a2.234 2.234 0 1 1 2.234 2.288 2.265 2.265 0 0 1-2.234-2.288zm5.246-3.022a2.234 2.234 0 1 1 2.234 2.288 2.265 2.265 0 0 1-2.234-2.289zM0 6.9a2.265 2.265 0 0 1 2.234-2.283 2.288 2.288 0 0 1 0 4.575A2.265 2.265 0 0 1 0 6.9zm4.508-3.815A3.055 3.055 0 0 1 7.521 0a3.055 3.055 0 0 1 3.012 3.085A3.055 3.055 0 0 1 7.521 6.17a3.055 3.055 0 0 1-3.013-3.085z" transform="translate(2.5)"/>
    </g>
</svg>
