<svg height="24" viewBox="0 0 24 24" width="24" xmlns="http://www.w3.org/2000/svg" xmlns:xlink="http://www.w3.org/1999/xlink"><clipPath id="a"><path d="m0 0h20v20h-20z"/></clipPath><path d="m0 0h24v24h-24z" fill="none"/><g clip-path="url(#a)" transform="translate(2 2)"><path d="m0 0h20v20h-20z" fill="none"/><path d="m6.783 19.224a.758.758 0 1 1 .758.776.769.769 0 0 1 -.758-.776zm3.77-1.532a.758.758 0 1 1 .758.777.769.769 0 0 1 -.758-.778zm-7.521 0a.758.758 0 1 1 .758.777.769.769 0 0 1 -.757-.778zm3.012-2.309a1.455 1.455 0 1 1 1.456 1.49 1.476 1.476 0 0 1 -1.455-1.49zm4.549-3.106a1.455 1.455 0 1 1 1.455 1.49 1.475 1.475 0 0 1 -1.454-1.49zm-9.037 0a1.476 1.476 0 0 1 1.455-1.49 1.49 1.49 0 0 1 0 2.98 1.476 1.476 0 0 1 -1.454-1.49zm3.731-2.308a2.234 2.234 0 1 1 2.234 2.288 2.265 2.265 0 0 1 -2.234-2.288zm5.246-3.022a2.234 2.234 0 1 1 2.234 2.288 2.265 2.265 0 0 1 -2.234-2.289zm-10.533-.047a2.265 2.265 0 0 1 2.234-2.283 2.288 2.288 0 0 1 0 4.575 2.265 2.265 0 0 1 -2.234-2.292zm4.508-3.815a3.055 3.055 0 0 1 3.013-3.085 3.055 3.055 0 0 1 3.012 3.085 3.055 3.055 0 0 1 -3.012 3.085 3.055 3.055 0 0 1 -3.013-3.085z" fill="#324c88" transform="translate(2.5)"/></g></svg>