<svg id="Layer_1" data-name="Layer 1" xmlns="http://www.w3.org/2000/svg" viewBox="0 0 478.84 477.46"><defs><style>.cls-1{fill:#e52a85;}.cls-2{fill:#462550;}</style></defs><title>IRAN ZAMIN BANK</title><circle class="cls-1" cx="235.3" cy="243.42" r="87.67"/><path class="cls-2" d="M394.73,175.23c14.47-10.43,49.56-33.63,92.72-47.46,95.4-30.58,193.6,30.6,209,129.59,7.7,49.66.38,112.89-51.11,179.36a1.06,1.06,0,0,1-1.9-.75c2.91-17.13,12.82-85,.09-149.07-12.33-62-61.93-109.52-124.79-116.6-30.91-3.48-71.06-2.38-122.33,8.38A2,2,0,0,1,394.73,175.23Z" transform="translate(-220.16 -41.74)"/><path class="cls-2" d="M569.55,223c9.42,15.14,30.19,51.72,41.07,95.73,24,97.25-43.65,191.08-143.45,199.69-50.07,4.32-112.65-7.27-175.48-63.15a1.06,1.06,0,0,1,.88-1.85c16.9,4.06,83.94,18.55,148.72,10.19C504,455.47,554.74,409.2,566.07,347c5.57-30.6,7.19-70.74-.07-122.62A2,2,0,0,1,569.55,223Z" transform="translate(-220.16 -41.74)"/><path class="cls-2" d="M530.88,382.42C517,393.66,483.32,418.82,441,435.1c-93.5,36-195-19.5-216-117.45-10.52-49.14-6.82-112.68,40.8-182a1.06,1.06,0,0,1,1.94.64c-1.92,17.27-7.95,85.59,8.42,148.83C292,346.37,344.24,390.93,407.4,394.42c31.06,1.71,71.08-1.68,121.65-15.34A2,2,0,0,1,530.88,382.42Z" transform="translate(-220.16 -41.74)"/><path class="cls-2" d="M353.53,344.62c-10.25-14.59-33-50-46.35-93.28C277.75,155.58,340.1,58.11,439.27,43.95,489,36.84,552.15,44.92,618,97.2a1.06,1.06,0,0,1-.77,1.89c-17.1-3.11-84.84-13.84-149.06-1.87C406,108.81,357.92,157.84,350.09,220.61c-3.85,30.87-3.23,71,6.91,122.42A2,2,0,0,1,353.53,344.62Z" transform="translate(-220.16 -41.74)"/></svg>