<svg height="24" viewBox="0 0 24 24" width="24" xmlns="http://www.w3.org/2000/svg" xmlns:xlink="http://www.w3.org/1999/xlink"><clipPath id="a"><path d="m0 0h20v20h-20z"/></clipPath><path d="m0 0h24v24h-24z" fill="none"/><g clip-path="url(#a)" transform="translate(2 2)"><path d="m0 0h20v20h-20z" fill="none"/><g fill-rule="evenodd"><path d="m18.458-25.583a3.96 3.96 0 0 1 -3.958-3.959 3.96 3.96 0 0 1 3.958-3.958 3.96 3.96 0 0 1 3.958 3.958 3.96 3.96 0 0 1 -3.958 3.959z" fill="#ab7341" transform="translate(-8.458 39.542)"/><path d="m5-33-5-5 10-10 5 5 5 5-5 5-5 5-5-5h10v-10h-10z" fill="#0c7309" transform="translate(0 48)"/></g></g></svg>