<svg height="24" viewBox="0 0 24 24" width="24" xmlns="http://www.w3.org/2000/svg" xmlns:xlink="http://www.w3.org/1999/xlink"><linearGradient id="a" gradientUnits="objectBoundingBox" x1=".086" x2=".912" y1=".501" y2=".501"><stop offset="0" stop-color="#ece482"/><stop offset="1" stop-color="#d8ac4e"/></linearGradient><clipPath id="b"><path d="m0 0h20v20h-20z"/></clipPath><path d="m0 0h24v24h-24z" fill="none"/><g clip-path="url(#b)" transform="translate(2 2)"><path d="m0 0h20v20h-20z" fill="none"/><g fill-rule="evenodd"><path d="m13.572-28h-1.616v-1.226h-.737v-1.513h-3.259v-3.856h-.766v-.339h-.949v-.518h-.6v-.772h.6v-.679h.926l-.271-.416h-1.542c-.215 0-.355.267-.355.267l-.265-.081a1.858 1.858 0 0 1 .1-.32c.042-.118.136-.349.136-.349l.013-.031c.021-.051.043-.1.067-.151a1.453 1.453 0 0 1 .63-.706.9.9 0 0 1 .117-.047.927.927 0 0 1 .222-.041h.069l.006-.016.01-.022a.8.8 0 0 1 .105-.173.746.746 0 0 1 .092-.095 1.015 1.015 0 0 1 .463-.237l-.006-1.449h.781v-1.024h.764v-.684h.465l-.54-.935h-.726l1.209-1.211h2.079v-2.291h1.177v-1.085h1.586v1.083h1.177v2.291h2.079l1.209 1.211h-.722l-.54.935h.465v.684h.764v1.024h.781l-.008 1.448a1.015 1.015 0 0 1 .463.237.746.746 0 0 1 .092.095.8.8 0 0 1 .105.173l.01.022.006.016h.069a.927.927 0 0 1 .222.041.9.9 0 0 1 .117.047 1.453 1.453 0 0 1 .63.706c.024.049.046.1.067.151l.012.031s.095.232.136.349a1.858 1.858 0 0 1 .1.32l-.265.081s-.14-.267-.355-.267h-1.547l-.267.411h.926v.679h.6v.772h-.6v.518h-.947v.339h-.768v3.856h-3.259v1.513h-.737z" fill="url(#a)" transform="translate(-2.764 48)"/><path d="m14-27.867h-.937v-1.226h-.735v-1.183h.737v.679h.934v-.679h.737v1.183h-.736zm3.987-2.742h-8.916v-3.707h8.912zm-1.468-.445a.121.121 0 0 1 0 .062.441.441 0 0 1 -.033.074.276.276 0 0 1 -.061.076.066.066 0 0 1 -.039.023.108.108 0 0 1 -.04-.026l-.057-.044a.437.437 0 0 1 -.043-.036.046.046 0 0 1 -.018-.029l.027-.057.045-.092q.015-.029.054-.089l.018-.026.018.014.024.014a.568.568 0 0 1 .083.075.129.129 0 0 1 .027.06zm-2.232-.413a2.029 2.029 0 0 0 .4-.039 2.468 2.468 0 0 0 .344-.093 1.192 1.192 0 0 0 .286-.149 1.125 1.125 0 0 0 .223-.2l.083-.109.039-.051c.008-.009.01-.008.012-.006a.016.016 0 0 1 0 .011v.032l-.013.11a1.242 1.242 0 0 0 -.01.149.551.551 0 0 0 .037.218.135.135 0 0 0 .135.086q.063 0 .122-.093a.843.843 0 0 0 .1-.262l.007-.037a.2.2 0 0 0 0-.034c0-.019 0-.029-.015-.029s-.014.009-.019.026l-.018.043q-.033.089-.074.089a.163.163 0 0 1 -.092-.026.186.186 0 0 1 -.066-.163v-.043q0-.052.009-.153t.027-.225l.063-.3q0-.022.009-.044l.07-.047.278-.211.238-.156q.1-.068.2-.141.161-.118.241-.179.107-.082.152-.12t.088-.081q.054-.051.1-.106a.926.926 0 0 0 .08-.107.406.406 0 0 0 .057-.107.044.044 0 0 0 .006-.023s-.074.067-.223.189q-.116.1-.235.194t-.262.2l-.381.264a3.887 3.887 0 0 0 -.353.282.362.362 0 0 0 -.069.079l-.01.016a.678.678 0 0 0 -.037.071l-.013.026a1.124 1.124 0 0 0 -.066.146l-.042.163a.708.708 0 0 1 -.1.212.715.715 0 0 1 -.229.2 1.831 1.831 0 0 1 -.8.226q-.1.009-.271.009a.578.578 0 0 1 -.39-.086.164.164 0 0 1 -.043-.1c0-.037-.007-.056-.013-.056s-.028.032-.037.1a1.4 1.4 0 0 0 -.013.189.242.242 0 0 0 .046.162.3.3 0 0 0 .174.076 1.223 1.223 0 0 0 .209.014zm-3.06-.775a.723.723 0 0 1 -.015.115q-.015.08-.03.14l-.036.14c-.02.053-.036.093-.048.118a.881.881 0 0 1 -.049.089.214.214 0 0 1 -.046.053.522.522 0 0 1 -.08.047l-.107.043a.592.592 0 0 1 -.07.017.476.476 0 0 1 -.07.012c-.01 0-.016 0-.018-.01a.03.03 0 0 1 .006-.024.3.3 0 0 1 .076-.072l.121-.089q.069-.06.1-.095a.641.641 0 0 0 .089-.117.372.372 0 0 0 .025-.059l.052-.145.036-.1q.006-.023.018-.056c.008-.022.018-.033.03-.033a.062.062 0 0 1 .015.029zm2.179.325q.063-.061.074-.075a.437.437 0 0 0 .074-.118.894.894 0 0 0 .046-.19 1.063 1.063 0 0 0 .022-.18v-.157q0-.082.01-.169v-.1-.007l.023-.014.088-.06.213-.144.247-.162q.107-.071.21-.147.167-.123.251-.188.112-.086.158-.127t.092-.086q.057-.054.109-.114a1.03 1.03 0 0 0 .086-.116.473.473 0 0 0 .063-.117.054.054 0 0 0 .007-.026s-.078.071-.234.2q-.122.1-.246.206t-.273.207l-.4.276a2.989 2.989 0 0 0 -.291.221.4.4 0 0 0 -.073.085.754.754 0 0 0 -.053.1l-.005.012-.1.234a.207.207 0 0 0 -.015.074v.3a.434.434 0 0 1 -.03.178.278.278 0 0 1 -.034.054.134.134 0 0 1 -.034.032l-.018.008a.087.087 0 0 1 -.042-.006l-.03.042a.129.129 0 0 1 -.062.045.03.03 0 0 1 -.036-.006l-.039.039a.106.106 0 0 1 -.072.033.52.52 0 0 1 -.08-.006l-.128.089a.211.211 0 0 1 -.119.033.194.194 0 0 1 -.179-.086.269.269 0 0 1 -.033-.142c0-.022 0-.058.006-.109s.012-.119.021-.178l.051-.34.012-.072a.132.132 0 0 0 0-.045l-.012.006q-.027.053-.071.156t-.048.114q-.021.137-.054.394t-.033.291a.66.66 0 0 0 .006.077.309.309 0 0 0 .015.071.192.192 0 0 0 .188.148.238.238 0 0 0 .2-.123q.083-.123.134-.123h.043a.131.131 0 0 0 .034 0 .179.179 0 0 0 .058-.036.516.516 0 0 1 .054-.04.1.1 0 0 1 .04-.013.08.08 0 0 0 .036-.011c.016-.015.029-.027.04-.035a.151.151 0 0 1 .033-.019l.067-.032.018-.014zm-2.468-1.123a.021.021 0 0 0 0-.019.061.061 0 0 0 -.021-.016.338.338 0 0 0 -.1.04.922.922 0 0 0 -.11.066q-.057.039-.092.069a1.634 1.634 0 0 0 -.152.154 1.03 1.03 0 0 0 -.158.236.492.492 0 0 0 -.057.2.126.126 0 0 0 .024.081.173.173 0 0 0 .069.049.228.228 0 0 0 .042.015l.06.016q.042.012.042.036a.181.181 0 0 1 -.031.092.572.572 0 0 1 -.091.109.516.516 0 0 1 -.149.1.591.591 0 0 1 -.247.054.394.394 0 0 1 -.24-.063.2.2 0 0 1 -.093-.179.893.893 0 0 1 .086-.3l.036-.076q.036-.075.054-.108c.022-.041.036-.071.043-.088l.028-.066a.062.062 0 0 0 .006-.03c0-.016-.007-.024-.021-.024s-.013.007-.022.022l-.025.043-.069.127-.086.17a1.666 1.666 0 0 0 -.092.219.932.932 0 0 0 -.036.139.827.827 0 0 0 -.012.142.444.444 0 0 0 .018.12.345.345 0 0 0 .063.12.326.326 0 0 0 .277.113.548.548 0 0 0 .289-.076.645.645 0 0 0 .122-.092.978.978 0 0 0 .1-.108.975.975 0 0 0 .134-.274.932.932 0 0 0 .051-.279.13.13 0 0 0 -.048-.119.118.118 0 0 0 -.031-.016l-.037-.013-.054-.024a.073.073 0 0 1 -.021-.046.162.162 0 0 1 .04-.07.76.76 0 0 1 .121-.116.516.516 0 0 1 .122-.081.249.249 0 0 1 .1-.027.036.036 0 0 1 .019.007l.022.015c.012 0 .026-.011.042-.032 0-.005.015-.027.034-.063a.939.939 0 0 0 .04-.086.349.349 0 0 0 .018-.063zm1.244 1.158-.042.106a.619.619 0 0 1 -.064.107.287.287 0 0 1 -.061.066.46.46 0 0 1 -.089.039l-.063.023-.1.031a.413.413 0 0 1 -.1.02l-.012-.006q0-.02.107-.086l.116-.08q.03-.02.065-.049a.738.738 0 0 0 .076-.072.24.24 0 0 0 .055-.089.075.075 0 0 1 0-.017l-.078.006a.127.127 0 0 1 -.089-.033.08.08 0 0 1 -.03-.073.248.248 0 0 1 .015-.054c.008-.021.026-.059.054-.115a.652.652 0 0 1 .054-.092c.026-.034.051-.052.075-.052a.137.137 0 0 1 .1.049.168.168 0 0 1 .045.117.407.407 0 0 1 -.006.069l-.01.06c0 .017-.007.038-.013.062a.349.349 0 0 1 -.021.062zm-.449-.382a.729.729 0 0 1 -.015.115q-.015.08-.03.14l-.036.14q-.03.08-.048.118a.889.889 0 0 1 -.049.089.219.219 0 0 1 -.046.053.53.53 0 0 1 -.08.047l-.107.043a.593.593 0 0 1 -.07.017.473.473 0 0 1 -.07.011c-.01 0-.016 0-.018-.01a.03.03 0 0 1 .006-.024.3.3 0 0 1 .076-.072l.121-.089q.068-.06.1-.095a.641.641 0 0 0 .089-.117.377.377 0 0 0 .025-.059l.052-.145.036-.1c0-.015.01-.034.018-.056s.018-.033.03-.033a.063.063 0 0 1 .016.027zm4.612.227c0-.023 0-.06.006-.112s.012-.122.021-.183l.051-.349.012-.074a.135.135 0 0 0 0-.046l-.012.006q-.027.054-.072.16t-.048.117q-.021.14-.054.405t-.033.3a.551.551 0 0 0 .037.218.135.135 0 0 0 .136.086q.063 0 .122-.093a.843.843 0 0 0 .1-.262l.007-.037a.2.2 0 0 0 0-.034c0-.019 0-.029-.015-.029s-.014.009-.019.026l-.013.046q-.033.089-.074.089a.162.162 0 0 1 -.092-.026.186.186 0 0 1 -.065-.163v-.043zm-4.985-.853a.121.121 0 0 1 0 .062.449.449 0 0 1 -.033.075.275.275 0 0 1 -.061.076.066.066 0 0 1 -.039.023.106.106 0 0 1 -.04-.026l-.057-.044a.432.432 0 0 1 -.043-.036.046.046 0 0 1 -.018-.029l.027-.057.045-.092.054-.089.018-.026.018.014.024.014a.56.56 0 0 1 .083.074.129.129 0 0 1 .023.061zm1.561-.381a.13.13 0 0 0 -.027-.06.562.562 0 0 0 -.083-.074l-.024-.014-.018-.014-.018.026-.054.089-.045.092-.027.057a.047.047 0 0 0 .018.029.439.439 0 0 0 .043.036l.057.044a.1.1 0 0 0 .04.026.066.066 0 0 0 .039-.023.277.277 0 0 0 .061-.076.444.444 0 0 0 .033-.074.121.121 0 0 0 0-.062zm.307-.017a.121.121 0 0 1 0 .062.444.444 0 0 1 -.033.074.273.273 0 0 1 -.061.076.065.065 0 0 1 -.039.023.107.107 0 0 1 -.04-.026l-.056-.044a.433.433 0 0 1 -.043-.036.047.047 0 0 1 -.018-.029l.027-.057.045-.092q.023-.046.054-.089l.018-.026a.11.11 0 0 0 .018.014l.024.014a.566.566 0 0 1 .083.074.13.13 0 0 1 .022.062zm2.736-.021a.122.122 0 0 1 0 .062.441.441 0 0 1 -.033.075.277.277 0 0 1 -.061.076.066.066 0 0 1 -.039.023.106.106 0 0 1 -.04-.026l-.057-.044a.413.413 0 0 1 -.043-.036.046.046 0 0 1 -.018-.029l.027-.057.045-.092c.01-.02.036-.058.054-.089l.018-.026.018.014.024.014a.553.553 0 0 1 .083.075.128.128 0 0 1 .023.059zm-2.891-.334a.129.129 0 0 0 -.027-.06.546.546 0 0 0 -.083-.074l-.024-.014a.112.112 0 0 1 -.018-.014l-.018.026-.054.089-.045.092-.027.057a.046.046 0 0 0 .018.029c.012.011.026.024.043.037l.057.044a.106.106 0 0 0 .04.024.066.066 0 0 0 .039-.023.276.276 0 0 0 .061-.076.447.447 0 0 0 .033-.075.121.121 0 0 0 0-.062zm-1.4-10.2.53.917v4.346l1.16.844v3.09h-1.354v-2.854l-1.331-1.331v-3.209l-.778-1.349h-.713l.458-.458zm-1.159 5.324 1.165 1.165v2.708h-1.097l-1.65-2.537h-2.885c.23-.6.608-.959 1.085-.719 0-.381.142-.618.785-.618zm-1.76 1.67 1.433 2.2h-.687l-1.43-2.2zm6.294 2.2h-1.354v-3.09l1.16-.844v-4.346l.53-.917h2.026l.458.458h-.712l-.779 1.35v3.213l-1.332 1.325zm3.077-2.537-1.65 2.537h-1.096v-2.708l1.165-1.165h2.595c.643 0 .78.237.785.618.476-.241.855.12 1.085.719zm-1.255 2.537 1.433-2.2h.679l-1.43 2.2zm-8.152-.6h-.8v-.379h.555zm10.42 0h-.8l.246-.379h.555zm-5.161-10.868h1.176v2l-.635 1.1v4.266l-.827.6v-.989l.3-.216v-6.162h-.927v6.162l.3.216v.989l-.827-.6v-4.266l-.635-1.1v-2h1.176v-1.083h.9zm-4.641 7.262h.334v-.994h-.334zm.675 0h.333v-3.1l-.638-1.106h-.378l.683 1.183zm7.374 0h.333v-.994h-.333zm-.342 0h-.333v-3.1l.638-1.106h.378l-.683 1.183z" fill="#1f261a" transform="translate(-3.527 47.533)"/></g></g></svg>