<svg fill="none" height="48" viewBox="0 0 48 48" width="48" xmlns="http://www.w3.org/2000/svg"><g fill="#f29200"><path d="m42.4668 9.78094 5.5298-2.0734v-3.48294l-5.7715 2.88743 5.7715-4.63791v-2.47412h-2.3043l-5.1682 5.60239 3.4346-5.60239h-3.2489l-2.9244 5.33495c2.0789.84349 3.7453 2.44839 4.6814 4.44599z"/><path d="m47.9966 19.2412-5.3999-2.2679c.365-.8595.5986-1.7916.6742-2.7738.1078-1.3973-.1167-2.7436-.6059-3.9618l5.3316-1.28938v2.32768l-3.1809.8621 3.1809.6089v2.334l-2.5125.0981 2.5125.9302z"/><path d="m0 25.841 25.9014-10.1456c.524 2.0634 1.7799 3.8559 3.4943 5.0598l-16.0446 27.2414h-6.76135l14.39085-20.8679-20.9806 20.8713v-10.4648l17.9716-14.0659-17.9716 9.0398z"/><path d="m18.5614 47.9966 11.3363-26.9136c1.1444.6924 2.4638 1.1352 3.8885 1.2448.9245.0712 1.8266-.0029 2.6844-.2028l6.8254 25.8716h-5.2937l-3.6392-17.4456-.2388 17.4456h-5.4064l1.255-17.0929-4.8613 17.0929z"/><path d="m37.1393 21.9408 10.8115 25.9491.0458.1067v-12.048l-5.8038-10.0069 5.8038 5.3841v-4.1322l-3.6314-4.8604 3.6314 1.8057v-3.1809l-5.6765-3.3949c-1.0735 2.0832-2.9449 3.666-5.1808 4.3777z"/><path d="m39.354 0-1.9853 5.17821c-.7033-.24455-1.4487-.40358-2.2258-.46336-1.2763-.09839-2.5102.08009-3.6426.48453l-1.2554-5.19938h2.5763l.5963 2.2147.0833-2.2147h2.3668l-.1719 2.84968.8827-2.84968z"/><path d="m31.0527 5.37242-2.104-5.37242h-3.0545l1.1192 2.51102-2.0207-2.51102h-4.035l3.3353 3.64883-5.1444-3.64883h-7.9498l15.6822 8.99094c.9682-1.61748 2.4346-2.88915 4.1717-3.61852z"/><path d="m5.74311 0 20.87849 9.4543c-.5312 1.0231-.8695 2.1672-.9637 3.3888-.0609.7906-.0151 1.5646.1242 2.3085l-25.7821 6.9345v-6.1221l16.8458-2.2685-16.8458-1.0758v-5.05432l18.0228 2.34113-18.0228-5.19166v-4.71485z"/></g></svg>