<svg xmlns="http://www.w3.org/2000/svg" viewBox="0 0 256 256"><path fill="#f29200" d="M31 0H0V25L96 53 0 40V67l90 6L0 85v33L137 81a47 47 0 015-31L31 0ZM166 29A47 47 0 00143 48L60 0h42l28 20L112 0h21l11 13-6-13h16l12 29ZM210 0H195l-5 15 1-15H179l-1 12-3-12H161l7 28a47 47 0 0132 0L210 0ZM198 117a47 47 0 0028-23l30 18v17l-19-10 19 26v22l-31-29 31 54v64L198 117ZM99 256h35l26-91-7 91h29l1-93 20 93h28L195 118a47 47 0 01-35-5L99 256ZM0 138v35l96-48L0 200v56L112 145 35 256H71l86-145A47 47 0 01138 84L0 138Zm256-35V86l-13-5 13-1V68l-17-3 17-5V48l-28 7a47 47 0 01-1 37l29 11ZM227 52A47 47 0 00202 29L217 0h18L216 30 244 0h12V13L225 38l31-15V41L227 52Z"/></svg>