<svg fill="none" height="48" viewBox="0 0 48 48" width="48" xmlns="http://www.w3.org/2000/svg" xmlns:xlink="http://www.w3.org/1999/xlink"><linearGradient id="a"><stop offset="0" stop-color="#ec008c" stop-opacity=".407843"/><stop offset="1" stop-color="#621a4f"/></linearGradient><radialGradient id="b" cx="0" cy="0" gradientTransform="matrix(12.5000011 -6.49999181 7.00840198 13.4777143 18.5001 12)" gradientUnits="userSpaceOnUse" r="1" xlink:href="#a"/><radialGradient id="c" cx="0" cy="0" gradientTransform="matrix(-.49999808 -10.50000207 55.13592352 -2.62550956 46.0001 34)" gradientUnits="userSpaceOnUse" r="1" xlink:href="#a"/><radialGradient id="d" cx="0" cy="0" gradientTransform="matrix(11.50000466 3.99999981 -3.7641878 10.82204482 13.0001 43.5)" gradientUnits="userSpaceOnUse" r="1" xlink:href="#a"/><radialGradient id="e" cx="0" cy="0" gradientTransform="matrix(-11.9031 0 0 -11.9031 21.9706 24.4218)" gradientUnits="userSpaceOnUse" r="1"><stop offset="0" stop-color="#ffe293"/><stop offset="1" stop-color="#faa61a"/></radialGradient><path clip-rule="evenodd" d="m37.1744 37.7057c-3.3117 3.1862-7.7329 4.9678-12.3285 4.9678-7.339 0-13.957-4.5436-16.59398-11.3924-.0501-.1353-.166-.2361-.3069-.2668-.1399-.0354-.2886.0029-.3938.1016l-7.408904 6.7613c-.0878997.0781-.1392997.1894-.1418997.3069-.0052.1173.0385.2316.1206997.3154 4.759704 5.0257 11.384884 7.8761 18.306784 7.8761 7.6568 0 14.9111-3.4878 19.6927-9.468.0095-.0112.0147-.0255.0147-.0402 0-.0342-.0281-.0623-.0623-.0623-.0183 0-.0358.0081-.0476.0221-.2724.2964-.5561.5892-.851.8785zm-9.4263-23.4928c7.5848 2.1926 12.8434 9.1867 12.8434 17.0821 0 4.0675-1.3957 8.0145-3.9527 11.1778-.0927.1111-.1223.2623-.0783.4001.0394.139.1474.2486.2858.29l9.5597 3.0335c.0423.0132.0864.0199.1307.0199.1929 0 .3641-.1273.4197-.3121.6921-2.3305 1.0436-4.7489 1.0436-7.18 0-12.4076-9.1564-23.0642-21.4225-24.9325-.0312-.0055-.0617.0139-.0699.0444-.0015.0054-.0022.011-.0022.0166 0 .0293.0203.0549.0488.0617.4008.0847.7987.1842 1.1939.2985zm-15.6308 19.9111c-.3448-1.3955-.5191-2.8277-.5191-4.2652 0-9.7546 8.0268-17.7815 17.7815-17.7815.9245 0 1.8476.0721 2.7608.2156.0213.0032.0428.0047.0642.0047.2416 0 .4403-.1987.4403-.4403 0-.03-.003-.0599-.0091-.0893l-2.1529-9.79473c-.024-.1147-.0945-.2144-.1947-.2752-.0989-.0641-.2202-.0841-.3345-.055-11.3082 2.7027-19.351 12.89423-19.351 24.52103 0 3.1407.5869 6.254 1.7304 9.1792.0117.0292.0435.0456.0741.0381.027-.007.046-.0315.046-.0594 0-.0072-.0012-.0143-.0037-.021-.1228-.3853-.235-.7812-.3323-1.177z" fill="#832d6a" fill-rule="evenodd"/><path d="m31.8124 11.2112-1.8903-8.59443c-.0135-.0663-.0542-.1239-.1122-.1587-.0573-.0363-.1275-.0464-.1927-.0276-10.5446 2.7513-18.0505 12.21553-18.3276 23.10973-.0013.0322.023.0602.055.0635.0313.0051.0614-.0156.0678-.0466 2.1748-9.0583 10.8747-15.1285 20.1269-14.0432.0098.0012.0196.0018.0294.0018.137 0 .2498-.1128.2498-.2498 0-.0184-.0021-.0367-.0061-.0547z" fill="url(#b)"/><path d="m37.7419 42.7269 8.387 2.6608c.0243.0077.0497.0115.0752.0115.1122 0 .2116-.075.2423-.1829 2.8828-10.5055-1.5599-21.7318-10.851-27.4196-.0092-.0049-.0194-.0075-.0299-.0075-.0348 0-.0635.0287-.0635.0636 0 .0161.0062.0317.0172.0434 6.7552 6.4136 7.6618 16.9813 2.0978 24.4517-.0483.065-.0617.1498-.036.2265.0264.0735.0862.1301.1609.1525z" fill="url(#c)"/><path d="m7.48569 32.1044-6.498703 5.9272c-.0517.0447-.0817.1095-.082647.1778-.001253.0678.024747.1334.072047.1821 7.656803 7.7539 19.604813 9.5213 29.178613 4.3162.0291-.015.0413-.0508.0275-.0804-.0117-.0291-.0439-.0448-.074-.036-8.9325 2.6457-18.5398-1.8532-22.22691-10.4086-.0306-.0744-.0968-.1286-.1757-.1439-.0798-.0184-.1635.0066-.2202.0656z" fill="url(#d)"/><g clip-rule="evenodd" fill-rule="evenodd"><path d="m24.2643 20.0035c4.79-.7809 9.3128 2.4739 10.0938 7.2639.7809 4.7899-2.4739 9.3128-7.2638 10.0937-4.79.781-9.3129-2.4738-10.0938-7.2638-.781-4.7899 2.4738-9.3128 7.2638-10.0938z" fill="#faa61a"/><path d="m33.2945 25.8627c-1.5534-4.2038-6.2275-6.3557-10.4314-4.8023s-6.3557 6.2276-4.8023 10.4314c1.5534 4.2039 6.2275 6.3557 10.4314 4.8023 4.2038-1.5534 6.3557-6.2275 4.8023-10.4314z" fill="url(#e)"/></g></svg>