<svg height="24" viewBox="0 0 24 24" width="24" xmlns="http://www.w3.org/2000/svg" xmlns:xlink="http://www.w3.org/1999/xlink"><clipPath id="a"><path d="m0 0h20v20h-20z"/></clipPath><path d="m0 0h24v24h-24z" fill="none"/><g clip-path="url(#a)" transform="translate(2 2)"><path d="m0 0h20v20h-20z" fill="none"/><path d="m20 1.344a9.912 9.912 0 0 0 -4.138 2.856c-2.424 2.577-4.1 6.168-5.055 10.723-.019.092-.219-.054-.244.038-2.063-.907-3.572-3.761-4.317-6.84a20.13 20.13 0 0 0 -.946-3.087c1.661-.458 3.422.587 5.3 3.446.456-1.578 3.563-6.186 3.563-6.186l.033-.122a8.533 8.533 0 1 0 -5.672 14.911c5.746 0 7.856-4.192 9.331-8.724.715-2.338 1.293-4.848 2.145-7.015" fill="#209b1c" transform="translate(0 1.458)"/></g></svg>