<svg xmlns="http://www.w3.org/2000/svg" id="Component_143_1" width="24" height="24" viewBox="0 0 24 24">
    <defs>
        <clipPath id="clip-path">
            <path d="M0 0H20V20H0z" class="cls-1"/>
        </clipPath>
        <style>
            .cls-1{fill:none}
        </style>
    </defs>
    <path id="Rectangle_1289" d="M0 0H24V24H0z" class="cls-1"/>
    <g id="Bank_Mehr_Eghtesad_Color" clip-path="url(#clip-path)" transform="translate(2 2)">
        <path id="Boundary" d="M0 0H20V20H0z" class="cls-1"/>
        <path id="Shape" fill="#029a4c" d="M7.784 17.792l5.534-5.563c1.627-1.636 4.4-.96 5.45 1.428-1.1-.1-2.174-.27-3.085.66L9.991 20zM5.678 15.7L0 10.005 2.206 7.8l5.556 5.54c1.634 1.629.959 4.4-1.426 5.456.099-1.106.27-2.18-.658-3.096zm6.56-9.044c-1.634-1.629-.959-4.4 1.425-5.456-.1 1.1-.269 2.176.659 3.089L20 9.99l-2.206 2.21zM1.245 6.344c1.1.1 2.174.269 3.086-.66L10.023 0l2.207 2.209L6.7 7.771a2.985 2.985 0 0 1-2.142.9 3.7 3.7 0 0 1-3.313-2.327z"/>
        <path id="Shape-2" fill="#eb8c30" d="M0 3.126A3.125 3.125 0 1 1 3.125 6.25 3.126 3.126 0 0 1 0 3.126" transform="translate(6.875 6.875)"/>
    </g>
</svg>
