<svg xmlns="http://www.w3.org/2000/svg" id="Component_142_1" width="24" height="24" viewBox="0 0 24 24">
    <defs>
        <clipPath id="clip-path">
            <path d="M0 0H20V20H0z" class="cls-1"/>
        </clipPath>
        <style>
            .cls-1{fill:none}
        </style>
    </defs>
    <path id="Rectangle_1289" d="M0 0H24V24H0z" class="cls-1"/>
    <g id="Bank_Mehr_Iran_Color" clip-path="url(#clip-path)" transform="translate(2 2)">
        <path id="Boundary" d="M0 0H20V20H0z" class="cls-1"/>
        <path id="Shape" fill="#209b1c" d="M20 1.344A9.912 9.912 0 0 0 15.862 4.2c-2.424 2.577-4.1 6.168-5.055 10.723-.019.092-.219-.054-.244.038-2.063-.907-3.572-3.761-4.317-6.84A20.13 20.13 0 0 0 5.3 5.034c1.661-.458 3.422.587 5.3 3.446.456-1.578 3.563-6.186 3.563-6.186l.033-.122a8.533 8.533 0 1 0-5.672 14.911c5.746 0 7.856-4.192 9.331-8.724.715-2.338 1.293-4.848 2.145-7.015" transform="translate(0 1.458)"/>
    </g>
</svg>
