<svg height="24" viewBox="0 0 24 24" width="24" xmlns="http://www.w3.org/2000/svg" xmlns:xlink="http://www.w3.org/1999/xlink"><clipPath id="a"><path d="m0 0h20v20h-20z"/></clipPath><path d="m0 0h24v24h-24z" fill="none"/><g clip-path="url(#a)" transform="translate(2 2)"><path d="m0 0h20v20h-20z" fill="none"/><path d="m7.784 17.792 5.534-5.563c1.627-1.636 4.4-.96 5.45 1.428-1.1-.1-2.174-.27-3.085.66l-5.692 5.683zm-2.106-2.092-5.678-5.695 2.206-2.205 5.556 5.54c1.634 1.629.959 4.4-1.426 5.456.099-1.106.27-2.18-.658-3.096zm6.56-9.044c-1.634-1.629-.959-4.4 1.425-5.456-.1 1.1-.269 2.176.659 3.089l5.678 5.701-2.206 2.21zm-10.993-.312c1.1.1 2.174.269 3.086-.66l5.692-5.684 2.207 2.209-5.53 5.562a2.985 2.985 0 0 1 -2.142.9 3.7 3.7 0 0 1 -3.313-2.327z" fill="#029a4c"/><path d="m0 3.126a3.125 3.125 0 1 1 3.125 3.124 3.126 3.126 0 0 1 -3.125-3.124" fill="#eb8c30" transform="translate(6.875 6.875)"/></g></svg>