<svg fill="none" height="48" viewBox="0 0 48 48" width="48" xmlns="http://www.w3.org/2000/svg"><path clip-rule="evenodd" d="m16.2753 10.5665c-.6697.7454-.8724 1.1859-.908 1.9721-.0408.9055.011 1.0448 1.0071 2.7152.7925 1.3294.9592 1.4421 1.5411 1.0448.1402-.0957.4528-.3098.6943-.4756 1.0621-.7293 2.4835-1.2849 3.8491-1.5041 1.182-.1898 1.1946-.2248.7365-2.0718-.3918-1.5811-.4792-1.7798-1.0255-2.33279-.741-.74965-1.7923-1.04037-3.131-.86458-1.0855.14252-1.9601.62263-2.7636 1.51677zm8.572 1.5899c-.4944 1.9121-.4748 1.9711.717 2.1625 1.585.2546 3.1384.9198 4.3833 1.877.4922.3788.8951.3642 1.1635-.0413 1.6664-2.5195 1.936-3.7007 1.1297-4.9488-1.0508-1.62606-2.6942-2.39083-4.6245-2.15229-1.5761.19545-2.1975.89142-2.769 3.10289zm-15.48077 9.2553c.43729.9276 1.02207 1.2905 2.80907 1.7422 1.8729.4734 1.9947.4412 2.1311-.5594.2106-1.5445.8557-3.1081 1.8297-4.4347.6226-.848.5762-.9427-.8948-1.8224-1.8075-1.081-2.3907-1.2333-3.4032-.8884-2.17855.7426-3.46704 3.8507-2.47187 5.9627zm23.41507-5.0743c-1.4647.8762-1.5187.9839-.9071 1.8114.9652 1.3059 1.6093 2.8681 1.8442 4.4747.1417.969.2576.9981 2.1125.5332 2.0687-.5186 2.7486-1.0552 3.0465-2.4038.6495-2.938-1.7517-5.9782-4.2365-5.3639-.4051.0998-.6488.2242-1.8596.9484zm-22.84391 9.4922c-2.51163 2.5238.46281 7.8441 3.73541 6.6806.3972-.1415 2.5618-1.409 2.6909-1.576.2226-.2881.161-.5818-.2321-1.1099-.9408-1.2627-1.6269-2.9338-1.8293-4.4552-.1291-.9703-.2813-1.0113-2.0519-.5552-1.6209.4175-1.7927.4927-2.31301 1.0157zm23.78511-.5009c-.2353 1.6385-.8683 3.1839-1.8555 4.5297-.61.8316-.5621.9226.9667 1.8338 2.2865 1.3622 3.2312 1.3483 4.7205-.0698 2.0064-1.9112 1.9047-5.4072-.1841-6.3389-.2419-.1077-2.887-.8161-3.0152-.8073-.0164.001-.103.0338-.192.0727-.2674.1165-.3716.3013-.4404.7798zm-17.8576 8.2613c-.868 1.511-.6899 2.7339.5869 4.026 1.9345 1.9582 5.3055 1.8123 6.277-.2716.1402-.3013.7827-2.7592.7824-2.9935-.0006-.3572-.2627-.5426-.9137-.6466-1.639-.2621-3.1535-.8859-4.4063-1.8154-.4686-.3474-.7685-.4343-1.0341-.2997-.1136.0578-.6769.9298-1.2922 2.0008zm9.6461.097c-1.1246.1664-1.1476.2365-.6813 2.0817.3956 1.5646.5026 1.8056 1.0368 2.3356 2.1391 2.1214 6.8021.1873 6.8093-2.8246.0019-.7589-.2863-1.3994-1.4889-3.3087-.3458-.5492-.6814-.5962-1.2339-.1727-1.2424.9526-2.9107 1.6619-4.442 1.8887z" fill="#ff7f31" fill-rule="evenodd"/><g fill="#37389a"><path d="m24 0c-6.1624 0-11.2671 4.56461-12.1145 10.4943 3.2077-2.9126 7.4567-4.68707 12.1145-4.68707s8.9068 1.77447 12.1145 4.68707c-.8474-5.92969-5.9521-10.4943-12.1145-10.4943z"/><path d="m10.5115 11.883c-2.86053 3.2183-4.60043 7.4649-4.60043 12.117s1.7399 8.8987 4.60043 12.117c-5.93806-.8399-10.5115-5.9486-10.5115-12.117s4.57344-11.2771 10.5115-12.117z"/><path d="m48 24c0-6.1684-4.5734-11.2771-10.5115-12.117 2.8607 3.2183 4.6006 7.4649 4.6006 12.117s-1.7399 8.8987-4.6006 12.117c5.9381-.8399 10.5115-5.9486 10.5115-12.117z"/><path clip-rule="evenodd" d="m23.2193 15.0273c-5.6416.4213-9.4976 6.1505-7.8262 11.6277 2.2405 7.3403 12.176 8.6519 16.2207 2.1413 3.9178-6.3067-.9696-14.3237-8.3945-13.769zm.0692 13.7995c.0475.1244.0352 2.2046-.0134 2.2348-.1409.0874-1.8094-2.123-1.7165-2.274.0519-.084 1.6971-.0466 1.7299.0392zm6.4249-.0266c.1268.2054-1.4942 1.4664-2.5363 1.9732-.8153.3962-.8529.3821-.4562-.1701.375-.5224.7747-1.1809.9526-1.5705l.1302-.2847h.9388c.5995 0 .9506.0189.9709.0521zm-9.8003-.0521h-.8096c-.6526 0-.8099.0132-.8099.0682 0 .3179 2.4321 2.1246 2.8598 2.1246.066 0-.0038-.1254-.4024-.7234-.2355-.3534-.5206-.8286-.6331-1.0558zm5.517 0h-.7182v1.02c0 .7972.0134 1.0143.0621.993.1886-.0816 1.4615-1.8724 1.4009-1.9708-.0143-.0233-.3494-.0422-.7448-.0422zm-2.1356-3.9745c.0149.0615.0209.6614.0134 1.333l-.014 1.2212-2.4593.0266-.1263-.4153c-.2298-.7542-.4722-2.1102-.3988-2.2293.0182-.0296.6006-.0484 1.4935-.0484h1.464zm-4.9794 2.579c.5627 0 1.023-.0167 1.023-.0374 0-.0206-.0662-.2993-.1468-.6192-.1323-.5239-.2765-1.3708-.3123-1.8351l-.0134-.1747-1.1228-.0131c-.6174-.0075-1.138.0018-1.1568.0206-.1427.1432.1789 1.5125.5398 2.2977l.1662.3612zm8.573 0 .1591-.5451c.2048-.7024.3427-1.3887.3616-1.7971l.0146-.3242-1.3219-.0131c-.7269-.0072-1.3371.0021-1.3559.0206-.0185.0189-.0337.6247-.0337 1.3465v1.3124zm3.834 0 .1785-.4273c.2755-.6593.6075-2.0133.5397-2.2017-.0251-.0697-2.5243-.0939-2.5655-.0248-.0122.0206-.0376.183-.0564.3612-.0594.5652-.2272 1.5256-.3278 1.8775-.0534.187-.097.3568-.097.3774 0 .021.5239.0377 1.1642.0377zm-7.4336-6.8485c.0164.0434.0302.6582.0302 1.3665 0 .7081-.0138 1.3229-.0302 1.3663-.0358.0936-2.9223.1223-2.9796.0299-.1194-.1938.4448-2.6798.6362-2.8019.1301-.0828 2.3106-.0463 2.3434.0392zm-4.9182-.0789h-.9714l-.1935.3863c-.3454.6896-.7358 2.1673-.6391 2.42.0302.0789.1302.0849 1.1646.0726l1.1317-.0131.0579-.5233c.069-.6237.1821-1.1978.3502-1.7788.0677-.2345.1116-.4572.097-.4949-.0209-.055-.2185-.0688-.9974-.0688zm8.4912.1994c.2239.4587.647 2.4122.5675 2.6201-.0238.0618-.2283.0708-1.36.0594l-1.3324-.0131-.0131-1.3698c-.0075-.7535-.0024-1.3988.0111-1.4338.019-.0499.2477-.0613 1.0332-.0505l1.0087.0134zm4.592 2.6664-.0162-.1995c-.0489-.6001-.3585-1.6882-.6451-2.268l-.1845-.3732-2.2753-.0269.0271.1379c.015.0759.0851.3623.1556.6366.1182.4581.2185 1.0316.3143 1.7941l.0373.299zm-8.1348-5.3587c0 .5445-.0138 1.0253-.0302 1.0686-.0346.0901-1.5798.1209-1.6344.0324-.0812-.1313 1.4953-2.1955 1.6183-2.1192.026.0158.0463.4623.0463 1.0182zm5.3263 1.1473c.5865 0 .8985-.0182.9206-.0541.1134-.1839-1.5117-1.4425-2.3431-1.8148l-.0327-.0146c-.4536-.2033-.6714-.3008-.7097-.2533-.0354.0437.082.211.3078.5327l.0175.025c.215.3065.5174.7873.672 1.0684l.2806.5107zm-8.6612 0 .1809-.3612c.1642-.3272.7783-1.2924.9464-1.4865.0376-.0433.068-.1049.068-.1372 0-.0897-.0352-.0765-.6319.2359-.8368.4381-2.222 1.5489-2.1258 1.7047.0149.0246.3725.0443.7949.0443zm5.0929-1.5462c.4343.5286 1.0424 1.4523.9905 1.5043-.0248.0248-.3344.0389-.6878.0311l-.6428-.014-.0147-1.0213c-.0081-.5473-.0115-.7794.0515-.7991.0464-.0145.1289.0861.2721.261z" fill-rule="evenodd"/><path d="m36.1145 37.5057c-.8474 5.9297-5.9521 10.4943-12.1145 10.4943s-11.2671-4.5646-12.1145-10.4943c3.2077 2.9128 7.4567 4.6872 12.1145 4.6872s8.9068-1.7744 12.1145-4.6872z"/></g></svg>