<svg height="24" viewBox="0 0 24 24" width="24" xmlns="http://www.w3.org/2000/svg" xmlns:xlink="http://www.w3.org/1999/xlink"><clipPath id="a"><path d="m0 0h20v20h-20z"/></clipPath><path d="m0 0h24v24h-24z" fill="none"/><g clip-path="url(#a)" transform="translate(2 2)"><path d="m0 0h20v20h-20z" fill="none"/><path d="m6.026 20a1.618 1.618 0 0 1 -.792-.207l-.027-.016-1.091-.627-3.778-2.17a.643.643 0 0 1 -.263-.24.709.709 0 0 1 -.075-.354v-5.663a1.587 1.587 0 0 1 .8-1.323l.724-.416 1.382-.784.063-.036v6.973a.317.317 0 0 0 .031.143.221.221 0 0 0 .075.078.2.2 0 0 0 .1.028.339.339 0 0 0 .16-.05l3.438-1.975.032-.018.023.029.024.032.025.031.025.031.025.03.006.008.026.031.026.03.027.031.027.03.027.029.028.029a3.61 3.61 0 0 0 .4.363l.084.063.016.011.07.049.034.023.033.022.03.02.031.019.013.009.03.018.03.018.01.006.044.025h.018l.01.006.032.018.033.018.034.018.034.018c.1.053.212.1.32.143l.064.024.052.019h.012l.036.012.037.012h.005l.033.01.033.01.017.006.033.009.033.009h.012l.032.009.033.009h.019l.029.007.028.007.029.006.026.006.026.006.035.007h.077l.029.005h.13c.071.01.143.017.216.023h.704l.048-.006.04-.006.042-.006.09.071h.006l.033-.006.07-.013h.016l.038-.008.04-.009.04-.009.028-.007.027-.006.029-.008h.013l.041-.011.037-.01.05-.015.035-.01.022-.007.027-.008.038-.013.047-.017.037-.013.046-.017.039-.015.046-.018.037-.015.045-.019.039-.018.044-.02.038-.018.036-.018h.012l.028-.014.046-.024h.008l.027-.014.04-.022.04-.022.04-.024.041-.025.04-.025.04-.026.038-.024.039-.027.039-.027.037-.026c.058-.042.106-.078.15-.114l.044-.058.035-.029.035-.029.034-.03.1-.088.018-.018.018-.018.033-.032.031-.032.015-.015.03-.031.009-.009.009-.009.032-.035.029-.033.03-.034.029-.033.027-.033.027-.034.026-.033.026-.034.023-.03.033.019 2.53 1.453.063.036-.063.036-7.782 4.465-.725.416a1.607 1.607 0 0 1 -.799.214zm7.53 0a1.606 1.606 0 0 1 -.8-.214l-.725-.416-1.381-.793-.063-.036.063-.036 6-3.445a.319.319 0 0 0 .113-.111.217.217 0 0 0 .031-.1.2.2 0 0 0 -.029-.106.333.333 0 0 0 -.124-.114l-3.431-1.978-.032-.018.014-.034.016-.037.015-.037.014-.037.014-.036v-.01l.014-.038.014-.037.014-.041.013-.039v-.006l.012-.038.011-.038a3.687 3.687 0 0 0 .115-.528c0-.036.009-.071.013-.1s.007-.069.01-.1v-.257-.259c-.006-.116-.018-.233-.035-.347 0-.025-.007-.047-.01-.067l-.012-.066v-.005l-.008-.037-.008-.038v-.006l-.007-.034-.008-.034v-.017l-.008-.033-.008-.033v-.012l-.009-.032-.009-.033-.006-.019-.008-.029-.009-.028-.008-.028-.008-.025-.008-.026-.011-.033-.008-.024-.008-.024-.009-.026-.01-.028-.01-.028-.008-.02-.005-.029-.011-.029-.007-.017c-.029-.069-.058-.134-.088-.2l-.023-.035-.018-.038-.006-.011-.012-.023-.012-.023-.018-.032-.019-.035v-.006l-.015-.033-.022-.038-.019-.033-.012-.02-.02-.027-.021-.033-.024-.037-.024-.03-.026-.038-.022-.033-.026-.036-.02-.026v-.007l-.029-.038-.025-.032-.026-.033-.03-.037-.021-.026-.046-.054-.011-.012-.026-.029-.027-.03-.028-.03-.02-.021-.019-.02-.021-.021-.01-.009-.03-.03-.028-.027-.038-.036-.027-.024-.038-.034-.03-.027-.038-.032-.03-.025-.045-.033-.033-.026-.039-.03-.032-.024-.039-.029-.035-.025-.04-.028-.033-.028-.033-.022h-.012l-.027-.017-.044-.028h-.008l-.026-.016-.039-.024-.039-.023-.042-.039-.042-.023-.045-.018-.042-.022-.04-.02-.042-.021-.043-.02-.046-.023c-.058-.026-.115-.05-.174-.072l-.041-.022-.043-.015-.042-.012-.043-.015-.126-.039-.031-.006-.025-.007-.046-.013-.044-.011h-.016l-.035-.009h-.036l-.046-.01-.043-.009-.045-.009-.044-.008-.044-.008-.043-.006h-.006l-.038-.023h-.08v-3.022l.063.036 7.788 4.473.725.416a1.6 1.6 0 0 1 .8 1.367v5.63a.638.638 0 0 1 -.076.347.716.716 0 0 1 -.272.241l-4.937 2.827a1.623 1.623 0 0 1 -.744.185zm-9.79-5.854v-9.853a1.6 1.6 0 0 1 .789-1.373l.027-.02 1.091-.627 3.779-2.166a.653.653 0 0 1 .333-.107h.007a.72.72 0 0 1 .346.114l4.93 2.831a1.583 1.583 0 0 1 .748 1.348v2.492l-.063-.036-6-3.451a.321.321 0 0 0 -.153-.043.227.227 0 0 0 -.106.026.2.2 0 0 0 -.078.078.331.331 0 0 0 -.037.163v3.986h-.036l-.04.005-.04.005h-.009l-.039.006-.038.006h-.01l-.04.007-.039.007-.04.007-.048.018-.039.009-.039.009a3.605 3.605 0 0 0 -.517.165l-.1.04-.095.043-.037.018-.036.018h-.005l-.032.019-.032.017-.014.007-.031.017-.031.017-.01.006-.044.026h-.009l-.009.005-.012.015-.032.019-.032.02-.033.02-.033.021c-.1.062-.192.131-.285.2l-.02.016-.011.009-.022.018-.052.044-.04.033-.029.026-.025.023-.026.024-.013.012-.025.023-.03.026-.009.009-.024.023-.024.024-.013.01-.021.021-.02.021-.02.021-.018.02-.018.019-.023.026-.017.019-.017.019-.018.021-.019.023-.019.022-.014.017-.019.024-.018.027-.011.015c-.049.063-.09.12-.128.175l-.024.036-.024.035-.007.011-.014.028-.014.022-.019.031-.021.034v.006l-.019.032-.007.012-.007.011-.008.015-.024.037-.011.021-.012.021-.019.031-.02.039-.019.039-.02.041-.017.036-.018.04-.013.03-.023.052-.015.038-.016.039-.009.023-.008.021v.006l-.012.031-.018.05-.006.016-.005.015-.012.037-.012.038-.012.039-.008.027-.008.027-.008.028v.013l-.011.041-.009.037-.012.05-.008.035c0 .013-.006.027-.011.049l-.008.039-.009.049-.007.038-.008.048-.006.041-.007.049-.005.04-.006.048v.778c.007.066.015.129.024.186l.007.045.008.044.008.045.009.045c.009.042.018.084.029.127l.006.025.006.025.012.046.012.043.009.031.009.031v.024l.015.045.014.042.015.043.015.041.015.04.015.04v.006l.015.039.017.039.015.035-.033.019-2.53 1.453-.062.036z" fill="#ba0b22" transform="translate(.208)"/><path d="m0 2.917a2.917 2.917 0 1 0 2.916-2.917 2.917 2.917 0 0 0 -2.916 2.917z" fill="#ffc730" transform="translate(7.083 8.215)"/></g></svg>