<svg enable-background="new 0 0 595.28 841.89" viewBox="0 0 595.28 841.89" xmlns="http://www.w3.org/2000/svg"><ellipse cx="295" cy="450.2" fill="#fff" rx="521.3" ry="715.3"/><path d="m89.7-502.4c19.1-7.8 39.8-14.6 65.2-21.6 92.7-25.4 127.4-72.1 140.2-100.6 12.8 28.5 47.4 75.2 140.2 100.6 25.4 7 46.1 13.8 65.2 21.6 63.6 25.9 116.3 57.8 160.7 97.3l-157.5 190c-.1.1-.1.2-.1.2-64-37.8-134.5-58.8-208.5-58.8s-144.4 21-208.4 58.8c0-.1-.1-.1-.1-.2l-157.5-190c44.3-39.5 96.9-71.4 160.6-97.3" fill="#fef389"/><path d="m75.3 635.2c4 6.4-4 13.6-9.9 8.8-58.4-46.3-95.8-117.9-95.8-198.1 0-102.5 61.1-190.8 148.9-230.5 7.1-3.2 13.1 6.2 7.2 11.2-59.1 51-97.9 136.8-97.9 234.1-.1 65.8 17.7 126.4 47.5 174.5m486.9-174.5c0-97.3-38.8-183.1-97.9-234.1-5.9-5.1.1-14.4 7.2-11.2 87.8 39.7 148.9 128 148.9 230.5 0 80.3-37.4 151.8-95.8 198.1-5.9 4.7-13.9-2.4-9.9-8.8 29.7-48.1 47.5-108.7 47.5-174.5m-267.3-284c-8.6 11-20.8 17.9-34.4 17.9-9.1 0-18-3.2-25.2-8.8-7.7-5.8-13.5-14-17.1-22.9-2.9-7-4.4-14.6-4.7-22.2-.1-3.2 4.3-4.2 5.6-1.3 7 15 21.5 25.3 38.3 25.3 14.3 0 26.9-7.5 34.7-18.9.7-1 1.7-1.5 2.8-1.5s2.1.5 2.8 1.5c7.8 11.5 20.4 18.9 34.7 18.9 16.8 0 31.3-10.3 38.3-25.3 1.4-2.9 5.7-1.9 5.6 1.3-.3 7.6-1.8 15.2-4.7 22.2-3.6 8.9-9.4 17-17.1 22.9-7.2 5.5-16.1 8.8-25.2 8.8-13.6-.1-25.8-7-34.4-17.9m156.8 540.1c-29.9 9.5-61.8 14.1-94.8 12.9-10.2-.4-20.4-1.3-30.3-2.8-.5-.1-1.1.2-1.4.6l-24.2 38c-1.4 2.1-3.6 3.2-5.8 3.2s-4.5-1.1-5.8-3.2l-24.2-38c-.3-.5-.8-.7-1.4-.6-9.9 1.4-20 2.4-30.3 2.8-33 1.2-65-3.4-94.8-12.9-3.2-1-2.2-5.8 1.1-5.5 1.3.1 2.4.2 3.4.3 32.3 2.1 64-1.8 94.1-10.9 1.2-.4 1.3-2 .2-2.6-95.9-50-160-153.7-155.9-271.1 2.8-77.9 35.1-147.7 85.6-198.3 3.8-3.9 10 .9 7.4 5.6-33.4 59.6-47.8 132.5-36.3 208.1 13.3 86.9 58.4 160.6 120.2 208.8.9.7 2.3 0 2.3-1.1l-8-425.5c0-2.1 1.3-3.9 3.2-4.5 14.7-4.8 26.4-14.6 35.7-25.5.9-1.1 2.2-1.6 3.5-1.6s2.6.5 3.5 1.6c9.4 10.8 21.1 20.7 35.7 25.5 2 .6 3.3 2.5 3.2 4.5l-8 425.5c0 1.2 1.3 1.9 2.3 1.1 61.8-48.3 106.9-122 120.2-208.8 11.6-75.6-2.9-148.5-36.3-208.1-2.7-4.7 3.5-9.5 7.4-5.6 50.5 50.6 82.8 120.3 85.6 198.3 4.2 117.4-59.9 221.1-155.9 271.1-1.1.6-1 2.2.2 2.6 30.1 9 61.8 13 94.1 10.9.9-.1 2.1-.2 3.4-.3 3.3-.3 4.3 4.5 1.1 5.5" fill="#ec2227"/><path d="m189.7-327.1c-.7 4.9-1.5 7.2-2.3 6.9-.9-.3-1.6-2.6-2.1-7.2-.7-8-1.9-16.2-3.6-24.7s-4-16.9-6.6-25.3c-2.7-8.3-5.9-16.5-9.6-24.4s-8-15.2-12.9-22c-2.3-3.3-2.7-6.8-1.3-10.4.9-3.8 1.9-7.6 3.1-11.2s2.3-7.4 3.1-11.2c.7-2.3 1.4-3.6 2.1-4s1.6.4 2.9 2.5c5.7 8.9 10.8 18.6 15.1 29.2s7.8 21.6 10.3 33.1 4 23.1 4.4 34.8c.3 11.6-.5 22.9-2.6 33.9" fill="#ec2227"/><path d="m295.5-428.7c-3.5 5.2-7.7 8.6-12.8 10.3-5 1.6-10.4 0-16.2-4.8-1.4-1.4-2.2-2-2.3-1.7-.2.3-1 1.2-2.6 2.7-3.1 3.6-6.3 6.1-9.6 7.3-.9.4-1.3.6-1.4.7s0 .7.4 2c4.5 14.1 7.3 28.3 8.5 42.7 1.1 14.4.2 29.1-2.7 44-.9 4-1.6 5.8-2.2 5.5s-1.1-2.4-1.4-6.2c-1.9-20-5.5-37.9-10.7-53.8s-12.5-30.4-21.9-43.4c-2.4-3.5-3.2-7-2.4-10.7 1-3.6 2.2-7.4 3.4-11.3s2.6-8 4.2-12.4c.5-1.4 1-2.3 1.3-2.7s1 0 1.8 1.4c2.6 3.1 5.9 6.1 9.8 9s7.9 4.5 11.9 4.8c2.3.2 4.4-.2 6.4-1 2-.9 3.9-2.1 5.6-3.6 1.7-1.6 3.2-3.3 4.4-5.2s2.3-3.9 3.1-6c.9-2.4 1.6-3.4 2.2-3s1.4 1.4 2.5 3c1.6 3 3.3 5.4 5.2 7.4s4.7 3 8.3 3c7.1 0 12.2-3.6 15.4-10.7.7-1.9 1.3-2.9 2-3 .6-.1.8 1 .7 3.3-.4 5.6-1.4 11.2-3.3 17.1-2 5.6-4.5 10.8-7.6 15.3" fill="#ec2227"/><path d="m334.5-374.8c-1.7 4.5-3.8 8.6-6.3 12.2-3 3.6-5.3 5.5-7.2 5.6-1.8.1-4.5-.8-7.9-2.7-2.6-1.2-5-2.4-7.2-3.6s-4.3-2.4-6.4-3.6c-1.7-1-2.6-1.8-2.6-2.3s.3-1.7 1-3.6c1.7-3.8 3.4-7.7 5.1-11.6 1.6-3.9 3.3-7.8 5.1-11.6 1-2.3 2-3.5 3-3.6 1-.2 2.4.3 4.3 1.3 2.9 1.6 6 3.3 9.1 5.1s5.9 3.9 8.3 6.4c1.9 1.9 2.8 3.8 2.7 5.7.1 1.7-.3 3.9-1 6.3" fill="#ec2227"/><path d="m439.5-443.3c0 2.8-.2 5.3-.7 7.4-.4 2.2-1.5 4.3-3.3 6.4-12.2 14.8-21.4 30.7-27.6 47.8-6.3 17.1-10.9 35.1-13.8 54.1-.9 5-1.9 7.5-3 7.3s-2-2.8-2.7-7.8c-3.6-33.5-15.6-64.1-35.9-91.7-1.4-2.1-2.3-3.9-2.6-5.6-.4-1.6-.3-3.8.3-6.4.5-3.3 1.2-6.9 2-10.7s1.6-8.1 2.5-12.8c.5-2.8 1.6-3 3.1-.8 18.1 27.8 29.7 53.3 34.9 76.6.7 2.1 1.4 2.1 2.1 0 1.4-6.8 3.4-13.7 6.1-20.7s5.8-14 9.4-21 7.5-13.7 11.9-20.3c4.3-6.6 8.9-12.7 13.5-18.2 1.7-2.1 2.8-3 3.3-2.7.4.3.7 1.5.7 3.8v15.3z" fill="#ec2227"/><path d="m1061.6 357.9c-3.7 5.3-7.9 11.3-8.7 19-.5 5.2.7 10.1 1.7 14.4.5 2.2 1.1 4.3 1.3 6.3 1.9 13.9-7.6 27.5-16.7 39.1-7.5 9.6-15.2 19.6-24.2 27.2-2.6 2.2-5.4 4.2-8.3 6.4-4.4 3.3-8.9 6.7-13.1 10.8-1.4-3.4-3-6.4-5-8.9 9.8-18.4 17.6-38.8 23.9-55.4 3.4-9.1 7.3-19.4 7.2-30.5 0-3-.3-5.9-.6-8.7-.3-3.1-.7-6-.5-8.8.3-8.4 4.4-16.3 8.8-24.7 5.4-10.5 11.1-21.3 9.8-34.1-1.1-11.5-7.3-20.3-13.4-28.8-5.6-8-11-15.5-10.9-24.2 0-3.5.9-7.1 1.9-11 1.4-5.5 2.7-11.2 2-17.3 6.2-1 11.9-4.1 17-7.5 3.6-2.4 7-5.2 10.3-7.9 4.1-3.4 8-6.5 12.2-9 .6-.4 2.5-1.5 3.7-1.5 1.7 0 4.5 4 4.6 9 .1 4.1-.9 8.3-1.9 12.8-.6 2.4-1.1 4.7-1.5 7.1-3 17.3 1.1 35.7 11.2 49.1 1.9 2.5 4 4.9 6 7.2 5.6 6.4 10.4 11.9 10.6 18.9.1 5.1-2.5 10.4-5.3 15.5-6.6 12.1-14 24-22.1 35.5m-52.3 186.8c0 4.1-1.8 8.4-3.8 12.9-1.8 4.2-3.6 8.5-4.5 13.4-2.1 12.6 3.1 23.1 8.1 33.3 4.1 8.2 7.9 16 7.4 24.2-.6 9.1-6.4 17-12.6 25.4s-12.6 17-14.8 28c-.7 3.7-.9 7.2-1.1 10.7-.1 2.6-.3 5.1-.6 7.4-1.3 8.7-6 16.8-10.4 24.6-11.9 20.8-25.4 44.1-42.3 62.6-5.6-.8-10.7.9-15.4 4 2.6-16.2 1.6-33.8-3.2-51.3-.8-2.7-1.6-5.4-2.5-8.1-2.8-8.7-5.5-17-4-25.1 1-5.3 3.7-10.5 6.6-16 4.3-8.3 8.8-16.8 8-27-.5-6.1-2.9-11.2-5-15.8-1.8-3.8-3.4-7.4-3.9-11-.9-7.7 3.4-15.5 8-23.8 2-3.6 4.1-7.3 5.8-11.2 7-15.8 7.5-35.3 2-54.2 10.2-9.6 18-22.1 22.4-36 .9-2.7 1.6-5.3 2.2-7.9.1-.5.3-1.1.4-1.6 2.9-11.9 6.6-26.7 14.6-27.6 5.1-.6 9.8 6 12.1 12.3 1.1 3.2 2 6.5 2.8 10.1 1.5 6 3 12.1 6.1 17.8 2.4 4.5 5.6 8.4 8.7 12.1 4.7 6 9 11.2 8.9 17.8m4.3 28.4c.6-3.4 2.1-6.9 3.6-10.6 2.3-5.3 4.5-10.8 4.7-17.1 6.8-.1 13.3-2.3 18-4.4 4-1.8 7.7-4 11.4-6.2 4.6-2.7 8.9-5.2 13.4-6.9.7-.3 2.8-1 3.9-.9 1.7.3 3.8 4.7 3.1 9.6-.5 4-2.2 8.1-3.9 12.3-.9 2.2-1.8 4.5-2.6 6.8-5.8 16.6-4.5 35.4 3.3 50.3 1.5 2.8 3.2 5.5 4.8 8.1 4.5 7.2 8.4 13.4 7.5 20.3-.7 5.1-4.2 9.9-7.6 14.4-8.5 11.1-17.7 21.7-27.5 31.7-4.5 4.6-9.6 9.9-11.6 17.4-1.4 5.1-.9 10.1-.6 14.5.2 2.3.4 4.4.3 6.4-.4 14-11.9 25.9-22.6 36-8.9 8.3-18.2 16.9-28.2 23-3 1.8-6 3.3-9.2 5-5.7 3-11.6 6-17.1 10.3-2.1 1.6-4.3 3.6-6.6 5.8-1-2.2-2.3-4.1-3.8-5.8 17-19.2 30.6-42.9 41.8-62.4 4.8-8.4 10.3-18 12-29 .5-3 .6-5.9.7-8.7.2-3.1.3-6.1.9-8.8 1.6-8.2 7-15.4 12.6-23 7-9.5 14.3-19.3 15.1-32.1.7-11.5-4-21.2-8.6-30.6-4.6-8.5-8.7-16.8-7.2-25.4m-41.7 315.2c4.4-.1 8.7-.7 12.9-1.2 5.3-.7 10.2-1.3 15.1-1.1.7 0 3 .1 3.9.7 1.5.9 1.6 5.8-.9 10-2.1 3.5-5.2 6.6-8.5 9.8-1.7 1.7-3.5 3.4-5.1 5.2-11.8 13-18.1 30.8-16.7 47.6.3 3.2.8 6.3 1.2 9.3 1.3 8.4 2.5 15.6-1.1 21.6-2.6 4.4-7.7 7.5-12.7 10.3-12.2 6.8-24.8 12.9-37.7 18.4-5.9 2.5-12.7 5.3-17.5 11.4-3.3 4.1-4.8 8.9-6.2 13.1-.7 2.1-1.4 4.2-2.2 6-5.8 12.8-21.1 19.2-35 24.2-11.5 4.1-23.3 8.4-35 10.1-3.4.5-6.8.7-10.4 1-6.4.5-13.1 1-19.8 2.8-3.4.9-9.7 3.1-16.2 6.5.2-2.6 0-5.1-.5-7.4 25.7-10.7 49.1-28.3 70-44.1 7.7-5.8 16.5-12.5 22.4-21.9 1.6-2.6 2.9-5.2 4.1-7.7 1.4-2.8 2.7-5.4 4.3-7.8 4.7-6.9 12.4-11.4 20.6-16.2 10.2-6 20.7-12.1 26.5-23.6 5.2-10.3 4.6-21.1 4.1-31.5-.5-9.8-1-19 3.7-26.3 1.9-2.9 4.6-5.5 7.5-8.3 4.2-4 8.4-8.1 11.1-13.9 5 2.2 11.2 3.2 18.1 3m-200.8 292.2c4.2 1.3 8.4 2.2 12.6 3.1 5.2 1.1 10.1 2.2 14.6 4 .7.3 2.7 1.1 3.4 2 1.1 1.4-.4 6-4.1 9.2-3.1 2.6-7.1 4.5-11.2 6.5-2.2 1-4.4 2.1-6.5 3.2-15.5 8.4-27.2 23.1-31.5 39.4-.8 3.1-1.4 6.2-1.9 9.2-1.5 8.3-2.8 15.5-8.2 20-3.9 3.3-9.7 4.5-15.4 5.5-13.7 2.4-27.7 4-41.7 4.9-6.4.4-13.7.8-20.3 5-4.4 2.8-7.5 6.8-10.2 10.3-1.4 1.8-2.7 3.5-4.1 4.9-9.7 10.1-26.3 11.1-41 11.3-12.2.1-24.8.3-36.4-2.1-3.4-.7-6.7-1.6-10.2-2.5-6.2-1.7-12.6-3.4-19.6-3.9-7.4-.6-29.2-.2-40.4 7.8-2.3 1.7-4.4 3.1-6.5 4.1-12.7 5.7-53.4 21.5-88.7 10 13.7-5.8 27.9-9.5 38.4-11.8 6.9-1.5 12.7-5.6 16.5-11.2 4.3.6 9 .9 14.2.9 40.6 0 105-16.1 131.8-24.6 9.2-3 19.7-6.3 28.4-13.3 2.3-1.9 4.4-3.9 6.4-5.9 2.2-2.2 4.3-4.3 6.6-5.9 6.8-4.9 15.5-6.6 24.8-8.5 11.6-2.3 23.5-4.6 32.8-13.5 8.3-8 11.3-18.4 14.2-28.4 2.7-9.4 5.3-18.2 12.1-23.6 2.7-2.1 6.2-3.7 9.8-5.4 5.2-2.4 10.6-4.9 15-9.5 4.2 3.7 9.7 6.7 16.3 8.8m-409.2 165.6c-.7-1.1-1.4-2.3-2.3-3.5-4.6-6.3-10.6-11.4-18-15.4-1.5-.8-3.1-1.6-4.8-2.5 20.9-26.7 46.9-52.6 77.6-77.3 2.6-2.1 3-5.8.9-8.3-2.1-2.6-5.8-3-8.3-.9-16.6 13.4-32 27.1-45.9 41.2-7.3-7.6-25.6-20.4-66.1-20.4s-58.8 12.8-66.1 20.4c-13.9-14.1-29.2-27.8-45.9-41.2-2.6-2.1-6.3-1.6-8.3.9-2.1 2.6-1.6 6.3.9 8.3 30.7 24.7 56.7 50.6 77.6 77.3-1.7.8-3.3 1.7-4.8 2.5-7.4 4-13.5 9.2-18 15.4-.9 1.2-1.6 2.4-2.3 3.5-19.5-21.8-56.1-32.5-77.8-37.2-6.9-1.5-11.9-7.7-11.9-14.8v-51.9c0-8.4 6.8-15.2 15.2-15.2h57.5c12.7 0 17.4 0 38.7-4.4 8.5-1.7 15.1-3.9 20.9-5.9 8.5-2.8 15.2-5.1 24.7-4.7 9.1-.4 15.7 1.9 24.3 4.7 5.8 1.9 12.4 4.1 20.9 5.9 21.2 4.4 26 4.4 38.7 4.4h57.5c8.4 0 15.2 6.8 15.2 15.2v51.9c0 7.1-5 13.3-11.9 14.8-22.1 4.7-58.7 15.4-78.2 37.2m112.8 46.3c12.4-2 18.4.2 19.9 3 1.7 3.1-.3 10.5-8.9 20.1-.1.2-8.8 10.1-23.6 20.4h-19.1c-63.2 2.9-92-21-104.5-38.3l13.4-17.4c21 12.1 58.4 22.3 122.8 12.2m-7.7 54.5c12.2-8.2 20.7-16.4 24.8-20.6 23.1 9.8 58 17 107 9.2l-29.3 14c-1.7.8-2.9 2.3-3.3 4.2-.4 1.8.1 3.7 1.4 5.1l19.7 22.3c-29 4.7-112.1 14.8-152.9-15-.2-.1-.7-.5-.6-1.4.1-.3.3-1.2 1.3-1.5 11.7-4.1 21.9-9.7 30.4-15.3m-165.1-132.8h-10.7c-8.3-.4-17.2 1.8-25.3 4.8-8.3-10.8-17.4-21.5-27.4-32 4.8-5.2 19.8-17.1 57.9-17.1 37.9 0 53.1 11.9 57.9 17.1-9.9 10.5-19 21.2-27.3 31.9-8.1-3-16.9-5.1-25.1-4.7m8.7 84.6-14.1-3.8-14.1 3.8c-6.2 1.7-12.7.3-15.5-3.3l-28.8-37.5c-1.1-1.4.2-5 3.3-9.2 3.5-4.8 8.2-8.8 14.1-12 7.5-4.1 21.7-10.7 33.7-10.7h1.6.2 11.3c12.4-.6 27.4 6.4 35.3 10.6 5.8 3.1 10.6 7.2 14.1 12 3.1 4.2 4.3 7.8 3.3 9.2l-28.8 37.5c-3 3.6-9.5 5.1-15.6 3.4m-162.4 36.2h-18.8c-14.8-10.3-23.5-20.3-23.7-20.5-8.5-9.5-10.5-16.9-8.8-20 1.5-2.8 7.5-5 19.9-3 64.3 10 101.7-.2 122.8-12.2l13.4 17.4c-12.5 17.3-41.3 41.3-104.8 38.3m9.2 28.7c.1.9-.4 1.3-.6 1.4-40.8 29.8-123.9 19.7-152.9 15l19.7-22.3c1.2-1.4 1.7-3.3 1.4-5.1-.4-1.8-1.6-3.4-3.3-4.2l-29.3-14c49 7.8 83.9.5 107-9.2 4.1 4.3 12.7 12.5 24.8 20.6v.9h1.3c8.5 5.6 18.7 11.1 30.4 15.3 1.2.4 1.4 1.3 1.5 1.6m-242.8-172.5c-7.4-6.9-14.3-14.8-21.1-22.4-6.9-7.9-14.1-16.1-22.1-23.5-20.5-19.1-46.2-32.9-73.5-39.5 1.8-1.3 3.4-2.4 4.7-3.2 27.6-15.5 63.8-7.1 80.3-1.9 8.4 10.8 17.4 20.8 27 29.7 51.2 47.8 137.4 79.9 230.7 85.7 2.6 1.6 5.4 2.8 8.5 3.5 8.5 1.8 19.4 4.6 30.5 8.7-170.1 34.9-222.6 2.4-265-37.1m-230.7-254.2c-4.6-9.1-8.3-18.8-12-28.3-3.8-9.8-7.7-20-12.6-29.7-12.6-25-31.9-46.8-55.2-62.6 2.1-.6 4.1-1.1 5.5-1.3 31.2-5 62.3 15.5 75.9 26 4.2 13 9.2 25.6 15 37.2 26.5 52.8 74.8 99.5 132.4 128.2 1.5 4.5 3.1 9 4.8 13.5-61.3 3.7-128.1-32-153.8-83m-132.4-312.7c-1.3-10.1-1.5-20.6-1.8-30.7-.3-10.5-.6-21.4-1.9-32.2-3.5-27.8-14.4-54.8-31.1-77.4 2.2.1 4.2.3 5.7.6 31.1 5.8 53.5 35.5 62.8 50-.5 13.7.1 27.1 1.7 40.1 7.2 57.5 38.7 120 84.2 167.3-.1 4.2 0 8.3.1 12.5-59.9-18.6-112.8-75.4-119.7-130.2m-21.7-342.3c2-10 5-20 7.9-29.7 3-10.1 6.2-20.5 8.3-31.2 5.4-27.5 3.5-56.6-5.2-83.3 2 .8 3.9 1.6 5.2 2.4 27.7 15.3 39.7 50.5 44 67.2-4.7 12.9-8.5 25.8-11 38.6-10.5 53.2.5 125.1 28 184.9-1.8 4.7-3.6 9.4-5.2 14.2-51-35.3-83.1-107.1-72-163.1m61.2-317c3.9-9.4 8.9-18.6 13.8-27.5 5-9.2 10.2-18.8 14.4-28.8 10.8-25.9 14.8-54.7 11.7-82.6 1.8 1.2 3.5 2.4 4.6 3.4 24.1 20.5 28.7 57.4 29.5 74.6-7.2 11.6-13.5 23.6-18.6 35.6-22.5 53.5-26.6 122.9-11.1 185.9-2.6 3.4-5.1 6.8-7.6 10.3-42.5-44.4-58.7-118.3-36.7-170.9m164.1-138.4c-1.4 4-2.8 8.2-4.1 12.4-.5 1.5-.9 2.9-1.3 4-4.9 14.9-7.6 30.8-7.8 47.3-.2 14.7 1.2 29.4 2.6 43.6 2 20.6 3.9 40 1.2 59.8-6.1 44.4-34.2 75.5-64.1 108.4-1.5 1.6-3 3.3-4.5 5 .9-4.3 2.1-8.2 3.5-10.9 1.7-3 .9-6.8-1.9-8.9s-6.6-2-9.1.4c-8.4 7.8-16.3 16.1-23.8 24.9-12.1-57.5-7.5-119.4 12.8-167.6 18.8-44.7 54-87.6 96.5-118.4m-7.5-157c6.7-6.8 14.4-13.1 21.7-19.2 7.7-6.3 15.6-12.9 22.8-20.2 18.5-18.6 32.1-42.2 39.3-67.5 1 1.5 1.8 2.8 2.4 3.9 13.7 26.3 4.9 60-.5 75.3-10.4 7.6-20.1 15.8-28.8 24.6-35.7 36-62.5 95.9-71.9 160.8-3.4 2.8-6.7 5.6-9.9 8.5-18.8-51.4-13.9-127.2 24.9-166.2m184.1-54.2c-1 1.2-1.8 2.2-2.5 3.1-9.6 11.3-17.5 24.3-23.6 38.7-5.4 12.8-9.3 26.1-13.1 39.1-5.5 18.7-10.7 36.4-20 52.6-20.7 36.2-56 53.1-93.4 70.9-2.9 1.4-5.8 2.8-8.7 4.2 1.9-4.4 3.9-8.3 6-10.8 2.3-2.6 2.3-6.5 0-9.1-2.2-2.7-6-3.3-9-1.5-6.6 4-13 8.3-19.3 12.8 10.6-56.8 34.6-108.1 65.9-139.6 31.8-32 77.3-56.9 125-68.9-2.5 2.8-4.9 5.7-7.3 8.5m15 81.6c4.9-.6 11.9-.6 18.6-.4-21.2 16.1-37.1 38.7-52.6 60.6-12.8 18.1-26 36.9-41.9 51.5-30.7 28.1-70.4 41.7-108.2 37.4.3-.9.6-2 1-3.1.1-.3.2-.7.3-1 6.9-3.5 14-6.9 20.8-10.2 37.6-18 76.4-36.6 99.2-76.3 8.3-14.5 13.6-30.1 18.2-45.5 15.1-5.8 29.2-11.2 44.6-13m-149.2 215.7c4.8-2.6 12.2-5.6 19.2-8.2-14.8 24.4-21.6 53.2-28.1 81.3-5.4 22.9-10.9 46.6-20.7 67.3-19.4 40.8-54.2 70.5-94.2 80.7.1-.6.1-1.1.1-1.7.1-.5.1-1 .2-1.6 5.7-6.6 11.7-13.3 17.6-19.7 29.9-32.9 60.7-67 67.4-115.5 2.4-17.6 1.4-35-.2-52.1l.1-.1c12.4-11.5 24.1-22.4 38.6-30.4m-110.4 366.2c2.9 43.3-20.9 82.6-44 120.6-2.2 3.6-4.4 7.4-6.6 11.1-.4-3.9-.5-7.6 0-10.3.6-3.4-1.3-6.7-4.5-7.9-3.3-1.2-6.9.2-8.6 3.2-3.3 6.1-6.4 12.3-9.4 18.6-22.7-55-31.4-118.3-22.1-165.6 9.4-47.4 35.3-96.5 70.7-135.2-.6 4.2-1.1 8.6-1.5 12.9-.2 1.6-.3 3-.5 4.2-1.8 15.6-1.2 31.7 1.9 47.9 2.7 14.4 7.1 28.5 11.3 42.2 6.2 19.8 12 38.4 13.3 58.3m34.4-89.7c4.2-3.6 10.8-7.9 17.1-11.9-9.6 26.9-10.4 56.5-11.2 85.3-.6 23.5-1.3 47.8-6.8 70.1-11.2 45.7-42.1 85.5-79.6 103.5-.2-1.1-.5-2.4-.8-3.9-.1-.5-.2-1.1-.3-1.6 4.6-8 9.4-16 14.5-24.5 24.1-39.8 49-80.9 45.9-128.4-1.2-17.7-5.7-34.6-10.7-51l.1-.1c9.9-13.7 19.2-26.7 31.8-37.5m-52.5 331.5c12 16.8 23.4 32.7 30.9 51.2 16.6 40.8 6.7 85.1-2.9 128-.9 3.8-1.7 7.7-2.6 11.6-2.7-5.1-4.9-10.2-5.6-14-.5-3.4-3.4-6-6.9-6-3.6-.1-6.4 2.5-7 5.9-1.4 8.5-2.4 17.2-3 25.9-38.9-44-65.5-99.3-71.9-150.3-5.6-45.1 2.2-96.3 21-142.1l.3-.1c0-.1-.1-.2-.1-.2 1.1-2.7 2.3-5.4 3.5-8.1.8 4.2 1.7 8.5 2.6 12.8.3 1.5.6 2.9.9 4.1 3.1 15.3 8.8 30.4 16.8 44.9 7.2 12.8 15.7 24.8 24 36.4m35.4-44.7c2.9-4.7 7.8-10.9 12.6-16.7-.7 28.5 7.9 56.9 16.2 84.5 6.8 22.5 13.8 45.8 15.6 68.7 3.6 45.8-12.4 89.4-42.8 118.2-.1-.2-.2-.4-.4-.5-.3-.5-.7-1.1-1.1-1.8 1.7-8.5 3.6-17.1 5.5-25.6 10-44.9 20.4-91.3 2.3-135.9-6.7-16.4-16.3-31.1-26.1-45.1v-.1c4.9-16.3 9.6-31.6 18.2-45.7m20.7 297.7c11 9.7 23.1 18.2 34.8 26.3 17 11.8 33 23 46.2 37.9 29.4 33.1 35.1 78.9 40.6 123.3.7 5.6 1.4 11.4 2.2 17.1-5.3-4.5-10.4-9.5-12.7-13.6-1.7-3-5.3-4.3-8.6-3.1s-5.1 4.6-4.5 7.9c1.2 6.4 2.8 12.8 4.5 19.2-50.1-27.7-91.7-69.5-115.3-116.4-21.7-43.1-31.4-97.8-27.1-150.1 2.1 3.7 4.4 7.5 6.7 11.2.8 1.3 1.6 2.6 2.2 3.6 8.2 13.4 18.6 25.8 31 36.7m53.2-27.7c1.1-5.4 3.7-12.9 6.2-19.9 8.9 27.1 26.5 51 43.5 74.2 13.9 19 28.3 38.6 37.7 59.5 19.1 42.8 18.3 90.4-2 128.1-1.4-9.2-2.6-18.5-3.8-28.4-5.8-46.3-11.7-94.3-43.9-130.4-11.8-13.2-25.7-23.8-39.7-33.7v-.1c-.7-17-1.4-33.1 2-49.3m160.1 290.4c20 5.2 38.9 10.1 56.5 19.5 20.5 10.9 32.2 30.8 45.9 53.8 16.7 28.2 37.3 63 81.1 91.6-82.6-8.6-157.4-38.1-202.9-80.6-35.3-32.9-63.3-80.9-77.5-131.4 3.3 2.8 6.7 5.5 10.2 8.1 1.2 1 2.4 1.8 3.3 2.6 12.2 9.8 26.3 17.7 41.7 23.7 13.6 5.4 27.9 9.1 41.7 12.7m64.1-23.4c19.6 13 39.9 26.3 56 42.8 31.7 32.4 50 78 48 117.4-26.2-22.7-40.9-47.6-54.2-70.2-14.7-24.8-27.3-46.1-51-58.8-15.6-8.3-32.4-13.4-48.9-17.9l-.1-.2c-6.6-15.7-12.8-30.5-15.2-46.8-.8-5.4-1-13.4-1-20.8 17.6 22.3 42.3 38.6 66.4 54.5m544.5 129.8c1.3-2.5 2.4-5.1 3.6-7.7 3.8-8.4 7.4-16.2 13.9-21.2 4.3-3.3 9.8-5.3 15.7-7.4 8.8-3.2 17.8-6.4 24.1-14.5 3.7-4.8 5.4-10.3 6.9-15.1 1.3-4 2.4-7.8 4.6-10.7 4.5-6.4 13-9.2 21.9-12.2 3.9-1.3 7.9-2.7 11.8-4.4 15.8-7 29.3-21 38-38.7 15.5-.2 31.2-5 44.7-13.8 1.4-.9 2.9-1.9 4.5-3 1.5-1 3-2 4.6-3v.1c.1-.1.3-.2.4-.3 9.1-5.8 18.9-11.2 24.3-7.2 4.1 3 3.2 11 .6 17.2-.8 2-1.9 4-3 6.1-1 1.5-1.9 3-2.5 4.6-2.7 5-5.4 10.2-6.8 15.9-1.3 5-1.5 10-1.8 14.8-.3 5.8-.6 11-2.5 15.3 0 0-2.2 3.6-2.7 4.1-2.8 3-7 4.9-11.5 7-4.2 1.9-8.5 3.9-12.4 6.9-10 7.9-13.3 19.1-16.5 30-2.6 8.8-5 17.2-10.9 22.8-6.6 6.3-16.2 8.2-26.5 10.2-10.2 2-20.8 4.1-29.8 10.7-3 2.2-5.6 4.7-8 7.1-1.8 1.8-3.6 3.6-5.5 5.1-6.8 5.5-15.7 8.4-24.3 11.1-31.8 10.2-102.7 26.8-137.6 23.6 0-.3.1-.6.1-.9 17.2-5.8 68.8-25.3 82.6-52.5m-51.1-4.9c.8-3.9 1.3-7.8 1.7-11.5 1-8.3 2-16.1 6-22.7 2.3-3.7 5.6-7.1 9-10.6 1.6-1.6 3.2-3.3 4.8-5 9.8-10.9 16.4-23.7 22.8-36 7.7-14.9 14.9-28.9 27.1-39.1 9-7.6 20-12.3 31.6-17.4 5.2-2.3 10.5-4.6 15.7-7.2 18.3-9.2 34.9-22.2 48.2-37.7 8.4-9.8 16.2-15.1 24-16.3v.9c.1 19.3.3 39.3-5.8 58.4-6.5 20.5-20.2 37.1-36.6 44.4-3.3 1.5-6.9 2.7-10.7 4-10.5 3.5-21.3 7.2-28.2 16.9-3.3 4.6-4.9 9.8-6.3 14.3-1.3 4.2-2.6 8.1-4.9 11.1-4 5.2-11 7.7-18.4 10.4-6.5 2.3-13.2 4.8-19.1 9.2-9.1 6.9-13.5 16.6-17.8 26-1.1 2.4-2.2 4.9-3.4 7.2-7.8 15.4-33.6 30-58.9 40.3 11.3-10.6 15.8-22.9 19.2-39.6m235.6-204.1c-.5-3.9-1.4-7.7-2.2-11.4-1.8-8.1-3.5-15.8-1.8-23.4.9-4.3 2.9-8.5 5-13 1-2.1 2-4.2 2.8-6.3 5.7-13.5 7.7-27.7 9.6-41.5 2.3-16.6 4.6-32.2 12.7-45.9 6-10.2 14.8-18.3 24.1-26.8 4.1-3.8 8.4-7.8 12.5-12 14.2-14.7 25.6-32.5 33-51.5 4.7-12 10.3-19.6 17.2-23.3.1.2.2.5.3.8 6.5 18.2 13.2 37 13.8 57 .6 21.5-6.8 41.7-19.9 54-2.7 2.5-5.6 4.8-8.8 7.3-8.7 6.8-17.7 13.8-21 25.2-1.6 5.4-1.4 10.8-1.3 15.6.1 4.4.3 8.5-.9 12.1-2.1 6.2-7.8 10.9-13.9 15.8-5.4 4.4-10.9 8.9-14.9 15-6.3 9.5-7.2 20.2-8.2 30.4-.2 2.7-.5 5.3-.8 7.9-3.2 24.5-15.4 45.9-34.4 60.7-1.6 1-3.1 2.1-4.6 3.1s-2.9 2-4.3 2.9c-4.1 2.6-8.5 4.8-13 6.6 12-18.1 21.5-41.1 19-59.3m204.1-234.9c4.9 1.5 6.7 9.4 6.3 16-.2 3.3-.8 6.8-1.3 10.4-1 6.1-2 12.3-1.4 18.8.5 5.1 1.9 9.9 3.2 14.6 1.6 5.6 3.1 10.6 2.7 15.3 0 0-.4 3.4-1.2 4.8-2.1 3.5-5 7-8.6 10.4-3.3 3.2-6.7 6.4-9.4 10.6-6.9 10.7-6.2 22.4-5.6 33.8.5 9.2 1 17.8-2.7 25.1-4.1 8.1-12.6 13.1-21.6 18.4-9 5.2-18.3 10.7-24.6 19.9-2.1 3.1-3.7 6.3-5.2 9.4-1.1 2.3-2.2 4.6-3.5 6.6-4.6 7.5-12.1 13.1-19.3 18.5-20.6 15.6-43.9 33-68.6 43.1-.4-.3-.7-.7-1.2-1.1-3.5-2.6-7.3-3.7-11.2-3.9 10-13.9 16.5-30.3 18.9-48 .4-2.8.6-5.6.9-8.4.8-9.1 1.6-17.8 6.1-24.7 3-4.5 7.5-8.2 12.4-12.1 7.2-5.9 14.7-12 17.9-21.7 1.9-5.8 1.7-11.5 1.6-16.5-.1-4.2-.3-8.1.8-11.7 2.2-7.5 9.2-13 16.7-18.8 3.3-2.5 6.6-5.2 9.7-8 12.6-11.8 20.8-29.5 23.1-49.1 14.5-5.3 27.8-15 37.7-27.8.5-.6 2.9-3.6 3.4-4.5 7.3-9.7 16.4-21.7 24-19.4m-59.2-29.1c-2-3.4-4.3-6.6-6.5-9.7-4.8-6.8-9.4-13.2-10.9-20.8-.8-4.3-.7-9-.5-13.9.1-2.3.2-4.6.1-6.9-.1-14.6-3.8-28.5-7.4-42-4.3-16.1-8.5-31.4-6.3-47.2 1.6-11.7 6.4-22.6 11.6-34.1 2.3-5.2 4.7-10.5 6.8-15.9 7.3-19.1 10.8-40 10.2-60.4-.4-12.8 1.8-22.1 6.7-28.2.2.2.4.4.6.6 13.1 14.2 26.7 28.8 35.1 47 9 19.6 10.1 41 2.9 57.4-1.5 3.3-3.3 6.7-5.2 10.2-5.3 9.7-10.9 19.6-9.4 31.4.7 5.6 3 10.5 5 14.8 1.8 4 3.6 7.7 3.9 11.5.5 6.5-2.9 13.1-6.6 20-3.2 6.1-6.5 12.4-7.8 19.7-2 11.2 1.3 21.4 4.4 31.2.8 2.6 1.6 5.1 2.4 7.6 6.9 24.6 5.1 50.1-4.5 69.3-.9 1.2-1.8 2.3-2.6 3.4-3.5 4.5-7.5 8.6-12 12.2 2.4-20.2-1-42.2-10-57.2m32.5-296.9c-2.5-3-5.3-5.8-7.9-8.5-5.8-5.9-11.4-11.5-14-18.8-1.5-4.1-2.1-8.8-2.7-13.7-.3-2.3-.6-4.6-.9-6.8-2.4-14.4-8.3-27.6-14-40.3-6.8-15.3-13.3-29.7-13.7-45.6-.3-11.8 2.8-23.3 6.1-35.5 1.5-5.5 3-11.1 4.2-16.8 4.2-20 4.3-41.2.5-61.2-2.4-12.6-1.7-22.1 2.1-28.9.2.1.4.3.7.5 15.2 11.9 30.9 24.3 42.1 40.9 12 17.9 16.5 38.9 11.9 56.3-.9 3.5-2.2 7.1-3.6 10.9-3.7 10.4-7.6 21.1-4.3 32.5 1.6 5.5 4.6 9.9 7.2 13.9 2.5 3.6 4.8 7.1 5.7 10.8 1.6 6.3-.8 13.4-3.3 20.8-2.2 6.5-4.5 13.3-4.6 20.7-.2 11.4 4.6 20.9 9.3 30.1 1.2 2.4 2.4 4.8 3.5 7.2 9 19.6 16.4 40.6 10.7 62-.3 1.2-.7 2.4-1.1 3.5-.2.7-.4 1.3-.7 2-3.2 9.2-8.3 17.8-14.6 24.8-.1-.2-.1-.3-.2-.5-.8-1.8-1.8-3.6-2.7-5.3 3.1-23-1.1-37.6-15.7-55m36.9-272.7c.2-1.7.3-3.5.5-5.3 1-12.2 2.3-27.4 10-29.5 5-1.4 10.6 4.4 13.8 10.2.6 1 1.1 2.1 1.6 3.2.5 1.7 1.2 3.3 2.2 4.8.2.5.5 1 .7 1.6 2.4 5.7 4.9 11.5 8.8 16.6 3.1 4.1 6.9 7.4 10.5 10.6 5.9 5.2 11 9.7 12 16.2.6 4.1-.5 8.6-1.7 13.4-1.1 4.4-2.2 9-2.3 14-.1 12.7 6.7 22.3 13.2 31.6 5.3 7.5 10.3 14.6 11.1 22.7.9 9.1-3.7 17.8-8.5 27.1-4.8 9.2-9.8 18.8-10.2 30-.2 3.7.2 7.3.6 10.7.3 2.6.6 5 .6 7.4.1 8.8-3.2 17.5-6.4 25.9-5.9 15.6-13.1 34.5-22 51.6-3.1-1.4-6.4-2.1-9.8-1.8-6.1.7-10.7 3.7-14.2 8.1-2.5-11.5-7-22.5-11.9-33.2-1.2-2.5-2.5-5.1-3.7-7.6-4.2-8.2-8.1-15.9-7.9-24.1.1-5.4 2-11 4-16.9 3-8.8 6.1-18 3.6-27.9-1.4-5.9-4.7-10.6-7.5-14.8-2.3-3.5-4.6-6.7-5.6-10.3-2.2-7.5.9-15.9 4.1-24.8 1.4-3.9 2.9-7.9 3.9-12 4.4-16.7 1.8-36-6.6-53.8 9.5-12.3 15.5-27.6 17.1-43.7m-50.9-28.8c-3.5-1.3-7-2.4-10.4-3.5-7.5-2.3-14.6-4.4-19.7-9.1-2.8-2.6-5.1-6-7.5-9.6-1.1-1.7-2.3-3.4-3.5-5.1-7.7-10.6-18-18.6-28.1-26.4-11.9-9.2-23.1-18-29.4-30.2-4.7-9.1-6.2-19.5-7.8-30.5-.7-5-1.5-10.1-2.6-15.2-3.8-17.8-11.7-34.9-22.8-49.3-6.9-9-9.8-16.7-8.7-23.6.7 0 1 0 1.7.2 18.3 3.1 37.3 6.4 53.7 15 17.4 9.1 29.3 23.8 31.7 39.2.5 3.1.7 6.5.9 10.1.5 9.5 1.1 20.4 8.6 28.3 3.5 3.8 8 6.1 11.9 8.1 3.5 1.8 6.9 3.6 9.1 6.1 3.6 4.2 4.1 10.3 4.6 17.4.5 6.2 1 12.6 3.7 18.7 4.2 9.4 12.7 15.3 20.1 20.4 2 1.4 4 2.8 5.9 4.2 17.3 13.1 26.9 31.4 27.9 52.9-.1 1.5-.3 3-.4 4.4-.1 1.3-.2 2.5-.3 3.7-8-10.6-20.6-19.2-38.6-26.2m-69-232.1c-.5-1.4-1-2.9-1.6-4.5-4.6-12.7-7.7-22.8-1.8-27.4 4.3-3.4 12-1.3 17.2 2.1 2.6 1.7 5 3.6 7.5 5.7 4.3 3.5 8.8 7.2 14.4 9.6 4.4 2 9 3 13.5 4 7.3 1.7 13.6 3.1 16.8 7.7 2 2.8 2.6 6.8 3.3 10.9s1.4 8.2 3.3 12.3c4.9 10.5 15.1 15.5 24.2 20 7.6 3.7 14.7 7.2 18.4 13.2 4 6.6 3.2 15.3 2.4 24.5-.9 9.5-1.8 19.3 2.1 28.6 1.3 3.1 3 5.8 4.7 8.4 1.2 1.9 2.4 3.7 3.3 5.6 3.3 6.8 3.6 15 3.9 23 .8 22.1 1.6 47.1-3.7 70.1-.3.1-.5.1-.8.1-5.7 1.6-9.6 5.1-12.3 9.7-5.3-14-14.5-26.1-27.3-35.8-2-1.5-4.2-3-6.3-4.5-6.8-4.7-13.2-9.2-16-15.5-1.9-4.2-2.3-9.3-2.7-14.8-.6-8-1.3-17.2-7.5-24.3-3.6-4.2-8.4-6.6-12.5-8.8-3.4-1.8-6.6-3.4-8.8-5.7-4.5-4.8-4.9-12.6-5.4-20.8-.2-3.7-.4-7.5-1-11.3-2.4-15.2-11.9-29.6-26.1-40.3 3.8-13.7 3.5-28.4-1.2-41.8m-66.1-15.3c-3.6-.8-7.3-1.3-10.8-1.9-7.8-1.1-15.1-2.2-20.8-6-3.2-2.1-5.9-5.2-8.8-8.4-1.4-1.5-2.8-3.1-4.2-4.5-9.2-9.3-20.6-15.7-31.7-21.9-13.1-7.3-25.6-14.3-33.6-25.5-6-8.3-9-18.4-12.3-29-1.5-4.8-3-9.8-4.8-14.6-6.4-17.1-16.8-32.8-30-45.4-8.2-7.8-12.2-15.1-12.1-22.1.4-.1 1.1-.1 1.7-.1 18.6.4 37.8.7 55.3 6.8 18.6 6.4 32.5 19.1 37.2 34 1 3 1.6 6.3 2.3 9.8 1.9 9.4 4.1 20 12.7 26.7 4.1 3.2 8.8 4.8 13 6.3 3.8 1.3 7.4 2.5 9.9 4.6 4.2 3.6 5.6 9.6 7.1 16.5 1.4 6.1 2.8 12.4 6.4 18 5.6 8.7 14.8 13.2 22.9 17.2 2.2 1.1 4.4 2.1 6.4 3.3 25 13.6 39.5 27.4 44.3 42.1 1 3.1 2 6.1 3 8.9.5 1.5 1 2.9 1.5 4.3.2.7.4 1.4.6 2.1-14.3-10.2-36.4-17-55.2-21.2m-102.8-219.2c-.7-1.4-1.5-2.8-2.2-4.2-6.4-11.9-11-21.4-5.9-26.8 3.8-4 11.7-3.1 17.3-.5 2.8 1.3 5.5 2.8 8.3 4.5 4.8 2.8 9.8 5.8 15.6 7.4 4.6 1.3 9.4 1.6 14 2 7.4.6 13.9 1 17.7 5.1 2.4 2.5 3.6 6.3 4.9 10.3 1.3 3.9 2.6 7.9 5.1 11.7 6.4 9.6 17.3 13.1 27 16.1 8.1 2.5 15.6 4.9 20.1 10.3 5 5.9 5.5 14.7 6 23.9.5 9.5 1.1 19.3 6.3 27.9 1.8 2.9 3.9 5.3 5.9 7.6 1.5 1.7 2.9 3.3 4.1 5 4.3 6.2 5.8 14.3 7.2 22.1 4.1 22.1 8.7 47 6.8 70.8 0 0-.1 0-.1.1-2.8 2.2-4.7 4.8-5.9 7.6-10.9-12.5-25.8-21.7-37.8-28.2-2.2-1.2-4.6-2.4-6.9-3.5-7.4-3.6-14.4-7.1-18.2-13-2.5-3.9-3.6-8.9-4.9-14.2-1.8-7.9-3.8-16.8-11-22.9-4.2-3.6-9.3-5.3-13.7-6.8-3.6-1.2-7.1-2.4-9.5-4.4-5.2-4.1-6.8-11.7-8.4-19.8-.7-3.6-1.5-7.4-2.6-11-4.6-14.7-16.2-27.5-31.9-36 1.8-14.1-.7-28.5-7.3-41.1m84.7-34.3c1.8-3.8 3.3-7.6 4.7-11.4 1.8-4.7 3.5-9.2 5.8-13.3.7-1.2 1.6-2.8 2.7-3.4 2.1-1.3 6.2.4 8.5 3.5 2 2.8 3.2 6.4 4.5 10.2.7 2.1 1.4 4.1 2.2 6.1 6.1 14.6 18.8 25.9 34 30.3 2.8.8 5.8 1.4 8.6 2 7.4 1.5 14.4 2.9 17.7 7.7 2.5 3.5 2.8 8.7 3 13.7.5 12.6.1 25.4-.9 38.2-.5 6-1.1 12.7 2.2 19 2.2 4.3 5.7 7.3 8.8 9.9 1.5 1.3 2.9 2.5 4.1 3.8 8.1 8.8 6.9 23.8 5 37.1-1.5 11.1-3.1 22.7-6.9 33.2-1.1 3.1-2.5 6.2-3.8 9.3-2.4 5.6-5 11.4-6.4 17.8-.6 2.6-1.2 6.3-1.5 10.5-2.2-.5-4.5-.8-6.7-.7 1.1-23.9-3.5-48.6-7.3-68.8-1.6-8.6-3.4-18.4-9.1-26.6-1.5-2.2-3.2-4.2-4.9-6.1-1.8-2-3.5-4-4.7-6-3.7-6.1-4.2-14-4.6-22.4-.6-10.8-1.2-21.9-8.8-30.9-6.7-8-16.3-11-25.6-14-8.5-2.7-16.6-5.2-20.6-11.4-1.6-2.4-2.6-5.6-3.7-8.9-1.5-4.5-3.3-9.6-6.9-13.9 5.1-4.5 8.5-10.1 10.6-14.5m173.1 247.5c2.4-3.5 4.4-7.1 6.4-10.6 2.5-4.4 4.8-8.6 7.7-12.3.9-1.1 2-2.5 3.1-3 2.2-1 6.1 1.4 7.9 4.8 1.6 3.1 2.3 6.8 3 10.8.4 2.1.8 4.3 1.3 6.4 3.8 15.3 14.7 28.4 29.1 35 2.7 1.2 5.5 2.3 8.2 3.2 7.1 2.6 13.8 5 16.4 10.2 1.9 3.8 1.5 9 .9 14-1.4 12.5-3.7 25.1-6.6 37.6-1.4 5.8-3 12.5-.7 19.2 1.5 4.6 4.5 8 7.2 11.1 1.3 1.5 2.5 2.9 3.5 4.3 6.7 10 3.2 24.5-.5 37.4-3.2 10.8-6.4 22-11.8 31.7-1.6 2.9-3.4 5.8-5.1 8.6-3.3 5.2-6.6 10.6-9 16.6-1.2 3.1-2.9 8.6-4.1 14.7-2-1.5-4-2.7-6.1-3.6 5.2-24.2 4.4-50.4 3.7-71.7-.3-8.7-.7-18.7-5-27.7-1.2-2.4-2.6-4.6-3.9-6.8-1.4-2.3-2.8-4.5-3.7-6.7-2.8-6.6-2-14.5-1.2-22.9 1-10.7 2-21.8-4.1-31.8-5.4-8.9-14.5-13.3-23.3-17.6-8-3.9-15.6-7.7-18.7-14.3-1.2-2.6-1.8-5.9-2.3-9.3-.8-4.7-1.8-10-4.7-14.7 5.5-3.5 9.7-8.5 12.4-12.6m158.8 446c8.2-11.6 15.8-24 22.7-36.7 3.4-6.2 7-13.6 6.8-21.8-.3-11.5-7.4-19.7-13.7-26.9-2-2.2-3.8-4.3-5.4-6.5-7.9-10.5-11.3-25.6-8.9-39.4.4-2.2.9-4.3 1.4-6.4 1.2-5.1 2.4-10.4 2.3-16.1-.3-10.4-6.8-21.1-17.2-21.2-4.1 0-7.5 1.7-10.1 3.2-5 2.9-9.5 6.6-13.8 10.1-3.2 2.6-6.2 5.1-9.3 7.2-6.2 4.2-10.6 5.9-14.5 5.6-3.2-4.9-7.6-8.8-11.6-12.3-3.3-2.9-6.4-5.7-8.8-8.8-3-3.9-5-8.7-7.2-13.9-1.2-2.7-2.4-5.5-3.8-8.2-.5-6.6 1.5-16.9 4.4-24.4 2-5 4.9-9.7 8-14.7 1.8-3 3.8-6 5.5-9.2 5.9-10.9 9.4-22.7 12.7-34.1 4.5-15.5 8.6-33.2-1-47.4-1.4-2-2.9-3.8-4.4-5.5-2.1-2.4-4.1-4.7-4.9-7.1-1.2-3.5-.1-7.9 1.1-12.9 3-12.7 5.3-25.7 6.8-38.7.7-6.5 1.3-14-2.1-20.7-4.7-9.4-14.4-12.9-22.9-16-2.5-.9-5-1.8-7.4-2.9-11-5-19.6-15.4-22.5-27.1-.5-1.8-.8-3.7-1.1-5.6-.8-4.6-1.7-9.4-4.1-14.1-4.2-8.1-14.3-14.2-23.3-10.1-3.5 1.6-5.9 4.3-7.6 6.5-3.5 4.4-6.1 9.2-8.7 13.8-1.9 3.4-3.7 6.6-5.8 9.6-3.6 5.3-7.8 9-12.1 10.9-4.8-2.6-10.2-3.8-15.2-5-4.1-.9-8-1.8-11.3-3.3-4.1-1.8-7.8-4.8-11.7-8-2.7-2.2-5.5-4.4-8.5-6.4-.2-.1-.4-.2-.5-.3.2-5.1.9-9.8 1.5-12.6 1.2-5.3 3.4-10.3 5.7-15.7 1.4-3.2 2.8-6.5 4.1-9.9 4.2-11.7 5.9-23.8 7.5-35.6 2.2-16 3.5-34.1-8.1-46.7-1.7-1.8-3.4-3.3-5.1-4.8-2.4-2.1-4.8-4-5.9-6.3-1.7-3.3-1.3-7.8-.9-12.9 1.1-13 1.4-26.2 1-39.3-.2-6.5-.9-14-5.2-20.2-6.1-8.5-16.1-10.6-25-12.4-2.6-.5-5.2-1.1-7.7-1.8-11.6-3.3-21.7-12.3-26.3-23.4-.7-1.8-1.4-3.6-2-5.4-1.5-4.5-3.1-9.1-6.2-13.3-5.3-7.3-16.2-11.9-24.5-6.5-3.2 2.1-5.2 5.1-6.5 7.5-2.8 4.9-4.7 10-6.6 14.9-1.4 3.7-2.7 7.1-4.3 10.4-2.8 5.7-6.4 10.1-10.3 12.6-5.1-1.8-10.6-2.2-15.8-2.6-4.2-.3-8.2-.6-11.7-1.6-4.3-1.2-8.4-3.6-12.8-6.2-3-1.8-6.1-3.6-9.4-5.1-9.1-4.1-22.6-5.7-30.9 3.2-11.3 12.1-2.4 28.6 4.1 40.6.7 1.4 1.5 2.7 2.2 4 4.9 9.4 7.1 19.9 6.4 30.4-.4-.2-.9-.4-1.3-.5-19.3-6.6-39.4-7-58.9-7.4-7.9-.2-13.2 3.5-13.7 9.3-1.1 11.3 4.1 22.2 15.7 33.3 11.9 11.4 21.2 25.6 27 41 1.7 4.5 3.1 9.3 4.6 13.9 3.4 11.1 6.9 22.5 14 32.5 9.6 13.4 23.8 21.3 37.5 29 10.8 6 21 11.7 29 19.9 1.3 1.3 2.6 2.7 3.8 4.1 3.2 3.6 6.6 7.3 11 10.3 7.9 5.3 17 6.6 25.7 7.9 3.5.5 6.8 1 9.9 1.7 32.1 7.2 54.6 17.9 60.6 28.8-.1 3.3-.5 6.6-1.2 9.9-.4-.2-.8-.5-1.2-.7-18.1-9.4-38-12.9-57.2-16.1-7.7-1.3-13.5 1.5-14.9 7.1-2.7 11 .7 22.6 10.5 35.3 10.1 13 17.2 28.4 20.6 44.6 1 4.7 1.7 9.6 2.4 14.4 1.7 11.5 3.4 23.3 9 34.2 7.5 14.7 20.3 24.6 32.7 34.2 9.8 7.6 19 14.8 25.7 24 1.1 1.5 2.1 3.1 3.2 4.6 2.7 4.1 5.4 8.3 9.4 11.8 7 6.4 15.8 9.1 24.3 11.6 3.4 1 6.5 2 9.6 3.2 22.2 8.7 35 19.6 39 33.3-1.9 5.6-4.5 11-7.6 15.8-.1-.1-.2-.3-.3-.4-12.3-18.3-28.8-31.3-44.8-43.8-2.2-1.7-6.5-4.4-11.1-3.8-2.6.4-4.9 1.8-6.5 4-7 9.9-8.8 23.1-5.5 40.5 3.5 18.4 3.4 37.8-.4 56.2-1.1 5.3-2.6 10.8-4 16.1-3.4 12.5-6.8 25.5-6.5 39.1.5 18.4 7.8 34.7 14.8 50.4 5.6 12.5 10.9 24.4 13.1 37.2.3 2.1.6 4.2.9 6.3.7 5.4 1.4 11 3.4 16.4 3.6 9.9 10.3 16.7 16.9 23.4 2.6 2.6 5.1 5.1 7.3 7.8 8.3 9.9 12.4 18 13.5 28.1-7.1-9.4-14.9-18-22.7-26.4-2.3-2.5-5.9-5.4-10.4-5.5-2.7 0-5.1 1-7 2.9-8.5 8.6-12.4 21.4-11.8 39.2.6 18.7-2.6 37.9-9.3 55.4-1.9 5.1-4.3 10.3-6.5 15.2-5.3 11.9-10.8 24.1-12.6 37.6-2.4 18.3 2.2 35.5 6.7 52.1 3.6 13.2 6.9 25.8 7 38.8 0 2.1-.1 4.3-.1 6.4-.2 5.4-.4 11.1.7 16.7 2 10.3 7.6 18.2 13 25.8 2.2 3 4.2 5.9 6 8.9 9.1 15.2 11.4 40 5.9 60.2-.1 0-.2.1-.2.1 0-.2 0-.3 0-.5-.6-22-7.7-41.8-14.5-60.9-.9-2.6-3.1-7.2-7.4-9.1-2.4-1.1-5.1-1.1-7.6-.1-11.2 4.6-19.8 14.8-26.2 31.4-6.8 17.4-17.3 33.8-30.4 47.3-3.8 3.9-7.9 7.8-12 11.5-9.5 8.8-19.4 17.9-26.4 29.7-9.4 15.8-11.9 33.5-14.3 50.5-1.9 13.6-3.7 26.4-8.8 38.4-.8 2-1.7 3.9-2.6 5.8-2.3 4.9-4.7 10-5.9 15.7-2.2 10.3-.2 19.7 1.8 28.8.8 3.6 1.5 7 2 10.5 2.5 18.2-11.1 45.1-25.9 62.4h-.1c.1-.2.1-.3.2-.5 6.7-21 6.5-42 6.4-62.3 0-2.7-.6-7.8-4-11-1.9-1.8-4.4-2.7-7.1-2.6-12.1.6-23.6 7.5-35.1 20.9-12.2 14.2-27.5 26.2-44.3 34.6-4.9 2.4-10.1 4.7-15.1 6.9-11.9 5.2-24.2 10.5-34.7 19.3-14.1 11.8-22.3 27.7-30.2 43-6.3 12.2-12.3 23.7-21 33.4-1.4 1.6-2.9 3.1-4.4 4.6-3.8 3.9-7.7 7.9-10.8 12.8-5.5 8.9-6.7 18.5-7.8 27.8-.5 3.7-.9 7.2-1.6 10.6-3.3 16.2-7.3 26.6-18.5 35.4v-29.6c0-14.9-12.1-27-27-27h-57.5c-12.5 0-16.2 0-36.3-4.1-7.8-1.6-13.8-3.6-19.5-5.5-9.3-3.1-17.4-5.7-28-5.3-11.1-.4-19.2 2.2-28.4 5.3-5.8 1.9-11.8 3.9-19.6 5.5-20 4.1-23.8 4.1-36.3 4.1h-58.2c-14.9 0-27 12.1-27 27v48.1c-3.2-2.1-6.2-4.3-9.2-6.4 5.7-45.4-13.8-98.3-50.9-136.2-17-17.4-37.9-31.2-58.1-44.5-29.9-19.7-58.2-38.4-74-67.4-1.4-2.6-4.3-3.9-7.2-3.2-2.8.6-4.9 3.1-5.1 6-.1 1.2-1.5 29.3.7 43.8 2.2 14.6 7.1 28 12.3 40.9-11.8-3.1-23.7-6.4-35-10.8-10.2-3.9-19.3-8.7-27.9-14.3 23.8-41.8 25.3-95 4.1-142.6-9.9-22.2-24.7-42.4-39.1-61.9-21.2-28.9-41.3-56.2-46-88.9-.4-2.9-2.7-5.1-5.6-5.5s-5.7 1.2-6.8 3.9c-.5 1.1-11.6 27-14.6 41.3-3 14.4-3.1 28.7-2.6 42.6-10-7-20-14.2-29.1-22.2-7.9-7-14.6-14.3-20.5-22.2 34.3-31.5 52.4-79.7 48.4-130.1-1.9-24.3-9.1-48.2-16.1-71.4-10.3-34.3-20.1-66.8-13.6-99.2.6-2.9-.8-5.7-3.4-7.1-2.6-1.3-5.7-.8-7.7 1.4-.8.9-20 21.6-27.5 34-7.7 12.6-12.5 26-16.7 39.3-7-9.9-14.1-20.1-20-30.7-5.3-9.5-9.3-19-12.2-28.7 41.9-19.2 76.6-63 88.9-113.2 5.8-23.6 6.5-48.7 7.1-72.8 1-35.8 1.9-69.7 18.2-98.4 1.4-2.5 1-5.7-1-7.8s-5.2-2.5-7.8-1.1c-1 .6-25.7 14.2-36.8 23.7-11.2 9.5-20 20.8-28.2 32.1-3.6-11.6-7.1-23.5-9.3-35.4-1.9-9.8-2.6-19.3-2.6-28.7 45.4-10.2 85-43 106.7-88.6 10.4-22 16.1-46.3 21.7-69.9 8.2-34.9 15.9-67.9 37.7-92.7 1.9-2.2 2.1-5.4.6-7.8-1.6-2.4-4.6-3.5-7.4-2.7-1.1.4-28 8.7-40.8 15.8-12.9 7.1-23.8 16.3-34.1 25.7-1.2-12.1-2.2-24.5-2-36.5.2-11.1 1.5-21.6 3.9-31.7 5.7.7 11.5 1.1 17.3 1.1 36.8 0 73.9-14.7 103.3-41.7 16.9-15.5 30.6-34.9 43.7-53.5 19.5-27.6 37.8-53.7 65.6-67.7 2.6-1.3 4-4.2 3.5-7.1-.6-2.9-2.9-5-5.8-5.2-1.1-.1-27.7-2.3-41.4-.7-13.6 1.6-26.2 5.7-38.4 10.2 3.2-10.8 6.6-21.7 10.9-31.9 5.6-13.3 12.7-24.9 21.5-35.3.8-.9 1.7-2 2.7-3.2 5.1-6.2 14.7-17.8 21.4-21.4 3.1-1.6 4.5-5.2 3.4-8.5s-4.4-5.3-7.8-4.7c-38 6.2-75.9 20.8-108.4 41 6.3-26.6 4.7-51.3-5-69.8-3.2-6.1-11.3-16.2-12.2-17.3-1.6-2-4.3-2.9-6.8-2.3s-4.4 2.7-4.9 5.2c-5.1 28-18.9 54.6-39 74.8-6.8 6.8-14.4 13.2-21.8 19.3-7.6 6.3-15.5 12.8-22.7 20.1-35.3 35.5-54.6 115.7-25.9 185.2-13.1 12.8-25.1 26.7-35.6 41.2-4.2-29-15.6-52.9-32.6-67.4-5.5-4.7-17.4-11.4-18.8-12.1-2.3-1.3-5.1-1.1-7.1.4-2.1 1.5-3.1 4.1-2.6 6.7 6.1 29.6 3.1 61.3-8.6 89.2-3.9 9.4-9 18.7-13.8 27.6-5 9.2-10.1 18.7-14.3 28.7-24.7 58.9-6.9 138.9 41.4 187.2-8.5 13.2-16 27-22.4 41.1-9.9-27.5-26-48.7-45.5-59.4-6.3-3.5-19.3-7.6-20.8-8.1-2.4-.8-5.2 0-6.9 1.9s-2.2 4.7-1.2 7.1c11.9 27.8 15.3 59.4 9.5 89.1-2 10-5 20.1-8 29.9-3 10-6.2 20.4-8.2 31-12.2 61.9 23.9 141.7 80.8 179-5.3 18.2-8.9 36.8-10.9 55.2-18.1-23-39.9-38.1-61.8-42.1-7.1-1.3-20.8-1.2-22.3-1.2-2.6 0-4.9 1.6-6 3.9-1 2.4-.6 5.1 1.1 7.1 20.1 22.6 33.2 51.6 37 81.6 1.3 10.1 1.6 20.7 1.8 30.9.3 10.5.6 21.3 1.9 32 7.6 60.9 67.1 124.1 133.4 142.5 1.2 17.9 4 35.5 8.1 52.6-24.7-15.6-50.4-22.5-72.4-19-7.2 1.1-20 5.8-21.4 6.4-2.4.9-4.1 3.1-4.3 5.7s1.1 5 3.4 6.3c26.5 14.6 48.6 37.5 62.2 64.5 4.6 9.1 8.4 19 12.1 28.5 3.8 9.8 7.6 19.9 12.5 29.5 27 53.6 92.3 90.7 156.5 90.7 4.8 0 9.7-.2 14.5-.7 7.7 17.9 17 35 27.6 50.8-28.6-6.1-55.1-3.6-74.5 7.2-6.3 3.5-16.7 12.4-17.9 13.4-2 1.7-2.8 4.4-2.1 6.8.7 2.5 2.8 4.3 5.4 4.7 29.9 4.5 58.6 18.4 80.7 39 7.5 7 14.4 14.9 21.2 22.5 6.9 7.9 14.1 16 22 23.4 31.8 29.7 68.7 55.6 149.6 55.6 37.5 0 84.6-5.6 145-19 11 6.1 20.6 13.7 26.1 23.3l.2-.1c.5 1.8 1.3 3.3 2.3 4.5l3.6 4.7c-17.6 9.5-52.1 19.6-113.6 10-21.8-3.5-29.5 4.1-32.2 9-4 7.3-2.1 16.7 5.1 27-29.9 11.6-79.4 18.1-154.1-7.5-3-1-6.2.5-7.4 3.4s.1 6.2 2.9 7.6l76.6 36.6-21.5 24.3c-1.4 1.6-1.8 3.8-1.2 5.8.7 2 2.4 3.5 4.4 3.9 2.6.5 37.6 7.7 77.6 7.7 33.4 0 70.4-5 94.9-22.9 4-2.9 6-7.8 5.3-12.7-.7-5.1-4.2-9.3-9-11-3.4-1.2-6.7-2.6-9.9-4.1 2.9.1 5.8.2 8.6.2 58.6 0 88-23 102.1-41.1 6.2 4.9 15.4 6.7 24.6 4.2l11-3 11 3c2.8.8 5.6 1.1 8.4 1.1 6.2 0 11.9-1.9 16.2-5.3 14.1 18.1 43.5 41.1 101.8 41.1 2.9 0 5.8-.1 8.8-.2-3.2 1.4-6.4 2.8-9.9 4.1-4.8 1.7-8.3 5.9-9 11-.7 4.9 1.3 9.8 5.3 12.7 24.5 17.9 61.5 22.9 94.9 22.9 40 0 75-7.1 77.6-7.7 2.1-.4 3.7-1.9 4.4-3.9s.2-4.2-1.2-5.8l-21.5-24.3 76.6-36.6c2.8-1.4 4.1-4.7 2.9-7.6s-4.5-4.4-7.4-3.4c-74.7 25.6-124.2 19.1-154.1 7.5 7.3-10.3 9.1-19.7 5.1-27-2.7-4.9-10.4-12.5-32.2-9-61.6 9.6-96.1-.5-113.7-10l3.6-4.7c.9-1.2 1.7-2.7 2.3-4.5l.2.1c5.1-8.9 13.6-16.1 23.6-21.9 13.8 6.9 28.6 9.5 42.8 9.5 27.7 0 53.4-9.6 66.2-15.4 3.2-1.4 6-3.4 8.8-5.4 6.5-4.7 22.8-6.2 32-5.5 5.8.4 11.4 1.9 17.3 3.5 3.5.9 7.2 1.9 11 2.7 12.9 2.6 26.1 2.4 39 2.3 17.3-.2 36.8-1.5 50-15.1 1.9-1.9 3.4-4 5-6 2.3-2.9 4.4-5.7 7-7.4 3.8-2.4 8.9-2.7 14.5-3.1 14.2-.9 28.6-2.5 42.8-5 7-1.2 15-3 21.3-8.2 8.9-7.4 10.8-18 12.5-27.4.5-2.9 1-5.7 1.7-8.3 3.3-12.7 13-24.8 25.3-31.5 1.9-1 3.9-2 5.9-2.9 4.7-2.2 9.6-4.5 14-8.3 7.9-6.7 12.3-18.5 5.9-26.6-2.5-3.2-6-4.8-8.8-5.9-5.4-2.1-11.1-3.3-16.5-4.5-4-.9-7.8-1.7-11.4-2.8-3.8-1.2-9.8-3.7-13.4-8 1.8-5.5 2.1-11.3 2.4-16.7.2-4.4.4-8.6 1.4-12.4 1.2-4.7 3.7-9.4 6.4-14.3.5-.9 1-1.8 1.5-2.8 4.5-5.7 16.7-12.2 26.3-14.7 5.6-1.5 11.4-1.9 17.5-2.4 3.6-.3 7.4-.6 11.2-1.1 13-1.8 25.5-6.3 37.6-10.7 16.3-5.9 34.3-13.6 42.1-30.8 1.1-2.5 1.9-4.9 2.7-7.3 1.2-3.5 2.3-6.9 4.2-9.3 2.8-3.5 7.5-5.5 12.7-7.7 13.1-5.5 26.2-11.9 38.8-18.9 6.2-3.5 13.2-7.7 17.4-14.8 5.9-9.9 4.2-20.6 2.7-30-.5-2.9-.9-5.7-1.1-8.4-1.1-13.1 4.1-27.7 13.5-38 1.5-1.6 3-3.1 4.6-4.7 3.7-3.7 7.6-7.5 10.5-12.4 5.3-8.9 5.5-21.5-3.2-27.1-3.4-2.2-7.3-2.6-10.2-2.7-5.8-.2-11.5.5-17.1 1.2-4.1.5-7.9 1-11.7 1.1-4.1.1-10.5-.2-15.3-3.1-.1-5.8-1.7-11.4-3.3-16.5-1.2-4.2-2.4-8.3-2.8-12.1-.4-4.8.4-10.1 1.3-15.6.6-3.8 1.2-7.7 1.5-11.6.1-.9 0-1.8 0-2.7l.1.1c4.1-4.9 8.5-8.9 11.2-11 4.6-3.6 9.7-6.2 15.1-9.1 3.2-1.7 6.6-3.4 9.9-5.4 11.2-6.7 20.9-15.8 30.3-24.6 12.6-11.8 26.2-26 26.7-44.9.1-2.7-.1-5.3-.4-7.8-.3-3.7-.6-7.2.2-10.1 1.2-4.3 4.7-8 8.7-12 9.9-10.2 19.4-21.2 28.2-32.6 4.3-5.6 9.1-12.3 10.2-20.4 1.6-11.4-4.2-20.6-9.3-28.7-1.6-2.5-3.1-4.9-4.3-7.3-6.1-11.7-7.1-27.1-2.5-40.3.7-2.1 1.5-4.1 2.4-6.1 2-4.8 4.1-9.9 4.8-15.5 1.3-10.3-3.4-21.9-13.6-23.7-4-.7-7.7.5-10.5 1.5-5.4 2.1-10.4 5-15.3 7.8-3.6 2.1-6.9 4-10.4 5.6-5.7 2.6-11 3.7-15.3 3.1-2.4-5.2-6-9.7-9.4-13.8-2.8-3.4-5.5-6.6-7.3-10.1-2.1-3.9-3.4-8.6-4.6-13.6 1-1.3 2-2.5 2.9-3.4 3.9-4.2 8.6-7.7 13.5-11.3 2.9-2.2 6-4.4 8.9-6.9 10-8.4 18.2-18.9 26.1-29.1 10.6-13.6 21.7-29.8 19.2-48.5-.4-2.7-1-5.2-1.6-7.6-.9-3.6-1.7-7-1.4-10.1.2-4.6 3.2-8.8 6.4-13.4" fill="#010101"/><path d="m89.7-502.4c19.1-7.8 39.8-14.6 65.2-21.6 92.7-25.4 127.4-72.1 140.2-100.6 12.8 28.5 47.4 75.2 140.1 100.6 25.4 7 46.1 13.8 65.2 21.6 63.6 25.9 116.3 57.8 160.7 97.3l-157.5 190c-.1.1-.1.2-.1.2-64-37.8-134.5-58.8-208.5-58.8s-144.4 21-208.4 58.8c0-.1-.1-.1-.1-.2l-157.5-190c44.4-39.5 97-71.4 160.7-97.3m718.4 952.1c0 390.7-230.2 708.6-513.2 708.6s-513.2-317.9-513.2-708.6 230.2-708.6 513.2-708.6 513.2 317.9 513.2 708.6m-734.3-656.8c-181 114.8-306.9 366.1-306.9 656.8 0 398.9 236.9 723.4 528 723.4s528-324.5 528-723.4c0-290.7-125.8-541.9-306.8-656.8l160.8-194.1c2.5-3 2.2-7.5-.7-10.2-46.8-42.9-102.6-77.2-170.4-104.8-19.6-8-40.9-15-66.8-22.2-126.1-34.4-136.3-108.7-136.6-111.8 0-.2-.1-.3-.1-.5-.1-.3-.1-.6-.2-.9-.1-.2-.2-.4-.2-.6-.1-.3-.2-.5-.3-.7s-.3-.4-.4-.6-.2-.4-.4-.5c-.2-.2-.4-.4-.6-.6-.1-.1-.2-.3-.4-.4-.3-.2-.6-.4-.9-.6-.1-.1-.2-.1-.3-.2-1.3-.7-2.8-1.1-4.4-.9-2.4.3-4.5 1.7-5.6 3.7 0 0 0 .1-.1.1-.2.3-.4.7-.5 1.1 0 .1-.1.2-.1.3-.1.3-.2.7-.2 1 0 .1-.1.3-.1.4-.4 3.1-10.6 77.4-136.7 111.9-26 7.1-47.2 14.2-66.8 22.2-67.8 27.6-123.5 61.9-170.4 104.8-2.9 2.7-3.2 7.2-.7 10.2z" fill="#010101"/><path d="m124.2 1447.8c8.5 5.6 18.7 11.1 30.4 15.3 1 .4 1.2 1.2 1.3 1.5.1.9-.4 1.3-.6 1.4-40.8 29.8-123.9 19.7-152.9 15l19.7-22.3c1.2-1.4 1.7-3.3 1.4-5.1-.4-1.8-1.6-3.4-3.3-4.2l-29.3-14c49 7.8 83.9.5 107-9.2 4.1 4.3 12.7 12.5 24.8 20.6" fill="#fef389"/><path d="m146.7 1435.9h-18.8c-14.8-10.3-23.5-20.3-23.7-20.5-8.5-9.5-10.5-16.9-8.8-20 1.5-2.8 7.5-5 19.9-3 64.3 10 101.7-.2 122.8-12.2l13.4 17.4c-12.5 17.3-41.3 41.3-104.8 38.3" fill="#fef389"/><path d="m467 1446.9c12.2-8.2 20.7-16.4 24.8-20.6 23.1 9.8 58 17 107 9.2l-29.3 14c-1.7.8-2.9 2.3-3.3 4.2-.4 1.8.1 3.7 1.4 5.1l19.7 22.3c-29 4.7-112.1 14.8-152.9-15-.2-.1-.7-.5-.6-1.4.1-.3.3-1.2 1.3-1.5 11.7-4.1 21.9-9.7 30.4-15.3" fill="#fef389"/><path d="m474.7 1392.4c12.4-2 18.4.2 19.9 3 1.7 3.1-.3 10.5-8.9 20.1-.1.2-8.8 10.1-23.6 20.4h-19.1c-63.2 2.9-92-21-104.5-38.3l13.4-17.4c21 12.1 58.4 22.3 122.8 12.2" fill="#fef389"/><path d="m361.9 1346.1c-.7-1.1-1.4-2.3-2.3-3.5-4.6-6.2-10.6-11.4-18-15.4-1.5-.8-3.1-1.6-4.8-2.5 20.9-26.6 46.9-52.6 77.6-77.3 2.6-2.1 3-5.8.9-8.3-2.1-2.6-5.8-3-8.3-.9-16.6 13.4-32 27.1-45.9 41.2-7.3-7.6-25.6-20.4-66.1-20.4s-58.8 12.8-66.1 20.4c-13.9-14.1-29.2-27.8-45.9-41.2-2.6-2.1-6.3-1.6-8.3.9-2.1 2.6-1.6 6.3.9 8.3 30.7 24.7 56.7 50.6 77.6 77.3-1.7.8-3.3 1.7-4.8 2.5-7.4 4-13.5 9.2-18 15.4-.9 1.2-1.6 2.4-2.3 3.5-19.5-21.8-56.1-32.5-77.8-37.2-6.9-1.5-11.9-7.7-11.9-14.8v-51.9c0-8.4 6.8-15.2 15.2-15.2h57.5c12.7 0 17.4 0 38.7-4.4 8.5-1.7 15.1-3.9 20.9-5.9 8.5-2.8 15.2-5.1 24.7-4.7 9.1-.4 15.7 1.9 24.3 4.7 5.8 1.9 12.4 4.1 20.9 5.9 21.2 4.4 26 4.4 38.7 4.4h57.5c8.4 0 15.2 6.8 15.2 15.2v51.9c0 7.1-5 13.3-11.9 14.8-22.1 4.7-58.7 15.4-78.2 37.2" fill="#fef389"/><g fill="#faa626"><path d="m913.3-81.1c2.4-3.5 4.4-7.1 6.4-10.6 2.5-4.4 4.8-8.6 7.7-12.3.9-1.1 2-2.5 3.1-3 2.2-1 6.1 1.4 7.9 4.8 1.6 3.1 2.3 6.8 3 10.8.4 2.1.8 4.3 1.3 6.4 3.8 15.4 14.7 28.4 29.1 35 2.7 1.2 5.5 2.3 8.2 3.2 7.1 2.6 13.8 5.1 16.4 10.2 1.9 3.8 1.5 9 .9 14-1.4 12.5-3.7 25.1-6.6 37.6-1.4 5.8-3 12.5-.7 19.2 1.5 4.6 4.5 8.1 7.2 11.1 1.3 1.5 2.5 2.9 3.5 4.3 6.7 10 3.2 24.5-.5 37.4-3.2 10.8-6.4 22-11.8 31.8-1.6 2.9-3.4 5.7-5.1 8.6-3.3 5.2-6.6 10.6-9 16.6-1.2 3.1-2.9 8.6-4.1 14.7-1.9-1.5-4-2.7-6.1-3.6 5.2-24.2 4.4-50.4 3.7-71.7-.3-8.8-.7-18.7-5-27.7-1.2-2.4-2.6-4.6-3.9-6.7-1.4-2.3-2.8-4.5-3.7-6.7-2.8-6.6-2-14.5-1.2-22.9 1-10.7 2-21.9-4.1-31.8-5.4-8.9-14.5-13.3-23.3-17.6-8-3.9-15.6-7.7-18.7-14.3-1.2-2.6-1.8-5.9-2.3-9.3-.8-4.7-1.8-10-4.7-14.7 5.5-3.7 9.7-8.7 12.4-12.8"/><path d="m740.2-328.6c1.8-3.8 3.3-7.6 4.7-11.4 1.8-4.7 3.5-9.2 5.8-13.3.7-1.2 1.6-2.8 2.7-3.4 2.1-1.3 6.2.4 8.5 3.5 2 2.8 3.2 6.4 4.5 10.2.7 2.1 1.4 4.1 2.2 6.1 6.1 14.6 18.8 25.9 34 30.3 2.8.8 5.8 1.4 8.6 2 7.4 1.5 14.4 2.9 17.7 7.7 2.5 3.5 2.8 8.7 3 13.7.5 12.6.1 25.4-.9 38.2-.5 6-1.1 12.7 2.2 19 2.2 4.3 5.7 7.3 8.8 9.9 1.5 1.3 2.9 2.5 4.1 3.8 8.1 8.8 6.9 23.8 5 37.1-1.5 11.1-3.1 22.7-6.9 33.2-1.1 3.1-2.5 6.2-3.8 9.2-2.4 5.6-5 11.5-6.4 17.8-.6 2.6-1.2 6.3-1.5 10.5-2.2-.5-4.4-.7-6.7-.7 1.1-23.9-3.5-48.6-7.3-68.8-1.6-8.6-3.4-18.4-9.1-26.6-1.5-2.2-3.2-4.2-4.9-6.1-1.8-2-3.5-4-4.7-6-3.7-6.1-4.2-14-4.6-22.4-.6-10.8-1.2-21.9-8.8-30.9-6.7-8-16.3-11-25.6-14-8.5-2.7-16.6-5.2-20.6-11.4-1.6-2.4-2.6-5.6-3.7-8.9-1.5-4.5-3.2-9.6-6.9-13.9 5.1-4.4 8.5-10 10.6-14.4"/><path d="m758.3-75.1c-3.6-.8-7.3-1.3-10.8-1.9-7.8-1.1-15.1-2.2-20.8-6-3.2-2.1-5.9-5.2-8.8-8.4-1.4-1.5-2.8-3.1-4.2-4.5-9.2-9.3-20.6-15.7-31.7-21.9-13.1-7.3-25.6-14.3-33.6-25.5-6-8.3-9-18.4-12.3-29-1.5-4.8-3-9.8-4.8-14.6-6.4-17.1-16.8-32.8-30-45.4-8.2-7.8-12.2-15.1-12.1-22.1.4-.1 1-.1 1.7-.1 18.6.4 37.8.7 55.3 6.8 18.6 6.4 32.5 19.1 37.2 34 1 3 1.6 6.3 2.3 9.8 1.9 9.4 4.1 20 12.7 26.7 4.1 3.2 8.8 4.8 13 6.2 3.8 1.3 7.4 2.5 9.9 4.6 4.2 3.6 5.6 9.6 7.1 16.5 1.4 6.1 2.8 12.4 6.4 18 5.6 8.7 14.8 13.2 22.9 17.2 2.2 1.1 4.4 2.1 6.4 3.3 25 13.6 39.5 27.4 44.3 42.1 1 3.1 2 6.1 3 8.9.5 1.5 1.1 2.9 1.5 4.3.2.7.4 1.4.6 2.1-14.3-10.1-36.4-16.9-55.2-21.1"/><path d="m893.4 172.3c-3.5-1.3-7-2.4-10.4-3.5-7.5-2.3-14.6-4.4-19.7-9.1-2.8-2.6-5.1-6-7.5-9.6-1.1-1.7-2.3-3.4-3.5-5.1-7.7-10.6-18-18.6-28-26.4-11.9-9.2-23.1-18-29.4-30.2-4.7-9.1-6.2-19.5-7.8-30.5-.7-5-1.5-10.1-2.6-15.2-3.8-17.8-11.7-34.9-22.8-49.3-6.9-9-9.8-16.7-8.7-23.6.7 0 1 0 1.7.2 18.3 3.1 37.3 6.4 53.7 15 17.4 9.1 29.3 23.8 31.7 39.2.5 3.1.7 6.5.9 10.1.5 9.5 1 20.4 8.6 28.3 3.5 3.8 8 6.1 11.9 8.1 3.6 1.8 6.9 3.6 9.1 6.1 3.6 4.2 4.1 10.3 4.6 17.4.5 6.2 1 12.6 3.7 18.7 4.2 9.4 12.7 15.3 20.1 20.4 2 1.4 4 2.8 5.9 4.2 17.3 13.1 26.9 31.4 27.9 52.9-.1 1.5-.3 3-.4 4.4-.1 1.3-.2 2.5-.3 3.7-8.1-10.6-20.7-19.2-38.7-26.2"/><path d="m907.4 473.8c-2.6-3-5.3-5.8-8-8.5-5.8-5.9-11.4-11.5-14-18.8-1.5-4.1-2.1-8.8-2.7-13.7-.3-2.3-.6-4.6-.9-6.8-2.4-14.4-8.3-27.6-14-40.3-6.8-15.3-13.3-29.7-13.7-45.5-.3-11.8 2.8-23.3 6.1-35.5 1.5-5.5 3-11.1 4.2-16.8 4.2-20 4.3-41.2.5-61.2-2.4-12.6-1.7-22.1 2.1-28.9.2.1.4.3.7.5 15.2 11.9 30.9 24.3 42.1 40.9 12 17.9 16.5 38.9 11.9 56.3-.9 3.5-2.2 7.1-3.6 10.9-3.7 10.4-7.6 21.1-4.3 32.5 1.6 5.4 4.6 9.9 7.2 13.9 2.4 3.6 4.8 7.1 5.7 10.8 1.6 6.3-.8 13.4-3.3 20.8-2.2 6.5-4.5 13.3-4.6 20.7-.2 11.4 4.6 20.9 9.3 30.1 1.2 2.4 2.4 4.8 3.5 7.2 9 19.6 16.4 40.6 10.7 62-.3 1.2-.7 2.4-1.1 3.5-.2.7-.4 1.3-.6 2-3.2 9.2-8.3 17.8-14.6 24.8-.1-.2-.1-.3-.2-.5-.8-1.8-1.8-3.6-2.7-5.3 3.1-23.1-1.1-37.7-15.7-55.1"/><path d="m874.9 770.7c-2-3.4-4.3-6.6-6.5-9.7-4.8-6.8-9.4-13.2-10.8-20.8-.8-4.3-.7-9-.5-13.9.1-2.3.1-4.6.1-6.9-.1-14.6-3.8-28.5-7.4-42-4.3-16.1-8.5-31.4-6.3-47.2 1.6-11.7 6.4-22.6 11.6-34.1 2.3-5.2 4.7-10.5 6.8-15.9 7.3-19.1 10.8-40 10.2-60.4-.4-12.9 1.8-22.1 6.7-28.2.2.2.4.4.6.6 13.1 14.2 26.7 28.8 35.1 47 9 19.6 10.1 41 2.9 57.5-1.5 3.3-3.3 6.7-5.2 10.2-5.3 9.7-10.9 19.6-9.4 31.4.7 5.6 3 10.5 5 14.8 1.8 4 3.6 7.7 3.9 11.5.5 6.5-2.9 13.1-6.6 20-3.2 6.1-6.5 12.4-7.8 19.7-2 11.2 1.3 21.4 4.5 31.2.8 2.6 1.6 5.1 2.4 7.6 6.9 24.6 5.1 50.1-4.5 69.3-.9 1.2-1.8 2.3-2.6 3.4-3.5 4.5-7.5 8.6-12 12.2 2.2-20.3-1.2-42.3-10.2-57.3"/><path d="m730 1034.7c-.5-3.9-1.4-7.7-2.2-11.4-1.8-8.1-3.5-15.8-1.8-23.4.9-4.3 2.9-8.5 5-13 1-2.1 2-4.2 2.8-6.3 5.7-13.5 7.7-27.7 9.6-41.5 2.3-16.6 4.6-32.2 12.7-45.9 6-10.2 14.8-18.3 24.1-26.8 4.2-3.8 8.4-7.8 12.5-12 14.2-14.7 25.6-32.5 33-51.5 4.7-12 10.3-19.6 17.2-23.3.1.2.2.5.3.8 6.5 18.2 13.2 37 13.8 57 .6 21.5-6.8 41.7-19.9 54-2.7 2.5-5.6 4.8-8.8 7.3-8.7 6.8-17.7 13.8-21 25.2-1.6 5.4-1.4 10.8-1.3 15.6.1 4.4.3 8.5-.9 12.1-2.1 6.2-7.8 10.9-13.9 15.8-5.4 4.4-10.9 8.9-14.9 15-6.2 9.5-7.2 20.2-8.2 30.4-.2 2.7-.5 5.3-.8 7.9-3.2 24.5-15.4 45.9-34.4 60.7-1.6 1-3.1 2.1-4.6 3.1s-2.9 2-4.3 2.9c-4.1 2.7-8.5 4.8-13 6.6 12-18.1 21.5-41.1 19-59.3"/><path d="m494.4 1238.8c.8-3.9 1.3-7.8 1.7-11.5 1-8.3 2-16.1 6-22.7 2.3-3.7 5.6-7.1 9-10.6 1.6-1.6 3.2-3.3 4.8-5 9.8-10.9 16.4-23.7 22.8-36 7.7-14.8 14.9-28.9 27.1-39.1 9.1-7.6 20-12.3 31.6-17.4 5.2-2.2 10.5-4.6 15.7-7.2 18.3-9.2 34.9-22.2 48.2-37.7 8.4-9.8 16.2-15.1 24-16.3v.9c.1 19.3.3 39.3-5.8 58.4-6.5 20.5-20.2 37.1-36.6 44.4-3.3 1.5-6.9 2.7-10.7 4-10.5 3.5-21.3 7.2-28.2 16.9-3.3 4.6-4.9 9.8-6.3 14.3-1.3 4.2-2.6 8.1-4.9 11.2-4 5.2-11 7.7-18.4 10.4-6.5 2.3-13.2 4.8-19.1 9.2-9.1 6.9-13.5 16.6-17.8 26-1.1 2.4-2.2 4.9-3.4 7.2-7.8 15.3-33.6 30-58.9 40.3 11.3-10.6 15.8-23 19.2-39.7"/><path d="m1 1113.9c19.6 13 39.9 26.4 56 42.8 31.7 32.4 50 78 48 117.4-26.2-22.7-40.9-47.6-54.2-70.2-14.7-24.8-27.3-46.1-51-58.8-15.6-8.3-32.4-13.4-48.9-17.9l-.1-.2c-6.6-15.7-12.8-30.5-15.2-46.8-.8-5.4-1-13.4-1-20.8 17.6 22.3 42.3 38.6 66.4 54.5"/><path d="m-223.2 846.9c1.1-5.4 3.7-12.9 6.2-19.9 8.9 27.1 26.5 51 43.5 74.2 13.9 19 28.3 38.6 37.7 59.5 19.1 42.8 18.3 90.4-2 128.1-1.4-9.2-2.6-18.5-3.8-28.4-5.8-46.4-11.7-94.3-43.9-130.4-11.8-13.2-25.7-23.8-39.7-33.7v-.1c-.7-17-1.4-33.1 2-49.3"/><path d="m-297.1 576.9c2.9-4.7 7.8-10.9 12.6-16.7-.7 28.5 7.9 56.9 16.2 84.5 6.8 22.5 13.8 45.8 15.6 68.7 3.6 45.8-12.4 89.4-42.8 118.2-.1-.2-.2-.4-.4-.5-.3-.5-.7-1.1-1.1-1.8 1.7-8.5 3.6-17.1 5.5-25.6 10-44.9 20.4-91.3 2.3-135.9-6.7-16.4-16.3-31.1-26.1-45.1v-.1c4.9-16.2 9.6-31.6 18.2-45.7"/><path d="m-280 290.1c4.2-3.6 10.8-7.9 17.1-11.9-9.6 26.9-10.4 56.5-11.2 85.3-.6 23.5-1.3 47.8-6.8 70.1-11.2 45.7-42.1 85.5-79.6 103.5-.2-1.1-.5-2.4-.8-3.9-.1-.5-.2-1-.3-1.6 4.6-8 9.4-16 14.5-24.5 24.1-39.8 49-80.9 45.9-128.4-1.2-17.7-5.7-34.6-10.7-51l.1-.1c9.9-13.7 19.2-26.7 31.8-37.5"/><path d="m-204 13.6c4.8-2.6 12.2-5.6 19.2-8.2-14.8 24.4-21.6 53.2-28.1 81.3-5.4 22.9-10.9 46.6-20.7 67.3-19.4 40.8-54.2 70.5-94.2 80.7.1-.6.1-1.1.1-1.7.1-.5.1-1 .2-1.6 5.7-6.6 11.7-13.3 17.6-19.7 29.9-32.9 60.7-67 67.4-115.5 2.4-17.6 1.4-35-.2-52.1l.1-.1c12.4-11.5 24.1-22.4 38.6-30.4"/><path d="m-54.8-202.1c4.9-.6 11.9-.6 18.6-.4-21.2 16.1-37.1 38.7-52.6 60.6-12.8 18.1-26 36.9-41.9 51.5-30.6 28.1-70.4 41.7-108.2 37.4.3-.9.6-2 1-3.1.1-.3.2-.7.3-1 6.9-3.5 13.9-6.9 20.8-10.2 37.6-18 76.4-36.6 99.2-76.3 8.3-14.5 13.6-30.1 18.2-45.5 15.1-5.8 29.2-11.2 44.6-13"/><path d="m-253.9-229.5c6.7-6.8 14.4-13.1 21.7-19.2 7.7-6.3 15.6-12.9 22.8-20.2 18.5-18.6 32.1-42.2 39.3-67.5 1 1.4 1.8 2.8 2.4 3.9 13.7 26.3 4.9 60-.5 75.3-10.4 7.6-20.1 15.8-28.8 24.6-35.7 36-62.5 95.9-71.9 160.8-3.4 2.8-6.7 5.6-9.9 8.5-18.8-51.4-13.9-127.2 24.9-166.2"/><path d="m-410.5 65.9c3.9-9.4 8.9-18.6 13.8-27.5 5-9.3 10.2-18.8 14.4-28.8 10.8-25.9 14.8-54.7 11.7-82.6 1.8 1.2 3.5 2.4 4.6 3.4 24.1 20.5 28.7 57.4 29.5 74.6-7.2 11.6-13.5 23.6-18.6 35.6-22.5 53.5-26.6 122.9-11.1 185.8-2.6 3.4-5.1 6.8-7.6 10.3-42.5-44.3-58.7-118.2-36.7-170.8"/><path d="m-471.7 382.9c2-10 5-20 7.9-29.7 3-10.1 6.2-20.5 8.3-31.1 5.4-27.5 3.5-56.6-5.2-83.3 2 .8 3.9 1.6 5.2 2.4 27.7 15.3 39.7 50.5 44 67.2-4.7 12.9-8.5 25.8-11 38.6-10.5 53.2.5 125.1 27.9 184.9-1.8 4.7-3.6 9.4-5.2 14.2-50.9-35.4-83-107.2-71.9-163.2"/><path d="m-450 725.2c-1.3-10.1-1.5-20.6-1.8-30.7-.3-10.5-.6-21.4-1.9-32.2-3.5-27.8-14.4-54.8-31.1-77.4 2.2.1 4.2.3 5.7.6 31.1 5.8 53.5 35.5 62.8 50-.4 13.7.1 27.2 1.7 40.1 7.2 57.5 38.7 120 84.2 167.3-.1 4.2 0 8.3.1 12.5-59.9-18.6-112.8-75.4-119.7-130.2"/><path d="m-317.6 1037.9c-4.6-9.1-8.3-18.8-12-28.3-3.8-9.8-7.7-20-12.6-29.7-12.6-25-31.9-46.8-55.2-62.6 2.1-.6 4.1-1.1 5.5-1.3 31.2-5 62.3 15.5 75.9 26 4.2 13 9.2 25.6 15 37.2 26.5 52.8 74.8 99.5 132.4 128.2 1.5 4.5 3.1 9 4.8 13.5-61.3 3.7-128.1-32-153.8-83"/><path d="m-86.9 1292.1c-7.4-6.9-14.4-14.8-21.1-22.4-6.9-7.9-14.1-16.1-22.1-23.5-20.5-19.1-46.2-32.9-73.5-39.5 1.8-1.3 3.4-2.4 4.7-3.2 27.6-15.5 63.8-7.1 80.3-1.9 8.4 10.8 17.4 20.8 27 29.7 51.2 47.8 137.5 79.9 230.7 85.7 2.6 1.6 5.4 2.8 8.5 3.5 8.5 1.8 19.4 4.6 30.5 8.7-170.1 34.9-222.6 2.4-265-37.1"/></g><path d="m309.1 1399.7-14.1-3.8-14.1 3.8c-6.2 1.7-12.7.3-15.5-3.3l-28.8-37.5c-1.1-1.4.2-5 3.3-9.2 3.5-4.8 8.2-8.8 14.1-12 7.5-4.1 21.7-10.7 33.7-10.7h1.6.2 11.3c12.4-.6 27.4 6.4 35.3 10.6 5.8 3.1 10.6 7.2 14.1 12 3.1 4.2 4.3 7.8 3.3 9.2l-28.8 37.5c-3 3.6-9.5 5-15.6 3.4" fill="#fef389"/><path d="m771.1 1180.5c4.2 1.3 8.4 2.2 12.6 3.1 5.2 1.1 10.1 2.2 14.6 4 .7.3 2.7 1.1 3.4 1.9 1.1 1.4-.4 6-4.1 9.2-3.1 2.6-7.1 4.5-11.2 6.5-2.2 1-4.4 2.1-6.5 3.2-15.5 8.4-27.2 23.1-31.5 39.4-.8 3.1-1.4 6.2-1.9 9.2-1.5 8.3-2.8 15.5-8.2 20-3.9 3.3-9.7 4.5-15.4 5.5-13.7 2.4-27.7 4-41.7 4.9-6.4.4-13.7.8-20.3 5-4.5 2.8-7.5 6.8-10.2 10.3-1.4 1.8-2.7 3.5-4.1 4.9-9.7 10.1-26.3 11.1-41 11.3-12.2.1-24.8.3-36.3-2.1-3.4-.7-6.7-1.6-10.2-2.5-6.2-1.7-12.6-3.4-19.6-3.9-7.4-.6-29.2-.2-40.4 7.8-2.3 1.7-4.4 3.1-6.5 4.1-12.7 5.7-53.4 21.5-88.7 10 13.7-5.8 27.9-9.5 38.4-11.8 6.9-1.5 12.7-5.6 16.5-11.2 4.3.6 9 .9 14.2.9 40.6 0 105-16.1 131.8-24.6 9.2-3 19.7-6.3 28.4-13.3 2.3-1.9 4.4-3.9 6.4-5.9 2.2-2.2 4.3-4.3 6.6-5.9 6.8-4.9 15.5-6.6 24.8-8.5 11.6-2.3 23.5-4.6 32.8-13.5 8.3-8 11.3-18.4 14.2-28.4 2.7-9.4 5.3-18.2 12.1-23.6 2.7-2.1 6.2-3.7 9.8-5.4 5.2-2.4 10.6-4.9 15-9.4 4.1 3.7 9.6 6.7 16.2 8.8" fill="#faa626"/><path d="m971.9 888.3c4.4-.1 8.7-.7 12.9-1.2 5.3-.7 10.2-1.3 15.1-1.1.7 0 3 .1 3.9.7 1.4.9 1.6 5.8-.9 10-2.1 3.5-5.2 6.6-8.5 9.8-1.7 1.7-3.5 3.4-5.1 5.2-11.8 13-18.1 30.8-16.7 47.6.3 3.2.8 6.3 1.2 9.3 1.3 8.4 2.5 15.6-1.1 21.6-2.6 4.4-7.7 7.5-12.7 10.3-12.2 6.8-24.8 13-37.7 18.4-5.9 2.5-12.7 5.3-17.5 11.4-3.3 4.1-4.8 8.9-6.2 13.1-.7 2.1-1.4 4.2-2.2 6-5.8 12.8-21.1 19.2-35 24.2-11.5 4.1-23.3 8.4-35 10.1-3.4.5-6.8.7-10.4 1-6.4.5-13.1 1-19.8 2.8-3.4.9-9.7 3.1-16.2 6.5.2-2.6 0-5.1-.5-7.4 25.7-10.7 49.1-28.3 70-44.1 7.7-5.8 16.5-12.5 22.4-21.9 1.6-2.6 2.9-5.2 4.1-7.7 1.4-2.8 2.7-5.5 4.3-7.8 4.7-6.9 12.4-11.4 20.6-16.2 10.2-5.9 20.7-12.1 26.5-23.6 5.2-10.3 4.6-21.1 4.1-31.5-.5-9.8-1-19 3.7-26.3 1.9-2.9 4.6-5.5 7.5-8.3 4.1-4 8.4-8.1 11.1-13.9 5 2.2 11.2 3.2 18.1 3" fill="#faa626"/><path d="m1013.6 573.1c.6-3.4 2.1-6.9 3.6-10.6 2.3-5.3 4.5-10.8 4.7-17.1 6.8-.1 13.3-2.3 17.9-4.4 4-1.8 7.7-4 11.4-6.2 4.6-2.7 8.9-5.2 13.4-6.9.7-.3 2.8-1.1 3.8-.9 1.7.3 3.8 4.7 3.2 9.6-.5 4-2.2 8.1-3.9 12.3-.9 2.2-1.8 4.5-2.6 6.8-5.8 16.6-4.5 35.4 3.3 50.3 1.5 2.8 3.2 5.5 4.8 8.1 4.5 7.2 8.4 13.4 7.5 20.3-.7 5.1-4.2 9.9-7.7 14.4-8.5 11.1-17.7 21.7-27.5 31.7-4.5 4.6-9.6 9.9-11.6 17.4-1.4 5.1-.9 10.1-.6 14.5.2 2.2.4 4.4.3 6.4-.4 14-11.9 25.9-22.6 36-8.9 8.3-18.2 16.9-28.2 23-2.9 1.8-6 3.3-9.2 5-5.7 3-11.6 6-17.1 10.3-2.1 1.6-4.3 3.6-6.6 5.8-1-2.2-2.3-4.1-3.8-5.8 17-19.2 30.6-42.9 41.8-62.4 4.8-8.4 10.3-18 12-29 .5-3 .6-5.9.7-8.7.2-3.1.3-6.1.9-8.8 1.6-8.2 7-15.4 12.6-22.9 7-9.5 14.3-19.3 15.1-32.1.7-11.5-4-21.2-8.6-30.6-4.4-8.6-8.5-16.9-7-25.5" fill="#faa626"/><path d="m1061.6 357.9c-3.7 5.3-7.9 11.3-8.7 19-.5 5.2.7 10.1 1.7 14.4.5 2.2 1.1 4.3 1.3 6.3 1.9 13.9-7.6 27.5-16.7 39.1-7.5 9.6-15.2 19.6-24.2 27.2-2.6 2.2-5.4 4.2-8.3 6.4-4.4 3.3-8.9 6.7-13.1 10.8-1.4-3.4-3-6.4-5-8.9 9.8-18.4 17.6-38.8 23.9-55.4 3.4-9.1 7.3-19.4 7.2-30.5 0-3-.3-5.9-.6-8.7-.3-3.1-.7-6-.5-8.8.3-8.4 4.4-16.3 8.8-24.7 5.4-10.5 11.1-21.3 9.8-34.1-1.1-11.5-7.3-20.3-13.4-28.8-5.6-8-11-15.5-10.9-24.2 0-3.5.9-7.1 1.9-11 1.4-5.5 2.7-11.2 2-17.3 6.2-1 11.9-4.1 17-7.5 3.6-2.4 7-5.2 10.3-7.9 4.1-3.4 8-6.5 12.2-8.9.6-.4 2.5-1.5 3.7-1.5 1.7 0 4.5 4 4.6 9 .1 4.1-.9 8.3-1.9 12.8-.6 2.4-1.1 4.7-1.5 7.1-3 17.3 1.1 35.7 11.2 49.1 1.9 2.5 4 4.9 6 7.2 5.6 6.4 10.4 11.9 10.6 18.9.1 5.1-2.5 10.4-5.3 15.5-6.6 12-14 23.9-22.1 35.4" fill="#faa626"/><g fill="#fef389"><path d="m655.5-294.3c-.7-1.4-1.5-2.8-2.2-4.2-6.4-11.9-11-21.4-5.9-26.8 3.8-4 11.7-3.1 17.3-.5 2.8 1.3 5.5 2.8 8.3 4.5 4.8 2.8 9.8 5.8 15.6 7.4 4.6 1.3 9.4 1.6 14 2 7.4.6 13.9 1 17.7 5.1 2.4 2.5 3.6 6.3 4.9 10.3 1.3 3.9 2.6 7.9 5.1 11.7 6.4 9.6 17.3 13.1 27 16.1 8 2.5 15.6 4.9 20.1 10.3 5 5.9 5.5 14.7 6 23.9.5 9.5 1.1 19.3 6.3 27.9 1.8 2.9 3.9 5.3 5.9 7.6 1.5 1.7 2.9 3.3 4.1 5 4.3 6.2 5.8 14.3 7.2 22.1 4.1 22.1 8.7 47 6.8 70.8 0 0-.1 0-.1.1-2.8 2.2-4.7 4.8-5.9 7.6-10.9-12.5-25.8-21.7-37.8-28.2-2.2-1.2-4.6-2.4-6.9-3.5-7.4-3.6-14.4-7.1-18.2-13-2.5-3.9-3.6-8.9-4.9-14.2-1.8-7.9-3.8-16.8-11-22.9-4.2-3.6-9.3-5.3-13.7-6.8-3.6-1.2-7.1-2.4-9.5-4.4-5.2-4.1-6.8-11.7-8.4-19.8-.7-3.6-1.5-7.4-2.6-11-4.6-14.7-16.2-27.5-31.9-36 1.8-14.1-.7-28.5-7.3-41.1"/><path d="m824.4-59.8c-.5-1.4-1-2.9-1.6-4.5-4.6-12.7-7.7-22.8-1.8-27.4 4.3-3.4 12-1.3 17.2 2.1 2.6 1.7 5 3.6 7.5 5.7 4.3 3.5 8.8 7.2 14.4 9.6 4.4 2 9 3 13.5 4 7.3 1.7 13.6 3.1 16.8 7.7 2 2.8 2.6 6.8 3.3 10.9s1.4 8.2 3.3 12.3c4.9 10.5 15.1 15.5 24.2 20 7.6 3.7 14.7 7.2 18.4 13.2 4 6.6 3.2 15.3 2.4 24.5-.9 9.5-1.8 19.3 2.1 28.6 1.3 3.1 3 5.8 4.7 8.4 1.2 1.9 2.4 3.7 3.3 5.6 3.3 6.8 3.6 15 3.9 23 .8 22.1 1.6 47.1-3.7 70.1-.3.1-.5.1-.8.1-5.7 1.6-9.6 5.1-12.3 9.7-5.3-14-14.5-26.1-27.3-35.8-2-1.5-4.2-3-6.3-4.5-6.8-4.7-13.2-9.2-16-15.5-1.9-4.2-2.3-9.3-2.7-14.8-.6-8-1.3-17.2-7.5-24.3-3.6-4.2-8.4-6.6-12.5-8.8-3.4-1.8-6.6-3.4-8.8-5.7-4.5-4.8-5-12.6-5.4-20.8-.2-3.7-.4-7.5-1-11.3-2.4-15.2-11.9-29.6-26.1-40.3 3.8-13.7 3.5-28.4-1.2-41.8"/><path d="m944.3 201.1c.2-1.7.3-3.5.5-5.3 1-12.2 2.3-27.4 10-29.5 5-1.4 10.6 4.4 13.8 10.2.6 1 1.1 2.1 1.6 3.2.5 1.7 1.2 3.3 2.2 4.8.2.5.5 1 .7 1.6 2.4 5.7 4.9 11.5 8.8 16.6 3.1 4.1 6.9 7.4 10.5 10.6 5.9 5.2 11 9.7 12 16.2.6 4.1-.5 8.6-1.7 13.4-1.1 4.4-2.2 9-2.3 14-.1 12.7 6.7 22.3 13.2 31.6 5.3 7.5 10.3 14.6 11.1 22.7.9 9.1-3.7 17.8-8.5 27.1-4.8 9.2-9.8 18.8-10.2 30-.1 3.7.2 7.3.6 10.7.3 2.6.6 5 .6 7.4.1 8.8-3.2 17.5-6.4 25.9-5.9 15.6-13.1 34.6-22 51.6-3.1-1.4-6.4-2.1-9.8-1.8-6.1.7-10.7 3.7-14.2 8.1-2.5-11.5-6.9-22.6-11.9-33.2-1.2-2.6-2.5-5.1-3.7-7.6-4.2-8.2-8.1-15.9-7.9-24.1.1-5.4 2-11 4-16.9 3-8.8 6.1-18 3.6-27.9-1.4-5.9-4.7-10.6-7.5-14.8-2.3-3.5-4.6-6.8-5.6-10.3-2.2-7.5.9-15.9 4.1-24.8 1.4-3.9 2.9-7.9 3.9-12 4.4-16.7 1.8-36.1-6.6-53.8 9.5-12.3 15.5-27.6 17.1-43.7"/><path d="m934.1 799.8c4.9 1.5 6.7 9.4 6.3 16-.2 3.3-.8 6.8-1.3 10.4-1 6.1-2 12.3-1.4 18.8.5 5.1 1.9 9.9 3.2 14.6 1.6 5.6 3.1 10.6 2.7 15.3 0 0-.4 3.4-1.2 4.8-2.1 3.5-5 7-8.6 10.4-3.3 3.2-6.7 6.4-9.4 10.6-6.9 10.7-6.2 22.4-5.6 33.8.5 9.2 1 17.8-2.7 25.1-4.1 8.1-12.6 13.1-21.6 18.4s-18.3 10.7-24.6 19.9c-2.1 3.1-3.7 6.3-5.2 9.4-1.1 2.3-2.2 4.6-3.5 6.6-4.6 7.5-12.1 13.1-19.3 18.5-20.7 15.6-43.9 33-68.6 43.1-.4-.3-.7-.8-1.2-1.1-3.5-2.6-7.3-3.7-11.2-3.9 10-13.9 16.5-30.3 18.9-48 .4-2.8.6-5.6.9-8.4.8-9.1 1.6-17.8 6.1-24.7 3-4.5 7.5-8.2 12.4-12.1 7.2-5.9 14.7-12 17.9-21.7 1.9-5.8 1.7-11.5 1.6-16.5-.1-4.2-.3-8.1.8-11.7 2.2-7.5 9.2-13 16.7-18.8 3.3-2.5 6.6-5.2 9.7-8 12.6-11.8 20.8-29.5 23.1-49.1 14.5-5.3 27.8-15 37.6-27.8.5-.7 2.9-3.6 3.4-4.5 7.4-9.7 16.5-21.7 24.1-19.4"/><path d="m545.5 1243.7c1.3-2.5 2.4-5.1 3.6-7.7 3.8-8.4 7.4-16.2 13.9-21.2 4.3-3.3 9.8-5.3 15.7-7.4 8.8-3.2 17.8-6.4 24.1-14.5 3.7-4.8 5.4-10.3 6.9-15.1 1.3-4 2.4-7.8 4.6-10.7 4.5-6.4 13-9.2 21.9-12.2 3.9-1.3 7.9-2.7 11.8-4.4 15.8-7 29.3-21 38-38.7 15.5-.2 31.2-5 44.7-13.8 1.4-.9 2.9-1.9 4.5-3 1.5-1 3-2 4.6-3v.1c.1-.1.3-.2.4-.3 9.1-5.8 18.9-11.2 24.3-7.2 4.1 3 3.2 11 .6 17.2-.8 2-1.9 4-3 6.1-1 1.5-1.9 3-2.5 4.6-2.7 5-5.4 10.2-6.8 15.9-1.3 5-1.5 10-1.8 14.8-.3 5.8-.6 11-2.5 15.3 0 0-2.2 3.6-2.7 4.1-2.8 3-7 4.9-11.5 7-4.2 1.9-8.5 3.9-12.4 6.9-10 7.9-13.3 19.1-16.5 30-2.6 8.8-5 17.2-10.9 22.8-6.6 6.3-16.2 8.2-26.5 10.2-10.2 2-20.8 4.1-29.8 10.7-3 2.2-5.6 4.7-8 7.1-1.8 1.8-3.6 3.6-5.5 5.1-6.8 5.5-15.7 8.4-24.3 11.1-31.8 10.2-102.7 26.8-137.6 23.6 0-.3.1-.6.1-.9 17.2-5.8 68.8-25.3 82.6-52.5"/><path d="m-63.1 1137.3c20 5.2 38.9 10.1 56.5 19.5 20.5 10.9 32.2 30.8 45.9 53.8 16.7 28.2 37.3 63 81.1 91.6-82.6-8.6-157.4-38.1-202.9-80.6-35.3-32.9-63.3-80.9-77.5-131.4 3.3 2.8 6.7 5.5 10.2 8.1 1.2 1 2.4 1.8 3.3 2.6 12.2 9.8 26.3 17.7 41.7 23.7 13.6 5.4 27.9 9.1 41.7 12.7"/><path d="m-276.4 874.6c11 9.7 23.1 18.2 34.8 26.3 17 11.8 33 23 46.2 37.9 29.4 33.1 35.1 78.9 40.6 123.3.7 5.6 1.4 11.4 2.2 17.1-5.3-4.5-10.4-9.5-12.7-13.6-1.7-3-5.3-4.3-8.6-3.1s-5.1 4.6-4.5 7.9c1.3 6.4 2.8 12.8 4.5 19.2-50.1-27.7-91.7-69.5-115.3-116.4-21.7-43.1-31.4-97.8-27.2-150.1 2.1 3.7 4.4 7.5 6.7 11.2.8 1.3 1.6 2.5 2.2 3.5 8.3 13.5 18.7 25.9 31.1 36.8"/><path d="m-332.5 621.6c12 16.8 23.4 32.7 30.9 51.2 16.6 40.8 6.7 85.1-2.9 128-.9 3.8-1.7 7.7-2.6 11.6-2.7-5.1-5-10.2-5.6-14-.5-3.4-3.4-5.9-6.9-6-3.6-.1-6.4 2.5-7 5.9-1.4 8.5-2.4 17.2-3 25.9-38.9-44-65.5-99.3-71.9-150.3-5.6-45.1 2.2-96.3 21.1-142.1l.3-.1c0-.1-.1-.1-.1-.2 1.1-2.7 2.3-5.4 3.5-8.1.8 4.2 1.7 8.5 2.6 12.8.3 1.6.6 2.9.9 4.1 3.1 15.3 8.8 30.4 16.8 44.9 7.1 12.8 15.6 24.8 23.9 36.4"/><path d="m-314.4 379.8c2.9 43.3-20.9 82.6-44 120.6-2.2 3.6-4.4 7.4-6.7 11.1-.4-3.9-.5-7.6 0-10.3.6-3.4-1.3-6.7-4.5-7.9-3.3-1.2-6.9.2-8.6 3.2-3.3 6.1-6.4 12.3-9.4 18.6-22.7-55-31.4-118.3-22.1-165.6 9.4-47.3 35.3-96.5 70.7-135.2-.6 4.2-1.1 8.6-1.5 12.9-.2 1.6-.3 3-.5 4.2-1.8 15.6-1.2 31.7 1.9 47.9 2.7 14.4 7.1 28.5 11.3 42.2 6.3 19.8 12.1 38.4 13.4 58.3"/><path d="m-69.8-283.7c-1 1.2-1.8 2.2-2.5 3.1-9.6 11.3-17.5 24.3-23.6 38.7-5.4 12.8-9.3 26.1-13.1 39.1-5.5 18.7-10.7 36.4-20 52.6-20.7 36.2-56 53.1-93.4 70.9-2.9 1.4-5.8 2.8-8.7 4.2 1.9-4.4 3.9-8.3 6-10.8 2.3-2.6 2.3-6.5 0-9.1-2.3-2.7-6-3.3-9-1.5-6.6 4-13 8.3-19.3 12.8 10.6-56.8 34.6-108.1 65.9-139.6 31.8-32 77.3-56.9 125-68.9-2.5 2.8-4.9 5.7-7.3 8.5"/><path d="m-246.4-72.5c-1.4 4-2.8 8.2-4.1 12.4-.5 1.5-.9 2.9-1.3 4-4.9 14.9-7.6 30.8-7.8 47.3-.2 14.7 1.2 29.4 2.6 43.6 2 20.6 4 40 1.2 59.8-6.1 44.4-34.2 75.5-64.1 108.4-1.5 1.6-3 3.3-4.5 5 .9-4.3 2.1-8.2 3.5-10.9 1.7-3 .9-6.8-1.9-8.9s-6.6-2-9.1.4c-8.4 7.8-16.3 16.1-23.8 24.9-12.1-57.6-7.5-119.4 12.8-167.6 18.8-44.7 54-87.6 96.5-118.4"/><path d="m1009.4 544.7c0 4.1-1.8 8.4-3.8 12.9-1.8 4.2-3.6 8.5-4.5 13.4-2.1 12.6 3.1 23.1 8.1 33.3 4.1 8.2 7.9 16 7.4 24.2-.6 9.1-6.4 17-12.6 25.4s-12.6 17-14.8 28c-.7 3.7-.9 7.2-1.1 10.7-.1 2.6-.3 5.1-.6 7.4-1.3 8.7-6 16.8-10.4 24.6-11.9 20.8-25.4 44.1-42.3 62.5-5.6-.8-10.7.9-15.4 4.1 2.6-16.2 1.6-33.8-3.2-51.3-.8-2.7-1.6-5.4-2.5-8.1-2.8-8.7-5.5-17-4-25.1 1-5.3 3.7-10.5 6.6-16 4.3-8.2 8.8-16.8 8-27-.5-6-2.9-11.2-5-15.8-1.8-3.8-3.4-7.4-3.9-11-.9-7.7 3.4-15.6 8-23.8 2-3.6 4.1-7.3 5.8-11.2 7-15.8 7.5-35.3 2-54.2 10.2-9.6 18-22.1 22.4-36 .9-2.7 1.6-5.3 2.2-7.9.1-.5.3-1.1.4-1.6 3-11.9 6.6-26.7 14.6-27.6 5.1-.6 9.8 6 12.1 12.3 1.1 3.2 2 6.5 2.8 10.1 1.5 6 3 12.1 6.1 17.8 2.4 4.5 5.6 8.4 8.7 12.1 4.6 6 8.9 11.2 8.9 17.8"/></g></svg>