<svg fill="none" height="48" viewBox="0 0 48 48" width="48" xmlns="http://www.w3.org/2000/svg"><g clip-rule="evenodd" fill-rule="evenodd"><path d="m31.6217 45.8425c0-.2615-.1038-.5122-.2884-.6971-.1847-.185-.4351-.2888-.6963-.2888-2.6714 0-10.0341 0-12.7055 0-.2611 0-.5115.1038-.6962.2888-.1847.1849-.2884.4356-.2884.6971v1.1716c0 .2615.1037.5122.2884.6971.1847.185.4351.2889.6962.2888h12.7055c.2612.0001.5116-.1038.6963-.2888.1846-.1849.2884-.4356.2884-.6971 0-.3734 0-.7982 0-1.1716zm-6.8921-14.8491s4.6346-5.2223 9.0271-7.6899c5.183-2.9116 12.9933-2.2355 12.9933-2.2355s-6.2117 1.8724-9.9579 7.364c-3.3565 4.9203-5.4386 15.0976-5.4386 15.0976s-3.1357-7.6403-6.6239-12.5362zm4.8138 12.4269h-12.5671s-1.7497-2.3082-2.394-5.4851c-.6976-3.4403-1.8333-7.5261-3.5893-9.7766-3.32414-4.26-9.743-6.9095-9.743-6.9095s12.0868-2.0012 19.4646 7.3001c3.579 4.5121 8.8243 14.8616 8.8288 14.8711z" fill="#002263"/><path d="m24 14.7728c3.32 0 6.0154 2.7395 6.0154 6.1136 0 3.3742-2.6954 6.1136-6.0154 6.1136s-6.0154-2.7394-6.0154-6.1136c0-3.3741 2.6954-6.1136 6.0154-6.1136zm7.1295 3.7462c2.309-1.371 7.1251-4.1226 9.7247-4.8282.2185-.0594.4381-.0874.6541-.0868l.0154.0001c1.0946.0099 2.0937.7538 2.3907 1.8765.3569 1.3495-.4348 2.7386-1.7668 3.1002-2.3526.6386-7.1047.7456-9.9699.747h-.0993c-.2638-.0001-.5108-.001-.7371-.0025-.0563-.2745-.1272-.5436-.2118-.8063zm-14.4708.8063c-2.6756.0177-8.2063-.0388-10.80627-.7445-1.33209-.3616-2.12372-1.7507-1.76681-3.1002.3569-1.3494 1.72812-2.1514 3.06022-1.7898 2.59942.7056 7.41556 3.4572 9.72446 4.8282-.0844.2627-.1553.5318-.2116.8063zm.8813-2.3096c-2.5406-.8552-7.75562-2.7089-9.99248-4.2233-1.14647-.7762-1.45534-2.3494-.68914-3.51098.76631-1.16157 2.31924-1.47437 3.46582-.69815 2.2364 1.51413 5.921 5.68483 7.6734 7.73613-.1646.223-.3175.4554-.4576.6963zm12.4175-.7565c1.7458-2.0534 5.4253-6.2389 7.6602-7.75961 1.1448-.77885 2.6984-.46969 3.4673.69.7689 1.15981.4637 2.73371-.6811 3.51271-2.2335 1.5197-7.4446 3.3858-9.9831 4.247-.1422-.2389-.297-.4692-.4633-.6901zm-10.8336-1.1615c-2.1311-1.6456-6.4645-5.10943-8.0939-7.27534-.836-1.11114-.6242-2.70078.4726-3.54757 1.0968-.8469 2.666-.63231 3.5018.47883 1.6288 2.16503 3.7756 7.31288 4.7775 9.83208-.2287.1584-.4483.3295-.658.512zm9.0588-.5365c.9992-2.5096 3.1578-7.68219 4.7932-9.85316.8366-1.11059 2.4059-1.32408 3.5021-.47652 1.0963.84756 1.3071 2.43731.4705 3.5479-1.6349 2.1702-5.9878 5.64278-8.1143 7.28218-.2078-.1783-.4252-.3455-.6515-.5004zm-6.9734-.7503c-1.4991-2.2545-4.5006-6.9353-5.3571-9.51321-.4398-1.32408.2641-2.7609 1.5711-3.20648 1.307-.445687 2.7253.26744 3.1651 1.59152.8563 2.57735 1.2595 8.14217 1.4111 10.85687-.2697.0757-.5334.1666-.7902.2713zm4.7899-.2718c.151-2.7146.5533-8.27946 1.4091-10.85693.4398-1.32418 1.8578-2.037528 3.1649-1.59217 1.307.44547 2.0113 1.88207 1.5716 3.20626-.856 2.57813-3.8566 7.25944-5.3554 9.51414-.2567-.1047-.5205-.1954-.7902-.2713zm-2.4167-.2626c-.7111-2.6219-2.0812-8.02588-2.0812-10.74516 0-1.39708 1.1197-2.53134 2.4987-2.53134s2.4986 1.13426 2.4986 2.53134c0 2.71928-1.37 8.12326-2.081 10.74516-.1383-.0077-.2775-.0116-.4176-.0116s-.2793.0039-.4175.0116z" fill="#0bbbb9"/></g></svg>