<svg xmlns="http://www.w3.org/2000/svg" xmlns:xlink="http://www.w3.org/1999/xlink" viewBox="0 0 256 256"><g id="a"><path fill="#b17d53" d="M81 46c6-12 7-26 7-40 1 17 13 29 24 40-3 8-6 16-10 24-6-9-13-17-21-24Zm33 129 10 1V151c-1-15-4-30-10-43-8 7-13 18-13 29-4-10-12-19-21-25-3 26 6 57 34 63Z"/><path d="M95 13c4 10 11 18 19 26 3-9 6-23 6-27 1-19-30-13-25 1ZM55 27c7 4 15 8 21 14 3-7 5-16 4-24-3-20-43-4-25 10Zm73-17c-4 17-12 49-22 67 5 9 9 19 12 29 3-2 6-4 10-4l11-50c-4-14-9-33-11-42ZM66 91c0 7-1 21 8 37-1-9-1-18 0-26 6 2 10 5 14 9 1-2 6-12 22-7C99 67 66 30 27 24 48 40 62 64 66 91Z"/><path fill="none" stroke="#b17d53" stroke-width="9.6" d="M119 174v77H21V74.9c0-22 16-29 19-31"/></g><use xlink:href="#a" style="scale:-1 1;transform-origin:center"/></svg>