<svg height="24" viewBox="0 0 24 24" width="24" xmlns="http://www.w3.org/2000/svg" xmlns:xlink="http://www.w3.org/1999/xlink"><clipPath id="a"><path d="m0 0h20v20h-20z"/></clipPath><path d="m0 0h24v24h-24z" fill="none"/><g clip-path="url(#a)" transform="translate(2 2)"><path d="m0 0h20v20h-20z" fill="none"/><g fill-rule="evenodd"><path d="m20.526-27.283h-8.368v-8.184a8.731 8.731 0 0 1 .8-3.4 3.137 3.137 0 0 1 .96 2.269 4.664 4.664 0 0 1 1.671-1.931 6.219 6.219 0 0 1 -.455 3.124 3.294 3.294 0 0 1 -2.221 1.813v5.557h6.863c0-4.523.085-9.047 0-13.569q0-.068-.008-.136a2.147 2.147 0 0 0 -.158-.634 2.143 2.143 0 0 0 -1.11-1.12 7.128 7.128 0 0 1 .452-.618 2.889 2.889 0 0 1 .732.531 2.883 2.883 0 0 1 .679 1.077 2.925 2.925 0 0 1 .162.955zm-9 0h-8.369v-14.267a2.925 2.925 0 0 1 .163-.95 2.883 2.883 0 0 1 .68-1.081 2.889 2.889 0 0 1 .732-.531 7.128 7.128 0 0 1 .452.618 2.143 2.143 0 0 0 -1.107 1.119 2.147 2.147 0 0 0 -.158.634q-.006.068-.008.136c-.086 4.522 0 9.046 0 13.569h6.863v-5.557a3.294 3.294 0 0 1 -2.221-1.813 6.219 6.219 0 0 1 -.453-3.124 4.664 4.664 0 0 1 1.669 1.93 3.137 3.137 0 0 1 .96-2.269 8.731 8.731 0 0 1 .8 3.4zm3.474-19.488q-.01.1-.028.2-.025.143-.064.283a4.946 4.946 0 0 1 -1.241 1.992c-.1.106-.2.211-.3.314s-.194.194-.291.29a14.443 14.443 0 0 0 .549 1.374q.126.274.263.542a10.676 10.676 0 0 1 .854-1.144 10.467 10.467 0 0 1 .749-.789 4.11 4.11 0 0 1 -.387-1.219 8.7 8.7 0 0 1 -.104-1.843zm-6.325 0q.01.1.028.2.025.143.064.283a4.946 4.946 0 0 0 1.241 1.992c.1.106.2.211.3.314s.194.194.291.29a14.443 14.443 0 0 1 -.549 1.374q-.126.274-.263.542a10.675 10.675 0 0 0 -.854-1.144 10.467 10.467 0 0 0 -.749-.789 4.11 4.11 0 0 0 .387-1.219 8.7 8.7 0 0 0 .108-1.843z" fill="#b17d53" transform="translate(-1.842 47.283)"/><path d="m20.836-46.1a7.861 7.861 0 0 0 -3.05 5.225 6.429 6.429 0 0 1 -.681 2.9 6.787 6.787 0 0 0 -.013-2.079 3.829 3.829 0 0 0 -1.056.751c-.048-.156-.439-.958-1.73-.6.062-.2.131-.4.207-.592a9.481 9.481 0 0 1 .657-1.35v-.008a10.117 10.117 0 0 1 .928-1.32 9.914 9.914 0 0 1 .945-.995.244.244 0 0 0 .029-.026 9.142 9.142 0 0 1 .773-.629 6.946 6.946 0 0 1 2.515-1.188c.161-.043.318-.07.476-.089zm-15.818 0a7.861 7.861 0 0 1 3.05 5.225 6.429 6.429 0 0 0 .681 2.9 6.787 6.787 0 0 1 .013-2.079 3.829 3.829 0 0 1 1.056.751c.048-.156.439-.958 1.73-.6q-.093-.3-.207-.592a9.481 9.481 0 0 0 -.657-1.35v-.008a10.117 10.117 0 0 0 -.928-1.32 9.914 9.914 0 0 0 -.945-.995.244.244 0 0 1 -.029-.026 9.142 9.142 0 0 0 -.782-.637 6.946 6.946 0 0 0 -2.51-1.188c-.156-.035-.313-.062-.472-.081zm8.708 6.388a1.219 1.219 0 0 0 -.8-.295 1.207 1.207 0 0 0 -.794.295 9.179 9.179 0 0 0 -.942-2.273 19.649 19.649 0 0 0 .839-1.92c.371-1.159.7-2.579.9-3.345.2.768.523 2.237.9 3.345.148.434.664 1.589.839 1.92a9.179 9.179 0 0 0 -.942 2.271zm2.922-6.941c.1-.793 1-.852 1.549-.667.794.266 1.068 1.008.43 1.42-.308.2-.639.361-.938.57q-.377.263-.727.563v-.008a4.686 4.686 0 0 1 -.313-1.88zm-7.442 0c-.1-.793-1-.852-1.549-.667-.794.266-1.068 1.008-.43 1.42.308.2.639.361.938.57q.377.263.727.563v-.008a4.686 4.686 0 0 0 .314-1.88zm4.329-.37a.915.915 0 0 1 1.033-.967c.308.045 1.145.259.91.977a3.421 3.421 0 0 1 -.388.791 7.594 7.594 0 0 1 -.993 1.176l-.106.106a14.651 14.651 0 0 1 -.346-1.429q-.062-.331-.11-.656zm-1.215 0a.915.915 0 0 0 -1.033-.967c-.308.045-1.145.259-.91.977a3.421 3.421 0 0 0 .388.791 7.594 7.594 0 0 0 .993 1.176l.106.106a14.652 14.652 0 0 0 .346-1.429q.062-.331.11-.656z" transform="translate(-2.927 48)"/></g></g></svg>