<svg height="24" viewBox="0 0 24 24" width="24" xmlns="http://www.w3.org/2000/svg" xmlns:xlink="http://www.w3.org/1999/xlink"><clipPath id="a"><path d="m0 0h20v20h-20z"/></clipPath><path d="m0 0h24v24h-24z" fill="none"/><g clip-path="url(#a)" transform="translate(2 2)"><path d="m0 0h20v20h-20z" fill="none"/><path d="m0-28h17.5v-.185h-17.5zm0-.267h17.5v-.439h-17.5zm10.446-14.92-1.251 7.916a3.4 3.4 0 0 0 .636 2.188 4.057 4.057 0 0 0 1.169.717 1.561 1.561 0 0 1 .811 1c.1.682-.625.773-1.009.627a2.6 2.6 0 0 0 -1.126-.194 1.027 1.027 0 0 0 -1.105.933 1.278 1.278 0 0 0 .783 1.121s-.762 0-1.353.01c-3.476.031-4.668-2.354-5.112-5.106l-1.489-9.212zm5.975 14.3h-6.078s-1.3-.025-1.281-.95c.013-.75.838-.992 1.8-.669a9.017 9.017 0 0 0 1.2.157 5.54 5.54 0 0 1 1.939.322 1.907 1.907 0 0 0 .371 0c.152 0 .33.046.371.032.227-.078.344-.2.566-.194a.32.32 0 0 1 .214.137.275.275 0 0 1 .185-.093c.189 0 .262.279.38.454a1 1 0 0 1 .609.669c.011.042-.1.1-.13.072a12.488 12.488 0 0 0 -.863-.938c-.041 0 .064.217.086.29-.165-.106-.461-.518-.58-.4-.146.149.364.508.151.58-.115.039-.364-.195-.665-.291-.249-.079-.754-.033-.825-.077a9.592 9.592 0 0 0 -3.062-.383c-.179-.014-.391-.12-.652-.143-.351-.03-.714.094-.71.5a.687.687 0 0 0 .739.608c1.354.041 3.642-.019 3.642-.019l-.291-.213s-2.608-.017-3.2-.042a.351.351 0 0 1 -.318-.4c.066-.2.381-.144.381-.144s.338.042.512.051a16.023 16.023 0 0 1 2.723.353c.2.059.551.035.794.08a1.831 1.831 0 0 1 .961.438h.263a.776.776 0 0 1 -.005-.29c.035-.054.093-.039.155-.016s.126.108.176.122.069-.055.125-.044c.116.023.208.178.274.283a.43.43 0 0 1 .043.159zm-8.894-1.4a.368.368 0 0 0 .231.493l-1.173.342a.294.294 0 0 1 -.365-.2.243.243 0 0 1 .165-.3zm1.03-.3c-.026.217-.062.408-.093.582l-.478.14c-.14-.028-.286-.1-.308-.256a.277.277 0 0 1 .134-.253zm-1.023-.372c-.153.209-.08.4.178.508l-1.17.342a.294.294 0 0 1 -.365-.2.243.243 0 0 1 .165-.3zm4.417-7.488a4.977 4.977 0 0 0 -1.857 1.9c-.025.051-.084.162-.129.247a5.585 5.585 0 0 0 -.292.684 4.887 4.887 0 0 0 -.169.685 1.865 1.865 0 0 0 .3 1.59c.232.262.42.371 1.237.716a3.706 3.706 0 0 1 .36.18 1.4 1.4 0 0 1 .653 1.759c-.042.107-.064.111.486.157a4.8 4.8 0 0 1 1.279.22c-.072-.908-.252-3.358-.312-3.923-.008-.077-.048-.087-.09-.087a1.319 1.319 0 0 1 -.528-.083.766.766 0 0 1 .22-.19l-.272-.011c-.4-.04-.493-.222-.122-.412 0 0-.516.062-.515-.378 0-.084.012-.115.086-.1s.234.015.233 0c0-.046-.1-.069-.147-.088a.34.34 0 0 1 -.2-.232c-.034-.1.008-.126.157-.193.2-.09.206-.172.032-.172-.362 0-.356-.561-.021-.853.168-.146.179-.2.064-.233a.707.707 0 0 1 -.4-.611c.017-.388.9-.592 1.043-.237.038.094.2.112.2-.005 0-.06.109-.165.238-.219.057-.024-.094-.123-.2-.178a1.681 1.681 0 0 0 -.868-.065 1.526 1.526 0 0 0 -.466.134zm-3.36 7.18a4.711 4.711 0 0 1 -.022.567l-.6.177c-.318-.037-.429-.254-.253-.487zm.2.568a6.73 6.73 0 0 0 -.436-2.752 16.835 16.835 0 0 0 -2.618-3.349.845.845 0 0 1 -.169-.515c.068-.8 1.2-.614 1.2-.614a2.065 2.065 0 0 0 .078.379c.374.935 1.53 2.1 2.077 3.176a22.974 22.974 0 0 1 1.15 3.328c-.628-.076-1.061.035-1.28.346zm-1.365-.9a.37.37 0 0 0 .21.5l-1.167.341a.294.294 0 0 1 -.365-.2.243.243 0 0 1 .165-.3zm1.107-.323a5.241 5.241 0 0 1 .053.545l-.637.186a.388.388 0 0 1 -.31-.128.265.265 0 0 1 .057-.358zm-1.246-.3a.329.329 0 0 0 .209.5l-1.196.355a.294.294 0 0 1 -.224-.024.294.294 0 0 1 -.141-.176.243.243 0 0 1 .165-.3zm1.12-.327c.047.187.083.363.111.528l-.772.225c-.309-.027-.379-.213-.275-.48zm-1.334-.275c-.093.349.071.429.26.485l-1.221.356a.294.294 0 0 1 -.365-.2.243.243 0 0 1 .165-.3zm1.155-.337c.06.181.112.352.155.515l-.877.256a.394.394 0 0 1 -.267-.25.255.255 0 0 1 .066-.252zm-1.407-.234a.317.317 0 0 0 .231.473l-1.208.353a.293.293 0 0 1 -.223-.024.293.293 0 0 1 -.14-.175.241.241 0 0 1 .021-.185.241.241 0 0 1 .146-.115zm1.155-.354a3.331 3.331 0 0 1 .219.493l-.934.273a.313.313 0 0 1 -.3-.258.272.272 0 0 1 .078-.219zm-1.5-.2a.327.327 0 0 0 .25.455l-1.216.355a.283.283 0 0 1 -.35-.189.232.232 0 0 1 .018-.179.232.232 0 0 1 .14-.112zm1.147-.351a5.185 5.185 0 0 1 .3.465l-.977.285a.32.32 0 0 1 -.285-.45zm-1.623-.164c.071.267.155.4.262.45l-1.137.332a.279.279 0 0 1 -.212-.023.278.278 0 0 1 -.133-.166.226.226 0 0 1 .019-.172.226.226 0 0 1 .135-.109zm1.209-.353c.119.139.235.281.344.426l-1.029.3a.312.312 0 0 1 -.232-.459zm-1.69-.163a.324.324 0 0 1 .056.033c.116.09-.037.254.3.394l-1.202.353a.281.281 0 0 1 -.348-.191.23.23 0 0 1 .019-.175.229.229 0 0 1 .137-.11zm7.1-1.344c.076-.015.076.1.008.275s-.321.207-.3.245c.1.167.427.1.514.129.063.021-.034.242-.241.378-.151.1-.1.146.1.16.092.007.221-.084.343-.083.044 0 .034.231-.091.326-.293.221-.055.212.312.109.2-.058.168.006.089.156-.047.09-.144.137-.115.165a.5.5 0 0 0 .574-.2c.042-.054.054-.132-.06-.217a1.882 1.882 0 0 1 -.7-1.194 4.684 4.684 0 0 1 -.033-1.065c.023-.1 0-.1-.256.03-.606.31-.71.895-.142.786zm1.665.406c-.844.007-1.066.567-.416.962.1.062.08.081.08.167a.228.228 0 0 0 .219.205c.223.019.344-.062.385-.339a.765.765 0 0 1 .2-.392c.066-.088.1-.146.078-.152-.033-.012-.118.008-.186.122a.568.568 0 0 1 -.94.018c-.091-.193.071-.457.655-.46.411 0 .426.015.464.154.03.111.1.066.25-.159.246-.371.213-.435-.037-.3a1.443 1.443 0 0 1 -.75.174zm-7.543.582c.128.137.257.277.383.42l-1 .291a.457.457 0 0 1 -.255-.171.237.237 0 0 1 .031-.3zm-1.534-.206c-.066.247.006.357.247.435l-1.213.354a.279.279 0 0 1 -.212-.023.279.279 0 0 1 -.134-.166.228.228 0 0 1 .02-.175.228.228 0 0 1 .139-.109zm1.037-.319.389.41-.968.283a.281.281 0 0 1 -.216-.447zm-1.519-.2c-.018.276.163.366.351.4l-1.243.361a.318.318 0 0 1 -.391-.206l-.02-.06a.181.181 0 0 1 .014-.145.181.181 0 0 1 .117-.087zm9.365.5a.548.548 0 0 1 .461.169c.014.015.032-.035.043-.059.025-.053.074-.109.023-.145a.881.881 0 0 0 -.61-.021c-.13.039-.072.055.085.054zm-8.308-.816c.108.131.229.266.359.407l-.859.251a.359.359 0 0 1 -.372-.435l.117-.073zm-1.409-.238a.568.568 0 0 0 .3.381l-1.3.325a.238.238 0 0 1 -.259-.1l-.114-.191a.19.19 0 0 1 -.01-.185.19.19 0 0 1 .152-.106zm9.7.315a1 1 0 0 1 -.2.251 2.019 2.019 0 0 0 .933-.124.522.522 0 0 1 .343-.057c.06.015.049-.072 0-.231-.111-.325-.3-.423-.571-.33a1 1 0 0 0 -.498.491zm-.025-.681a3.168 3.168 0 0 1 -.26.229c-.311.217-.45.431-.33.55.2.2.586-.138.591-.544 0-.171.15-.337.557-.386.109-.013.139-.055.019-.053a2.306 2.306 0 0 0 -.256.011.774.774 0 0 0 -.314.191zm-8.622.1a2.687 2.687 0 0 0 .264.4l-.838.205c-.173-.085-.415-.358-.212-.537zm9.059-.085a.892.892 0 0 1 .39.009.66.66 0 0 1 .428.5c0 .091.06.133.086.03a1.629 1.629 0 0 0 .1-.411c0-.031 0-.086-.03-.1a1.307 1.307 0 0 0 -.2-.016 1.017 1.017 0 0 1 -.241-.07.914.914 0 0 0 -.552-.007c-.033.003-.087.076.025.061zm-10.157.266-1.3.036a.238.238 0 0 1 -.241-.2l-.023-.134a.347.347 0 0 1 .089-.3.347.347 0 0 1 .29-.107c.4.043.725.081.925.1a1.043 1.043 0 0 0 .26.605zm9.006-.144a.332.332 0 0 0 .461-.037.866.866 0 0 1 .774-.415c.107 0 .058-.049-.039-.14a.4.4 0 0 0 -.366-.124c-.119.007-.16 0-.16-.037 0-.145-.252-.235-.425-.128-.304.191-.439.69-.245.882zm1.046-.556c.01.016-.257.091-.365.168a1.261 1.261 0 0 1 -.113.087.333.333 0 0 1 -.231-.068c-.066-.076-.028-.251.094-.249.074 0 .031.062 0 .132-.015.039-.009.089.016.1.225.068.157-.286.023-.309-.1-.017-.29.056-.3.21a.211.211 0 0 0 .091.208.326.326 0 0 0 .24.036.451.451 0 0 1 -.319.183c-.156-.008-.176-.29-.075-.492.059-.118.2-.252.318-.246.156.008.139.111.21.182.044.04.353-.026.411.058zm-8.956.386-.96.041a1.048 1.048 0 0 1 -.144-1.05 1.649 1.649 0 0 0 1.064.5 1.317 1.317 0 0 0 -.026.219.464.464 0 0 0 .066.295zm7.763-.834c-.08.074-.107.07-.2-.065a.409.409 0 0 0 -.331-.2.707.707 0 0 0 -.5.277c-.016.031.031.043.046.1a.632.632 0 0 0 .5.469.52.52 0 0 0 .5-.275.906.906 0 0 1 .4-.4.525.525 0 0 1 .565.189.26.26 0 0 0 .142.041.5.5 0 0 1 .245.169c.131.158.19.164.159.061a1.154 1.154 0 0 0 -.443-.413c-.136-.044-.287-.285-.515-.332-.1-.021-.183.046-.266.117-.097.091-.271.238-.302.267zm-9.131.421c-.2-.035-.764-.133-1.164-.2a.289.289 0 0 1 -.188-.116.289.289 0 0 1 -.051-.216l.033-.2a.263.263 0 0 1 .134-.188.263.263 0 0 1 .231-.011c.359.155.811.358 1.007.445a3.409 3.409 0 0 0 -.002.49zm1.354-.189a1.767 1.767 0 0 1 -.984-.46c-.213-.249.263-.874.487-.7a1.493 1.493 0 0 0 .678.864.7.7 0 0 0 -.181.301zm.247-.355a1.859 1.859 0 0 1 -.547-.775.322.322 0 0 1 0-.2c.176-.288.623-.252.782-.229a.058.058 0 0 1 .047.06 1.53 1.53 0 0 0 .1.787c.005.014.028.2 0 .21a.889.889 0 0 0 -.382.151zm-1.577-.07-1.05-.552a.327.327 0 0 1 -.16-.192.326.326 0 0 1 .023-.249l.014-.026a.368.368 0 0 1 .256-.189.368.368 0 0 1 .308.081l.79.67a1.836 1.836 0 0 0 -.181.461zm2.159-.1a1.877 1.877 0 0 1 -.152-.961.072.072 0 0 1 .059-.074 1.051 1.051 0 0 1 .725.3.107.107 0 0 1 .02.1 1 1 0 0 0 -.182.65 4.487 4.487 0 0 0 -.47-.01zm-1.918-.451a10.271 10.271 0 0 1 -.829-.737.57.57 0 0 1 .69-.671c.085.122.388.766.5 1.008a1.741 1.741 0 0 0 -.36.405zm2.393-.663c.164-.2.54-.641.7-.789.114-.107.319-.161.416-.082a.837.837 0 0 1 .27.353.325.325 0 0 1 -.144.388c-.164.106-.67.384-.883.5a.985.985 0 0 0 -.358-.365zm-1.925.175c-.127-.25-.451-.892-.526-1.074a.193.193 0 0 1 .013-.195 1.173 1.173 0 0 1 .81-.324.127.127 0 0 1 .132.135c.01.271.03.966.036 1.207a1.872 1.872 0 0 0 -.464.256zm1.271-.32c.1-.271.32-.849.392-1.027.021-.052.062-.19.135-.23a.716.716 0 0 1 .413-.028.579.579 0 0 1 .328.236.276.276 0 0 1 -.033.278c-.106.164-.5.658-.67.877a1.5 1.5 0 0 0 -.565-.106zm-.693.042c0-.277-.014-1.056.016-1.274a.264.264 0 0 1 .19-.217 1.515 1.515 0 0 1 .606.005.239.239 0 0 1 .181.243 10.6 10.6 0 0 1 -.41 1.2c-.147 0-.31.012-.493.029a.784.784 0 0 0 -.09.017zm5.1-3.944h-9.082l-.02-.125h9.119zm.057-.361h-9.197l-.043-.264a.847.847 0 0 0 .092-.027.83.83 0 0 0 .27-.16 1.019 1.019 0 0 0 .19-.23 1.461 1.461 0 0 0 .1-.2l.017-.044v-.256l-.023.008a.2.2 0 0 0 -.1.1c-.014.028-.024.058-.035.086l-.016.04-.043.093a1.037 1.037 0 0 1 -.138.208.683.683 0 0 1 -.339.212h-.002l-.53-3.283h10.382l-.523 3.307a.783.783 0 0 1 -.1-.02.683.683 0 0 1 -.339-.212 1.038 1.038 0 0 1 -.138-.208l-.043-.093-.016-.04c-.011-.029-.021-.059-.035-.086a.2.2 0 0 0 -.1-.1l-.023-.008v.256l.017.044a1.461 1.461 0 0 0 .1.2 1.02 1.02 0 0 0 .19.23.831.831 0 0 0 .27.16.923.923 0 0 0 .187.045zm-5.624-.404h.1a.791.791 0 0 0 .156-.025.683.683 0 0 0 .339-.212 1.038 1.038 0 0 0 .138-.208l.043-.093.016-.04c.011-.029.021-.059.035-.086a.2.2 0 0 1 .1-.1l.023-.008v.256l-.017.044a1.461 1.461 0 0 1 -.1.2 1.019 1.019 0 0 1 -.19.23.83.83 0 0 1 -.27.16.986.986 0 0 1 -.259.052h-.211a.986.986 0 0 1 -.259-.052.83.83 0 0 1 -.27-.16 1.019 1.019 0 0 1 -.19-.23 1.461 1.461 0 0 1 -.1-.2l-.017-.044v-.256l.023.008a.2.2 0 0 1 .1.1c.014.028.024.058.035.086l.016.04.043.093a1.038 1.038 0 0 0 .138.208.683.683 0 0 0 .339.212.791.791 0 0 0 .156.025zm3.891.169h-.106a.986.986 0 0 1 -.259-.052.83.83 0 0 1 -.27-.16 1.019 1.019 0 0 1 -.19-.23 1.461 1.461 0 0 1 -.1-.2l-.017-.044v-.256l.023.008a.2.2 0 0 1 .1.1c.014.028.024.058.035.086l.016.04.043.093a1.037 1.037 0 0 0 .138.208.683.683 0 0 0 .339.212.791.791 0 0 0 .156.025h.2a.791.791 0 0 0 .156-.025.683.683 0 0 0 .339-.212 1.038 1.038 0 0 0 .138-.208l.043-.093.016-.04c.011-.029.021-.059.035-.086a.2.2 0 0 1 .1-.1l.023-.008v.256l-.017.044a1.461 1.461 0 0 1 -.1.2 1.02 1.02 0 0 1 -.19.23.831.831 0 0 1 -.27.16.985.985 0 0 1 -.272.05zm-1.941-.169h.091a.791.791 0 0 0 .156-.025.683.683 0 0 0 .339-.212 1.038 1.038 0 0 0 .138-.208l.043-.093.016-.04c.011-.029.021-.059.035-.086a.2.2 0 0 1 .1-.1l.023-.008v.256l-.017.044a1.456 1.456 0 0 1 -.1.2 1.019 1.019 0 0 1 -.19.23.831.831 0 0 1 -.27.16.986.986 0 0 1 -.259.052h-.212a.986.986 0 0 1 -.259-.052.83.83 0 0 1 -.27-.16 1.019 1.019 0 0 1 -.19-.23 1.461 1.461 0 0 1 -.1-.2l-.017-.044v-.256l.023.008a.2.2 0 0 1 .1.1c.014.028.024.058.035.086l.016.04.043.093a1.036 1.036 0 0 0 .138.208.683.683 0 0 0 .339.212.79.79 0 0 0 .156.025zm-3.991 0h.191a.79.79 0 0 0 .156-.025.683.683 0 0 0 .339-.212 1.036 1.036 0 0 0 .138-.208l.043-.093.016-.04c.011-.029.021-.059.035-.086a.2.2 0 0 1 .1-.1l.023-.009v.256l-.017.044a1.461 1.461 0 0 1 -.1.2 1.019 1.019 0 0 1 -.19.23.83.83 0 0 1 -.27.16.986.986 0 0 1 -.259.052h-.212a.986.986 0 0 1 -.259-.052.831.831 0 0 1 -.27-.16 1.019 1.019 0 0 1 -.19-.23 1.456 1.456 0 0 1 -.1-.2l-.017-.044v-.256l.023.008a.2.2 0 0 1 .1.1c.014.028.024.058.035.086l.016.04.043.093a1.038 1.038 0 0 0 .138.208.683.683 0 0 0 .339.212.791.791 0 0 0 .151.024zm-.932-.848-.066.058a.062.062 0 0 1 -.046-.028.009.009 0 0 1 0-.011l.154-.135a.025.025 0 0 1 .032 0l.154.135a.009.009 0 0 1 0 .011.063.063 0 0 1 -.046.028l-.112-.1a.014.014 0 0 0 -.019 0zm1.945 0-.066.058a.063.063 0 0 1 -.046-.028.009.009 0 0 1 0-.011l.154-.135a.025.025 0 0 1 .033 0l.153.131a.009.009 0 0 1 0 .011.063.063 0 0 1 -.046.028l-.112-.1a.014.014 0 0 0 -.019 0zm1.945 0-.066.058a.063.063 0 0 1 -.046-.028.009.009 0 0 1 0-.011l.154-.135a.025.025 0 0 1 .033 0l.154.135a.009.009 0 0 1 0 .011.063.063 0 0 1 -.046.028l-.112-.1a.014.014 0 0 0 -.019 0zm1.945 0-.066.058a.063.063 0 0 1 -.046-.028.009.009 0 0 1 0-.011l.154-.135a.025.025 0 0 1 .032 0l.154.135a.009.009 0 0 1 0 .011.063.063 0 0 1 -.046.028l-.112-.1a.014.014 0 0 0 -.018 0zm1.945 0-.066.058a.063.063 0 0 1 -.046-.028.009.009 0 0 1 0-.011l.154-.135a.025.025 0 0 1 .032 0l.154.135a.009.009 0 0 1 0 .011.062.062 0 0 1 -.046.028l-.112-.1a.014.014 0 0 0 -.019 0zm.055-.912.275-.255s.332-.329.42-.406a.159.159 0 0 1 .1-.042 2.865 2.865 0 0 0 -.329.978.844.844 0 0 1 -.261.618l-.208-.183-.208.183a.844.844 0 0 1 -.261-.618 2.865 2.865 0 0 0 -.329-.978.159.159 0 0 1 .1.042c.088.078.42.406.42.406zm-7.781 0 .275-.255s.332-.329.42-.406a.159.159 0 0 1 .1-.042 2.865 2.865 0 0 0 -.329.978.844.844 0 0 1 -.261.618l-.208-.183-.208.183a.844.844 0 0 1 -.261-.618 2.865 2.865 0 0 0 -.329-.978.159.159 0 0 1 .1.042c.088.078.42.406.42.406zm1.945 0 .275-.255s.332-.329.42-.406a.159.159 0 0 1 .1-.042 2.865 2.865 0 0 0 -.329.978.844.844 0 0 1 -.261.618l-.208-.183-.208.183a.844.844 0 0 1 -.261-.618 2.865 2.865 0 0 0 -.329-.978.159.159 0 0 1 .1.042c.088.078.42.406.42.406zm1.945 0 .275-.255s.332-.329.42-.406a.159.159 0 0 1 .1-.042 2.865 2.865 0 0 0 -.329.978.844.844 0 0 1 -.261.618l-.208-.183-.208.183a.844.844 0 0 1 -.261-.618 2.865 2.865 0 0 0 -.329-.978.159.159 0 0 1 .1.042c.088.078.42.406.42.406zm1.945 0 .275-.255s.332-.329.42-.406a.159.159 0 0 1 .1-.042 2.865 2.865 0 0 0 -.329.978.844.844 0 0 1 -.261.618l-.201-.186-.208.183a.844.844 0 0 1 -.261-.618 2.865 2.865 0 0 0 -.329-.978.159.159 0 0 1 .1.042c.088.078.42.406.42.406zm-2.178-.3-.4-.375a.108.108 0 0 1 -.035-.082.108.108 0 0 1 .039-.08.109.109 0 0 1 .086-.024.109.109 0 0 1 .075.049l.278.43a.238.238 0 0 0 -.039.078zm3.891 0-.4-.375a.108.108 0 0 1 -.035-.082.108.108 0 0 1 .039-.08.109.109 0 0 1 .086-.024.109.109 0 0 1 .075.049l.278.43a.239.239 0 0 0 -.039.078zm-5.836 0-.4-.375a.108.108 0 0 1 -.035-.082.108.108 0 0 1 .039-.08.109.109 0 0 1 .086-.024.109.109 0 0 1 .075.049l.278.43a.238.238 0 0 0 -.036.078zm3.891 0-.4-.375a.108.108 0 0 1 -.035-.082.108.108 0 0 1 .039-.08.109.109 0 0 1 .086-.024.109.109 0 0 1 .075.049l.278.43a.238.238 0 0 0 -.039.078zm-5.836 0-.4-.375a.108.108 0 0 1 -.035-.082.108.108 0 0 1 .039-.08.109.109 0 0 1 .086-.024.109.109 0 0 1 .075.049l.278.43a.239.239 0 0 0 -.039.078zm.425-.084.278-.43a.108.108 0 0 1 .075-.048.108.108 0 0 1 .086.024.109.109 0 0 1 .039.081.109.109 0 0 1 -.035.082l-.4.374a.238.238 0 0 0 -.039-.086zm7.781 0 .278-.43a.108.108 0 0 1 .075-.048.108.108 0 0 1 .086.024.109.109 0 0 1 .039.081.109.109 0 0 1 -.035.082l-.4.374a.238.238 0 0 0 -.039-.086zm-1.945 0 .278-.43a.108.108 0 0 1 .075-.048.108.108 0 0 1 .086.024.109.109 0 0 1 .039.081.109.109 0 0 1 -.035.082l-.4.374a.238.238 0 0 0 -.039-.086zm-1.945 0 .278-.43a.108.108 0 0 1 .075-.048.108.108 0 0 1 .086.024.109.109 0 0 1 .039.081.109.109 0 0 1 -.035.082l-.4.374a.238.238 0 0 0 -.04-.086zm-1.945 0 .278-.43a.108.108 0 0 1 .075-.048.108.108 0 0 1 .086.024.109.109 0 0 1 .039.081.109.109 0 0 1 -.035.082l-.4.374a.238.238 0 0 0 -.04-.086zm3.53-.028-.228-.445a.108.108 0 0 1 0-.089.108.108 0 0 1 .064-.062.109.109 0 0 1 .089.007.109.109 0 0 1 .054.071l.106.466a.24.24 0 0 0 -.082.048zm-1.945 0-.228-.445a.108.108 0 0 1 0-.089.108.108 0 0 1 .064-.062.109.109 0 0 1 .089.007.109.109 0 0 1 .054.071l.106.466a.24.24 0 0 0 -.082.048zm-1.945 0-.228-.445a.108.108 0 0 1 0-.089.108.108 0 0 1 .064-.062.109.109 0 0 1 .089.007.109.109 0 0 1 .054.071l.106.466a.239.239 0 0 0 -.083.048zm5.836 0-.228-.445a.108.108 0 0 1 0-.089.108.108 0 0 1 .064-.062.109.109 0 0 1 .089.007.109.109 0 0 1 .054.071l.106.466a.24.24 0 0 0 -.08.048zm-7.781 0-.228-.445a.108.108 0 0 1 0-.089.109.109 0 0 1 .064-.062.109.109 0 0 1 .089.007.109.109 0 0 1 .054.071l.107.457a.24.24 0 0 0 -.084.057zm2.2-.053.106-.466a.108.108 0 0 1 .054-.071.108.108 0 0 1 .089-.007.109.109 0 0 1 .064.063.109.109 0 0 1 0 .089l-.228.444a.24.24 0 0 0 -.083-.06zm5.836 0 .106-.466a.108.108 0 0 1 .054-.071.108.108 0 0 1 .089-.007.109.109 0 0 1 .064.063.109.109 0 0 1 0 .089l-.228.444a.24.24 0 0 0 -.083-.06zm-7.781 0 .106-.466a.108.108 0 0 1 .054-.071.108.108 0 0 1 .089-.007.109.109 0 0 1 .064.063.109.109 0 0 1 0 .089l-.228.444a.24.24 0 0 0 -.084-.06zm3.891 0 .106-.466a.108.108 0 0 1 .054-.071.108.108 0 0 1 .089-.007.109.109 0 0 1 .064.063.109.109 0 0 1 0 .089l-.228.444a.24.24 0 0 0 -.084-.06zm1.945 0 .106-.466a.108.108 0 0 1 .054-.071.108.108 0 0 1 .089-.007.109.109 0 0 1 .064.063.109.109 0 0 1 0 .089l-.228.444a.24.24 0 0 0 -.084-.06zm1.815-.012-.066-.589a.11.11 0 0 1 .027-.085.11.11 0 0 1 .082-.037.11.11 0 0 1 .082.037.11.11 0 0 1 .027.086l-.066.589a.238.238 0 0 0 -.044 0 .241.241 0 0 0 -.041-.004zm-1.945 0-.066-.589a.11.11 0 0 1 .027-.085.11.11 0 0 1 .082-.037.11.11 0 0 1 .082.037.11.11 0 0 1 .027.086l-.066.589a.238.238 0 0 0 -.044 0 .24.24 0 0 0 -.041-.004zm-3.891 0-.064-.596a.11.11 0 0 1 .027-.085.11.11 0 0 1 .082-.037.11.11 0 0 1 .082.037.11.11 0 0 1 .027.086l-.066.589a.238.238 0 0 0 -.044 0 .24.24 0 0 0 -.043.003zm-1.945 0-.066-.589a.11.11 0 0 1 .027-.085.11.11 0 0 1 .082-.037.11.11 0 0 1 .082.037.11.11 0 0 1 .027.086l-.066.589a.238.238 0 0 0 -.044 0 .241.241 0 0 0 -.041-.004zm3.891 0-.065-.596a.11.11 0 0 1 .027-.085.11.11 0 0 1 .082-.037.11.11 0 0 1 .082.037.11.11 0 0 1 .027.086l-.066.589a.239.239 0 0 0 -.044 0 .24.24 0 0 0 -.042.003zm5.316-1.309h-10.457l-.062-.387h10.58z" fill="#fecc09" fill-rule="evenodd" transform="translate(1.25 48)"/></g></svg>