<svg xmlns="http://www.w3.org/2000/svg" viewBox="0 0 256 256" fill="#14763e"><path d="M144 1A128 128 0 1111 76c20 33 38 1 61 28l42 57 19-19-23-31C97 93 92 84 64 82 45 81 36 66 25 52c3-4 6-8 10-12 5 6 15 20 20 25 14 13 43 7 54 20l35 46 19-19s-27-36-32-39c-10-9-40-3-53-20L55 23c4-3 9-6 13-8L90 43c6 8 14 14 24 14 20 1 31 6 42 21l18 23 19-19c-12-16-19-32-48-32-7 0-19-5-26-13-6-6-19-23-26-32 6-2 12-3 18-4 6 9 20 31 34 35 11 4 18 4 28 6 13 3 13 8 31 29l18-19c-10-13-12-18-30-18-26 1-35-15-48-33Z"/></svg>