<svg xmlns="http://www.w3.org/2000/svg" id="Component_125_1" width="24" height="24" viewBox="0 0 24 24">
    <defs>
        <clipPath id="clip-path">
            <path d="M0 0H20V20H0z" class="cls-1"/>
        </clipPath>
        <style>
            .cls-1{fill:none}
        </style>
    </defs>
    <path id="Rectangle_1285" d="M0 0H24V24H0z" class="cls-1"/>
    <g id="Bank_Postbank_Color" clip-path="url(#clip-path)" transform="translate(2 2)">
        <path id="Boundary" d="M0 0H20V20H0z" class="cls-1"/>
        <path id="Shape" fill="#14763e" d="M11.26 0A10.032 10.032 0 1 1 .85 5.915l.517.667.03.037a2.259 2.259 0 0 0 .215.218 1.408 1.408 0 0 0 .34.214 1.214 1.214 0 0 0 .224.07 4 4 0 0 0 .937.051c.2-.009.342-.02.342-.02a2.305 2.305 0 0 1 2.145.933c.312.368 3.361 4.447 3.361 4.447l1.516-1.524s-1.273-1.63-1.838-2.36a14.266 14.266 0 0 0-1.368-1.64 5.036 5.036 0 0 0-2.267-.63 3.453 3.453 0 0 1-1.817-.839 3.844 3.844 0 0 1-.271-.31l-.975-1.2a10.129 10.129 0 0 1 .81-.971L3.8 4.415a5.933 5.933 0 0 0 .525.623 2.307 2.307 0 0 0 1.274.6c1.556.281 2.406.355 2.9.929.592.688.706.845 1.2 1.486.182.236 1.613 2.114 1.613 2.114l1.469-1.478s-.936-1.217-1.481-1.938a6.424 6.424 0 0 0-1-1.129 3.136 3.136 0 0 0-1.8-.456 4.183 4.183 0 0 1-1.566-.352s-.26-.058-.8-.752-.688-.895-.688-.895L4.291 1.725a10.023 10.023 0 0 1 1.062-.65l1.136 1.478.567.742a2.288 2.288 0 0 0 1.89 1.124A4.479 4.479 0 0 1 11.327 5a4.714 4.714 0 0 1 .913 1.014c.442.572 1.4 1.817 1.4 1.817l1.47-1.479s-.846-1.1-1.175-1.516a2.427 2.427 0 0 0-.574-.494 4.666 4.666 0 0 0-2-.541 2.719 2.719 0 0 1-2.019-.945c-.254-.279-.394-.477-.565-.7L7.3.293A9.875 9.875 0 0 1 8.713 0l1 1.389a3.637 3.637 0 0 0 1.49 1.325 10.683 10.683 0 0 0 2.507.534 2.726 2.726 0 0 1 .4.14 1.45 1.45 0 0 1 .51.406c.233.264.436.52.483.581l.872 1.092 1.459-1.457-.6-.768a1.3 1.3 0 0 0-.375-.369 1.448 1.448 0 0 0-.432-.177 5.4 5.4 0 0 0-1-.106A2.789 2.789 0 0 1 12.4 1.429l-.618-.753z"/>
    </g>
</svg>
