<svg fill="none" height="48" viewBox="0 0 48 48" width="48" xmlns="http://www.w3.org/2000/svg"><path clip-rule="evenodd" d="m5.97283 41.1385c-1.8183-.4404-3.571-1.5991-4.9358-3.9395-2.4041-4.123-.090704-8.1919 1.5269-10.9774-4.9547 10.3329 1.7412 13.4946 9.66917 6.5356 0 0 9.7081-9.7199 12.421-12.4361 1.2543-1.2558 3.123-2.0882 4.9822-1.8717 2.7747.3232 4.6396 1.9057 5.7616 2.3867.7361.3157 1.4038-.1457 1.1504-.7572-.258-.6227-.8072-1.287-1.847-2.3282-3.0842-3.0886-6.8691-6.6901-6.8691-6.6901-2.2008-2.11797-3.0775-4.04626-2.9572-5.9412.1907-3.0032 2.9804-4.79039 4.8627-4.8694-1.1435 1.3612-1.0446 2.52402-.3747 3.3713 0 0 10.57 10.5848 10.8308 10.8459 1.3372 1.3391 3.0566 6.9247-1.8326 8.384-.5889.1758-1.1757.1645-1.8431-.0286-1.7394-.5034-4.3727-.9822-6.1675.783-3.2386 3.1851-13.6266 13.6878-14.5318 14.5521s-3.6356 3.0117-7.53847 3.1894c.9348 3.3093 5.45547 2.874 10.75527-1.778 0 0 9.7081-9.7199 12.4209-12.436 1.2544-1.2559 3.1108-1.8999 4.9822-1.8717 1.3723.0207 2.3714.3861 3.1335.9356 1.5476 1.1159 2.0997 2.1785 2.3224 3.3633-1.8009-1.0451-2.9467-.908-4.7415.8572-2.5979 2.5551-9.4381 9.433-12.0429 12.0543.014.2754.1037.5231.3301.6962.799.6109 2.6369.6229 3.505-.2462 3.0878-3.0917 7.7731-7.7826 9.5288-9.5404 1.2543-1.2559 2.882-1.9988 4.7535-1.9705 1.3722.0207 1.8862.3313 2.6483.8807 1.5476 1.1159 1.9013 2.566 2.1241 3.7508-1.6254-1.148-2.5177-.6666-3.8294.6234-1.8976 1.8663-6.0587 6.0392-9.1793 9.1747-1.0854 1.0906-3.9142 2.4945-7.1129 1.3613-1.802-.6384-3.0208-2.5564-3.7982-3.6828-.216.7785-10.6693 9.0295-16.70437.1395-.59027-.8695-1.01426-1.6681-1.403-2.52zm3.8211-19.7876c-.3018-.5509-.4735-1.1832-.4735-1.8554 0-2.134 1.73007-3.8665 3.86107-3.8665s3.8611 1.7325 3.8611 3.8665c0 2.1339-1.7301 3.8665-3.8611 3.8665-.6712 0-1.3027-.172-1.8529-.4742.3018.551.4735 1.1833.4735 1.8555 0 2.134-1.7301 3.8665-3.86107 3.8665-2.131 0-3.8611-1.7325-3.8611-3.8665s1.7301-3.8665 3.8611-3.8665c.6713 0 1.30269.1719 1.8529.4741z" fill="#00bbe6" fill-rule="evenodd"/></svg>