<svg height="24" viewBox="0 0 24 24" width="24" xmlns="http://www.w3.org/2000/svg" xmlns:xlink="http://www.w3.org/1999/xlink"><clipPath id="a"><path d="m0 0h20v20h-20z"/></clipPath><path d="m0 0h24v24h-24z" fill="none"/><g clip-path="url(#a)" transform="translate(2 2)"><path d="m0 0h20v20h-20z" fill="none"/><path d="m5.617 20a5.716 5.716 0 0 1 -5.617-3.385v-16.615h6.537v17.228c.767 1.779 2.438 1.552 4.445.431-.31 1.174-2.782 2.341-5.363 2.341zm7.428 0v-17.228c-.766-1.779-2.437-1.553-4.445-.432.58-2.191 8.7-4.358 10.983 1.044v16.616zm-6.456-10a3.2 3.2 0 1 1 3.2 3.18 3.2 3.2 0 0 1 -3.2-3.18z" fill="#2d2a68" transform="translate(.208)"/></g></svg>