<svg xmlns="http://www.w3.org/2000/svg" id="Component_151_1" width="24" height="24" viewBox="0 0 24 24">
    <defs>
        <clipPath id="clip-path">
            <path d="M0 0H20V20H0z" class="cls-1"/>
        </clipPath>
        <style>
            .cls-1{fill:none}
        </style>
    </defs>
    <path id="Rectangle_1289" d="M0 0H24V24H0z" class="cls-1"/>
    <g id="Bank_Saderat_Color" clip-path="url(#clip-path)" transform="translate(2 2)">
        <path id="Boundary" d="M0 0H20V20H0z" class="cls-1"/>
        <path id="Shape" fill="#2d2a68" d="M5.617 20A5.716 5.716 0 0 1 0 16.615V0h6.537v17.228c.767 1.779 2.438 1.552 4.445.431C10.672 18.833 8.2 20 5.619 20zm7.428 0V2.772C12.279.993 10.608 1.219 8.6 2.34c.58-2.191 8.7-4.358 10.983 1.044V20zM6.589 10a3.2 3.2 0 1 1 3.2 3.18 3.2 3.2 0 0 1-3.2-3.18z" transform="translate(.208)"/>
    </g>
</svg>
