<svg xmlns="http://www.w3.org/2000/svg" viewBox="0 0 256 256"><path d="M88 45c-9-7-20-11-31-12-6 13-11 27-14 42-9 0-18 3-27 7 0 11 1 22 3 33-7 4-14 10-19 17 3 8 7 16 13 23-5 7-8 14-10 22 6 6 12 10 19 13-2 8-2 17 0 25 8 2 15 3 23 2 3 9 7 18 12 26 8-2 17-5 24-10 7 8 16 16 26 22 8-7 15-15 20-25 13 5 29 8 45 9 4-12 6-26 4-39 20-3 39-9 58-17-6-15-15-29-27-40 18-13 35-31 49-50-19-9-39-14-60-15 8-19 13-40 14-60-22 5-44 12-63 23-3-14-10-28-20-39-15 12-28 27-39 43Z" fill="#7dcdf1"/><path d="M105 77c-3-12-7-24-17-32-9 12-15 27-19 42-7-7-19-12-26-12-2 11-1 24 1 35-9-1-18 1-25 5 2 9 7 17 13 24-7 4-15 10-19 16 5 5 12 10 20 12-5 7-9 15-11 23 7 3 16 2 23 1-2 9-2 18 0 26 8-1 16-5 22-10 3 9 7 19 14 26 7-5 13-15 16-23 9 8 19 16 30 20 4-9 5-22 3-33 15 4 31 6 46 3-3-13-11-25-21-34 18-5 36-12 52-23-13-11-30-16-46-18 14-14 27-29 35-47-19 0-38 5-55 12 5-16 9-32 6-49-16 9-30 22-42 36Z" fill="#00aae7"/><path d="M53 170c-4 6-6 14-8 21 7-2 14-4 20-8-1 8 0 16 2 24 6-6 12-12 15-19 4 8 9 16 15 22 3-7 5-17 5-26 9 6 18 10 28 13-2-10-5-19-11-27 12 0 25-1 36-4-8-8-17-14-27-18 12-6 23-14 33-23-13-2-26-2-38 0 8-11 14-22 18-35-12 5-24 12-34 20 1-11 1-22-2-33-8 10-15 20-20 31-2-6-9-15-16-21-2 10-4 21-4 29-6-3-13-5-21-6 2 8 5 16 9 24-7 0-14 2-21 5 5 6 10 10 17 13-6 4-12 9-16 15 6 2 11 3 20 3Z" fill="#006fba"/><path d="M107 110c-1 9-4 17-8 24 8-4 16-8 24-9-5 7-11 13-19 18 8 0 16 2 24 5-8 4-16 6-24 7 6 3 11 9 15 15-7 0-15-2-21-6 3 6 4 13 4 20-6-4-10-9-14-14-1 6-3 12-6 18-2-6-4-12-4-18-3 5-8 9-13 13 1-7 2-13 5-18-5 3-11 4-17 5 3-5 8-10 13-14-6 0-12-2-17-4 5-3 11-5 17-6-5-3-10-7-13-12 5 0 12 0 18 3-4-6-6-12-6-21 6 4 10 8 14 15 1-8 3-16 6-23 3 7 5 14 5 21 4-7 10-13 17-19Z" fill="#fff"/></svg>