<svg height="24" viewBox="0 0 24 24" width="24" xmlns="http://www.w3.org/2000/svg" xmlns:xlink="http://www.w3.org/1999/xlink"><clipPath id="a"><path d="m0 0h20v20h-20z"/></clipPath><path d="m0 0h24v24h-24z" fill="none"/><g clip-path="url(#a)" transform="translate(2 2)"><path d="m0 0h20v20h-20z" fill="none"/><path d="m6.849 3.37a19.7 19.7 0 0 1 3.086-3.37 6.765 6.765 0 0 1 1.523 3.088 15.916 15.916 0 0 1 2.856-1.25c.674-.226 1.369-.422 2.069-.593a13.253 13.253 0 0 1 -1.062 4.721 12.579 12.579 0 0 1 4.679 1.142 19.888 19.888 0 0 1 -3.88 3.919 7.807 7.807 0 0 1 2.157 3.141 18.519 18.519 0 0 1 -4.57 1.369 6.325 6.325 0 0 1 -.307 3.013c-.5-.042-1-.1-1.474-.177a10.194 10.194 0 0 1 -2.02-.517 5.655 5.655 0 0 1 -1.534 1.9 9.176 9.176 0 0 1 -2.072-1.676 4.971 4.971 0 0 1 -1.869.759 7.32 7.32 0 0 1 -.912-1.981 3.884 3.884 0 0 1 -1.119-.034 5.98 5.98 0 0 1 -.663-.148 6.525 6.525 0 0 1 -.007-1.966 4.916 4.916 0 0 1 -1.483-.985 5.988 5.988 0 0 1 .753-1.766 6.524 6.524 0 0 1 -1-1.759 5.466 5.466 0 0 1 1.466-1.357v-.018a9.787 9.787 0 0 1 -.209-2.549 6.547 6.547 0 0 1 .771-.318 4.042 4.042 0 0 1 1.335-.231 14.734 14.734 0 0 1 1.109-3.286 4.663 4.663 0 0 1 2.377.929z" fill="#7dcdf1" transform="translate(0 .104)"/><path d="m7.207 2.817a15.407 15.407 0 0 1 1.8-1.8 9.413 9.413 0 0 1 1.449-1.017 5.112 5.112 0 0 1 .055 1.462 11.328 11.328 0 0 1 -.517 2.37 14.356 14.356 0 0 1 2.554-.8 7.7 7.7 0 0 1 1.771-.16 8.492 8.492 0 0 1 -.933 1.584 15.386 15.386 0 0 1 -1.849 2.057 10.217 10.217 0 0 1 2.3.642 4.992 4.992 0 0 1 1.285.777 9.472 9.472 0 0 1 -1.578.93 14.663 14.663 0 0 1 -2.434.872 7.225 7.225 0 0 1 1.2 1.571 3.6 3.6 0 0 1 .4 1.137 7.351 7.351 0 0 1 -1.5.055 10.971 10.971 0 0 1 -2.078-.345 6.059 6.059 0 0 1 .049 1.656 3.131 3.131 0 0 1 -.27.955 5.262 5.262 0 0 1 -1.024-.517 7.956 7.956 0 0 1 -1.3-1.067 5.413 5.413 0 0 1 -.7 1.232 2.726 2.726 0 0 1 -.594.574 3.919 3.919 0 0 1 -.523-.754 6.556 6.556 0 0 1 -.521-1.313 4.692 4.692 0 0 1 -1.047.654 2.392 2.392 0 0 1 -.691.192 3.385 3.385 0 0 1 -.112-.789 5.941 5.941 0 0 1 .114-1.27 4.263 4.263 0 0 1 -1.128.066 2.291 2.291 0 0 1 -.659-.155 3.187 3.187 0 0 1 .213-.714 5.329 5.329 0 0 1 .616-1.046 4.434 4.434 0 0 1 -1.02-.503 2.689 2.689 0 0 1 -.535-.483 2.841 2.841 0 0 1 .486-.555 4.791 4.791 0 0 1 1.006-.665 5.691 5.691 0 0 1 -.727-1.082 3.772 3.772 0 0 1 -.3-.814 2.493 2.493 0 0 1 .712-.283 4.3 4.3 0 0 1 1.254-.082 8.393 8.393 0 0 1 -.176-1.628 5.677 5.677 0 0 1 .1-1.122 2.3 2.3 0 0 1 .833.164 4.53 4.53 0 0 1 1.225.747 12.6 12.6 0 0 1 .705-1.986 8.375 8.375 0 0 1 .728-1.282 2.883 2.883 0 0 1 .686.812 6.75 6.75 0 0 1 .675 1.723z" fill="#00aae7" transform="translate(1.003 3.192)"/><path d="m4.169 2.407c-.01.022.01.022 0 0a10.245 10.245 0 0 1 1.546-2.407 6.97 6.97 0 0 1 .133 2.584.033.033 0 0 0 -.007.047l.007-.047a10.542 10.542 0 0 1 2.652-1.569 9.84 9.84 0 0 1 -1.383 2.72c.169-.034.341-.061.519-.083a8.758 8.758 0 0 1 2.409.051 10.681 10.681 0 0 1 -2.573 1.797 6.378 6.378 0 0 1 2.142 1.423 9.555 9.555 0 0 1 -2.316.32c-.166 0-.326-.005-.482-.016a5.416 5.416 0 0 1 .819 2.113 6.868 6.868 0 0 1 -2.16-.978 5.113 5.113 0 0 1 -.381 2.006 5.7 5.7 0 0 1 -1.162-1.68c.007-.014-.01-.023 0 0a4.751 4.751 0 0 1 -1.173 1.42 5.313 5.313 0 0 1 -.181-1.854 4.174 4.174 0 0 1 -1.554.64 5.02 5.02 0 0 1 .639-1.649c.018 0 .013-.021 0 0-.106.01-.211.015-.318.015a3.9 3.9 0 0 1 -1.28-.215 4.6 4.6 0 0 1 1.263-1.165 4.178 4.178 0 0 1 -1.328-1.046 4.167 4.167 0 0 1 1.324-.4c.11-.014.221-.022.332-.025.012.019.023 0 0 0a5.489 5.489 0 0 1 -.717-1.837 3.847 3.847 0 0 1 1.71.554c0 .021.019.012 0 0a7.909 7.909 0 0 1 .273-2.392 4.664 4.664 0 0 1 1.247 1.672z" fill="#006fba" transform="translate(2.494 6.009)"/><path d="m4.521.168v.01a6.085 6.085 0 0 0 -1.321 1.49 4.1 4.1 0 0 0 -.359-1.668 5.34 5.34 0 0 0 -.471 1.769 3.146 3.146 0 0 0 -1.049-1.049 4.054 4.054 0 0 0 .367 1.546 2.938 2.938 0 0 0 -1.36-.266c-.006-.01-.016-.009-.028 0h.028a3.174 3.174 0 0 0 .98 1 3.263 3.263 0 0 0 -1.308.473 2.939 2.939 0 0 0 1.3.308 3.684 3.684 0 0 0 -.966 1.057 3.237 3.237 0 0 0 1.311-.4 3.844 3.844 0 0 0 -.4 1.413 3.666 3.666 0 0 0 1.03-1.039 3.769 3.769 0 0 0 .325 1.468 3.831 3.831 0 0 0 .451-1.471 3.847 3.847 0 0 0 1.096 1.146 3.72 3.72 0 0 0 -.355-1.564 4.418 4.418 0 0 0 1.7.429 3.819 3.819 0 0 0 -1.217-1.176 5.474 5.474 0 0 0 1.869-.551 4.518 4.518 0 0 0 -1.813-.329 6.058 6.058 0 0 0 1.458-1.437 5.617 5.617 0 0 0 -1.863.7 5.428 5.428 0 0 0 .594-1.85s.003-.005.001-.009z" fill="#fff" transform="translate(3.822 8.416)"/></g></svg>