<svg height="24" viewBox="0 0 24 24" width="24" xmlns="http://www.w3.org/2000/svg" xmlns:xlink="http://www.w3.org/1999/xlink"><clipPath id="a"><path d="m0 0h20v20h-20z"/></clipPath><path d="m0 0h24v24h-24z" fill="none"/><g clip-path="url(#a)" transform="translate(2 2)"><path d="m0 0h20v20h-20z" fill="none"/><path d="m20 20h-20v-20h5.42l4.58 4.58 4.58-4.58h5.42zm-17.71-7.71v5.42h15.42v-15.42h-2.182l-3.909 3.91 1.511 1.51h4.579l-2.289 2.29h-3.238l1.618 1.619-3.8 3.801-3.13-3.13zm0-10v10l2.29-2.29h3.238l-1.618-1.619 2.181-2.181-3.909-3.91zm7.71 5.528-2.182 2.182 2.182 2.182 2.182-2.182z" fill="#9b814c"/></g></svg>