<svg height="24" viewBox="0 0 24 24" width="24" xmlns="http://www.w3.org/2000/svg" xmlns:xlink="http://www.w3.org/1999/xlink"><clipPath id="a"><path d="m0 0h20v20h-20z"/></clipPath><path d="m0 0h24v24h-24z" fill="none"/><g clip-path="url(#a)" transform="translate(2 2)"><path d="m0 0h20v20h-20z" fill="none"/><path d="m2.941 17.484a2.518 2.518 0 1 1 2.518 2.516 2.521 2.521 0 0 1 -2.518-2.516zm-2.941-10.662c4.156-.134 7.837-2.742 11.234-6.822l.016 6.692c-3.75 4.473-7.5 5.908-11.25 5.977z" fill="#1f1f48" transform="translate(6.042)"/><path d="m11.24 0v5.847c-4.153.134-7.83 2.742-11.224 6.822l-.016-6.692c3.747-4.477 7.493-5.906 11.24-5.977z" fill="#afb2ae" transform="translate(2.708 7.331)"/></g></svg>