<svg fill="none" height="48" viewBox="0 0 48 48" width="48" xmlns="http://www.w3.org/2000/svg"><path clip-rule="evenodd" d="m23.9469 44.518c-2.248.0103-4.4272.5372-6.5636 1.5052-.0949 1.0927-.9318 1.7521-2.5133 1.9768-1.2042-.0161-2.4121-.2871-3.6263-.8128-.7594-.2298-1.38275-1.5062-2.15222-3.0784-.76723-1.568-1.65613-3.4318-2.44467-4.8517-.17484-.3097-.18333-.6862-.02259-1.0034.46996-.9356 1.24116-1.3094 2.13982-1.0818.23299.0585.42963.2142.53995.4276.13219.2553.30213.5839.30213.5839.96188.3159 1.94238.5707 2.96418.6944l.1262-.1049c-.0275-.0162-.0537-.0349-.0799-.0512-5.8148-3.6626-9.73336-10.0426-9.86327-17.3417-.2061-11.56501 9.16997-21.168083 20.87197-21.37662831.1251-.00224779.2501-.00337169.3747-.00337169l.0936.00024976c.0935.00037463.1872.00149852.2812.00312193 11.7019.20854531 21.078 9.81161831 20.8719 21.37662831-.1299 7.2991-4.0485 13.6791-9.8633 17.3417-.0262.0163-.0524.035-.0799.0512l.1262.1049c1.0218-.1237 2.0023-.3785 2.9642-.6944 0 0 .1699-.3286.302-.5839.1104-.2134.3071-.3691.54-.4276.8987-.2276 1.6699.1462 2.1398 1.0818.1608.3172.1523.6937-.0225 1.0034-.7886 1.4199-1.6775 3.2837-2.4447 4.8517-.7694 1.5722-1.3928 2.8486-2.1522 3.0784-1.2142.5257-2.4221.7967-3.6263.8128-1.5814-.2247-2.4183-.8841-2.5133-1.9768-2.1533-.9756-4.3499-1.5032-6.6167-1.5054zm-14.03099-5.5067s.56299 1.5527.86579 2.3209c.3916.9937 1.4838 3.6408 1.4838 3.6408.2561.627.7758 1.1003-.5633 1.8045.0162.0474.0325.0936.0499.156.8207.2687 1.5627.522 2.3322.5084.0924-.0488.1861-.0824.2648-.1149l-3.6687-7.565c-.386-.7955-.4897-.838-.76449-.7507zm28.16819 0s-.563 1.5527-.8658 2.3209c-.3916.9937-1.4838 3.6408-1.4838 3.6408-.2561.627-.7758 1.1003.5633 1.8045-.0162.0474-.0325.0936-.0499.156-.8207.2687-1.5627.522-2.3322.5084-.0924-.0488-.1861-.0824-.2648-.1149l3.6687-7.565c.386-.7955.4897-.838.7645-.7507zm-4.9837-.8507c-2.5779-1.3992-5.8296-1.9507-9.1004-1.8585l-.1108-.0029c-4.686-.1112-9.3178 1.1039-11.9684 4.2456-.05.4121 2.3584 4.9964 2.863 5.6607.2236.2162.3023.246.4922.2736 2.2219-1.8843 5.466-2.6818 8.724-2.6369l.0763-.0009c3.2323-.0315 6.4431.7682 8.6477 2.6378.1899-.0276.2686-.0574.4922-.2736.5046-.6643 2.913-5.2486 2.863-5.6607-.8058-.9551-1.7946-1.7321-2.9125-2.3479-.0176.0264-.0546.0666-.1113.1208-.1473.1393-.3104.2683-.4886.3858-.1794.1188-.3625.2136-.5493.2867l-.4649.1912c-.157.0472-.3164.0956-.4771.1438-.1595.0494-.3197.0905-.4809.1245-.0115.0032-.0223.0062-.0326.0088-.0047.0083-.0104.0168-.0169.0254-.0271.0428-.0539.082-.0795.1188-.0255.0368-.0511.0748-.0768.1141-.0761.1214-.1497.2427-.2223.3654l-.1183.2154c-.0855.1495-.1621.3041-.2281.4651-.066.1611-.1272.3212-.185.4814l-.0011.0023c-.0726.2015-.1009.3609-.0853.4786.0156.118.0821.1983.1994.2406.0426.0154.0823.0167.1191.0038s.071-.0327.1027-.0594c.0317-.0266.0607-.0574.0873-.0918.0266-.0347.0492-.0667.0679-.0961.0334-.0482.0593-.067.0775-.0564.0184.0105.0199.0372.0045.0799-.0418.0933-.0974.1998-.1665.3195-.0693.1196-.147.2291-.2332.3285-.0861.0993-.1761.1763-.2701.2309-.0939.0543-.1871.0651-.2794.0316-.0996-.0358-.1678-.0917-.2049-.1672-.0368-.0756-.0558-.1597-.0565-.2523s.0118-.1855.0373-.2787c.0256-.0932.0506-.1734.075-.241l.0007-.0008c.0419-.1057.0898-.2148.1427-.3298.0532-.1152.105-.2281.1532-.34.0249-.0465.036-.0792.0344-.0959-.0028-.0169-.0356-.0018-.0997.0428-.1753.1296-.3484.2403-.5183.3344-.1699.0931-.352.1665-.5438.2216-.2837.0828-.5749.1236-.8736.1224-.2986-.0012-.5983-.0346-.9011-.0992-.2345-.0492-.4718-.113-.7095-.1934-.239-.0792-.4832-.179-.7333-.2969-.1106-.0517-.2068-.1075-.2909-.1651-.0829-.0585-.1499-.126-.1996-.2045-.0498-.0786-.0823-.1707-.0963-.276-.014-.1054-.0033-.2298.0321-.3734.0246-.0915.059-.185.1017-.2807.0413-.0944.0885-.1848.1403-.2705.0464-.0763.0838-.109.1105-.0994.0257.0096.0269.0608.0024.1512-.022.0847-.0281.1629-.0185.2348.0097.0718.0398.1388.0904.2018.1261.1501.2777.2668.4546.3502s.3552.1598.5352.2291c.6509.2549 1.3702.394 2.1571.4162.1592.0053.3156-.0026.4688-.0227.1546-.0211.3041-.0616.451-.1211.2245-.0881.4124-.2099.5628-.3658.1502-.1571.1881-.1872.3124-.3953.0262-.05.0556-.0926.0883-.1279.0325-.0342.0638-.0671.0964-.1001.0751-.0774.1501-.1523.2228-.2272.0547-.0548.1112-.1088.1703-.162-.0101-.0077.0114-.0384.0647-.0932.0696-.0597.1391-.1206.2076-.184.0697-.0633.1472-.1143.2321-.1518.0719-.03.1664-.0682.2853-.1136.1043-.0404.6224-.2242.7764-.2859.3084-.1245.6138-.2621.9172-.413.0343-.0162.0719-.0334.1157-.0528.0179-.0077.0342-.0139.0491-.0188zm-21.588 8.2158c.18-.0855.4459-.2307.4396-.5443-.3947-.1185-.8969-.1411-1.0905.4895.1933.142.5089.1222.6509.0548zm24.9752 0c-.18-.0855-.4459-.2307-.4396-.5443.3947-.1185.8969-.1411 1.0905.4895-.1934.142-.5089.1222-.6509.0548zm-27.85206-8.7237c-.90879-.2872-1.59265.427-1.41028 1.1527l3.41214 7.0418c.3399-.4179.6757-.4604 1.0086-.4807zm30.72896 0c.9087-.2872 1.5926.427 1.4102 1.1527l-3.4121 7.0418c-.3399-.4179-.6758-.4604-1.0086-.4807zm-9.3402 6.3503c.0192-.0533.1035-.1474.2524-.2824.1493-.135.2381-.1972.2664-.187.0925.0334.1656.1088.2195.2268.0539.1178.0655.2193.0346.3046-.0281.078-.1038.1623-.2267.2526-.1229.09-.2075.1268-.2537.1101-.0212-.0076-.0787-.0765-.1724-.2066-.0323-.0439-.0648-.0877-.0972-.1315-.0243-.0327-.0318-.0618-.0229-.0866zm-13.0448.0879c-.0029-.0188.0332-.1228.1083-.3126.0752-.1897.1238-.2865.1462-.29.0634-.01.1442.0173.2425.0821.0989.0684.1539.1379.1651.209.013.0819-.0133.1933-.079.3338-.0664.1366-.1182.208-.1554.2139-.0188.0029-.0491-.0086-.0916-.0343-.0422-.0258-.0847-.0526-.1274-.0801-.049-.0191-.0949-.0376-.138-.0557-.043-.0181-.0666-.0402-.0707-.0661zm-.5195-.6348c-.0048-.0298.0341-.147.1164-.3513.0824-.2042.1348-.3081.1571-.3117.0486-.0076.1248.0148.2287.0671.1002.0529.1719.1066.2149.1611.0392-.0904.0803-.1812.1233-.272.0601-.1283.0975-.1933.1124-.1958.0672-.0106.1558.0175.2658.0841.1112.0742.173.1504.1855.2287.0143.0897-.0187.2075-.0987.3542-.0782.1347-.1378.2054-.1787.212-.03.0047-.0811-.0159-.1533-.0619-.1025-.0679-.1867-.1157-.2523-.1435-.1036.2879-.1981.4387-.2841.4523-.0148.0024-.091-.0315-.2284-.1014-.1373-.0701-.2069-.1107-.2086-.1219zm15.4701-3.4231c.0046-.0044.0092-.0087.0138-.0131.0183-.0176.0331-.0282.0446-.0321.0114-.0039.0164.0019.0149.0174-.0018.0156-.0167.0462-.0454.092-.1732.291-.3357.5907-.4872.8995-.4068.8283-.111.2208-.3206.7397-.0732.2025-.1018.3628-.0862.4809.0157.118.0821.1983.1995.2407.0425.0153.0822.0166.1191.0037.0368-.0129.0709-.0327.1027-.0593.0317-.0267.0608-.0575.0874-.0919.0266-.0347.0491-.0667.0677-.0961.0335-.0482.0595-.067.0776-.0564.0183.0106.0198.0372.0045.0799-.0419.0933-.0973.1998-.1665.3195-.0694.1196-.1471.2291-.2331.3285-.0862.0993-.1763.1763-.2701.2309-.0941.0543-.1872.0649-.2796.0316-.0995-.0358-.1677-.0917-.2047-.1672-.037-.0756-.0558-.1597-.0566-.2523-.0006-.0926.0118-.1855.0372-.2787.0258-.0931.0506-.1734.0751-.241l.0089-.008c.0616-.1689.1579-.3825.2884-.6407.2949-.5832-.1433.2574.4335-.8435.0499-.0944.1106-.185.1823-.2716.0418-.049.0925-.1062.1519-.171.0596-.0649.1261-.1322.1995-.2022.0046-.0043.0093-.0087.0139-.0131zm-12.3153.4844c.3183-.0426.6272-.0974.9265-.164.2993-.0665.5942-.1609.8846-.2836.258-.1097.5064-.2381.7453-.385.2385-.1467.4674-.3024.6861-.4671.3074-.2324.595-.4758.8625-.7304.2676-.2548.5415-.5113.8218-.7699.0832-.0783.1671-.1529.2516-.2234.0843-.0709.1753-.1369.2728-.1982.0903-.0564.1547-.0733.1928-.0508.0378.0227.0391.079.0037.1688-.0236.0687-.0487.1396-.0753.2127-.0267.073-.058.1411-.0939.2042-.0175.0333-.0373.0603-.0589.0809-.0216.0207-.0498.0414-.0848.0623-.0493.027-.1189.082-.2091.1651-.0901.0831-.2048.1912-.3445.3242-.1626.1558-.325.3145-.4869.4759-.1618.1614-.3269.3205-.4952.4771-.1684.1569-.3394.3092-.5129.4571-.1736.148-.3534.2864-.5395.4153-.7814.5485-1.6536.8989-2.6163 1.0515-.2468.0352-.4584.0641-.6347.0862-.1764.0222-.3263.0298-.4498.0226-.1354-.0091-.2697-.0241-.4031-.0451s-.263-.0539-.3887-.099c-.0489-.0191-.0877-.034-.1161-.0448-.0285-.0107-.0542-.0162-.0772-.0163-.023-.0002-.0445.0089-.0644.0272-.0202.0187-.0459.0496-.0772.0926-.0283.0389-.0576.0838-.0877.1345-.0303.0507-.0665.1119-.1086.1834-.08.1236-.1809.2172-.3028.2805-.1219.0631-.2573.0837-.4062.0614-.0826-.0137-.1575-.0286-.2252-.0446-.0675-.0161-.1437-.0136-.2284.0075-.0772.0199-.1512.047-.2223.0811-.0711.0343-.1398.0833-.2062.1475-.1001.0923-.166.1343-.198.1261-.032-.0085-.0154-.0732.0494-.1943.0732-.1418.1594-.2796.2586-.4139.0993-.1343.2112-.2552.3355-.363.0639-.056.1332-.108.2076-.1562.0747-.0481.1556-.0753.2425-.0815.0722-.0037.1442.004.2161.0232.0718.0192.1447.0325.2186.0398.0818.0101.154.0006.2164-.0286.0623-.0288.1176-.072.166-.1295.0557-.0584.1051-.1199.1486-.1842.0434-.0642.0866-.1285.1302-.1927.0627-.0864.1224-.1446.1787-.1747.0565-.0298.1421-.0328.2568-.0091.26.0469.5025.0744.7275.0827.2251.0084.4631-.0055.7137-.0415zm11.0094-.5125c.0181-.0497.1016-.1421.2507-.2771.149-.1349.2379-.1973.2663-.1871.0925.0334.1655.1089.2195.2268.0538.1179.0655.2193.0346.3046-.0282.0781-.1034.1614-.2257.2498-.1223.0885-.2066.1243-.2527.1077-.0214-.0076-.0788-.0766-.1725-.2068-.0337-.0401-.0667-.0822-.0991-.1261-.0231-.0364-.03-.067-.0211-.0918zm-6.5257-38.85952c.0986.00037.1973.00137.2962.00312 5.5425.09865 10.5341 2.42637 14.1166 6.10276 3.5813 3.67524 5.7535 8.69774 5.6561 14.18624-.0637 3.5351-1.0618 6.8457-2.7569 9.7017-1.6875 2.8433-3.8723 5.1548-6.6903 6.8656-.065.0401-.13.0813-.1962.1211l.2263.1874c.0598-.0375.1185-.0761.1797-.1137 5.6724-3.5353 9.5022-9.734 9.6284-16.8322.1999-11.1901-8.8727-20.481145-20.1961-20.683322-.0908-.001623-.1814-.002622-.2718-.003122l-.0905-.000124c-.1205 0-.2413.001123-.3622.003246-11.3235.202177-20.39605 9.493222-20.19619 20.683322.12616 7.0982 3.95603 13.2969 9.62839 16.8322.0612.0376.1199.0762.1797.1137l.2263-.1874c-.0662-.0398-.1312-.081-.1961-.1211-2.8181-1.7108-5.00286-4.0223-6.69045-6.8656-1.69509-2.856-2.69315-6.1666-2.75686-9.7017-.09743-5.4885 2.07483-10.511 5.65611-14.18624 3.5825-3.67639 8.5742-6.00411 14.1166-6.10276.1318-.00238.2634-.00337.3947-.00325zm12.1802 5.77295c.0146-.03072.0297-.06119.0455-.09116l.0067-.01261.0998-.18057c.0515.04558.103.09128.1544.13699.0577.05245.1126.10839.1653.16596.0658.07205.1284.1471.1875.22478.2362.31094.4207.66884.5003 1.05259l.0072-.01499.0064-.01273.0948-.1832c.0527.04421.1053.08842.158.13262.0592.05095.1155.10527.1698.16134.0678.07031.1324.14361.1936.21966.2098.261.3825.55746.4843.87727l-.0039-.00325.1603.13c.06.04995.1173.10327.1725.15847.0689.06905.1347.14123.1972.21628.2744.32952.4888.71842.572 1.14202.0024.0117.0045.0235.0066.0352l.0419-.0745c.0512.0459.1023.0919.1535.1379.0573.053.1118.1091.1641.1671.0655.0725.1274.1479.186.2259.2572.3432.4517.7426.5132 1.1698.0385.2676.0253.5401-.0253.8054l.0009-.0015c.0683-.111.1434-.2179.226-.3184l.0091-.011.1346-.1564c.041.0552.0821.1104.1231.1656.0458.0632.088.129.1279.1962.0498.0839.0957.1702.1376.2583.1843.3872.2958.817.2717 1.2479-.006.1066-.0199.2123-.0411.3165l.1633-.147c.0336.06.0673.1199.1011.1799.0373.0685.0708.1392.1018.2109.0386.0896.0732.1811.1035.2737.1334.4075.1894.8481.1104 1.2724-.0218.1176-.0535.2329-.0938.3453.0238-.0189.0478-.0374.0721-.0555l.0116-.0083.1685-.119c.0264.0634.0529.127.0792.1904.0291.0726.0541.1466.0765.2214.0278.0935.0514.1883.0707.284.0847.4203.0885.8644-.0396 1.2765-.056.1798-.1356.351-.2326.512.0407-.0273.0822-.0534.1243-.0782l.0123-.0072.1799-.1009c.0198.0659.0395.1317.0591.1976.0215.0751.0387.1514.0531.2282.0181.0959.0317.1925.041.2897.0406.4268-.0015.869-.1717 1.2656-.1043.243-.253.4642-.4293.6609l.0065-.0036c.1228-.0705.2505-.1329.3822-.1846l.0133-.005.1938-.0709c.0089.0682.0178.1363.0267.2045.0092.0776.0139.1556.0159.2338.0024.0975.0004.1952-.006.2925-.0281.4279-.1405.8575-.3719 1.2219-.1464.2305-.3362.4304-.5499.6.1174-.0414.2373-.0762.359-.102l.014-.0028.2027-.0383c-.0024.0688-.0047.1375-.0071.2062-.0036.078-.0118.1558-.0225.2331-.0135.0967-.0315.1927-.0537.2877-.0977.4175-.2789.8231-.5669 1.1447-.2614.2921-.6006.5073-.9613.6559-.0871.036-.1758.0685-.2658.0966-.0002.0327-.001.0655-.0024.0983.1733-.0865.3564-.154.5426-.2047.1747-.0475.3538-.0817.5343-.0969l.0142-.001.206-.0126c-.011.0679-.022.1357-.033.2036-.0133.077-.0311.1531-.0514.2286-.0256.0941-.0555.1872-.0895.2786-.1491.4019-.3796.7816-.7055 1.0647-.2959.2571-.6593.4284-1.0358.5308-.1163.0317-.2347.0575-.3541.0756-.0096.056-.021.1117-.0341.1671.1864-.0521.3787-.0838.5715-.0983.0669-.0051.1339-.0078.2011-.0089.0252-.0002.0505-.0004.0757-.0001.0889.0011.1776.0055.2661.0149l.0141.0017.2047.0266c-.0252.0691-.0498.1384-.0759.207-.0661.1686-.1499.3306-.2454.4843-.2132.3437-.4934.6529-.8412.8638-.3476.211-.7513.3168-1.1547.3473-.0685.0052-.1375.0083-.2066.0092-.0062.0169-.0127.0336-.0194.0503.104-.0132.2094-.0201.3142-.0219.0233-.0003.0464-.0003.0695-.0002.0443.0005.0887.0017.1329.0039.1133.0058.2263.0175.3383.0351.0878.0137.175.0312.261.0533l.0139.0038.1985.056c-.035.0646-.0693.1297-.1051.1939-.0898.1572-.1963.3052-.313.4435-.2608.309-.583.5743-.9577.7326-.2879.1216-.5995.1769-.9115.1831.1209.01.2413.027.3604.0507.1205.0241.24.0546.3566.094l.0135.0047.1938.0703c-.0395.0619-.0785.1243-.1189.1857-.101.1502-.2179.2901-.3445.4196-.2825.2892-.6231.5303-1.0082.661-.1662.0564-.3384.0914-.5126.1082-.0055-.0012.1603.041.2466.0701l.0135.0047.194.0703c-.0396.062-.0787.1243-.1191.1857-.1011.1503-.218.2901-.3444.4195-.2827.2893-.6232.5304-1.0083.6611-.3852.1306-.8023.1465-1.2027.0889-.0842-.0122-.1681-.0274-.2513-.0461-.0136.0309-.0277.0616-.0425.092.032-.0017.0641-.0029.0961-.0036.0249-.0004.0498-.0005.0747-.0003.195.0022.3894.023.5807.0611.1206.024.24.0546.3565.0938l.0135.0048.194.0702c-.0396.062-.0786.1243-.1189.1858-.1011.1502-.218.2901-.3445.4195-.2826.2893-.6232.5304-1.0083.6611-.1898.0643-.3873.1008-.5867.1144.2961.1426.6.294.9147.4545.1199-.0698.2375-.1422.356-.2147 2.7519-1.6872 5.0628-4.0199 6.7066-6.7896 1.6664-2.8073 2.6482-6.0641 2.7107-9.5431.0962-5.3998-2.041-10.34-5.5648-13.95641-3.524-3.61508-8.4356-5.90546-13.8906-6.00274-.0973-.00174-.1945-.00274-.2915-.00312l-.097-.00012c-.1293-.00013-.2588.00087-.3885.00324-5.455.09728-10.3666 2.38766-13.89058 6.00274-3.52383 3.61641-5.66098 8.55661-5.5648 13.95641.06246 3.479 1.04428 6.7358 2.71064 9.5431 1.64387 2.7697 3.95474 5.1024 6.70664 6.7896.1185.0725.2361.1449.356.2147.2545-.1298.5021-.2537.7441-.3718-.1618-.0342-.3211-.0802-.4763-.1392-.5477-.2085-1.0284-.5685-1.4269-.9939-.0883-.0943-.1728-.1921-.2532-.2931-.0816-.1026-.1589-.2085-.2303-.3185l-.0825-.1348c-.1855-.0579-.3661-.131-.5389-.2212-.4679-.2438-.8663-.606-1.1909-1.0192-.0537-.0683-.1054-.1381-.1552-.2093-.0828-.1184-.1604-.2405-.2322-.3659-.057-.0998-.11066-.2017-.1583-.3062l-.00528-.012-.07816-.1807c.03444-.007.06884-.0141.10328-.0212-.28778-.1336-.55894-.302-.79958-.5096-.39955-.3447-.70438-.7884-.92562-1.265-.03658-.0788-.07092-.1586-.10308-.2393-.0535-.1342-.101-.2709-.1421-.4094-.03269-.1101-.06154-.2215-.08396-.3342l-.0024-.0128-.03482-.1942c.0657.0022.13139.0041.1971.0063.01524.0005.03047.0012.04568.0021-.38419-.2456-.73157-.552-.99875-.9227-.30851-.428-.50184-.9305-.60625-1.4454-.01726-.0851-.03211-.1707-.04463-.2567-.02084-.143-.03528-.2868-.04306-.4311-.00618-.1147-.00835-.2299-.00396-.3446l.00064-.013.01127-.1967c.06339.0171.12679.0343.19018.0516.1044.0292.20696.0654.30805.1045.08965.0346.17824.072.26561.1121-.03364-.0222-.06698-.0447-.10004-.0678-.07131-.0496-.1413-.101-.20975-.1545-.41417-.3234-.77734-.7207-1.02261-1.1879s-.36609-.9917-.39707-1.5163c-.00512-.0866-.00778-.1734-.00809-.2603-.00051-.1445.00543-.289.01801-.433.01002-.1145.02406-.2286.04457-.3418l.00245-.0127.03885-.1933c.06036.0259.12071.0519.18107.0779.09921.0437.19562.0939.29019.1468.11807.066.32931.1979.32138.1902-.06254-.0603-.12346-.1222-.18259-.1859-.35766-.385-.65321-.8349-.82124-1.3351-.16805-.5001-.20415-1.0371-.15156-1.5598.0087-.0864.01985-.1727.03331-.2585.0224-.1427.05119-.2845.08644-.4246.02803-.1114.06001-.2219.0982-.3304l.00444-.0123.06898-.1843c.05548.0351.11094.0702.1664.1053.09104.0589.1783.1237.26331.1911.116.0916.22763.1889.33459.2909.04415.0422.0875.0852.12999.129l.00576-.013c-.0823-.1069-.15999-.2174-.23292-.3309-.04694-.073-.09191-.1475-.13474-.223-.25909-.4571-.44282-.9631-.49089-1.4884-.04806-.5255.04082-1.0564.21271-1.5529.02842-.082.05915-.1633.09207-.2437.05476-.1337.11549-.265.18215-.3932.05301-.102.10963-.2021.17183-.2988l.00716-.011.10976-.1636c.04583.0471.09167.0941.13752.1411.07499.0782.14491.1615.2121.2465.00879.0112.01753.0223.02619.0335-.12365-.4127-.18556-.8449-.15576-1.2755.03641-.5263.2089-1.0362.45779-1.499.04115-.0764.08447-.1517.12979-.2259.07539-.1233.15631-.2432.24256-.3592.0686-.0921.1405-.182.21732-.2676l.00875-.0095.13442-.1442c.03778.0537.07557.1075.11336.1613.06153.0893.11727.1826.17003.2773l.002.0036c-.02019-.4007.01699-.8046.13143-1.1898.15025-.5058.42968-.96597.7735-1.36333.05682-.06568.11552-.12974.17589-.19218.10045-.1039.20556-.2033.31502-.29771.08705-.07505.17683-.14711.27044-.21379l.01063-.00749.16264-.11152c.02514.06081.05029.12151.07543.1822.00853.02123.01678.04246.02475.06381.05225-.31107.14202-.6154.27722-.90099.2258-.47691.5723-.88888.9727-1.22917.0662-.05619.134-.11052.2032-.16309.1152-.08729.2342-.16946.3568-.24601.0975-.06094.1972-.11838.2999-.17008l.0117-.00562.1778-.08529c.0155.06381.0311.12762.0466.19144.0248.10552.0427.21279.0573.32006.02.14648.033.29396.0393.44169.0026.06106.004.122.0042.18307.007-.00275.014-.00562.021-.00849l.0077-.003c.0823-.20605.1893-.40186.3245-.57806.0394-.05132.0811-.1009.1251-.14848.252-.27261.5713-.47753.9112-.62339.1668-.07155.3399-.13049.5169-.1707l.014-.003.2023-.04108c-.0014.06868-.0029.13748-.0043.20617-.0025.0783-.0095.15634-.0193.23402-.0122.09715-.0288.19368-.0497.28921-.089.40586-.256.80147-.5238 1.1224-.1775.21267-.3952.38775-.6334.52823l-.0034.01199c.0562-.00574.1124-.01036.1687-.01411.0872-.00574.1745-.00874.2618-.01011.0356-.00025.0356-.00025.0712-.00025.1263.00099.2525.00574.3781.01873l.0129.0015.1956.02397c-.0227.06631-.0449.13262-.0682.19868-.0393.10802-.0847.21379-.1338.31769-.0585.12388-.1225.24526-.1914.36364-.0433.07443-.0886.14761-.136.21954-.2933.44581-.6666.8458-1.1209 1.1301-.1673.1047-.344.1926-.5268.2654-.0167.0746-.0364.1485-.0575.2218-.041.142-.0887.2822-.1428.4198-.0314.0802-.065.1595-.1008.2378-.2305.5045-.5543.9733-.9836 1.3289-.1512.1253-.3136.2357-.4841.3321-.001.0217-.0022.0433-.0035.0649-.0091.1476-.0251.2949-.0478.441-.0132.085-.0287.1697-.0466.2538-.115.5428-.32883 1.0707-.67027 1.5114-.13555.1749-.2892.3345-.45605.4791.01179.0743.02077.1489.02822.2236.01464.1471.02226.295.02314.4428.00053.0861-.00127.1722-.00545.2581-.027.5541-.15379 1.1095-.4205 1.5989-.1133.2079-.24986.4017-.40368.5811l.05337.1144c.04492.0987.0834.2003.11875.3027.04823.1399.08979.2819.12479.4256.02039.0837.03853.1678.0543.2524.10168.5453.10657 1.115-.03996 1.6527-.06389.2346-.15508.4603-.26731.6754l.06319.0933c.05998.0902.11412.1845.16526.2801.06978.1303.13335.2639.1907.4003.03339.0793.06465.1596.09366.2407.18687.5222.28204 1.0839.22264 1.6381-.05395.5033-.23078.9877-.47729 1.4277-.04245.0757-.08706.1502-.13364.2237l-.00769.012c.02095.0199.04169.04.06226.0604.01344-.0315.02721-.0628.04133-.0939.05956-.1316.12504-.2606.1963-.3864.05669-.0999.11692-.198.18258-.2923l.0075-.0106.11557-.1596c.04414.0486.08827.0973.1324.146.0721.0809.13894.1667.20302.254.08743.1192.16918.2427.24512.3696.04422.0738.08646.1489.12657.225.25847.4909.43157 1.0335.45067 1.5906.005.1447-.0002.2892-.0144.4329l.0127-.0308c.0542.0371.1085.0742.1627.1113.0889.0619.1739.1298.2565.1999.1128.0958.221.1968.3243.3026.0602.0615.1187.1247.1754.1895.3655.4174.66.905.8081 1.4424.0273.0992.0497.1996.0673.3009.088.0365.1741.0777.2588.121.1317.0673.2602.1409.385.2202.0727.0461.1441.0943.2142.1442.4428.3165.8348.7142 1.1018 1.1912.0554.0989.1051.2006.1496.3045.0654.0191.1302.0403.1945.0627.1397.0485.2771.1039.4116.1653.0784.0357.1557.0736.232.1136.4913.2577.942.6063 1.2738 1.0543.3063.4133.506.8982.6221 1.3974.0194.0838.0366.1682.0514.253.0065.0365.0124.073.018.1096l.0109-.0039c1.8879-.6793 3.7609-.9781 6.5538-.9822.1345-.005.269-.0083.4035-.0099l.1008.0015c.101.0019.2018.0047.3027.0084 3.1306.0046 5.1055.3795 7.241 1.2454-.0256-.0863-.0472-.1739-.0653-.2619-.082-.396-.0915-.813.0155-1.2052.1069-.3924.327-.7469.5986-1.0465.1215-.134.254-.2593.3979-.3693l.0114-.0085.1668-.1215c.0273.0631.0547.1263.082.1893.0301.0721.0562.1458.0797.2203.0293.0932.0542.1876.0749.283.0339.1562.0565.3159.0654.4764.0502-.0283.1014-.0551.1533-.0803-.0752-.3854-.0812-.7895.0227-1.1702.1069-.3923.327-.7468.5986-1.0464.1215-.1341.2541-.2593.398-.3692l.0115-.0085.1667-.1215c.0273.063.0546.1261.082.1893.0302.072.0563.1457.0797.2203.0292.0931.0542.1875.0748.2829.0338.1563.0566.316.0653.4763.0078-.0043.0156-.0086.0234-.013-.068-.3731-.0701-.7623.0302-1.1298.1069-.3923.327-.7468.5986-1.0464.1217-.1341.2541-.2594.398-.3693l.0115-.0084.1667-.1216c.0274.0631.0547.1262.082.1894.0101.0239.0196.048.0288.0724.0067-.0751.0171-.1499.0318-.224.0782-.399.2718-.7685.5208-1.0871.1116-.1425.2346-.2771.3702-.3972l.0107-.0094.1574-.1332c.032.0609.0638.1218.0957.1828.0085.0168.0167.0337.0248.0507-.0015-.0536-.001-.1074.0015-.1611.0195-.4062.1576-.8.3578-1.1513.0896-.1572.1919-.3082.3084-.4465l.0094-.0109.1365-.1547c.0404.0557.0807.1114.1211.167.045.0638.0864.1302.1255.1978.0487.0845.0935.1714.1344.26.067.1452.1237.2963.167.4509.029-.026.0586-.0513.0886-.0762-.2018-.3087-.3513-.6556-.4039-1.0219-.0578-.4026.0031-.8153.1333-1.1982.0582-.1713.13-.3389.2184-.497l.0071-.0123.1048-.1779c.0501.0471.1003.0942.1504.1413.0563.054.1095.1114.1606.1704.0638.0738.1243.1506.1813.2298.0932.13.1775.2676.2493.4112l.0022-.0028c.0108-.0142.0218-.0283.0329-.0423l.0039-.0049c-.2444-.2843-.4407-.6147-.5404-.9775-.1077-.392-.0988-.8092-.0176-1.2053.0363-.1772.0867-.3524.1545-.5203l.0055-.0132.0817-.1894c.0557.0405.1113.0808.167.1211.0626.0467.1227.0969.1807.1491.0726.0654.1422.1339.2085.2055.027.0291.0734.0818.0704.0784-.1186-.147-.2206-.3067-.3-.4785-.1703-.3693-.2299-.7823-.2146-1.1864.0069-.1808.0278-.3619.0674-.5386l.0032-.0138.0496-.2002c.0615.0307.123.0614.1845.0921.0631.0325.1243.0682.1844.1059-.0356-.0445-.0695-.0905-.1013-.1379-.2274-.3372-.3522-.7353-.4018-1.1366-.0222-.1795-.0304-.3617-.0198-.5424l.001-.0143.0168-.2055c.0657.0205.1313.041.197.0614.0744.0243.1472.0527.2189.0836.0897.0387.1775.0815.2633.1281.1405.0764.2763.1636.4036.2617.0046-.0228.0095-.0455.0147-.0683-.2705-.1471-.5185-.3368-.7165-.5733-.2609-.3118-.4263-.6949-.5171-1.0888-.0406-.1763-.0678-.3566-.076-.5375l-.0005-.0142-.0045-.2063c.0675.0136.135.0272.2023.0408.0616.0133.1225.0293.1829.0472-.0157-.0138-.031-.0279-.0463-.0423-.2958-.2791-.5049-.6402-.6413-1.0207-.0611-.1704-.1091-.3462-.1384-.5249l-.0021-.0141-.0287-.2044c.0685.0057.1371.0113.2056.017.0778.0072.1552.0189.2319.0334.0163.003.0325.0063.0486.0095-.0262-.0172-.0519-.0351-.0773-.0536-.329-.2391-.5826-.5705-.7665-.9307-.0823-.1612-.1524-.3294-.2042-.503l-.0585-.2126c.0736-.0034.1471-.0075.2205-.01.0285-.0007.0569-.0009.0853-.0007.0294.0005.0587.0013.0881.0025-.0241-.01-.0481-.0203-.0719-.0312-.3697-.1694-.6837-.4443-.9352-.761-.1125-.1416-.2144-.2927-.2995-.4525l-.0066-.0128-.0927-.1842c.0713-.0178.1425-.0364.214-.0534.0809-.0183.2276-.0495.2276-.0495-.0543-.019-.1077-.0403-.1602-.0637-.3447-.1537-.6449-.3967-.8934-.6788-.1195-.1357-.2291-.2815-.3221-.4367l-.0073-.0124-.1019-.1793c.0703-.0215.1404-.0436.211-.0642.0288-.0081.0578-.0156.0869-.0226-.3562-.1587-.664-.4137-.9156-.7093-.1173-.1378-.2245-.2853-.3149-.4422l-.007-.0124-.0989-.181c.0442-.0127.0883-.0256.1325-.0383l.0251-.0071c-.3655-.16764-.677-.43787-.9277-.74944-.1134-.14098-.2164-.29146-.3024-.45081l-.0068-.01261-.0938-.18369c.0146-.00375.0091-.00238.0202-.00525-.2743-.14186-.5197-.33867-.7312-.56295-.1242-.13162-.2386-.2736-.3369-.42558l-.0076-.01211-.1081-.1757c.0696-.02385.1389-.04833.2088-.07131.1088-.03446.2198-.06144.332-.08267.1705-.03222.3434-.0507.5169-.05507.0303-.00062.0607-.00075.091-.00062.0137.00025.0273.0005.0409.00087-.0606-.13062-.1111-.26599-.1523-.40335-.0519-.17333-.0908-.35141-.1105-.53136l-.0015-.01423-.0179-.20542c.0682.00911.1364.01835.2045.02747.0773.01149.154.02722.2298.0457.095.02311.1887.05058.2811.08205.1871.06406.37.14548.5414.24588.0047-.19356.0307-.38687.0732-.57506.0398-.17658.0934-.35078.1646-.51724l.0912-.20093c.0548.04146.1097.08304.1645.1245.0617.04783.1207.09916.1778.15248.0713.06668.1395.13661.2044.20942.2853.32006.5131.70156.6105 1.1219.0059.02497.0231.06006.0231.06006zm-20.8253 30.31997c-.3823-.1146-.7485-.2838-1.0717-.5188-.3735-.2715-.681-.6246-.9263-1.0146-.2693.0189-.5366.0631-.798.1304l-.0089.0023c.1199.1657.2524.3224.3943.4695.0526.0546.1067.1079.1621.1596.3488.3255.7563.5956 1.2108.7475.2477.0828.5061.1303.7664.1493-.0209.0098.1607-.0749.2713-.1252zm16.9804-.0743c.0688.0135.1378.0245.2073.0331.3522.0436.7185.0235 1.0531-.1016.2812-.1051.5332-.2785.7506-.4837.0479-.0452.0942-.0921.1388-.1404.0477-.0516.0933-.105.1373-.1597l.001-.0013c-.0602-.0152-.121-.0281-.1821-.0392-.156-.0283-.3142-.0439-.4728-.0457-.011 0-.022 0-.033 0-.1103.0009-.2207.0087-.3297.0251-.0587.0843-.1231.1647-.1937.2401-.2676.2865-.6111.4945-.9748.6356-.0318.0123-.0636.0241-.0956.0354zm-15.9154-.3803c-.124-.2744-.2748-.5369-.4548-.7785-.1789-.24-.3872-.4591-.6259-.6403-.2761-.2095-.5906-.3645-.919-.4733-.169-.0559-.342-.1-.5169-.1333-.2271-.0434-.4575-.0686-.6886-.0765l-.0091-.0002c.001.0028.002.0057.0031.0086.0761.2103.1675.4148.2741.6115.0843.1556.1781.3062.2819.4496.2022.2793.4437.5321.7253.7324.259.1842.5487.3227.85.4226.1568.0519.3168.0938.4787.1261l.0386-.0166c.0513-.022.1024-.0437.1535-.0652-.1965-.1328-.3887-.272-.5797-.4125-.2156-.1625-.4296-.3273-.6375-.501-.2085-.1728-.4131-.3514-.6069-.5453l.0008-.0013c.2505.1119.4901.2395.7259.3728.2365.1323.4667.2734.6953.417.2269.1461.4525.2943.6718.4512.0322.0229.0645.046.0967.0692l.0263-.0105zm15.9231.0442c.0115-.0045.0228-.0091.0343-.0138.3283-.1348.6376-.332.8677-.6052.1932-.2296.3277-.5044.4163-.7898.0196-.0629.0369-.1265.0521-.1906.0161-.0683.0296-.1372.0411-.2064l.0002-.0017c-.0005.0001-.001.0003-.0016.0005-.0676.0189-.1345.0398-.2007.0634-.0621.0221-.1234.0462-.1838.0726-.2909.1266-.5645.3033-.7772.5407-.2127.2373-.3585.5285-.4525.8314-.0035.0112-.0069.0224-.0103.0337.0877-.1031.1791-.2029.2718-.3019.1248-.1289.252-.2561.3873-.3762.1345-.1209.2741-.2373.4283-.3414l.0011.001c-.0782.1687-.1707.3252-.2685.4771-.0972.1528-.2024.2986-.3098.4423-.0958.1239-.1929.2465-.2958.3643zm.321-1.62c.0039-.1579-.0091-.3165-.0347-.472-.0108-.0649-.0238-.1296-.0389-.1937-.0161-.0683-.035-.136-.0557-.203l-.0006-.0017c-.0004.0004-.0008.0008-.0013.0012-.0519.0472-.1024.096-.151.1467-.0456.0474-.0895.0965-.1318.147-.2033.2435-.3687.524-.4525.8314-.0838.3075-.0839.6331-.0323.946.0095.0578.0354.1666.0354.1666.0015-.0055.003-.0109.0044-.0164.1041-.3907.2825-.768.5538-1.0707.0912-.1018.1919-.194.2997-.2771zm-16.0805 1.1988c-.0418-.2044-.0984-.4058-.1712-.6014-.1044-.2805-.2431-.5492-.4215-.7899-.2062-.2785-.4646-.5154-.7495-.7117-.1527-.1054-.3132-.1994-.4789-.2831-.1997-.1008-.407-.1861-.6195-.2559l-.0087-.0028c.0002.0031.0003.0061.0005.0091.0142.2231.0446.4452.0918.6638.0058.0267.0118.0535.0181.0801.3892.1002.7654.2542 1.1024.474.0795.0517.1564.1071.2307.166.212.1677.4016.3624.5691.5742.1668.2112.312.4392.4367.6776zm17.4045-.8699c.0687.0135.1379.0245.2072.0331.3523.0436.7185.0235 1.0531-.1016.2812-.105.5333-.2785.7507-.4836.0478-.0453.0941-.0922.1389-.1405.0476-.0516.0931-.1049.1371-.1596l.001-.0014c-.0686-.0174-.1379-.0317-.2076-.0437-.1478-.0255-.2973-.0395-.4472-.0412-.011 0-.022 0-.033 0-.1104.0009-.2207.0087-.3296.0251-.0588.0844-.1233.1647-.1938.2401-.2675.2865-.6112.4947-.9749.6356-.0337.0132-.0677.0257-.1019.0377zm-21.4459-.0193c.0902-.0222.2952-.0623.3131-.0656-.3887-.1693-.7529-.3968-1.059-.6913-.3327-.32-.5889-.712-.7783-1.1319-.061-.0041-.122-.0068-.183-.0086-.0429-.001-.0858-.0015-.1287-.0014-.1573.0009-.3141.0097-.4705.0265l-.0262.003-.0091.0011c.0145.0273.0294.0541.0444.081.1923.339.4259.6561.7026.9312.219.2176.4659.4087.7387.5545.2683.1435.5595.2412.8575.3011zm1.0793-1.1183c-.1721-.3404-.3947-.6555-.6755-.9147-.2391-.2208-.5158-.3985-.8092-.538-.3462-.1647-.7162-.2784-1.0932-.3463l-.0261-.0046-.009-.0014c.0007.0029.0013.0059.0019.0089.0465.2188.109.4341.1876.6434.0622.1657.1344.3277.2175.484.1576.296.3553.5723.5974.8052s.5258.42.8277.5661c.0808.0391.163.0753.2463.1088-.0465-.0988-.0897-.1991-.1294-.3009-.0363-.093-.0952-.2715-.0934-.2657-.1592-.1599-.3163-.3218-.4684-.4894-.1829-.1998-.3611-.4046-.5265-.6234l.001-.0011c.2327.1452.4527.3044.6679.4688.1587.12.3135.2444.4664.3707.0205-.0006.0409-.0011.0614-.0015.0196-.0001.0391-.0002.0587-.0001.166.0013.332.0119.4969.0312zm20.4216.7823c.3236-.1347.6275-.3302.8546-.5998.1934-.2296.3279-.5044.4166-.7899.0195-.0628.0368-.1264.0519-.1904.0163-.0684.0298-.1373.0413-.2066l.0002-.0016c-.0006.0001-.0011.0003-.0017.0005-.0676.0189-.1346.0399-.2008.0635-.0621.0221-.1234.0462-.1837.0724-.2908.1266-.5645.3033-.7771.5407-.1582.1765-.2794.3826-.3698.6013l.1702-.0289.0083-.0091c.125-.129.2521-.2561.3874-.3762.1345-.1209.2742-.2373.4282-.3414l.0013.001c-.0782.1688-.1709.3251-.2687.4771-.0971.1527-.2023.2986-.3097.4423-.0782.1012-.1573.2014-.2396.299-.0029.0153-.0057.0307-.0089.0461zm-.5372-.4116c.1078-.3318.2724-.6475.5059-.908.0927-.1034.1952-.197.305-.2812.0038-.158-.0091-.3165-.0347-.4721-.0107-.0649-.0237-.1295-.0388-.1935-.0162-.0685-.035-.136-.0558-.2031l-.0005-.0016c-.0004.0004-.0008.0007-.0012.0011-.052.0472-.1026.0959-.1511.1466-.0456.0476-.0896.0967-.1318.1471-.2034.2434-.3688.524-.4526.8315-.0839.3074-.0839.633-.0323.9459l.003.0172.0056-.0021c.0263-.0096.0527-.0188.0793-.0278zm-19.688-1.2702c-.0414-.0914-.0874-.1808-.1384-.2676-.1696-.2888-.391-.5451-.6406-.7675-.2927-.2608-.6243-.478-.9761-.6502l-.0082-.0039c-.0003.003-.0005.006-.0008.0091-.0172.2306-.017.4622.0016.6926.0016.0197.0033.0395.0052.0593.4399.1808.852.434 1.1887.7716.248.2487.4517.5375.6158.8476l-.0035-.024c-.0121-.0848-.022-.17-.0295-.2552-.0101-.1146-.0142-.4118-.0142-.4118zm21.747.5263c.0533.0096.107.0177.1607.0243.3523.0436.7185.0235 1.0532-.1016.2812-.1051.5332-.2785.7506-.4837.0478-.0452.0942-.0921.1388-.1405.0477-.0515.0933-.1049.1372-.1597l.001-.0012c-.0685-.0174-.1379-.0316-.2077-.0437-.1478-.0255-.2972-.0395-.4472-.0411-.011-.0002-.022-.0002-.033-.0002-.1103.0009-.2206.0088-.3295.0251-.0588.0845-.1233.1648-.1937.2402-.2677.2865-.6112.4946-.975.6356-.015.0058-.0298.0115-.045.017-.0035.0099-.0069.0196-.0104.0295zm.1113-1.0068c.0953-.0964.1926-.1909.2945-.2815.1345-.1208.2742-.2372.4283-.3414l.0012.001c-.0782.1687-.1709.3252-.2687.4772-.0971.1527-.2023.2986-.3097.4423-.0356.0461-.0714.092-.1077.1376-.0087.0532-.0188.106-.0303.1587.2818-.1317.5432-.3123.7442-.5511.1934-.2295.3278-.5042.4165-.7897.0195-.0629.0368-.1265.0519-.1905.0163-.0684.0298-.1373.0413-.2066l.0002-.0016c-.0006.0001-.0011.0002-.0016.0005-.0677.0188-.1347.0398-.2009.0634-.0621.0221-.1234.0462-.1837.0726-.291.1265-.5644.3033-.7771.5407-.1363.152-.2451.326-.3305.5111l.0098-.0021c.0276-.0063.2223-.0406.2223-.0406zm-25.0929.2895c-.4469-.2862-.84946-.6523-1.13853-1.0999-.25051-.388-.41001-.8284-.4982-1.2805-.2495-.077-.50634-.1305-.76508-.1626l-.02627-.0032-.00907-.001c.00077.0029.00155.0059.00232.0088.05836.2159.13247.4274.22236.6322.07113.1621.15205.32.24357.4715.17343.287.38586.5522.64029.7716.2479.2139.53293.382.83361.5102.1405.06.4381.1549.4381.1549.019-.0009.038-.0015.0569-.002zm24.4775-.1313c.1076-.3051.2648-.5936.4812-.8349.0927-.1035.1952-.1972.305-.2814.0039-.1579-.0091-.3165-.0347-.472-.0107-.0651-.0237-.1296-.0388-.1937-.0162-.0683-.035-.136-.0558-.203l-.0005-.0016c-.0005.0003-.0008.0007-.0012.0011-.052.0472-.1026.0959-.1511.1466-.0456.0476-.0896.0966-.1318.1471-.2034.2434-.3688.524-.4526.8314-.0804.2947-.0837.6062-.0383.9071l.0112-.0047c.0207-.0085.0416-.0169.0625-.025.0148-.0057.0298-.0115.0449-.017zm-23.7421-.84c-.0143-.0633-.0301-.1263-.0475-.1888-.0802-.2884-.1956-.5677-.353-.8229-.1819-.2949-.4194-.5527-.6865-.7726-.1433-.1179-.2952-.2253-.45321-.3225-.19051-.1174-.38982-.2199-.59566-.3076l-.00836-.0035c-.00009.003-.00018.006-.00027.009-.00482.2236.00667.4474.03522.6693.02258.1755.05576.3498.10088.5209.0879.3334.22201.6564.41245.9446.17995.2723.40725.5113.66035.7168.1364.1106.4265.2937.4265.2937-.0291-.0951-.0552-.191-.0782-.2876-.0119-.05-.0231-.1002-.0332-.1505-.0393-.0608-.0784-.1216-.1173-.1826-.1425-.2291-.2826-.46-.4138-.6969-.1322-.2364-.2587-.4765-.36963-.7274l.00125-.0009c.19328.1948.37078.4001.54268.6093.167.2017.3258.4088.482.6178l-.1835-.0158.1965.0169c.1079.0101.2152.0273.3216.0477.0538.0102.1073.0215.1607.0336zm25.8217.0349c-.0074.0236-.0151.0472-.0231.0708l-.0051.0149c.0199.0015.0398.0026.0598.0036.3545.018.7183-.0286 1.0429-.1777.2728-.1252.5117-.3165.7135-.5369.0445-.0486.0872-.0987.1283-.1503.0437-.0548.0853-.1114.1252-.1692l.001-.0014c-.1446-.0254-.291-.0383-.4376-.0418-.0257-.0004-.0515-.0006-.0772-.0004-.1694.002-.3391.0191-.5044.0565-.0525.0884-.1109.1732-.1756.2535-.2268.2812-.5226.5006-.8433.6641zm-25.3945-.6186c-.0164-.1755-.0469-.3493-.0937-.5191-.0943-.3424-.2554-.6636-.457-.9551-.1007-.1456-.2115-.2841-.3302-.4154-.15-.166-.3125-.3202-.4856-.4621l-.0071-.0057c-.0009.003-.0018.0058-.0028.0087-.0673.2133-.119.4313-.1537.6522-.0043.0271-.0083.0541-.012.0812.3867.2769.7299.6177.9802 1.0235.2381.3859.389.8203.4717 1.2653.0275.0083.055.0169.0824.0259-.0021-.0342-.0039-.0684-.0053-.1025-.0059-.1445-.0053-.2891.0019-.4333.0027-.0547.0064-.1093.0112-.1636zm25.5275-.0613c-.0053.0779-.0151.1556-.0275.2326l-.0027.0168c.2142-.1386.4075-.3099.5575-.5168.1761-.243.2903-.5268.358-.8179.0149-.0642.0276-.1288.0381-.1938.0111-.0693.0196-.139.026-.209l.0001-.0016c-.0005.0003-.001.0004-.0015.0006-.0661.0238-.1314.0496-.1957.0778-.0602.0266-.1197.0551-.178.0857-.281.1474-.541.3436-.7359.5957-.1457.1883-.2517.404-.326.6297.0561-.0168.1126-.0321.1696-.0454l.0069-.0086c.115-.1378.2327-.2738.359-.4034.1251-.1302.256-.2566.4022-.3716l.0012.0008c-.0657.1741-.1467.3367-.2333.4956-.0671.1248-.1395.2457-.2142.365zm-.85.033c.0829-.343.225-.674.4413-.9539.0836-.108.1773-.2073.2787-.298l.0051-.0047c-.0076-.1578-.032-.315-.0689-.4683-.0154-.064-.0331-.1275-.0529-.1903-.021-.067-.0446-.1331-.0703-.1984l-.0005-.0015c-.0005.0004-.0009.0008-.0013.0011-.0483.051-.0951.1032-.14.1572-.0419.0507-.0823.1029-.1206.1564-.1852.2575-.3297.5493-.391.862-.0614.3127-.0376.6376.0366.946.0021.0091.0043.0182.0066.0273.0256-.0121.0513-.0237.0772-.0349zm-10.7755-3.3872c1.3827.5057 2.8617.7343 4.3507.6618-1.7488.5682-3.5387.6357-5.2176.2822l-.0139.346-.8655 1.1913-.8658-1.1913-.0137-.346c-1.6787.3535-3.4689.286-5.2177-.2822 1.489.0725 2.9681-.1561 4.3509-.6618-2.2647-1.1864-4.0859-3.2256-4.9391-5.8493-1.2642-3.8874-.0687-8.1545 3.0317-10.8206-3.369 4.9839-2.156 11.7147 2.6769 15.2226l-.336-8.3069v-6.5348c.5234-.251.9754-.6307 1.3128-1.1028.3373.4721.7895.8518 1.3127 1.1028v6.5348l-.3359 8.3069c4.8329-3.5079 6.0458-10.2387 2.677-15.2226 3.1003 2.6661 4.2956 6.9332 3.0315 10.8206-.853 2.6237-2.6743 4.6629-4.939 5.8493zm12.8028 2.3901c.0475-.0022.095-.0057.1422-.0102.3534-.0337.7064-.1326 1.0061-.3273.2517-.1635.4601-.3874.6279-.6349.037-.0544.072-.1103.1052-.1672.0353-.0607.0682-.1226.0993-.1856l.0007-.0015c-.0294-.0008-.0589-.001-.0884-.0008-.0592.0005-.1184.0023-.1776.0062-.2515.0166-.5043.0651-.7402.1562l-.0024.0063c-.0386.093-.0834.1835-.1348.2706-.1991.3376-.4894.6152-.814.8318l-.0123.0081c-.0038.0161-.0077.0322-.0117.0483zm-31.09523-3.1398c-.02684-.0157-.05383-.0313-.08099-.0465-.20823-.1169-.4259-.2165-.65006-.2986l-.00857-.0031c.00006.003.00014.0061.0002.0091.00659.2235.02949.4464.06931.6666.03152.174.07353.3464.12734.515.10194.3195.24692.6267.44337.8993.19143.2655.42953.4953.6922.6899.15683.1161.3224.2204.49434.313-.01994-.0201-.0397-.0404-.05928-.0608-.36328-.3797-.66548-.8253-.84086-1.3229-.15346-.4355-.2063-.9007-.187-1.361zm1.97559 2.0581c.02106-.4381-.0278-.8815-.1782-1.2946-.1146-.3147-.286-.6067-.49132-.8706-.24071-.3095-.52766-.5829-.84253-.816l-.00736-.0053c-.00078.003-.00157.0058-.00236.0087-.05668.2164-.09754.4368-.12134.6592-.01884.176-.02709.3531-.02297.53.00779.3353.06036.6709.17203.9877.11169.3169.28116.6113.48534.8774.10321.1345.21537.262.33446.3826.06843.0693.13915.1362.212.2008l-.00115-.0199c-.00146-.0271-.00411-.0927-.00411-.0927-.09792-.2449-.18643-.4934-.2728-.7427-.08544-.2561-.16801-.5132-.24058-.7742-.07357-.2605-.14078-.5235-.19037-.7933l.00137-.0006c.14278.2343.2677.4753.38624.7187.11967.243.22922.4899.33602.7378.02337.056.04663.1121.06969.1683l.13118.043c.08361.0282.16575.0608.24676.0957zm29.21334.3511c.0004.0781-.0036.1562-.0105.234l-.0007.0081c.2148-.1779.4017-.3909.5311-.6386.1391-.266.2108-.5635.2355-.8613.0054-.0657.0085-.1315.0095-.1973.001-.0702-.0008-.1404-.0046-.2104l-.0002-.0016c-.0005.0002-.001.0005-.0015.0007-.0618.0331-.1228.0681-.1822.1054-.0559.0351-.1104.0719-.1637.1106-.2565.1866-.4854.4184-.6415.6961-.1179.2097-.1919.441-.2325.6776.0481-.0177.0975-.0345.1464-.0495l.0215-.0367c.0939-.1531.1906-.3047.2967-.4513.105-.147.2162-.2909.3441-.4259l.0013.0006c-.0398.1817-.0963.3545-.1588.5241-.0572.1581-.1227.3117-.1907.4639zm-.796.0692c.0347-.3407.1267-.6773.295-.9765.0681-.121.1479-.2346.237-.3406-.0306-.1551-.0776-.3071-.1363-.4533-.0246-.0611-.0512-.1213-.08-.1806-.0304-.0632-.0635-.1251-.0983-.1861l-.0008-.0015c-.0004.0004-.0008.0009-.001.0014-.0406.0573-.0794.1159-.1158.1758-.0341.0564-.0665.1137-.0968.1722-.1458.2816-.2464.5913-.2616.9096-.0153.3164.0544.6324.1714.9251.0278-.0151.0558-.0297.084-.0439zm-28.06266-.2493c.05035-.1354.09364-.2734.12896-.4133.07551-.2995.1139-.6092.1001-.9181-.01501-.3367-.09254-.6684-.21221-.9827-.14239-.3741-.34285-.7258-.5827-1.0457l-.016-.0211-.00557-.0073c-.00159.0027-.00316.0053-.00475.0079-.11503.1918-.21599.3919-.30115.5987-.01041.0252-.02059.0507-.03052.0761.31186.3591.56637.7703.71559 1.2231.15402.4674.19487.9664.15738 1.4556-.00658-.0034.02742.0142.05087.0268zm30.01536-1.129c.0685-.0149.1364-.0324.2035-.052.3407-.1.6686-.264.9259-.5118.2162-.2082.3786-.4675.4965-.7422.0259-.0604.0497-.1219.0716-.1841.0232-.0661.0438-.1333.0623-.201l.0005-.0015c-.0006 0-.0011.0001-.0016.0002-.0693.0118-.1382.0256-.2064.0423-.064.0154-.1275.033-.1903.0529-.1951.0617-.3854.145-.5593.2538-.0203.1007-.0476.2003-.0823.2975-.1315.3693-.364.6967-.6417.9707-.0258.0255-.0519.0506-.0787.0752zm-.3434-.7297c.0145-.0417.0293-.0834.044-.125.0633-.1679.1294-.3351.2059-.4992.0753-.1642.1572-.3266.2572-.4834l.0015.0005c-.0048.1858-.0275.3662-.0569.5446-.0282.1787-.0667.3542-.1081.5289-.028.1099-.057.2197-.089.3285.0016.0201.003.0402.0041.0602.0004.0064.0008.0128.0012.0193.2401-.2506.4382-.5483.5385-.8827.0862-.2875.1003-.5931.0681-.8903-.007-.0654-.0165-.1306-.028-.1954-.0124-.0692-.0274-.1378-.0444-.2058l-.0003-.0017c-.0005.0004-.0009.0007-.0014.001-.0545.0444-.1077.0902-.159.1382-.0481.0448-.0948.0914-.1398.1394-.2165.2318-.3974.5028-.4982.8051-.0818.2457-.1091.5063-.0982.7645.0331-.0158.0664-.0311.1001-.0456l.0131-.0054zm-.4042.2141c-.0326-.3462-.0068-.7.1035-1.0306.0438-.1318.1008-.2584.1681-.3794-.0593-.1465-.1343-.2869-.2197-.4194-.0356-.0553-.0732-.1095-.1126-.1622-.042-.0563-.086-.1109-.1319-.1642l-.001-.0012c-.0002.0005-.0005.001-.0007.0015-.029.064-.056.1288-.0804.1946-.0229.0617-.0438.1242-.0624.1874-.0898.3042-.1301.6273-.0847.9428.0452.315.1745.6135.346.8799l.0013-.0009c.0246-.0164.0494-.0325.0745-.0483zm-25.0338-12.7222c-2.3484 4.061-.9581 9.2559 3.1041 11.6036-.0062-.0075-.0124-.0162-.0187-.0249-3.6913-4.9077-2.7032-11.8784 2.2072-15.5685-2.2322.5582-4.1409 1.998-5.2926 3.9898zm16.8784 11.5787c-.0062.0087-.0125.0176-.0187.0249 4.0622-2.3477 5.4525-7.5426 3.1041-11.6036-1.1517-1.9918-3.0604-3.4316-5.2926-3.9898 4.9104 3.6901 5.8984 10.6608 2.2072 15.5685zm-22.98853-.7488c.0626.0391.17353.1178.16873.1143.13153-.5162.17192-1.0637.05582-1.5867-.06867-.3094-.18998-.6054-.3454-.881-.19241-.3412-.43628-.6532-.71324-.9298l-.01883-.0186-.00653-.0063c-.00119.0028-.00239.0056-.00359.0083-.08652.2063-.15794.4188-.21277.6357-.04337.1715-.07644.3457-.09724.5215-.03942.333-.03454.6727.03149 1.002.06605.3294.19243.6447.35717.9369.08694.1541.18462.3022.29078.4438.05099.0681.10395.1345.15876.1995l.00305-.013c.00495-.021.01003-.042.01528-.0628l.00402-.0159c-.06362-.2594-.1169-.5211-.16785-.7832-.04872-.2655-.09431-.5316-.12953-.8002-.03623-.2684-.06571-.5381-.07683-.8121l.00138-.0004c.1083.252.19824.508.2813.7658.08432.2573.15815.5172.22897.7776.04055.1561.08027.3123.11741.4691zm-1.44155-2.4532c-.20387-.163-.42318-.307-.65204-.4317l-.0233-.0125-.00805-.0044c-.00037.0031-.00072.0061-.00108.0091-.02575.2297-.03416.4612-.02421.6922.00731.1694.02443.3382.05274.5054.05763.3401.16222.6735.326.9778.15063.2799.349.5322.57492.7551.13896.1372.28825.2637.4455.3794-.01694-.0227-.03367-.0456-.05018-.0685-.30628-.427-.5428-.9106-.64651-1.4279-.09074-.4527-.07757-.9211.00621-1.374zm34.18838 2.7058c.066-.0232.1311-.0489.1951-.0768.3254-.1417.6305-.3454.8547-.6234.1885-.2336.3172-.5111.3997-.7984.0181-.0632.0341-.1272.048-.1916.0147-.0687.0267-.1377.0367-.2073l.0003-.0016c-.0007.0001-.0012.0002-.0017.0005-.0672.0203-.1337.0427-.1994.0677-.0615.0233-.1223.0488-.1822.0763-.1858.0856-.3641.192-.523.3217-.0076.1025-.0222.2046-.0445.3055-.0843.3828-.274.7368-.5152 1.0433-.0224.0284-.0451.0565-.0685.0841zm-32.2904-.0041c.1077-.1787.20251-.3651.2815-.5583.11685-.2857.19839-.5871.22818-.8949.03246-.3353.00227-.6747-.072-1.0028-.08838-.3903-.2374-.7667-.42986-1.1172l-.01288-.0231-.00448-.0079c-.00192.0024-.00386.0046-.00578.007-.14086.1738-.26897.3576-.38238.5504-.01385.0236-.02749.0474-.04091.0712.25829.3993.45248.8422.53655 1.3115.0907.5064.05413 1.0295-.0637 1.5284-.01073.0453-.02215.0906-.03424.1357zm31.4801-.4308c-.0724-.3342-.0893-.6822-.0225-1.0184.0271-.1362.0677-.269.1194-.3974-.0772-.1379-.169-.2678-.2703-.3886-.0423-.0506-.0864-.0995-.132-.147-.0487-.0505-.0993-.0991-.1514-.1463l-.0013-.0011c-.0001.0005-.0003.0011-.0005.0016-.0207.067-.0393.1347-.0553.2032-.0151.064-.028.1286-.0386.1936-.0511.313-.0506.6387.0339.9459.0837.3044.2472.5824.4484.8239.0122-.0124.0245-.0247.037-.037.011-.0109.0221-.0217.0332-.0324zm.7219.0391c.1877-.2658.3309-.5669.3847-.889.0495-.2961.0252-.6009-.0438-.8918-.0153-.064-.0328-.1276-.0522-.1904-.0209-.0671-.0444-.1333-.0699-.1987l-.0006-.0015c-.0004.0004-.0007.0007-.0011.0011-.0486.0508-.0956.1029-.1405.1569-.0421.0505-.0826.1025-.1212.1559-.1859.257-.3313.5484-.3935.8609-.0473.2379-.0455.4829-.0095.7225.0361-.0273.0728-.0537.1103-.0792l.0095-.0064c.004-.0182.008-.0364.0121-.0547.0419-.1747.0865-.3486.1419-.521.0541-.1724.1151-.3438.1946-.5118l.0015.0002c.0187.185.0185.3669.0119.5475-.0057.1808-.0221.3599-.0412.5383-.0093.0736-.0189.1471-.0295.2204.0081.0284.0157.0568.023.0854.0046.0185.0091.0369.0135.0554zm.7982-1.7382c.0612-.0338.1213-.0699.18-.1079.2978-.1931.5653-.4439.7411-.7549.1478-.2612.2292-.5561.2637-.8529.0076-.0654.013-.1311.016-.1969.0034-.0701.0039-.1403.0024-.2104v-.0018c-.0005.0003-.001.0005-.0015.0008-.063.031-.1251.064-.1858.0994-.0568.0332-.1127.0681-.1671.1051-.1694.1149-.3279.2489-.4635.4029.0093.1024.0117.2055.0062.3087-.0206.3914-.1499.7716-.3377 1.1135-.0175.0317-.0355.0632-.0538.0944zm-1.4227-.2677c.0572.0704.1115.1436.1619.2191.0061-.0105.0123-.021.0185-.0313-.0629-.0598-.1233-.1225-.1804-.1878zm.9053-.6427c.0102-.1201.0231-.2402.0408-.3604.0253-.1789.0574-.3579.1085-.5367h.0015c.0487.1795.0783.3589.1011.5382.024.1794.0371.3586.0474.5378.0055.1372.0096.2743.0085.4114.0037.012.0073.024.0108.036l.0058-.0109c.1648-.3143.2747-.6642.2752-1.0213.0004-.3001-.0733-.5971-.1891-.8726-.0255-.0608-.0531-.1206-.0827-.1794-.0315-.0627-.0655-.1241-.1013-.1844l-.0009-.0015c-.0003.0005-.0006.001-.0009.0013-.0396.0581-.0774.1172-.113.1777-.0333.0568-.0647.1148-.0941.1737-.1413.284-.2371.5952-.2473.9138-.0056.1773.0152.354.0561.5263.0144-.0133.1736-.149.1736-.149zm-.4248.4121c-.0815-.2583-.1257-.5282-.1171-.7994.0045-.1389.0229-.2765.0529-.4116-.0989-.1235-.2107-.2367-.3304-.3393-.05-.0429-.1015-.0839-.1543-.1233-.0564-.0419-.1142-.0816-.1733-.1196l-.0013-.001c-.0002.0006-.0003.0011-.0003.0017-.0095.0696-.0169.1394-.0215.2095-.0042.0656-.0065.1315-.0062.1974.0007.3171.0546.6382.1881.9276.1062.23.2603.4348.4401.6129l.0061-.0083c.0135-.0178.0272-.0355.0411-.0532.0247-.0315.0502-.0626.0761-.0934zm-32.73674-.8465c.04408-.0522.08692-.1054.12846-.1597.28996-.3787.51903-.8106.62584-1.2776.07064-.3089.08806-.6284.06587-.944-.02747-.3909-.11396-.7771-.24551-1.1457l-.00905-.0249-.00317-.0085c-.00228.002-.00455.004-.00684.006-.16662.1492-.32228.3106-.46483.4829-.01741.0211-.03464.0423-.05168.0638.1917.4352.31321.9033.32175 1.3799.0092.5144-.10988 1.0251-.30534 1.4989-.01784.0432-.03635.0862-.0555.1289zm-1.44531-2.9686c-.1754-.1932-.36898-.3701-.57523-.5297l-.02102-.016-.00727-.0055c-.00084.0029-.00166.0059-.0025.0087-.05986.2156-.10394.4352-.13101.6573-.02141.1757-.03225.3526-.03074.5296.00287.3354.05053.6717.15754.9901.107.3186.2721.6154.47234.8844.10566.142.22122.2766.34437.4037.00654.0068.01839.0178.01839.0178-.01255-.0241-.02488-.0484-.03701-.0726-.23467-.47-.39155-.985-.41188-1.5121-.01779-.4613.06946-.9217.22402-1.3557zm1.17282 2.813c.08264-.1876.15196-.3809.20532-.5788.08039-.2981.12382-.6072.11512-.9162-.00948-.3368-.08172-.6698-.19623-.9861-.0606-.1673-.13304-.3304-.21507-.4884-.10653-.2053-.22927-.4017-.36613-.588l-.00544-.0074c-.00161.0026-.00324.0051-.00486.0078-.12212.1963-.22936.4016-.31976.6144-.06961.1638-.1293.332-.17683.5036-.08981.3242-.13613.6616-.11965.9983.01596.3259.08981.6473.20283.9529.06045.1635.13185.3228.21272.4773l.00653-.0158c.03056-.0729.06321-.1448.09864-.2155l.00594-.0116.02726-.0518c-.00572-.121-.01018-.242-.01417-.363-.00587-.2699-.00874-.5399-.00087-.8106.00674-.2708.02036-.5419.05284-.8142h.0015c.06695.2658.11504.5331.15626.8007.04235.2675.07408.5357.10268.8041.01582.1658.03073.3318.04272.4979.03823.0362.07561.0733.11241.1107.02572.0262.05114.0528.07624.0797zm34.23363-.6752c.0551-.0431.1085-.0883.1604-.1353.263-.2381.487-.5284.6108-.8635.1039-.2815.1373-.5855.1238-.8842-.003-.0657-.0083-.1314-.0158-.1969-.0078-.0698-.0186-.1391-.0313-.2081l-.0003-.0016c-.0005.0002-.001.0006-.0013.001-.0572.0407-.1132.0831-.1674.1277-.0509.0418-.1005.0853-.1483.1305-.1489.1405-.2838.2981-.393.4717.0256.0996.0444.201.0555.3038.0422.3896-.0245.7856-.1552 1.1531-.0121.0341-.0247.0681-.0379.1018zm-.9895-.3013c-.1325-.2533-.2272-.5264-.2639-.8104-.0178-.1377-.0218-.2765-.0138-.4147-.1171-.106-.2458-.1998-.3803-.282-.0562-.0343-.1137-.0667-.1722-.097-.0622-.0325-.1257-.0623-.1901-.0904l-.0015-.0006v.0016c.0019.0702.0058.1402.0124.2102.0062.0655.0147.1308.0253.1958.0516.3129.1562.6214.3343.8856.1495.2219.3475.4075.5674.5592.0223-.0456.0457-.0905.0701-.135.0041-.0074.0082-.0149.0123-.0223zm.6878-.2303c.0335.0562.0652.1135.0952.1717.0903-.308.128-.6344.0769-.9525-.0476-.2963-.168-.5776-.3262-.8311-.0349-.0559-.0717-.1106-.1105-.1639-.0411-.0568-.0844-.112-.1294-.1659l-.0011-.0013c-.0003.0005-.0005.001-.0008.0015-.0297.0636-.0577.128-.083.1934-.0238.0615-.0455.1237-.0651.1866-.0941.3028-.1388.6254-.0979.9415.0239.1864.0775.3675.1519.5399l.1375-.173c-.0103-.1305-.0178-.2615-.0197-.3933-.0038-.1807-.0008-.3625.0211-.5472l.0015-.0002c.0767.1693.1347.3416.186.5151.0523.1731.094.348.1329.5232.0106.0517.0208.1035.0307.1555zm.3237-1.6734c.0503-.0486.0988-.099.1455-.1511.2369-.2641.4297-.5762.518-.9222.0743-.2907.0759-.5967.0316-.8922-.0097-.0651-.0219-.1299-.0361-.1942-.0151-.0686-.0329-.1364-.0527-.2037l-.0005-.0016c-.0004.0003-.0009.0007-.0013.0011-.0526.0464-.1039.0944-.1531.1444-.0464.0468-.0911.0952-.134.1451-.1335.1552-.2514.326-.3421.51.0358.0964.065.1953.0867.2963.0825.3831.0571.784-.0348 1.163-.0085.0352-.0176.0702-.0272.1051zm-1.0612-.2687c-.1359-.2188-.2412-.4562-.3005-.7071-.0315-.133-.0498-.2682-.0565-.4042l-.0002-.0069c-.1276-.0933-.2652-.1733-.4075-.241-.0595-.0283-.1199-.0546-.1813-.0788-.0653-.0257-.1315-.0489-.1985-.0702l-.0016-.0005c0 .0005.0001.0012.0001.0017.0092.0696.0203.139.0341.2078.013.0645.0283.1286.0456.1921.0837.3059.2196.6018.4241.8462.1577.1883.3527.3421.5649.4651.0044-.0128.0087-.0256.0132-.0383.019-.0533.0392-.1061.061-.1584zm.1111-2.1187c-.023.0663-.0441.1333-.0625.2009-.0174.0636-.0325.1277-.0455.1922-.0622.311-.0732.6365.0003.9466.0362.1533.0927.3007.164.4408l.1083-.1784.049.0473c-.0219-.1205-.0413-.2415-.0558-.3639-.0223-.1794-.0382-.3605-.0357-.5465l.0015-.0003c.0938.1606.1694.3259.2384.493.07.1668.1296.3364.1863.5067.0469.1494.0922.2992.1302.4508.0027-.0119.0055-.0239.0082-.036.0767-.3465.0913-.7128-.0016-1.0576-.0779-.2899-.2267-.5571-.4106-.7929-.0405-.0519-.0827-.1025-.1266-.1515-.0469-.0523-.0957-.1027-.1461-.1517l-.0012-.0011zm-31.8247-1.4574s-.27068.1903-.41306.2695c-.07413.0412-.14938.0804-.22566.1176.08205.4603.09014.9353-.0099 1.3931-.10978.5027-.34357.9721-.64313 1.3879-.02735.0381-.05529.0756-.08377.1128.05494-.0407.10892-.0826.16184-.1258.36959-.3017.69217-.6689.90393-1.0988.14006-.2842.23076-.591.28206-.9032.06253-.3805.06841-.77.02769-1.1531zm-1.61564 3.0808.00354-.0046c.32963-.4337.58559-.9346.68043-1.4744.0563-.3205.05594-.6493.01449-.9714-.0489-.3802-.15355-.7528-.30051-1.1065l-.0103-.0243-.00363-.0084c-.00217.0021-.00433.0043-.0065.0064-.15881.1576-.30604.3265-.4396.506-.10567.142-.20285.2903-.28925.4448-.16375.2927-.28904.6084-.35396.9381-.0649.3295-.06865.6692-.0281 1.0021.02139.1757.05506.3498.09902.5213.00909.0354.01863.0708.02861.106.04202-.0677.08601-.1341.13256-.1988l.00772-.0105.00316-.0043c.03032-.1709.06388-.3412.09838-.5115.05659-.2639.11617-.5273.18638-.7889.06907-.2618.14477-.5224.23933-.7799l.0015.0003c.00375.2742-.01112.5452-.03285.815-.02049.2701-.05159.5384-.08569.8061-.0256.1838-.0522.3674-.08262.5504.04125.0524.08084.1062.11937.1607.00621.0087.01238.0175.01852.0263zm-.9402-.1065c-.0069-.0272-.01353-.0544-.01993-.0818-.12465-.5321-.15579-1.092-.03867-1.6284.09397-.4304.27842-.8363.51798-1.2054-.13026-.2362-.28344-.46-.45412-.6684l-.00582-.0071c-.00149.0027-.00296.0054-.00445.008-.10799.1959-.20163.3995-.27922.6093-.0614.1659-.11282.3358-.15221.5082-.07464.3271-.10593.6652-.07532.9998.0306.3345.12275.6615.25545.9695.07002.1625.15139.3201.24188.4722.00478.0081.00959.0161.01443.0241zm33.99674-1.3213c-.154-.1966-.2812-.4139-.367-.6488-.0468-.1283-.0808-.2606-.1034-.3948l-.0011-.0068c-.1376-.0778-.2836-.1411-.433-.1917-.0623-.0212-.1254-.04-.1891-.0569-.068-.018-.1364-.0332-.2054-.0465l-.0017-.0003c.0001.0006.0004.0011.0005.0016.0171.0682.0363.1356.0582.2024.0205.0626.043.1244.0677.1855.119.2939.2887.572.5204.7907.1764.1664.3849.2949.607.3919.0122-.0725.0271-.1444.0443-.2156zm1.0999.1607c.0442-.0542.0866-.11.1268-.1671.2043-.2902.359-.6226.4062-.9767.0396-.2974.0054-.6014-.0733-.8897-.0174-.0635-.037-.1264-.0586-.1886-.0231-.0663-.0487-.1316-.0763-.1962l-.0007-.0016c-.0003.0005-.0007.0009-.0011.0013-.0468.0523-.0921.106-.1351.1614-.0405.052-.0792.1052-.1161.1599-.1143.1697-.2113.3531-.2798.5464.0467.0916.0874.1864.1208.2841.1269.3709.1486.7719.1019 1.1591-.0043.036-.0092.0719-.0147.1077zm-.2781-.3474c.0149-.307-.022-.6184-.1365-.9046-.1116-.2786-.2907-.5266-.5008-.7393-.0463-.0468-.0943-.0919-.1436-.1355-.0527-.0465-.1071-.0908-.1629-.1335l-.0013-.0011c-.0001.0006-.0002.0011-.0003.0017-.0152.0686-.0283.1375-.0386.207-.0098.065-.0173.1305-.0225.1961-.0254.3162.0018.6407.1111.9401.049.134.1137.2614.1903.3813l.0015-.0038c.0164-.0422.0337-.084.0521-.1254l.006-.0129.0884-.1865-.0288.0608c-.0185-.0657-.036-.1318-.052-.1985-.0434-.1755-.0802-.3536-.0996-.5385l.0014-.0005c.1121.1484.2065.3038.2946.4617.089.1574.1682.3188.2444.4814.0101.0226.0203.0453.0304.0679.0513.052.1008.1057.1485.1609.0061.0069.0121.0141.0182.0212zm-1.2948-1.7384c-.1542-.1611-.2878-.3412-.3905-.5396-.0628-.1213-.1134-.2482-.1529-.3784l-.002-.0066c-.1464-.0596-.2993-.1038-.4539-.1349-.0645-.0131-.1296-.0238-.1949-.0323-.0696-.0093-.1395-.0156-.2096-.02l-.0018-.0001c.0003.0006.0005.0011.0007.0016.0257.0653.0534.1299.0835.1932.0284.0594.0586.118.091.1754.1555.2764.3592.5305.617.7179.1775.129.3773.2241.5859.2911l.0002-.0047c.0039-.0623.0097-.1244.0171-.1862.003-.0255.0064-.051.0102-.0764zm-30.90678-.1623c.16665-.1422.31952-.3003.45195-.4749.20368-.2684.3561-.5731.46507-.8915.12966-.3786.20036-.7772.22046-1.1766l.0012-.0263.0003-.0091c-.0029.001-.0057.002-.0086.003-.21114.074-.41671.1633-.61445.268-.02415.0128-.0482.0258-.07213.039.01026.4755-.05693.9542-.23167 1.3979-.17387.4413-.44733.8381-.77279 1.1816l.02228-.0143c.0683-.0443.13773-.0866.20821-.127.09964-.0574.33017-.1698.33017-.1698zm32.07418.2388c.0371-.0594.0718-.1202.1046-.1819.1657-.3139.2768-.6633.2784-1.0204.0015-.3001-.0713-.5973-.1861-.8733-.0254-.0608-.0527-.1206-.0821-.1795-.0313-.0629-.0651-.1244-.1007-.1849l-.0008-.0015c-.0004.0005-.0007.001-.001.0014-.0399.058-.0779.1169-.1136.1773-.0335.0567-.0651.1145-.0947.1734-.0917.1828-.1646.3771-.2078.5775.0582.0849.1105.1737.1561.2665.173.3518.2457.7467.2486 1.1366.0004.0363 0 .0725-.0009.1088zm-32.93851-.0631c.12087-.121.23435-.2493.33879-.3848.18849-.2447.34704-.5135.4574-.8024.12027-.3148.18123-.6499.19667-.986.01836-.3997-.02549-.8022-.11805-1.1912l-.00628-.0256-.00224-.0089c-.00248.0018-.00496.0035-.00744.0053-.18193.1301-.35423.2736-.51472.4294-.12698.1233-.2466.2543-.35656.393-.21426.2703-.3922.5711-.50889.8964-.11021.3072-.16517.6324-.17791.9579-.00386.0988-.00396.1977-.00048.2965.06242-.0633.12679-.1248.1934-.1837l.17676-.148.0057.0108.00498-.0133c.09793-.2515.19887-.502.30991-.7491.1098-.2473.22635-.4925.36076-.7317l.00137.0005c-.03997.2713-.09806.5365-.16239.7995-.06345.2634-.13703.5231-.21335.7821-.03309.1076-.06654.215-.10098.3222.00687.0165.01363.0329.02031.0496.0374.0926.07181.1866.10324.2815zm32.62371-.1653c-.0167-.3333-.0925-.6677-.2558-.9607-.1461-.2621-.3555-.4852-.591-.6693-.0519-.0406-.1053-.0793-.1597-.1161-.0582-.0395-.1178-.0765-.1785-.1118l-.0015-.0008c-.0002.0005-.0002.0012-.0002.0017-.0063.0699-.0104.1399-.0118.2101-.0014.0658-.0005.1318.0026.1975.0152.3168.0836.6352.2301.9182.0548.1059.12.2058.1932.2994l.0915-.2802.0188.0114c-.0203-.0488-.0401-.098-.0589-.1476-.0654-.1686-.1247-.3404-.1674-.5215l.0012-.0006c.1302.1328.2436.2749.3512.4203.1084.1449.2075.295.3038.4463.0398.0651.0793.1303.1179.1961.009.008.0178.0161.0267.0242.0297.0272.059.0549.0878.0834zm-32.70178-2.8112c-.08798-.2458-.199-.4833-.32834-.7096l-.01328-.023-.00462-.0077c-.00187.0024-.00376.0047-.00564.0071-.14248.1821-.27117.3748-.3839.5766-.08265.148-.15674.3008-.22035.4579-.12586.3108-.21073.6397-.23392.9748-.02318.3352.01559.6726.09744.9979.04321.1716.09837.3402.16341.5047.00342.0087.00688.0173.01037.026.00034.0038-.0044-.0519-.00661-.0837-.0381-.5452.02052-1.1029.22176-1.6139.16146-.4098.40828-.7809.70368-1.1071zm31.19038 1.1967c-.2259-.142-.4315-.3158-.5987-.5241-.0856-.1066-.1602-.2208-.2248-.3407 0 0-.1166-.0252-.1737-.0318-.0798-.0092-.16-.0139-.2404-.0162-.0301-.0005-.0602-.0006-.0904-.0005-.056.0009-.1118.0028-.1676.0067-.0701.0047-.1399.0122-.2095.0218l-.0016.0003c.0627.0986.1323.1932.2067.2832.2261.2735.506.5104.8352.6491.2125.0895.4399.138.6695.1557-.0027-.0507-.0049-.1865-.0047-.2035zm.5035-2.4263c-.0135.0387-.147.7171-.1482.7959.0739.0718.1428.1486.2059.2305.2392.3106.3886.6833.4686 1.0651.0075.0353.0143.0709.0206.1066.0246-.0655.0466-.132.0664-.199.1005-.3403.1402-.7048.0712-1.0552-.0579-.2945-.1881-.5714-.3552-.8192-.0368-.0546-.0755-.1079-.116-.1599-.0432-.0553-.0884-.109-.1352-.1613l-.0012-.0013c-.0002.0006-.0005.0011-.0007.0016-.0275.0646-.0531.1299-.0762.1962zm.1964 2.0498c-.0817-.3282-.2231-.646-.4441-.9044-.1951-.228-.4445-.4055-.7118-.5393-.0588-.0295-.1188-.057-.1795-.0823-.0648-.0271-.1305-.0517-.1971-.0742l-.0016-.0006c.0001.0006.0001.0011.0002.0017.0077.0698.0175.1393.03.2084.0116.0648.0255.1292.0416.1931.0776.3074.2075.606.4071.8545.1094.1361.2381.2552.3786.3583l.0386-.2253c-.0693-.0966-.1368-.1949-.2005-.2962-.0974-.1522-.1896-.3089-.2673-.4779l.0011-.001c.1538.1047.2932.2214.4274.3428.1349.1204.2617.2479.3861.3774.0565.0609.1127.122.1677.1842.0419.0259.083.0528.1235.0808zm-30.61989-1.2218c.02873.1266.07875.3776.07875.3776.39679-.2649.75314-.5997 1.00514-1.0071.1666-.2695.2863-.5664.3673-.8722.1002-.3786.1432-.7722.1378-1.16347l-.0006-.02647-.0002-.00912c-.0028.00125-.0056.00238-.0084.0035-.2059.08754-.4054.18986-.596.30696-.1508.0926-.29603.1945-.43357.3059-.26062.2112-.4941.4578-.67665.7399-.18256.2821-.31201.5961-.39785.9203-.01707.0645-.03246.1295-.0462.1948l.00092-.0007c.07264-.0533.14695-.1044.22312-.1526l.19812-.1178.02874.0847c.14238-.2114.2873-.4212.44046-.626.16114-.2175.32827-.4314.51151-.6355l.0013.0008c-.0982.2561-.21264.5022-.33281.7449-.11929.2432-.24771.4808-.37861.7168-.04063.0713-.08141.1423-.12261.2133zm1.11599.2133c.0028.0655.004.0935.004.0935.1314-.0844.2563-.1787.3729-.2836.2481-.2234.4547-.4904.623-.7781.1937-.3311.3395-.6902.4392-1.0602l.0023-.0088c-.003.0004-.006.0007-.009.001-.2296.0271-.4571.0716-.6798.1338-.0191.0053-.0382.0108-.0573.0165-.0936.4661-.2635.9189-.5307 1.3138-.1826.2697-.4065.5087-.65597.7177.09467-.0349.19057-.0666.28787-.0934zm27.7042-.266c-.1903-.1184-.3655-.2604-.5149-.4281-.0923-.1037-.1737-.2159-.2451-.3343-.0949-.013-.1907-.02-.2865-.0221-.0212-.0003-.0426-.0004-.0638-.0004-.1773.0016-.3538.0199-.5279.053l-.0016.0003c.0677.0952.1419.1861.2208.2723.2397.2616.5315.4839.8673.6056.198.0718.4067.1088.6169.1193l-.0007-.0025c-.0228-.0778-.0645-.2631-.0645-.2631zm-28.2459-2.4413c-.00574-.04591-.01224-.09162-.01945-.13732-.0349-.22091-.08674-.43895-.15417-.65224l-.0028-.00862c-.00236.00188-.00473.00375-.00709.00575-.30282.24838-.5757.53597-.8006.85693-.19731.2817-.35724.5913-.45535.9216-.09567.322-.13141.6597-.1224.995.00476.1769.02185.3535.04948.5282.00146.0093.00294.0185.00448.0277l.00035-.0026c.00357-.0269.00739-.0538.01145-.0806.07851-.5195.2465-1.0309.5332-1.4738.25087-.3877.5868-.7138.9629-.98zm29.5047 1.7186c.0307-.2514.0235-.5074-.0381-.7535-.073-.2911-.2169-.561-.3965-.8-.0395-.0527-.0809-.1039-.1239-.1537-.046-.0532-.0939-.10439-.1433-.15434l-.0012-.00113c-.0003.0005-.0004.001-.0007.00162-.0242.06581-.0464.13235-.066.19985-.0185.0631-.0349.127-.0489.1914-.0437.1999-.0662.4062-.0584.6111l.0047.0043c.0756.0667.1467.1384.2124.2153.2547.2979.4229.6627.5224 1.0398.0075.0285.0146.0571.0213.0858l.0089.0063c.004-.0129.0131-.0495.0131-.0495.0196-.15.0518-.2984.0942-.4433zm-2.0826-1.143c.0113.0693.0245.1381.0405.2065.015.0641.0321.1278.0515.1907.0931.3032.2382.5947.4501.8327.0694.0778.1452.1492.226.2144l-.0002-.0048c-.0017-.0283-.004-.3055-.004-.3055l.0506.0114c-.0218-.0295-.0434-.0592-.0645-.0893-.1049-.1472-.2049-.299-.2912-.4638l.0011-.001c.1589.0966.3042.2062.4442.3204.1409.1137.274.2344.4049.3574l.0292.0285c.0421.0165.0838.0338.1252.052.0373.0164.0744.0335.1113.0515-.0993-.2806-.2457-.5461-.451-.7627-.2064-.2179-.4644-.3824-.7382-.5025-.0603-.0265-.1215-.0509-.1835-.0731-.0661-.0238-.133-.0449-.2006-.064l-.0016-.0005zm-1.3904-.3337c-.068.0013-.1358.0041-.2035.0099-.0879.0074-.1754.019-.2623.034l-.0016.0003c.066.0964.1387.1885.2162.276.2353.2658.5233.4928.857.6204.213.0813.4395.1221.6672.1325-.0327-.0803-.0618-.1621-.0874-.2448l-.0032-.0102c-.1971-.1245-.3777-.2744-.5301-.4513-.0892-.1037-.1676-.2153-.2361-.3329l-.0032-.0057c-.0454-.0068-.2806-.0447-.413-.0282zm-9.6531.5628c-.7246.5095-1.7263.336-2.236-.3896-.5096.7256-1.5114.8991-2.2359.3896-.6084-.427-.8432-1.21626-.5672-1.90683.1548.82294.9481 1.36493 1.7713 1.20883.4335-.0812.8107-.34842 1.0318-.73055.221.38213.5984.64935 1.0317.73055.8232.1561 1.6165-.38589 1.7714-1.20883.2761.69057.0411 1.47983-.5671 1.90683zm12.0982-.96763c-.0078-.08291-.0208-.16533-.0396-.24675-.068-.29234-.2074-.56457-.3828-.80671-.0387-.05332-.0792-.10527-.1214-.15572-.045-.05395-.092-.10602-.1406-.15672l-.0012-.00125c-.0002.00062-.0005.00112-.0006.00162-.0253.06556-.0488.13162-.0696.19868-.0194.06294-.0369.1265-.0521.19056-.047.19918-.073.40511-.0688.61003.0761.06918.1475.14348.2134.22316.2194.26603.3712.58233.4679.91243.0124.0075.0247.0152.037.023.0112-.1933.0438-.3856.0927-.5724.0186-.0711.0657-.21993.0657-.21993zm-2.0771-.67109c.01.06956.0221.13862.037.2073.0138.06431.0298.12825.0481.19144.088.3047.2279.59878.4359.84028.0581.0676.1212.1305.1881.1891-.0091-.0626-.0162-.1253-.021-.1882l-.0118-.2202.0251.0043c-.0913-.135-.1778-.27425-.2528-.42398l.0011-.001c.1573.09928.3004.21128.4386.32788.0682.057.1344.1154.1993.1751.0068.0019.0135.0038.0203.0056.094.0264.1868.057.278.0917.0307.0116.0613.0239.0918.0365-.09-.2109-.2098-.4089-.3651-.57846-.2027-.22128-.4578-.39012-.7295-.51487-.06-.02747-.1208-.05282-.1824-.07618-.0655-.02485-.1321-.0472-.1993-.06743l-.0017-.0005zm-24.2264 1.17582.0076-.0002c.1548-.0605.305-.1328.4477-.2181.2976-.17778.5588-.41155.7824-.67542.1151-.13586.2206-.27972.3169-.42945.125-.19444.2345-.39873.328-.61003l.0037-.00836c-.0514-.00225-.1027-.00313-.1541-.0035-.0333 0-.0332 0-.0665.00025-.0817.00125-.1633.00412-.2448.00949-.0986.00637-.197.01611-.295.0291-.1637.44656-.4008.86802-.7253 1.21743-.3018.32509-.6705.58209-1.0672.77859l.017-.0035c.0973-.0202.1952-.0374.2936-.0514.1138-.0164.2282-.0286.343-.0344zm-.8539-.1661c.1115-.0534.2205-.1118.3265-.1755.2565-.15426.4952-.33995.6991-.55961.2358-.25388.4211-.55146.5618-.8674.0724-.16271.1333-.33042.1838-.50113.0656-.22166.1134-.44831.144-.67746l.0012-.00899c-.003.00075-.0059.0015-.0089.00224-.2168.05495-.4295.12563-.6358.2123-.1632.06855-.3223.14698-.4753.23601-.2898.16884-.5583.37701-.7818.62789-.2178.24451-.3904.52673-.5234.82531-.0449.10078-.0854.20343-.1217.30758.0277-.01324.0555-.02623.0835-.03897.1047-.04745.2111-.09141.3197-.12899l.0123-.00413.08-.02609c.1776-.19257.3577-.38313.5454-.5672.1926-.19031.3905-.37625.6027-.54983l.0011.00087c-.1361.23814-.2868.46392-.4427.68533-.155.22215-.3181.43732-.4838.65061-.0276.03471-.0552.06943-.083.10415.0023.05394.0032.10789.0034.16184.0004.09717-.0024.19427-.0081.29117zm24.9163-.36447c-.2808-.15335-.5378-.35203-.74-.60042-.0876-.10776-.164-.22365-.2301-.34528-.0566-.01037-.1136-.01861-.1708-.02473-.0799-.00874-.16-.01298-.2404-.01473-.0304-.00025-.0302-.00025-.0607-.00025-.057.00062-.114.0025-.1708.00624-.0789.00512-.1575.01374-.2358.0251l-.0016.00025c.0633.09816.1334.19231.2084.28185.2279.27211.5094.50713.8395.64387.1948.08067.4022.12687.612.1466.0118-.00012.0234-.00025.0351-.00012.0676.0005.1352.003.2026.00799-.0168-.04171-.0326-.08379-.0474-.12637zm-24.0332-2.37642c.0076-.26087-.0093-.52261-.0473-.78036l-.004-.0261-.0014-.00899c-.0027.0015-.0053.003-.0079.00462-.1926.11376-.3767.24151-.5502.38275-.1373.11176-.2679.23177-.3895.36039-.2371.25051-.4406.53473-.5853.84855-.1366.29633-.2198.61552-.2609.9387-.0236.18507-.0338.37189-.0319.55845l.001-.00337c.0076-.02597.0155-.05195.0236-.07792.1633-.52149.4211-1.01963.7948-1.42211.2998-.32281.665-.57843 1.059-.77461zm24.4399 1.48042c-.0774-.16808-.1755-.32631-.297-.46679-.1965-.22678-.447-.40248-.7151-.53473-.059-.02909-.1191-.05619-.1801-.08117-.0649-.02672-.1309-.05082-.1975-.07293l-.0016-.00049c0 .00049.0001.00112.0001.00162.0082.06981.0184.13924.0313.20817.0121.06481.0264.12912.0429.19281.0795.30707.2114.60478.4126.85204.1097.13474.2382.25238.3786.35415-.0219-.11339-.0378-.22815-.0462-.34329-.04-.05732-.079-.11626-.117-.17545-.0983-.15173-.1915-.30782-.2702-.47628l.0011-.001c.1544.10365.2946.21953.4295.34004.0322.02835.0639.05719.0953.08629 0 0-.0136-.0025.0539.01011.0766.01536.1523.03497.2273.05732.051.01524.1019.03185.1521.04958zm.5957.28372c.0781-.31244.1026-.64124.0381-.95806-.0597-.29396-.1916-.57006-.3604-.81682-.0371-.05432-.0762-.1074-.117-.15909-.0435-.05508-.0891-.10852-.1363-.16047l-.0011-.00125c-.0003.0005-.0005.001-.0008.0015-.0271.06481-.0523.13024-.0749.1968-.0212.06232-.0404.12526-.0572.18894-.0526.19781-.0842.40298-.0856.60803 0 0 .1448.14923.207.2289.1773.22703.3062.4879.3949.76163.0658.03409.1304.07068.1933.10989zm-2.1679-.79572c-.2589-.12625-.4991-.29134-.6982-.50013-.0943-.0989-.1783-.20655-.2527-.32044l-.0038-.00574-.003-.00025c-.0673-.00687-.1348-.01049-.2025-.01174-.0163-.00025-.0327-.00025-.0492-.00025-.2093.00137-.4177.02672-.6219.0728l-.0017.00038c.0709.09291.1482.18132.23.26474.2486.25338.5476.46542.8874.57593.0577.01874.1162.03459.1753.04758.0762-.00649.1526-.01036.2289-.01211.0335-.00038.067-.00038.1005 0 .0849.00175.1697.00624.2542.01486-.0142-.03796-.0274-.0763-.0399-.11476zm.4179-.89137c-.0898-.15897-.1986-.3067-.3289-.4352-.2138-.21079-.4772-.36639-.7549-.47716-.0612-.02435-.1232-.04658-.1859-.06681-.0669-.02147-.1345-.04033-.2027-.05719l-.0016-.00037c.0001.0005.0002.00112.0004.00162.0134.06893.0291.13724.0474.20505.0171.06356.0364.12662.0579.18881.1034.29983.2583.5863.4783.81708.1105.11588.2358.21603.3707.30195l-.0015-.00812c-.0175-.1004-.0302-.20168-.0373-.30333l-.0004-.00711c-.0442-.05383-.0876-.1084-.1298-.16422-.1099-.14361-.2149-.29196-.3067-.4538l.001-.001c.1622.09116.3109.19581.4548.30532l.0077.00575.168.03634c.0762.01748.1512.03921.2254.06356.0465.01524.0925.03147.1381.04883zm.6078.30982c.0652-.33792.0705-.69232-.025-1.02487-.0827-.28847-.2358-.55333-.4233-.7861-.0414-.05133-.0845-.10115-.1292-.14948-.0477-.05158-.0973-.10115-.1485-.14936l-.0011-.00112c-.0003.00063-.0004.00112-.0006.00162-.022.06669-.042.134-.0594.20206-.0162.06368-.0303.12812-.0422.19281-.0369.2013-.0523.40835-.0376.6129.0794.06518.1546.13574.2243.21204.2088.22815.3652.49951.477.78735.0563.03209.1116.06618.1656.10215zm-22.5289-.62127c-.0059.10827-.019.21617-.0352.32331-.0064.04221-.0133.08429-.0209.12625.1206-.09503.2308-.2028.3259-.32418.1856-.23689.3106-.51699.3894-.80621.0173-.06369.0324-.12812.0454-.19281.0138-.06906.0248-.13861.0339-.20842l.0003-.00225c-.0008.00025-.0016.00038-.0023.00063-.0671.02135-.1335.04483-.199.07068-.0614.02435-.122.05082-.1816.0793-.2871.13711-.5549.32405-.7598.56944-.0783.0939-.1465.1953-.2056.30183l.0095-.00275c.1257-.03722.253-.06918.3817-.09404l.0589-.01011c.1265-.12151.2583-.23877.404-.34504l.0011.00088c-.0702.16633-.1543.32181-.2438.47291z" fill="#1b5fc1" fill-rule="evenodd"/></svg>