<svg xmlns="http://www.w3.org/2000/svg" id="Component_147_1" width="24" height="24" viewBox="0 0 24 24">
    <defs>
        <clipPath id="clip-path">
            <path d="M0 0H20V20H0z" class="cls-1"/>
        </clipPath>
        <style>
            .cls-1{fill:none}
        </style>
    </defs>
    <path id="Rectangle_1289" d="M0 0H24V24H0z" class="cls-1"/>
    <g id="Bank_Sepah_Color" clip-path="url(#clip-path)" transform="translate(2 2)">
        <path id="Boundary" d="M0 0H20V20H0z" class="cls-1"/>
        <path id="Shape" fill="#1b5fc1" fill-rule="evenodd" d="M8.832-29.451a6.645 6.645 0 0 0-2.735.627q-.059.683-1.047.824a3.911 3.911 0 0 1-1.511-.339c-.316-.1-.576-.628-.9-1.283s-.69-1.43-1.019-2.022a.443.443 0 0 1-.009-.418.744.744 0 0 1 .892-.451.349.349 0 0 1 .225.178l.126.243a6.427 6.427 0 0 0 1.235.289l.053-.044-.033-.021A8.728 8.728 0 0 1 0-39.092 8.82 8.82 0 0 1 8.7-48h.31a8.82 8.82 0 0 1 8.7 8.907 8.728 8.728 0 0 1-4.11 7.226l-.033.021.053.044a6.427 6.427 0 0 0 1.235-.289l.126-.243a.349.349 0 0 1 .225-.178.744.744 0 0 1 .892.451.443.443 0 0 1-.009.418c-.329.592-.7 1.368-1.019 2.022s-.58 1.187-.9 1.283a3.911 3.911 0 0 1-1.512.338q-.988-.14-1.047-.824a6.639 6.639 0 0 0-2.757-.627zm-5.846-2.294s.235.647.361.967c.163.414.618 1.517.618 1.517.107.261.323.458-.235.752.007.02.014.039.021.065a3 3 0 0 0 .972.212c.038-.02.078-.034.11-.048L3.3-31.432c-.157-.332-.2-.35-.314-.313zm11.737 0s-.235.647-.361.967c-.163.414-.618 1.517-.618 1.517-.107.261-.323.458.235.752-.007.02-.014.039-.021.065a3 3 0 0 1-.972.212c-.039-.02-.078-.034-.11-.048l1.524-3.152c.165-.332.208-.35.323-.313zm-2.077-.355a7.608 7.608 0 0 0-3.792-.774h-.046a6.259 6.259 0 0 0-4.987 1.769 14.65 14.65 0 0 0 1.193 2.359.3.3 0 0 0 .205.114 5.536 5.536 0 0 1 3.635-1.1h.032a5.519 5.519 0 0 1 3.6 1.1.3.3 0 0 0 .205-.114 14.65 14.65 0 0 0 1.193-2.359 4.261 4.261 0 0 0-1.214-.978.361.361 0 0 1-.046.05 1.487 1.487 0 0 1-.2.161 1.218 1.218 0 0 1-.229.119l-.194.08-.2.06c-.066.021-.133.038-.2.052h-.014l-.007.011-.033.049-.032.048-.093.152-.049.09a1.653 1.653 0 0 0-.1.194c-.028.067-.053.134-.077.2a.451.451 0 0 0-.036.2.117.117 0 0 0 .083.1.072.072 0 0 0 .05 0 .136.136 0 0 0 .043-.025.246.246 0 0 0 .036-.038q.017-.022.028-.04t.032-.024 0 .033a1.494 1.494 0 0 1-.069.133.887.887 0 0 1-.1.137.45.45 0 0 1-.113.1.133.133 0 0 1-.116.013.143.143 0 0 1-.085-.07.241.241 0 0 1-.024-.105.426.426 0 0 1 .016-.116q.016-.058.031-.1c.017-.044.037-.09.059-.137l.064-.142a.091.091 0 0 0 .014-.04c0-.007-.015 0-.042.018a1.964 1.964 0 0 1-.216.139 1.1 1.1 0 0 1-.227.092 1.274 1.274 0 0 1-.364.051 1.829 1.829 0 0 1-.375-.041 2.568 2.568 0 0 1-.3-.081 2.743 2.743 0 0 1-.306-.124.853.853 0 0 1-.121-.069.3.3 0 0 1-.083-.085.282.282 0 0 1-.04-.115.425.425 0 0 1 .013-.156.8.8 0 0 1 .042-.117.975.975 0 0 1 .058-.113c.019-.032.035-.045.046-.041s.011.025 0 .063a.254.254 0 0 0-.008.1.169.169 0 0 0 .038.084.552.552 0 0 0 .189.146q.111.052.223.1a2.654 2.654 0 0 0 .9.173 1.194 1.194 0 0 0 .2-.009.778.778 0 0 0 .188-.05.651.651 0 0 0 .234-.152.682.682 0 0 0 .13-.165.245.245 0 0 1 .037-.053l.04-.042.093-.095.071-.068s0-.016.027-.039l.087-.077a.359.359 0 0 1 .1-.063l.119-.047c.043-.017.259-.093.323-.119q.193-.078.382-.172l.048-.022zm-8.995 3.423a.258.258 0 0 0 .183-.227c-.164-.049-.374-.059-.454.2a.3.3 0 0 0 .271.027zm10.406 0a.258.258 0 0 1-.183-.227c.164-.049.374-.059.454.2a.3.3 0 0 1-.271.027zM2.452-32.311a.427.427 0 0 0-.588.48L3.286-28.9a.509.509 0 0 1 .42-.2zm12.8 0a.427.427 0 0 1 .588.48L14.422-28.9a.509.509 0 0 0-.42-.2zm-3.892 2.646a.436.436 0 0 1 .105-.118q.093-.084.111-.078a.166.166 0 0 1 .091.094.167.167 0 0 1 .014.127.255.255 0 0 1-.094.105q-.077.056-.106.046a.375.375 0 0 1-.072-.086l-.041-.055a.039.039 0 0 1-.004-.035zm-5.435.037a.705.705 0 0 1 .045-.13q.047-.119.061-.121a.153.153 0 0 1 .1.034.143.143 0 0 1 .069.087.257.257 0 0 1-.033.139q-.041.085-.065.089a.069.069 0 0 1-.038-.014l-.053-.033-.053-.023q-.026-.013-.029-.029zm-.216-.264a.584.584 0 0 1 .049-.146q.052-.128.065-.13a.183.183 0 0 1 .1.028.28.28 0 0 1 .09.067l.051-.113c.025-.053.041-.081.047-.082a.177.177 0 0 1 .111.035.155.155 0 0 1 .077.1.248.248 0 0 1-.041.148q-.049.084-.074.088a.116.116 0 0 1-.064-.026.7.7 0 0 0-.105-.06q-.065.18-.118.188a.437.437 0 0 1-.1-.042.37.37 0 0 1-.085-.056zm6.446-1.426l.006-.005a.057.057 0 0 1 .019-.013s.007 0 .006.007a.127.127 0 0 1-.019.038q-.108.182-.2.375a1.389 1.389 0 0 0-.134.308.452.452 0 0 0-.036.2.117.117 0 0 0 .083.1.072.072 0 0 0 .05 0 .136.136 0 0 0 .043-.025.247.247 0 0 0 .036-.038q.017-.022.028-.04t.032-.023 0 .033a1.5 1.5 0 0 1-.069.133.892.892 0 0 1-.1.137.453.453 0 0 1-.113.1.133.133 0 0 1-.116.013.143.143 0 0 1-.085-.07.241.241 0 0 1-.024-.105.429.429 0 0 1 .016-.116c.011-.039.021-.072.031-.1a2.586 2.586 0 0 1 .12-.267c.123-.243-.06.107.181-.351a.664.664 0 0 1 .076-.113l.063-.071q.037-.041.083-.084l.006-.005zm-5.131.2q.2-.027.386-.068a2.135 2.135 0 0 0 .369-.118 2.337 2.337 0 0 0 .31-.16q.149-.092.286-.195a4.155 4.155 0 0 0 .359-.3q.167-.159.342-.321l.1-.093a1.018 1.018 0 0 1 .124-.087q.056-.035.08-.021t0 .07l-.031.089a.562.562 0 0 1-.039.085.129.129 0 0 1-.025.034.2.2 0 0 1-.035.026.511.511 0 0 0-.087.069l-.144.135-.2.2q-.1.1-.206.2-.105.1-.214.19a2.831 2.831 0 0 1-.225.173 2.573 2.573 0 0 1-1.09.438l-.264.036a1.048 1.048 0 0 1-.187.009q-.085-.006-.168-.019a.887.887 0 0 1-.165-.044l-.048-.019a.094.094 0 0 0-.032-.007.039.039 0 0 0-.027.011.28.28 0 0 0-.032.039q-.018.024-.037.056l-.045.076a.331.331 0 0 1-.126.117.272.272 0 0 1-.169.026c-.034-.006-.066-.012-.094-.019a.2.2 0 0 0-.1 0 .505.505 0 0 0-.093.034.332.332 0 0 0-.086.061q-.063.058-.082.053t.021-.081a1.273 1.273 0 0 1 .108-.172.936.936 0 0 1 .14-.151.748.748 0 0 1 .087-.065.212.212 0 0 1 .1-.034.29.29 0 0 1 .09.01.568.568 0 0 0 .091.017.162.162 0 0 0 .09-.012.2.2 0 0 0 .069-.054.59.59 0 0 0 .062-.077l.054-.08a.241.241 0 0 1 .074-.073.165.165 0 0 1 .107 0 2.157 2.157 0 0 0 .3.034 1.659 1.659 0 0 0 .305-.018zm4.587-.214a.445.445 0 0 1 .1-.115q.093-.084.111-.078a.166.166 0 0 1 .091.094.167.167 0 0 1 .014.127.249.249 0 0 1-.094.1q-.076.055-.105.045a.373.373 0 0 1-.072-.086q-.021-.025-.041-.053a.044.044 0 0 1-.001-.033zM8.9-47.523h.123a8.4 8.4 0 0 1 5.877 2.544 8.241 8.241 0 0 1 2.357 5.911 8.186 8.186 0 0 1-1.149 4.042 8.1 8.1 0 0 1-2.788 2.861l-.082.05.094.078.075-.047A8.446 8.446 0 0 0 17.42-39.1a8.534 8.534 0 0 0-8.415-8.618H8.7A8.534 8.534 0 0 0 .288-39.1 8.446 8.446 0 0 0 4.3-32.083l.075.047.094-.078-.082-.05A8.1 8.1 0 0 1 1.6-35.025a8.186 8.186 0 0 1-1.149-4.043 8.241 8.241 0 0 1 2.357-5.911 8.4 8.4 0 0 1 5.882-2.542h.164zm5.075 2.405l.019-.038v-.005l.042-.075.064.057c.024.022.047.045.069.069s.054.061.078.094a1.106 1.106 0 0 1 .208.439v-.011l.039-.076.066.055c.025.021.048.044.071.067s.055.06.081.092a1.144 1.144 0 0 1 .2.366l.067.054c.025.021.049.043.072.066s.056.059.082.09a1.08 1.08 0 0 1 .238.476v.015l.017-.031.064.057c.024.022.047.045.068.07s.053.062.078.094a1.081 1.081 0 0 1 .214.487 1.019 1.019 0 0 1-.011.336 1.2 1.2 0 0 1 .094-.133l.056-.065.051.069c.019.026.037.054.053.082s.04.071.057.108a1.081 1.081 0 0 1 .113.52.927.927 0 0 1-.017.132l.068-.061.042.075c.016.029.029.058.042.088s.031.075.043.114a1.08 1.08 0 0 1 .046.53.927.927 0 0 1-.039.144l.03-.023.07-.05.033.079c.012.03.023.061.032.092s.021.078.029.118a1.08 1.08 0 0 1-.017.532.977.977 0 0 1-.1.213l.052-.033h.005l.075-.042.025.082c.009.031.016.063.022.1s.013.08.017.121a1.081 1.081 0 0 1-.072.527 1.014 1.014 0 0 1-.179.275 1.2 1.2 0 0 1 .159-.077h.006l.081-.03.011.085c0 .032.006.065.007.1v.122a1.08 1.08 0 0 1-.155.509 1.02 1.02 0 0 1-.229.25 1.19 1.19 0 0 1 .15-.042h.006l.084-.016v.086c0 .033 0 .065-.009.1s-.013.08-.022.12a1.08 1.08 0 0 1-.236.477 1.093 1.093 0 0 1-.4.273c-.036.015-.073.028-.111.04v.041a1.234 1.234 0 0 1 .226-.085 1.251 1.251 0 0 1 .223-.04h.006l.086-.005-.014.085-.021.1c-.008.036-.023.078-.037.116a1.08 1.08 0 0 1-.294.444 1.092 1.092 0 0 1-.432.221 1.306 1.306 0 0 1-.148.032l-.014.07a1.228 1.228 0 0 1 .238-.041h.116c.037 0 .074 0 .111.006h.006l.085.011-.032.086a1.241 1.241 0 0 1-.1.2 1.083 1.083 0 0 1-.351.36 1.084 1.084 0 0 1-.481.145h-.086l-.008.021a1.2 1.2 0 0 1 .147-.041h.084a1.355 1.355 0 0 1 .141.015c.037.006.073.013.109.022h.006l.083.023-.044.081a1.247 1.247 0 0 1-.13.185 1.083 1.083 0 0 1-.4.305 1.027 1.027 0 0 1-.38.076 1.333 1.333 0 0 1 .15.021 1.212 1.212 0 0 1 .149.039h.006l.081.029-.05.077a1.246 1.246 0 0 1-.145.18 1.084 1.084 0 0 1-.42.275.947.947 0 0 1-.214.045s.067.017.1.029h.006l.081.029-.05.077a1.249 1.249 0 0 1-.144.175 1.084 1.084 0 0 1-.42.275 1.085 1.085 0 0 1-.5.037c-.035-.005-.07-.011-.1-.019l-.018.038h.071a1.315 1.315 0 0 1 .242.025 1.193 1.193 0 0 1 .149.039h.006l.081.029-.05.077a1.249 1.249 0 0 1-.144.175 1.084 1.084 0 0 1-.42.275.966.966 0 0 1-.245.048c.123.059.25.123.381.189l.148-.089a8.287 8.287 0 0 0 2.794-2.829 8.051 8.051 0 0 0 1.129-3.976 8.106 8.106 0 0 0-2.323-5.809 8.27 8.27 0 0 0-5.788-2.5h-.32a8.27 8.27 0 0 0-5.788 2.5A8.106 8.106 0 0 0 .586-39.07a8.051 8.051 0 0 0 1.129 3.976 8.287 8.287 0 0 0 2.795 2.829l.148.089q.159-.081.31-.155a1.335 1.335 0 0 1-.2-.058 1.616 1.616 0 0 1-.595-.414q-.055-.059-.105-.122c-.034-.043-.066-.087-.1-.133l-.034-.056a1.361 1.361 0 0 1-.225-.092 1.555 1.555 0 0 1-.5-.425q-.034-.043-.065-.087-.052-.074-.1-.152c-.024-.042-.046-.084-.066-.128v-.005l-.033-.075.055-.009a1.43 1.43 0 0 1-.333-.212 1.556 1.556 0 0 1-.386-.527q-.023-.049-.043-.1-.038-.084-.06-.174c-.014-.046-.026-.092-.035-.139v-.005l-.014-.081h.101a1.513 1.513 0 0 1-.416-.384 1.555 1.555 0 0 1-.253-.6q-.011-.053-.019-.107-.013-.089-.018-.18V-36.827l.079.021c.044.012.086.027.128.044s.074.03.111.047l-.042-.024q-.045-.031-.087-.064a1.556 1.556 0 0 1-.423-.497 1.555 1.555 0 0 1-.165-.632v-.109q0-.09.007-.18c0-.048.01-.1.019-.142v-.005l.016-.081.075.032c.041.018.082.039.121.061s.137.082.134.079q-.039-.038-.076-.077a1.555 1.555 0 0 1-.342-.556 1.555 1.555 0 0 1-.063-.65q.005-.054.014-.108.014-.089.036-.177c.012-.046.025-.092.041-.138v-.005l.029-.077.069.044c.038.025.074.052.11.08s.095.079.139.121l.054.054v-.005q-.051-.067-.1-.138-.029-.046-.056-.093a1.556 1.556 0 0 1-.2-.62 1.555 1.555 0 0 1 .089-.647q.018-.051.038-.1.034-.084.076-.164c.022-.042.046-.084.072-.125l.046-.068.057.059c.031.033.06.067.088.1l.011.014a1.5 1.5 0 0 1-.065-.531 1.556 1.556 0 0 1 .191-.625q.026-.048.054-.094.047-.077.1-.15c.029-.038.059-.076.091-.112l.056-.06.047.067c.026.037.049.076.071.116a1.479 1.479 0 0 1 .055-.5 1.555 1.555 0 0 1 .322-.568q.036-.041.073-.08.063-.065.131-.124c.036-.031.074-.061.113-.089l.068-.046.031.076.01.027a1.428 1.428 0 0 1 .116-.375 1.557 1.557 0 0 1 .405-.512q.041-.035.085-.068.072-.055.149-.1c.041-.025.082-.049.125-.071l.074-.036.019.08c.01.044.018.089.024.133q.013.092.016.184v.076h.009a1.011 1.011 0 0 1 .135-.241q.025-.032.052-.062a1.109 1.109 0 0 1 .38-.26 1.249 1.249 0 0 1 .215-.071h.029l.084-.017v.086c0 .033 0 .065-.008.1s-.012.081-.021.12a1.091 1.091 0 0 1-.218.468 1.009 1.009 0 0 1-.264.22v.005l.07-.006h.139c.053 0 .105 0 .158.008h.005l.082.01-.028.083c-.016.045-.035.089-.056.132s-.051.1-.08.152q-.027.047-.057.091a1.561 1.561 0 0 1-.467.471 1.366 1.366 0 0 1-.22.111c-.007.031-.015.062-.024.092q-.026.089-.059.175l-.042.1a1.548 1.548 0 0 1-.41.554 1.38 1.38 0 0 1-.2.138v.027c0 .062-.01.123-.02.184q-.008.053-.019.106a1.548 1.548 0 0 1-.279.63 1.4 1.4 0 0 1-.19.2c0 .031.009.062.012.093.006.061.009.123.01.184v.108a1.548 1.548 0 0 1-.175.666 1.408 1.408 0 0 1-.168.242l.022.048c.019.041.035.083.049.126q.03.087.052.177.013.052.023.105a1.548 1.548 0 0 1-.017.689 1.409 1.409 0 0 1-.111.281l.026.039c.025.038.048.077.069.117s.056.11.079.167q.021.05.039.1a1.549 1.549 0 0 1 .093.683 1.569 1.569 0 0 1-.2.595q-.026.047-.056.093v.005l.026.025.017-.039q.037-.082.082-.161c.024-.042.049-.083.076-.122l.048-.067.055.061c.03.034.058.069.085.106s.07.1.1.154q.028.046.053.094a1.548 1.548 0 0 1 .188.663 1.357 1.357 0 0 1-.006.18l.005-.013.068.046c.037.026.072.054.107.083s.092.082.135.126q.038.038.073.079a1.548 1.548 0 0 1 .337.6q.017.062.028.125c.037.015.073.032.108.05q.082.042.16.092.045.029.089.06a1.555 1.555 0 0 1 .459.5 1.335 1.335 0 0 1 .062.127l.081.026q.087.03.171.069l.1.047a1.549 1.549 0 0 1 .531.439 1.573 1.573 0 0 1 .259.582q.012.052.021.105c0 .015.005.03.008.046a7.609 7.609 0 0 1 2.731-.409h.336a7.4 7.4 0 0 1 3.017.519c-.011-.036-.02-.072-.027-.109a1.082 1.082 0 0 1 .006-.5 1.083 1.083 0 0 1 .249-.436 1.252 1.252 0 0 1 .166-.154l.069-.051.034.079c.013.03.023.061.033.092s.023.078.031.118a1.264 1.264 0 0 1 .027.2l.064-.033a1.076 1.076 0 0 1 .009-.488 1.083 1.083 0 0 1 .249-.436 1.244 1.244 0 0 1 .166-.154l.069-.051.034.079c.013.03.023.061.033.092s.023.078.031.118a1.265 1.265 0 0 1 .027.2l.01-.005a1.067 1.067 0 0 1 .013-.471 1.083 1.083 0 0 1 .258-.472 1.249 1.249 0 0 1 .166-.154l.069-.051.034.079.012.03a.872.872 0 0 1 .013-.093 1.083 1.083 0 0 1 .217-.453 1.25 1.25 0 0 1 .154-.166l.066-.056.04.076.01.021v-.067a1.084 1.084 0 0 1 .149-.48 1.247 1.247 0 0 1 .128-.186l.057-.064.05.07c.019.027.036.054.052.082s.039.071.056.108a1.266 1.266 0 0 1 .07.188l.037-.032a1.061 1.061 0 0 1-.168-.426 1.083 1.083 0 0 1 .056-.5 1.245 1.245 0 0 1 .091-.207v-.005l.044-.074.063.059c.023.022.046.046.067.071s.052.063.076.1a1.273 1.273 0 0 1 .1.171l.035-.041a1.065 1.065 0 0 1-.225-.407 1.083 1.083 0 0 1-.007-.5 1.248 1.248 0 0 1 .064-.217v-.006l.034-.079.07.05c.026.019.051.04.075.062s.059.056.087.086l.029.033a.959.959 0 0 1-.125-.2 1.084 1.084 0 0 1-.089-.494 1.244 1.244 0 0 1 .028-.224v-.004l.021-.083.077.038c.026.014.052.028.077.044l-.042-.057a1.082 1.082 0 0 1-.167-.474 1.249 1.249 0 0 1-.008-.226v-.006l.007-.086.082.026c.031.01.061.022.091.035s.074.034.11.053a1.268 1.268 0 0 1 .168.109l.006-.028a1.025 1.025 0 0 1-.3-.239 1.083 1.083 0 0 1-.215-.454 1.253 1.253 0 0 1-.032-.224v-.092l.084.017c.026.006.051.012.076.02l-.019-.018a1.083 1.083 0 0 1-.267-.425 1.244 1.244 0 0 1-.058-.219v-.011l-.012-.085.086.007c.032 0 .065.008.1.014h.02l-.032-.022a1.083 1.083 0 0 1-.319-.388 1.246 1.246 0 0 1-.085-.21l-.024-.089H14.868l-.03-.013a1.084 1.084 0 0 1-.39-.317 1.246 1.246 0 0 1-.125-.189v-.005l-.039-.077.089-.022.095-.021q-.034-.012-.067-.027a1.1 1.1 0 0 1-.372-.283 1.245 1.245 0 0 1-.134-.182v-.005l-.042-.075.088-.027.036-.009a1.1 1.1 0 0 1-.382-.3 1.243 1.243 0 0 1-.131-.184v-.005l-.041-.075.055-.016h.01a1.087 1.087 0 0 1-.387-.312 1.245 1.245 0 0 1-.126-.188v-.005l-.039-.077h.008a1.15 1.15 0 0 1-.3-.235 1.246 1.246 0 0 1-.14-.177v-.005l-.045-.073.087-.03a1.194 1.194 0 0 1 .138-.034 1.344 1.344 0 0 1 .215-.023h.055a1.26 1.26 0 0 1-.063-.168 1.243 1.243 0 0 1-.046-.221v-.006l-.007-.086.085.011c.032 0 .064.011.1.019s.079.021.117.034a1.245 1.245 0 0 1 .226.1 1.225 1.225 0 0 1 .03-.24 1.244 1.244 0 0 1 .069-.215l.038-.084.069.052c.026.02.05.041.074.063s.058.057.085.087a1.08 1.08 0 0 1 .254.467.153.153 0 0 0-.015.034zM5.293-32.484a1.479 1.479 0 0 1-.447-.216 1.515 1.515 0 0 1-.386-.423 1.856 1.856 0 0 0-.332.054 1.815 1.815 0 0 0 .164.2q.033.034.068.066a1.4 1.4 0 0 0 .5.311 1.307 1.307 0 0 0 .319.062zm7.075-.031l.086.014a.93.93 0 0 0 .439-.042.942.942 0 0 0 .313-.2q.03-.028.058-.058t.057-.067l-.076-.016a1.179 1.179 0 0 0-.2-.019h-.014a.977.977 0 0 0-.137.01.891.891 0 0 1-.081.1 1.093 1.093 0 0 1-.406.265l-.04.015zm-6.631-.158a1.745 1.745 0 0 0-.19-.327 1.333 1.333 0 0 0-.261-.267 1.316 1.316 0 0 0-.383-.2 1.7 1.7 0 0 0-.215-.056 1.869 1.869 0 0 0-.287-.032 1.87 1.87 0 0 0 .114.255 1.7 1.7 0 0 0 .117.187 1.326 1.326 0 0 0 .3.305 1.334 1.334 0 0 0 .354.176 1.682 1.682 0 0 0 .2.053l.016-.007.064-.027c-.082-.055-.162-.113-.242-.172s-.179-.136-.266-.209-.172-.146-.253-.227c.1.047.2.1.3.155s.194.114.29.174.189.123.28.188l.04.029h.011zm6.635.018l.014-.006a.929.929 0 0 0 .362-.252.943.943 0 0 0 .173-.329q.012-.039.022-.079c.007-.028.012-.057.017-.086l-.084.026c-.028.009-.051.019-.077.03a.929.929 0 0 0-.324.225.928.928 0 0 0-.189.346v.014c.037-.043.075-.085.113-.126s.105-.107.161-.157a1.642 1.642 0 0 1 .178-.142 1.641 1.641 0 0 1-.112.2c-.04.064-.084.124-.129.184s-.083.107-.126.152zm.134-.675a1.053 1.053 0 0 0-.014-.2c0-.027-.01-.054-.016-.081s-.015-.057-.023-.085q-.032.029-.063.061t-.055.061a.929.929 0 0 0-.189.346.928.928 0 0 0-.013.394c0 .024.015.069.015.069v-.007a1.083 1.083 0 0 1 .231-.446.928.928 0 0 1 .125-.115zm-6.7.5a1.688 1.688 0 0 0-.071-.251 1.332 1.332 0 0 0-.176-.329 1.313 1.313 0 0 0-.312-.3 1.7 1.7 0 0 0-.2-.118 1.863 1.863 0 0 0-.258-.107 1.875 1.875 0 0 0 .038.277l.008.033a1.543 1.543 0 0 1 .459.2q.05.032.1.069a1.454 1.454 0 0 1 .237.239 1.8 1.8 0 0 1 .169.286zm7.252-.362c.029.006.057.01.086.014a.93.93 0 0 0 .439-.042.942.942 0 0 0 .313-.2c.02-.019.039-.038.058-.059s.039-.044.057-.067c-.029-.007-.057-.013-.087-.018a1.175 1.175 0 0 0-.186-.017h-.014a.975.975 0 0 0-.137.01.9.9 0 0 1-.081.1 1.092 1.092 0 0 1-.406.265zM4.121-33.2c.038-.009.123-.026.13-.027a1.493 1.493 0 0 1-.441-.288 1.514 1.514 0 0 1-.324-.472h-.13a1.938 1.938 0 0 0-.2.011h-.011l.018.034a1.794 1.794 0 0 0 .293.388 1.329 1.329 0 0 0 .308.231 1.3 1.3 0 0 0 .357.125zm.45-.466a1.335 1.335 0 0 0-.281-.381 1.349 1.349 0 0 0-.337-.224 1.805 1.805 0 0 0-.455-.144h-.011a1.866 1.866 0 0 0 .078.268 1.708 1.708 0 0 0 .091.2 1.332 1.332 0 0 0 .249.335 1.333 1.333 0 0 0 .345.236q.05.024.1.045-.029-.062-.054-.125c-.015-.039-.04-.113-.039-.111-.066-.067-.132-.134-.2-.2s-.15-.169-.219-.26c.1.061.189.127.278.2.066.05.131.1.194.154h.05a1.911 1.911 0 0 1 .211.006zm8.509.326a.926.926 0 0 0 .356-.25.943.943 0 0 0 .174-.329q.012-.039.022-.079c.007-.029.012-.057.017-.086l-.084.026-.077.03a.929.929 0 0 0-.324.225.871.871 0 0 0-.154.251l.071-.012c.052-.054.105-.107.161-.157a1.648 1.648 0 0 1 .178-.142 1.644 1.644 0 0 1-.112.2c-.04.064-.084.124-.129.184l-.1.125zm-.224-.172a1.05 1.05 0 0 1 .211-.378.932.932 0 0 1 .127-.117 1.057 1.057 0 0 0-.014-.2q-.007-.041-.016-.081l-.023-.085c-.022.02-.043.04-.063.061l-.055.061a.928.928 0 0 0-.189.346.929.929 0 0 0-.014.394v.007zm-8.2-.529a1.185 1.185 0 0 0-.058-.111 1.343 1.343 0 0 0-.267-.32 1.8 1.8 0 0 0-.407-.271 1.864 1.864 0 0 0 0 .289v.025a1.5 1.5 0 0 1 .5.322 1.473 1.473 0 0 1 .257.353v-.01q-.008-.053-.012-.106c-.015-.048-.016-.172-.016-.172zm9.061.219l.067.01a.93.93 0 0 0 .439-.042.943.943 0 0 0 .313-.2q.03-.028.058-.059c.02-.021.039-.044.057-.067-.029-.007-.057-.013-.087-.018a1.169 1.169 0 0 0-.186-.017h-.014a.976.976 0 0 0-.137.01.9.9 0 0 1-.081.1 1.093 1.093 0 0 1-.406.265l-.019.007zm.046-.42c.04-.04.08-.08.123-.117a1.65 1.65 0 0 1 .178-.142 1.644 1.644 0 0 1-.112.2c-.04.064-.084.124-.129.184l-.045.057q-.005.033-.013.066a.9.9 0 0 0 .31-.23.942.942 0 0 0 .174-.329q.012-.039.022-.079c.007-.028.012-.057.017-.086l-.084.026q-.042.014-.077.03a.928.928 0 0 0-.324.225.853.853 0 0 0-.138.213zM3.3-34.121a1.56 1.56 0 0 1-.474-.458 1.516 1.516 0 0 1-.208-.534 1.858 1.858 0 0 0-.319-.068h-.01a1.865 1.865 0 0 0 .093.263 1.71 1.71 0 0 0 .1.2 1.331 1.331 0 0 0 .267.321 1.326 1.326 0 0 0 .347.213c.059.025.183.065.183.065zm10.2-.055a1.032 1.032 0 0 1 .2-.348.93.93 0 0 1 .127-.117 1.053 1.053 0 0 0-.014-.2q-.007-.041-.016-.081l-.023-.085c-.022.02-.043.04-.063.061l-.055.061a.928.928 0 0 0-.189.346.919.919 0 0 0-.016.378l.026-.01zm-9.893-.35q-.009-.04-.02-.079a1.332 1.332 0 0 0-.147-.343 1.316 1.316 0 0 0-.286-.322 1.7 1.7 0 0 0-.184-.13 1.868 1.868 0 0 0-.248-.128 1.874 1.874 0 0 0 .015.279 1.707 1.707 0 0 0 .042.217 1.325 1.325 0 0 0 .172.394 1.339 1.339 0 0 0 .275.3c.057.046.178.122.178.122q-.018-.059-.033-.12c0-.021-.01-.042-.014-.063l-.057-.079c-.059-.1-.118-.192-.172-.29s-.108-.2-.154-.3c.081.081.155.167.226.254s.136.17.2.257l-.076-.007.082.007c.045 0 .09.011.134.02zm10.759.015l-.01.03v.006h.025a.929.929 0 0 0 .435-.074.942.942 0 0 0 .3-.224q.028-.03.053-.063c.018-.023.036-.046.052-.07a1.223 1.223 0 0 0-.182-.017h-.032a1.006 1.006 0 0 0-.21.024.9.9 0 0 1-.073.106 1.075 1.075 0 0 1-.351.277zm-10.577-.258a1.253 1.253 0 0 0-.039-.216 1.32 1.32 0 0 0-.19-.4 1.7 1.7 0 0 0-.138-.173 1.872 1.872 0 0 0-.2-.193 1.866 1.866 0 0 0-.064.272v.034a1.5 1.5 0 0 1 .408.426 1.536 1.536 0 0 1 .2.527l.034.011v-.043-.181q-.014-.03-.011-.064zm10.636-.026c0 .032-.006.065-.011.1v.007a.864.864 0 0 0 .232-.215.943.943 0 0 0 .149-.341q.009-.04.016-.081c0-.029.008-.058.011-.087l-.082.032q-.041.017-.074.036a.929.929 0 0 0-.307.248.873.873 0 0 0-.136.262l.071-.019c.048-.057.1-.114.15-.168a1.636 1.636 0 0 1 .168-.155 1.644 1.644 0 0 1-.1.207c-.028.052-.058.1-.089.152zm-.354.014a1.051 1.051 0 0 1 .184-.4.934.934 0 0 1 .116-.124 1.051 1.051 0 0 0-.029-.2q-.01-.04-.022-.079l-.029-.083c-.02.021-.04.043-.058.065l-.05.065a.929.929 0 0 0-.163.359.928.928 0 0 0 .015.394v.011zm-4.49-1.411a4.623 4.623 0 0 0 1.813.276 4.208 4.208 0 0 1-2.174.118l-.006.144-.361.5-.361-.5-.004-.146a4.208 4.208 0 0 1-2.174-.118 4.624 4.624 0 0 0 1.813-.276 4.214 4.214 0 0 1-2.058-2.436 4.224 4.224 0 0 1 1.263-4.509A4.632 4.632 0 0 0 8.447-36.8l-.14-3.461v-2.723a1.436 1.436 0 0 0 .547-.459 1.436 1.436 0 0 0 .547.459v2.723l-.14 3.461a4.633 4.633 0 0 0 1.115-6.343 4.224 4.224 0 0 1 1.264 4.513 4.213 4.213 0 0 1-2.058 2.438zm5.335 1h.059a.929.929 0 0 0 .419-.136.942.942 0 0 0 .262-.265l.044-.07c.014-.024.028-.051.041-.077H15.63a1.05 1.05 0 0 0-.308.065.9.9 0 0 1-.056.113 1.093 1.093 0 0 1-.339.347h-.005zM1.96-36.5l-.034-.019a1.859 1.859 0 0 0-.271-.124 1.867 1.867 0 0 0 .029.278 1.706 1.706 0 0 0 .053.215 1.331 1.331 0 0 0 .185.375 1.326 1.326 0 0 0 .288.287 1.7 1.7 0 0 0 .206.13l-.025-.025a1.556 1.556 0 0 1-.35-.551 1.515 1.515 0 0 1-.081-.566zm.823.858a1.383 1.383 0 0 0-.074-.539 1.343 1.343 0 0 0-.2-.363 1.8 1.8 0 0 0-.351-.34 1.869 1.869 0 0 0-.051.275 1.707 1.707 0 0 0-.01.221 1.331 1.331 0 0 0 .072.412 1.331 1.331 0 0 0 .2.366 1.7 1.7 0 0 0 .139.159q.043.043.088.084v-.008-.039c-.041-.1-.078-.206-.114-.309s-.07-.214-.1-.323-.059-.218-.079-.331c.059.1.112.2.161.3s.1.2.14.307l.029.07.055.018c.027.007.061.02.095.035zm12.172.146v.1a.877.877 0 0 0 .221-.266.943.943 0 0 0 .1-.359v-.082-.088c-.026.014-.051.028-.076.044l-.068.046a.928.928 0 0 0-.267.29.877.877 0 0 0-.1.282l.061-.021.009-.015c.039-.064.079-.127.124-.188a1.648 1.648 0 0 1 .143-.177 1.653 1.653 0 0 1-.066.218c-.024.066-.051.13-.079.193zm-.332.029a1.045 1.045 0 0 1 .123-.407.929.929 0 0 1 .1-.142 1.058 1.058 0 0 0-.057-.189q-.015-.038-.033-.075c-.013-.026-.026-.052-.041-.078-.017.024-.033.048-.048.073s-.028.047-.04.072a.928.928 0 0 0-.109.379.925.925 0 0 0 .071.385l.035-.018zm-11.693-.1a1.654 1.654 0 0 0 .054-.172 1.326 1.326 0 0 0 .042-.383 1.319 1.319 0 0 0-.088-.409 1.794 1.794 0 0 0-.243-.436l-.007-.009a1.868 1.868 0 0 0-.125.249l-.013.032a1.5 1.5 0 0 1 .3.51 1.56 1.56 0 0 1 .066.606zm12.506-.47c.029-.006.057-.014.085-.022a.929.929 0 0 0 .386-.213.942.942 0 0 0 .207-.309q.016-.038.03-.077c.01-.028.018-.056.026-.084-.029 0-.058.011-.086.018l-.084.012a1.02 1.02 0 0 0-.233.106.893.893 0 0 1-.034.124 1.091 1.091 0 0 1-.267.4zm-.143-.3l.018-.052c.026-.07.054-.14.086-.208a1.646 1.646 0 0 1 .107-.2 1.651 1.651 0 0 1-.024.227c-.012.074-.028.148-.045.22l-.037.137v.033a.924.924 0 0 0 .224-.368.94.94 0 0 0 .028-.371c0-.027-.007-.054-.012-.081s-.011-.057-.019-.086c-.023.019-.045.038-.066.058s-.04.038-.058.058a.93.93 0 0 0-.208.335.889.889 0 0 0-.041.319l.042-.019h.005zm-.168.089a1.048 1.048 0 0 1 .043-.429.931.931 0 0 1 .07-.158 1.057 1.057 0 0 0-.092-.175q-.022-.035-.047-.068t-.055-.068l-.034.081c-.011.027-.018.052-.026.078a.928.928 0 0 0-.035.393.928.928 0 0 0 .144.367zM4.7-41.562a3.538 3.538 0 0 0 1.293 4.835l-.008-.01a4.632 4.632 0 0 1 .92-6.487A3.539 3.539 0 0 0 4.7-41.562zm7.033 4.824l-.008.01a3.538 3.538 0 0 0 1.293-4.835 3.539 3.539 0 0 0-2.205-1.662 4.632 4.632 0 0 1 .915 6.487zm-9.584-.312c.026.016.072.049.07.048a1.433 1.433 0 0 0 .023-.661 1.344 1.344 0 0 0-.142-.367 1.8 1.8 0 0 0-.3-.387l-.008-.008a1.868 1.868 0 0 0-.089.265 1.7 1.7 0 0 0-.041.217 1.332 1.332 0 0 0 .013.418 1.332 1.332 0 0 0 .149.39 1.7 1.7 0 0 0 .121.185q.032.043.066.083v-.005l.006-.026v-.007c-.027-.108-.049-.217-.07-.326s-.039-.222-.054-.333-.027-.224-.032-.338c.045.1.083.212.117.319l.1.324c.017.065.033.13.049.2zm-.6-1.022a1.863 1.863 0 0 0-.272-.18l-.01-.005a1.868 1.868 0 0 0-.01.288 1.708 1.708 0 0 0 .022.211 1.326 1.326 0 0 0 .136.407 1.333 1.333 0 0 0 .24.315 1.7 1.7 0 0 0 .186.158l-.026-.022a1.556 1.556 0 0 1-.269-.595 1.516 1.516 0 0 1 0-.572zm14.245 1.127q.041-.014.081-.032a.929.929 0 0 0 .356-.26.941.941 0 0 0 .167-.333q.011-.039.02-.08c.006-.029.011-.057.015-.086-.028.008-.056.018-.083.028s-.051.02-.076.032a1.018 1.018 0 0 0-.218.134.9.9 0 0 1-.019.127 1.091 1.091 0 0 1-.215.435zm-13.454 0a1.691 1.691 0 0 0 .117-.233 1.325 1.325 0 0 0 .1-.373 1.321 1.321 0 0 0-.03-.418 1.794 1.794 0 0 0-.179-.466l-.005-.01a1.869 1.869 0 0 0-.159.229l-.017.03a1.5 1.5 0 0 1 .224.546 1.573 1.573 0 0 1-.037.64l-.015.054zm13.117-.18a1.045 1.045 0 0 1-.009-.424.929.929 0 0 1 .05-.166 1.055 1.055 0 0 0-.113-.162q-.026-.032-.055-.061c-.02-.021-.041-.041-.063-.061-.009.028-.016.056-.023.085s-.012.054-.016.081a.927.927 0 0 0 .014.394.927.927 0 0 0 .187.343l.015-.015zm.3.016a.908.908 0 0 0 .16-.37.943.943 0 0 0-.018-.372q-.01-.04-.022-.079c-.009-.028-.018-.056-.029-.083l-.059.065c-.019.022-.034.043-.051.065a.928.928 0 0 0-.164.359.877.877 0 0 0 0 .3l.046-.033.005-.023c.017-.073.036-.145.059-.217a1.647 1.647 0 0 1 .081-.213 1.661 1.661 0 0 1 0 .228c0 .075-.009.15-.017.224 0 .031-.008.061-.012.092l.01.036zm.333-.724q.038-.021.075-.045a.929.929 0 0 0 .309-.315.941.941 0 0 0 .11-.355q0-.041.007-.082v-.088l-.077.041c-.025.014-.047.028-.07.044a1.018 1.018 0 0 0-.193.168.9.9 0 0 1 0 .129 1.093 1.093 0 0 1-.141.464zm-.593-.112c.024.029.046.06.067.091l.008-.013c-.026-.025-.052-.051-.072-.078zm.377-.268c0-.05.01-.1.017-.15a1.647 1.647 0 0 1 .045-.224 1.64 1.64 0 0 1 .042.224c.01.075.015.149.02.224v.186a.929.929 0 0 0 .115-.426.943.943 0 0 0-.079-.364q-.016-.038-.034-.075c-.013-.026-.027-.052-.042-.077q-.025.036-.047.074t-.039.072a.929.929 0 0 0-.1.381.834.834 0 0 0 .023.219zm-.177.172a1 1 0 0 1-.049-.333.933.933 0 0 1 .022-.172 1.054 1.054 0 0 0-.138-.141q-.031-.027-.064-.051l-.072-.05c0 .029-.007.058-.009.087s0 .055 0 .082a.928.928 0 0 0 .078.387.885.885 0 0 0 .183.255l.017-.023zm-13.64-.353l.053-.067a1.4 1.4 0 0 0 .261-.532 1.344 1.344 0 0 0 .027-.393 1.8 1.8 0 0 0-.1-.477v-.01a1.872 1.872 0 0 0-.194.2l-.022.027a1.5 1.5 0 0 1 .134.575 1.574 1.574 0 0 1-.127.625zm-.6-1.237a1.864 1.864 0 0 0-.24-.221l-.009-.007a1.874 1.874 0 0 0-.055.274 1.706 1.706 0 0 0-.013.221 1.332 1.332 0 0 0 .066.413 1.33 1.33 0 0 0 .2.368 1.7 1.7 0 0 0 .143.168l.008.007-.015-.03a1.555 1.555 0 0 1-.172-.63 1.516 1.516 0 0 1 .093-.565zm.489 1.172a1.694 1.694 0 0 0 .086-.241 1.326 1.326 0 0 0 .048-.382 1.321 1.321 0 0 0-.082-.411 1.7 1.7 0 0 0-.09-.2 1.866 1.866 0 0 0-.153-.245 1.868 1.868 0 0 0-.133.256 1.69 1.69 0 0 0-.074.21 1.321 1.321 0 0 0-.05.416 1.338 1.338 0 0 0 .085.4 1.7 1.7 0 0 0 .089.2v-.007c.013-.03.026-.06.041-.09l.011-.022c0-.05 0-.1-.006-.151v-.338c0-.113.008-.226.022-.339.028.111.048.222.065.334s.031.223.043.335l.018.207.047.046zm14.264-.281q.034-.027.067-.056a.929.929 0 0 0 .255-.36.942.942 0 0 0 .052-.368q0-.041-.007-.082c0-.029-.008-.058-.013-.087l-.07.053c-.023.018-.042.036-.062.054a1.017 1.017 0 0 0-.164.2.894.894 0 0 1 .023.127 1.092 1.092 0 0 1-.065.48zm-.412-.126a1.01 1.01 0 0 1-.11-.338.929.929 0 0 1-.006-.173 1.058 1.058 0 0 0-.158-.118q-.035-.021-.072-.04c-.026-.014-.052-.026-.079-.038 0 .029 0 .058.005.088s.006.055.011.082a.929.929 0 0 0 .139.369.894.894 0 0 0 .236.233l.029-.056zm.287-.1q.021.035.04.072a.906.906 0 0 0 .032-.4.942.942 0 0 0-.136-.346q-.022-.035-.046-.068c-.017-.024-.035-.047-.054-.069-.012.027-.024.053-.035.081s-.019.052-.027.078a.928.928 0 0 0-.041.392.838.838 0 0 0 .063.225l.057-.072c0-.054-.007-.109-.008-.164a1.64 1.64 0 0 1 .009-.228 1.65 1.65 0 0 1 .078.215c.022.072.039.145.055.218zm.135-.7q.031-.03.061-.063a.929.929 0 0 0 .216-.384.942.942 0 0 0 .013-.372q-.006-.041-.015-.081c-.006-.029-.014-.057-.022-.085-.022.019-.043.039-.064.06s-.038.04-.056.061a1.019 1.019 0 0 0-.143.213.894.894 0 0 1 .036.123 1.091 1.091 0 0 1-.015.485l-.015.05zm-.442-.112a.994.994 0 0 1-.125-.295.928.928 0 0 1-.024-.168 1.058 1.058 0 0 0-.17-.1q-.037-.018-.076-.033c-.027-.011-.055-.02-.083-.029 0 .029.008.058.014.087l.019.08a.929.929 0 0 0 .177.353.88.88 0 0 0 .235.194l.005-.016.025-.066zm.046-.883c-.01.028-.018.056-.026.084s-.014.053-.019.08a.928.928 0 0 0 0 .394.822.822 0 0 0 .068.184l.045-.074.02.02c-.009-.05-.017-.1-.023-.152a1.656 1.656 0 0 1-.015-.228 1.652 1.652 0 0 1 .1.205c.029.069.054.14.078.211s.038.125.054.188v-.015a.929.929 0 0 0 0-.441.94.94 0 0 0-.171-.33q-.025-.032-.053-.063t-.061-.063zm-13.264-.6s-.113.079-.172.112q-.046.026-.094.049a1.5 1.5 0 0 1 0 .58 1.574 1.574 0 0 1-.268.578l-.035.047.067-.052a1.4 1.4 0 0 0 .377-.458 1.344 1.344 0 0 0 .118-.376 1.8 1.8 0 0 0 .007-.48zm-.673 1.284a1.442 1.442 0 0 0 .283-.614 1.348 1.348 0 0 0 .006-.4 1.8 1.8 0 0 0-.125-.461v-.01a1.867 1.867 0 0 0-.183.211 1.7 1.7 0 0 0-.121.185 1.332 1.332 0 0 0-.147.391 1.331 1.331 0 0 0-.012.418 1.7 1.7 0 0 0 .041.217l.005.04c.017-.028.036-.056.055-.083v-.006l.041-.213c.024-.11.048-.22.078-.329s.06-.218.1-.325c0 .114 0 .227-.014.34s-.022.224-.036.336l-.034.229.05.067zm-.387-.045l-.008-.034a1.543 1.543 0 0 1-.016-.679 1.526 1.526 0 0 1 .216-.5 1.85 1.85 0 0 0-.189-.278 1.874 1.874 0 0 0-.116.254 1.705 1.705 0 0 0-.063.212 1.332 1.332 0 0 0-.031.417 1.332 1.332 0 0 0 .106.4 1.709 1.709 0 0 0 .1.2l.006.01zm14.165-.551a.993.993 0 0 1-.153-.27.931.931 0 0 1-.043-.165 1.053 1.053 0 0 0-.18-.08c-.026-.009-.052-.017-.079-.024s-.057-.014-.086-.019c.007.028.015.057.024.084l.028.077a.929.929 0 0 0 .217.329.877.877 0 0 0 .253.163l.018-.09zm.458.067q.028-.034.053-.07a.93.93 0 0 0 .169-.407.942.942 0 0 0-.031-.371q-.011-.04-.024-.079c-.01-.028-.02-.055-.032-.082-.02.022-.038.044-.056.067s-.033.044-.048.067a1.02 1.02 0 0 0-.117.228.9.9 0 0 1 .05.118 1.092 1.092 0 0 1 .042.483c-.006.017-.008.032-.01.047zM16-40.65a.9.9 0 0 0-.057-.377.944.944 0 0 0-.209-.308q-.029-.029-.06-.056l-.068-.056c-.006.029-.012.057-.016.086s-.007.054-.009.082a.928.928 0 0 0 .046.392.816.816 0 0 0 .079.159l.022-.052v-.005l.037-.078-.012.025-.022-.083a1.647 1.647 0 0 1-.041-.224 1.646 1.646 0 0 1 .123.192c.037.066.07.133.1.2l.013.028q.032.033.062.067zm-.54-.724a.974.974 0 0 1-.16-.226.926.926 0 0 1-.064-.158 1.052 1.052 0 0 0-.189-.056c-.027-.005-.054-.01-.081-.013s-.058-.007-.087-.008q.016.041.035.081t.038.073a.928.928 0 0 0 .257.3.862.862 0 0 0 .244.121q0-.039.007-.078l.003-.036zm-12.875-.068a1.271 1.271 0 0 0 .188-.2 1.32 1.32 0 0 0 .194-.371 1.793 1.793 0 0 0 .092-.49v-.015a1.866 1.866 0 0 0-.259.118l-.03.016a1.5 1.5 0 0 1-.1.582 1.549 1.549 0 0 1-.322.492l.009-.006q.043-.028.087-.053c.045-.031.141-.073.141-.073zm13.364.1l.044-.076a.929.929 0 0 0 .116-.425.942.942 0 0 0-.078-.364q-.016-.038-.034-.075c-.013-.026-.027-.052-.042-.077-.017.024-.032.049-.047.074s-.027.048-.039.072a1.018 1.018 0 0 0-.087.241.892.892 0 0 1 .065.111 1.092 1.092 0 0 1 .1.474c.003.014.003.03.003.045zm-13.724-.027a1.675 1.675 0 0 0 .141-.16 1.327 1.327 0 0 0 .191-.334 1.321 1.321 0 0 0 .082-.411 1.793 1.793 0 0 0-.049-.5v-.011a1.869 1.869 0 0 0-.214.179 1.7 1.7 0 0 0-.149.164 1.326 1.326 0 0 0-.212.373 1.337 1.337 0 0 0-.074.4v.124c.026-.026.053-.052.081-.077l.074-.062v-.006c.041-.1.083-.209.129-.312s.094-.205.15-.3c-.017.113-.041.224-.068.333s-.057.218-.089.326l-.042.134.008.021q.022.06.041.119zm13.593-.069a.915.915 0 0 0-.107-.4.943.943 0 0 0-.246-.279c-.022-.017-.044-.033-.067-.048l-.074-.047V-42.042a.928.928 0 0 0 .1.383.8.8 0 0 0 .08.125l.038-.117h.008l-.025-.062a1.64 1.64 0 0 1-.07-.217 1.641 1.641 0 0 1 .146.175c.045.06.086.123.127.186l.049.082.011.01zM2.193-42.609a1.863 1.863 0 0 0-.137-.3l-.006-.01a1.877 1.877 0 0 0-.16.24 1.7 1.7 0 0 0-.092.191 1.331 1.331 0 0 0-.1.406 1.332 1.332 0 0 0 .041.416 1.707 1.707 0 0 0 .068.21V-41.48a1.544 1.544 0 0 1 .092-.673 1.526 1.526 0 0 1 .294-.456zm13 .5a1 1 0 0 1-.249-.218.933.933 0 0 1-.094-.142s-.049-.011-.072-.013-.067-.006-.1-.007H14.57c-.029 0-.058.005-.087.009a1.176 1.176 0 0 0 .086.118.929.929 0 0 0 .348.27.9.9 0 0 0 .279.065v-.085zm.21-1.011c-.006.016-.061.3-.062.332a.9.9 0 0 1 .086.1 1.092 1.092 0 0 1 .2.444c0 .015.006.03.009.044l.028-.083a.928.928 0 0 0 .03-.44.942.942 0 0 0-.148-.341q-.023-.034-.048-.067t-.056-.067c-.023.022-.034.049-.042.077zm.082.854a.917.917 0 0 0-.185-.377.943.943 0 0 0-.3-.225c-.024-.012-.05-.024-.075-.034s-.054-.022-.082-.031c0 .029.007.058.013.087l.017.08a.929.929 0 0 0 .17.356.837.837 0 0 0 .158.149l.016-.094c-.029-.04-.057-.081-.084-.123a1.642 1.642 0 0 1-.111-.2 1.65 1.65 0 0 1 .178.143c.056.05.109.1.161.157l.07.077zm-12.763-.51l.033.157a1.4 1.4 0 0 0 .419-.42 1.345 1.345 0 0 0 .153-.363 1.8 1.8 0 0 0 .057-.485v-.013a1.876 1.876 0 0 0-.248.128 1.7 1.7 0 0 0-.181.127 1.332 1.332 0 0 0-.282.308 1.332 1.332 0 0 0-.166.383q-.011.04-.019.081c.03-.022.061-.043.093-.064l.083-.049.012.035c.059-.088.12-.175.184-.261s.137-.18.213-.265c-.041.107-.089.209-.139.31s-.1.2-.158.3l-.051.089zm.465.089v.039a1.208 1.208 0 0 0 .155-.118 1.355 1.355 0 0 0 .26-.324 1.806 1.806 0 0 0 .183-.442 1.867 1.867 0 0 0-.283.056l-.024.007a1.5 1.5 0 0 1-.221.547 1.461 1.461 0 0 1-.273.3c.039-.015.079-.028.12-.039zm11.544-.113a.977.977 0 0 1-.215-.178.936.936 0 0 1-.1-.139 1.049 1.049 0 0 0-.119-.009h-.027a1.237 1.237 0 0 0-.22.022 1.2 1.2 0 0 0 .092.113.929.929 0 0 0 .361.252.882.882 0 0 0 .257.05c-.012-.032-.029-.111-.029-.111zm-11.77-1.015q0-.029-.008-.057a1.872 1.872 0 0 0-.064-.272 1.8 1.8 0 0 0-.334.357 1.337 1.337 0 0 0-.19.384 1.332 1.332 0 0 0-.051.415 1.708 1.708 0 0 0 .021.22v.012-.034a1.556 1.556 0 0 1 .222-.614 1.516 1.516 0 0 1 .404-.411zm12.294.716a.862.862 0 0 0-.016-.314.942.942 0 0 0-.165-.333q-.025-.033-.052-.064c-.019-.022-.039-.044-.06-.064l-.028.083c-.009.028-.015.053-.02.08a1.016 1.016 0 0 0-.024.255.9.9 0 0 1 .089.09 1.092 1.092 0 0 1 .218.433l.009.036.005-.021a1.223 1.223 0 0 1 .044-.182zm-.868-.476c0 .029.01.058.017.086s.013.053.021.079a.93.93 0 0 0 .188.347.8.8 0 0 0 .094.089v-.127h.021l-.027-.037a1.661 1.661 0 0 1-.121-.193 1.647 1.647 0 0 1 .185.133c.059.047.114.1.169.149l.012.012.052.022.046.021a.89.89 0 0 0-.188-.318.942.942 0 0 0-.308-.209q-.038-.017-.076-.03c-.028-.01-.055-.019-.084-.027zm-.579-.139h-.085c-.028 0-.073.008-.109.014a1.175 1.175 0 0 0 .09.115.93.93 0 0 0 .357.258.893.893 0 0 0 .278.055c-.014-.033-.026-.068-.036-.1a.983.983 0 0 1-.221-.188.93.93 0 0 1-.1-.139.8.8 0 0 0-.174-.016zm-4.022.235a.669.669 0 0 1-.932-.162.669.669 0 0 1-.932.162.668.668 0 0 1-.236-.794.631.631 0 0 0 .738.5.631.631 0 0 0 .43-.3.631.631 0 0 0 .43.3.631.631 0 0 0 .738-.5.668.668 0 0 1-.236.793zm5.041-.4a.783.783 0 0 0-.017-.1.943.943 0 0 0-.16-.336q-.024-.033-.051-.065c-.019-.022-.038-.044-.059-.065-.011.027-.02.055-.029.083s-.015.053-.022.079a1.018 1.018 0 0 0-.029.254.906.906 0 0 1 .089.093 1.065 1.065 0 0 1 .195.38l.015.01a1.224 1.224 0 0 1 .039-.239c.009-.036.029-.098.029-.098zm-.865-.28c0 .029.009.058.015.086s.012.053.02.08a.928.928 0 0 0 .182.35.786.786 0 0 0 .078.079q-.006-.039-.009-.078v-.092h.01a1.574 1.574 0 0 1-.105-.177 1.653 1.653 0 0 1 .183.137l.083.073h.008q.059.016.116.038l.038.015a.847.847 0 0 0-.152-.241.943.943 0 0 0-.3-.215l-.076-.032c-.027-.01-.055-.02-.083-.028zm-10.094.49a1.25 1.25 0 0 0 .187-.091 1.317 1.317 0 0 0 .326-.281 1.694 1.694 0 0 0 .132-.179 1.867 1.867 0 0 0 .137-.254h-.189q-.062 0-.123.012a1.5 1.5 0 0 1-.3.507 1.529 1.529 0 0 1-.445.324H3.6q.061-.013.122-.021c.047-.007.1-.012.143-.014zm-.356-.069q.07-.033.136-.073a1.335 1.335 0 0 0 .291-.233 1.316 1.316 0 0 0 .234-.361 1.7 1.7 0 0 0 .077-.209 1.865 1.865 0 0 0 .06-.282 1.872 1.872 0 0 0-.265.089 1.7 1.7 0 0 0-.2.1 1.332 1.332 0 0 0-.326.262 1.328 1.328 0 0 0-.218.344q-.028.063-.051.128L3.283-44c.044-.02.088-.038.133-.054h.005l.033-.011c.074-.08.149-.16.227-.236s.163-.157.251-.229c-.057.1-.12.193-.184.286s-.133.182-.2.271l-.035.043v.067q.002.063-.002.121zm10.382-.152a1.032 1.032 0 0 1-.308-.25.934.934 0 0 1-.1-.144l-.071-.01c-.033 0-.067-.005-.1-.006h-.096c-.033 0-.066.006-.1.01a1.184 1.184 0 0 0 .087.117.93.93 0 0 0 .35.268.881.881 0 0 0 .255.061h.099q-.01-.023-.017-.05zM3.88-44.88a1.861 1.861 0 0 0-.02-.325v-.011a1.866 1.866 0 0 0-.229.159 1.7 1.7 0 0 0-.162.15 1.326 1.326 0 0 0-.244.354 1.336 1.336 0 0 0-.109.391 1.7 1.7 0 0 0-.013.233l.01-.032a1.544 1.544 0 0 1 .331-.593 1.527 1.527 0 0 1 .435-.33zm10.183.617a.821.821 0 0 0-.124-.195.944.944 0 0 0-.3-.223q-.037-.018-.075-.034c-.027-.011-.055-.021-.082-.03 0 .029.008.058.013.087s.011.054.018.08a.929.929 0 0 0 .172.355.833.833 0 0 0 .158.148 1.216 1.216 0 0 1-.019-.143l-.049-.073a1.652 1.652 0 0 1-.113-.2 1.646 1.646 0 0 1 .179.142l.04.036h.022c.032.006.063.015.095.024zm.248.118a.906.906 0 0 0 .016-.4.94.94 0 0 0-.15-.34q-.023-.034-.049-.066c-.018-.023-.037-.045-.057-.067-.011.027-.022.054-.031.082s-.017.052-.024.079a1.017 1.017 0 0 0-.036.253s.06.062.086.1a1.029 1.029 0 0 1 .164.317q.041.013.081.038zm-.9-.332a1.013 1.013 0 0 1-.291-.208.93.93 0 0 1-.105-.133H12.9a1.212 1.212 0 0 0-.259.03 1.182 1.182 0 0 0 .1.11.93.93 0 0 0 .37.24q.036.012.073.02c.032 0 .064 0 .1-.005h.042c.035 0 .071 0 .106.006l-.017-.048zm.174-.371a.819.819 0 0 0-.137-.181.943.943 0 0 0-.315-.2l-.077-.028-.084-.024q.008.043.02.085t.024.079a.93.93 0 0 0 .2.34.824.824 0 0 0 .154.126 1.252 1.252 0 0 1-.016-.126l-.054-.068a1.66 1.66 0 0 1-.128-.189 1.638 1.638 0 0 1 .189.127l.07.015c.032.007.063.016.094.026zm.253.129a.921.921 0 0 0-.01-.427.942.942 0 0 0-.176-.328q-.026-.032-.054-.062t-.062-.062l-.025.084c-.008.028-.013.053-.018.08a1.017 1.017 0 0 0-.016.255.9.9 0 0 1 .093.088 1.042 1.042 0 0 1 .2.328q.03.017.065.04zm-9.387-.259c0 .045-.008.09-.015.135q0 .026-.009.053a.8.8 0 0 0 .136-.135.946.946 0 0 0 .162-.336q.011-.04.019-.08c.006-.029.01-.058.014-.087q-.042.013-.083.029t-.076.033a.932.932 0 0 0-.317.237.807.807 0 0 0-.086.126c.052-.015.105-.029.159-.039h.025a1.633 1.633 0 0 1 .17-.158 1.632 1.632 0 0 1-.1.2z" transform="translate(1.146 48)"/>
    </g>
</svg>
