<svg xmlns="http://www.w3.org/2000/svg" width="32" height="26.03" viewBox="0 0 32 26.03">
    <g>
        <path fill="#3497fd" d="M-253.212-269.891c.15 0 .3-.025.449-.026h25.579a2.869 2.869 0 0 1 .46.016 2.9 2.9 0 0 1 2.042.942 3.088 3.088 0 0 1 .827 2.11v1.382h-15.383c-.278-.032-.558-.015-.837-.026-.2-.038-.4 0-.594-.026-.162-.021-.325-.008-.487-.017-.648-.041-1.3-.073-1.946-.133-.734-.051-1.449-.241-2.176-.341a9.434 9.434 0 0 0-2.489-.034 1.827 1.827 0 0 0-1.079.387.427.427 0 0 0-.106.491 1.023 1.023 0 0 0 .662.409c.171.051.351 0 .524.042.232.014.465-.01.7.021a12.157 12.157 0 0 0 2.37-.141l.119-.009c.261-.045.525-.08.787-.119 1.018-.134 2.048-.161 3.071-.218.423-.006.846-.025 1.269-.048h15.6v1.3h-16.437c-.074-.015-.15-.022-.224-.035-.171-.013-.341-.037-.511-.055-1.063-.134-2.124-.311-3.2-.344-.338-.046-.682.012-1.021-.036-1.4-.006-2.793 0-4.189 0-.387.045-.778 0-1.165.042a2.1 2.1 0 0 0-1.229.223.524.524 0 0 0-.256.609.814.814 0 0 0 .585.406 6.214 6.214 0 0 0 1.414.08c.532.043 1.068.013 1.6.022.59.009 1.182-.022 1.771.022.96 0 1.921.02 2.878-.059.187-.009.375-.021.561-.043.419-.033.836-.081 1.253-.129.115-.013.23-.027.345-.044.246-.024.49-.057.735-.087l.117-.011c.639-.108 1.287-.024 1.928-.081h8.039c.115 0 .229-.024.345-.022h6.655v1.275h-13.87a5.452 5.452 0 0 1-.761-.037c-.775-.053-1.549-.133-2.324-.185q-.949-.085-1.9-.129-1.5-.095-3.008-.08c-.6-.044-1.209-.014-1.814-.022h-3.024a.948.948 0 0 0-.2.018c-.266.013-.532 0-.8.007a4.658 4.658 0 0 0-1.272.131.684.684 0 0 0-.495.582.5.5 0 0 0 .237.36 1.886 1.886 0 0 0 .988.227c.4.038.8.007 1.193.016.719.042 1.441.014 2.161.022h2.074c.749.059 1.5-.009 2.249-.022 1.651-.081 3.3-.2 4.95-.318.553-.032 1.1-.064 1.657-.092h7.26c.3 0 .606.013.908-.021h5.79v1.231h-13.7a11.241 11.241 0 0 1-1.142-.093c-.129-.019-.259-.031-.388-.043s-.259-.031-.389-.043-.259-.031-.389-.043c-.287-.036-.575-.064-.864-.087-.718-.07-1.439-.112-2.16-.128-.277-.045-.559.007-.837-.032-.45-.025-.9.017-1.352-.029h-5.522a.913.913 0 0 0-.157.017c-.438.017-.878-.016-1.314.027-.3-.015-.6.025-.9.022a1.187 1.187 0 0 0-.817.328.439.439 0 0 0-.05.585 1.221 1.221 0 0 0 .825.34c.3.044.607 0 .908.038.488.019.978-.02 1.465.026h1.555a8.5 8.5 0 0 0 .865.021h1.643c.6.042 1.212.017 1.817.02.323-.043.649 0 .973-.033 1.326-.045 2.651-.131 3.975-.24.415-.025.83-.067 1.245-.1.1-.014.207-.015.311-.029a17.346 17.346 0 0 1 1.92-.05h6.265c.7-.044 1.411-.013 2.116-.022h4.1v1.167h-13.049a5.852 5.852 0 0 1-.709-.073c-.115-.016-.23-.031-.346-.043-.258-.037-.519-.057-.778-.086-.143-.021-.288-.034-.432-.043-.515-.051-1.032-.085-1.549-.108-.241-.034-.485 0-.725-.031-.285-.02-.572.013-.856-.024-.636-.018-1.275.022-1.909-.025h-7a2.177 2.177 0 0 0-.415.017c-.337.016-.674-.013-1.01.025a2.14 2.14 0 0 0-1.187.2.549.549 0 0 0-.3.549c.032.189.207.3.363.382a2.332 2.332 0 0 0 .926.15c.408.048.822-.014 1.23.035.391.008.783 0 1.174 0 .66.057 1.325-.013 1.985.043.779.011 1.559-.023 2.336.023h2.337c.3-.042.6 0 .9-.031 1.221-.038 2.443-.1 3.661-.2.243-.005.484-.04.726-.055.158-.02.317-.032.476-.043.129-.019.259-.032.389-.044.237-.026.474-.064.712-.08h7.09c.416-.039.834-.015 1.251-.021h4.712v1.232h-13.784a3.229 3.229 0 0 1-.371-.037l-.555-.056c-.129-.018-.259-.031-.388-.043s-.259-.031-.389-.043q-.41-.049-.821-.086c-.158-.022-.316-.035-.474-.043q-.6-.062-1.21-.086c-.33-.027-.662-.037-.994-.042-.277-.044-.56.008-.837-.031-.369-.02-.738 0-1.107-.012a1.544 1.544 0 0 0-.328-.017h-5.578c-.442.05-.888-.009-1.329.037-.213.018-.428-.018-.639.021a1.727 1.727 0 0 0-.942.177.58.58 0 0 0-.33.5.425.425 0 0 0 .2.354 1.528 1.528 0 0 0 .811.236c.278.037.56-.009.838.032.391.009.783 0 1.174 0 .589.044 1.181.013 1.772.021 1.021.059 2.047-.015 3.068.045h1.257c.337-.044.678 0 1.016-.033 1.167-.039 2.334-.107 3.5-.2.375-.025.749-.053 1.123-.086.173-.012.346-.022.518-.043.366-.025.73-.064 1.1-.092h7.22c.589-.043 1.18-.014 1.769-.022h4.71v1.167h-14.087c-.15 0-.3-.024-.449-.029-.1-.015-.208-.016-.312-.03-2.012-.147-4.026-.3-6.041-.36-.331-.036-.664.005-.995-.022a3.563 3.563 0 0 0-.456-.013h-4.061c-.433-.009-.863.037-1.3.022a5.658 5.658 0 0 0-1.213.107.754.754 0 0 0-.541.5.472.472 0 0 0 .29.507 1.962 1.962 0 0 0 .853.18c.49.039.983.015 1.475.02.775.045 1.553.013 2.329.022.749.009 1.5-.022 2.247.022.715-.006 1.433.019 2.145-.04.288-.008.577-.018.864-.042.216-.011.433-.019.648-.043.4-.019.807-.054 1.21-.086.96-.067 1.918-.157 2.879-.215.543-.044 1.088-.026 1.632-.029h5.876a2.223 2.223 0 0 0 .415-.017c2.195-.012 4.39 0 6.584-.005v1.232h-16.336a9.388 9.388 0 0 1-1.268-.114c-.175-.024-.35-.045-.525-.073-.142-.019-.284-.042-.427-.056-.372-.054-.747-.1-1.122-.13-.4-.036-.8-.064-1.2-.06a6.38 6.38 0 0 0-.733-.019h-3.8a3.846 3.846 0 0 0-.474.013c-.282.029-.567-.017-.848.025a2.955 2.955 0 0 0-1.024.1.743.743 0 0 0-.5.5.469.469 0 0 0 .22.443 1.886 1.886 0 0 0 .987.23c.589.051 1.181-.014 1.769.04h3.89c.282-.01.566.021.846-.017a6.713 6.713 0 0 0 .734-.042c.433-.026.865-.077 1.3-.129.115-.012.23-.027.345-.043s.231-.027.346-.043c.246-.024.49-.058.735-.086.13-.012.26-.024.389-.046.6-.019 1.194.021 1.789-.026h7.69a8.148 8.148 0 0 0 .86-.021h6.356v1.319H-237.6c-.812 0-1.625.014-2.436-.026-.33-.027-.662-.035-.994-.044-.865-.05-1.735-.092-2.6-.2-.476-.073-.951-.156-1.428-.224-.156-.022-.312-.042-.469-.057a4.982 4.982 0 0 0-.676-.039c-.388-.056-.776.023-1.165 0-.294.029-.59.013-.883.047a1.029 1.029 0 0 0-.71.457.5.5 0 0 0 .151.611 1.856 1.856 0 0 0 1.029.361 3.788 3.788 0 0 0 .431.043 8 8 0 0 0 2.3-.121q.72-.136 1.438-.28c.614-.073 1.231-.115 1.846-.162.913-.052 1.827-.084 2.741-.114h15.165c-.013.6.029 1.2-.026 1.79a3.063 3.063 0 0 1-1.738 2.366 2.929 2.929 0 0 1-1.027.269q-13.1.015-26.2 0a2.948 2.948 0 0 1-1.756-.581 3.092 3.092 0 0 1-1.244-2.363c-.012-5.493 0-10.986-.005-16.479a3.123 3.123 0 0 1 .74-2.046 2.96 2.96 0 0 1 1.9-1.039m21.585 24.454a1.633 1.633 0 0 1 .426-.818q.075.084.149.171a1.578 1.578 0 0 0-.365.883 1.321 1.321 0 0 0 .363 1.005q-.069.081-.134.165a1.547 1.547 0 0 1-.438-1.406m6.6-.656c.045-.052.1-.1.145-.15a1.537 1.537 0 0 1 .442 1.158 1.568 1.568 0 0 1-.442 1.051l-.152-.144a1.386 1.386 0 0 0 .267-1.45 4.229 4.229 0 0 0-.261-.465m-28.674.278a7.651 7.651 0 0 1 .806-.29c.036.089.075.177.111.266a2.972 2.972 0 0 0-.671.232c.124.209.169.476.369.633.156.119.362.069.543.068a1.087 1.087 0 0 0-.165-.363c.089-.059.175-.123.261-.187.107.208.26.441.175.683a.282.282 0 0 1-.272.22c-.238 0-.535.047-.681-.191-.138.223-.416.2-.643.191v.108a.85.85 0 0 1-.758.542.662.662 0 0 1-.659-.209 1 1 0 0 1-.048-.864c.085.025.17.053.254.08a.683.683 0 0 0 .029.553.464.464 0 0 0 .382.115.755.755 0 0 0 .521-.207 2.04 2.04 0 0 0-.54-.17c.037-.092.027-.224.1-.289.359-.016.72.006 1.08-.011.006-.3-.272-.517-.265-.817l.064-.094m1.626-.25h.281a8.994 8.994 0 0 0 .028 1.107l.071.06h.415a.791.791 0 0 0-.143-.375c.087-.06.173-.119.258-.182.117.227.277.5.149.752-.136.242-.448.123-.671.151-.239.041-.375-.22-.386-.423v-1.091m3.781 0h.3v.823a.891.891 0 0 0 .028.3c.1.072.229.034.343.044a.65.65 0 0 1-.009-.4.509.509 0 0 1 .451-.267 1.088 1.088 0 0 1 .5.177c-.045.073-.086.149-.127.225a.893.893 0 0 0-.437-.086 1.889 1.889 0 0 0-.122.179c.048.067.09.159.185.166.175.014.35 0 .526.006v.346h-1.323c-.214-.015-.307-.252-.318-.438v-1.073m1.862.15a2.549 2.549 0 0 0 .243-.15c.156.351.327.7.5 1.042a3.114 3.114 0 0 0 .078-1.021h.281v.716a.552.552 0 0 0 .138.434c.092 0 .186-.009.278-.021.036-.375.007-.753.017-1.129h.3v.856a.836.836 0 0 1 .6-.382.488.488 0 0 1 .377.592.479.479 0 0 1-.458.425h-1.094a.344.344 0 0 1-.306-.3.7.7 0 0 1-1 .157v-.2h.528c-.16-.339-.335-.671-.482-1.016m2.373.673c-.127.014-.21.116-.3.19-.043.053-.089.1-.134.155h.5a.276.276 0 0 0 .121-.257c-.058-.03-.108-.108-.181-.09m4.407-.823h.3v.951a.476.476 0 0 0 .054.207c.1.006.21.009.315.013.1-.147.054-.334.064-.5h.277c.01.171-.006.378.14.5h.367a.789.789 0 0 0-.149-.366 3.019 3.019 0 0 1 .265-.191c.119.235.278.527.121.782-.1.169-.323.112-.486.122a.368.368 0 0 1-.324-.173.256.256 0 0 1-.23.17c-.144 0-.288.007-.432 0-.158-.029-.224-.2-.258-.337a11.128 11.128 0 0 1-.026-1.171m3.642.246c.227-.087.459-.158.687-.243.039.085.078.17.119.255a5.451 5.451 0 0 0-.649.214 4.861 4.861 0 0 0 .24.491.441.441 0 0 0 .392.206.134.134 0 0 0 .145-.109c.01-.13 0-.26 0-.389h.281a.956.956 0 0 0 .041.411c.047.094.171.089.261.085.125-.119.041-.32.064-.474h.277c.031.151-.016.351.126.454l.126-.01a1.225 1.225 0 0 0 .033-.445 1.284 1.284 0 0 1 .261.013c.035.143 0 .319.121.429.054.015.142.04.18-.018a.811.811 0 0 0-.106-.375c.074-.047.147-.1.223-.141a.674.674 0 0 1 .069.781.383.383 0 0 1-.565-.056.357.357 0 0 1-.353.177c-.068-.053-.133-.108-.2-.166a.394.394 0 0 1-.637 0c-.065.16-.25.171-.4.159a.449.449 0 0 1-.371-.183c-.135.22-.4.187-.624.182a.6.6 0 0 1-.383-.189 1.1 1.1 0 0 1-.432.018.374.374 0 0 1-.305-.439.73.73 0 0 1 .41-.353l-.057-.146c.076-.055.155-.105.234-.156a5.471 5.471 0 0 0 .357.894 1.073 1.073 0 0 0 .554.027c-.025-.286-.274-.5-.255-.8.038-.039.071-.089.127-.1m-1.133.75a.889.889 0 0 0 .362.043c-.036-.089-.071-.177-.1-.266-.1.062-.217.1-.257.223m8.768-1h.281v.909a.282.282 0 0 0 .088.253c.09.009.181 0 .273.006l.073-.1v-.4h.277a.692.692 0 0 0 .138.5h.229a1.182 1.182 0 0 0 .046-.5h.277c.038.15-.009.334.1.456a.115.115 0 0 0 .2-.067c.009-.129 0-.259 0-.388h.279a.787.787 0 0 0 .089.448c.062.071.149.039.224.012a1 1 0 0 0-.119-.405l.234-.151a1.025 1.025 0 0 1 .18.556.4.4 0 0 1-.235.349.4.4 0 0 1-.462-.145.322.322 0 0 1-.3.181c-.12.007-.205-.09-.277-.171a.4.4 0 0 1-.664 0 .33.33 0 0 1-.21.167c-.16.008-.32 0-.48 0a.481.481 0 0 1-.245-.431v-1.082m-15.058.021h.28v1.489h-.282v-1.491m2.031 0h.259c-.01.492.02.987-.016 1.478 0 .018 0 .055-.006.073a.8.8 0 0 1-.2.366.63.63 0 0 1-.913-.072 1.017 1.017 0 0 1-.063-.918q.118.049.234.1a.7.7 0 0 0 .01.554.441.441 0 0 0 .523.081c.14-.049.159-.218.17-.345v-1.321m14.951 0h.28v.281h-.281v-.281m-7.428.061h.238v.281h-.238v-.28m-6.674.394c.1-.06.154-.227.278-.216l-.039.029c.147.188.3.374.44.566a.44.44 0 0 1-.087.623 1.37 1.37 0 0 1-.555.053c-.2.021-.328-.148-.451-.271.069-.067.137-.135.206-.2.15.215.434.1.653.129a.212.212 0 0 0-.045-.192c-.13-.175-.271-.341-.4-.516m-12.122-.2h.281v.3h-.281v-.3m14.41.022h.259v.281h-.259v-.281m.324 0h.259v.281h-.259v-.281m10.241 0h.259v.281h-.259v-.28m.324 0h.259v.281h-.259v-.281m.821.043h.259v.28h-.259v-.281m.3 0h.259v.281h-.259v-.28m-7.756.043h.238v.259h-.238v-.259m.281 0h.237v.259h-.238v-.259m-16.139.194h.259v.281h-.259v-.281m.324 0h.259v.281h-.259v-.281m.642.226a2.625 2.625 0 0 0 .254-.182c.118.232.3.5.149.76-.038.038-.076.076-.113.116a.645.645 0 0 1-.2.032h-1.389a.356.356 0 0 1-.349-.236 1.133 1.133 0 0 1-.035-.391h.3c0 .088.009.177.021.265.5.037 1 .007 1.5.016a.937.937 0 0 0-.143-.379m19.921.007c.085-.06.168-.123.249-.188a2.289 2.289 0 0 1 .214.512.391.391 0 0 1-.286.391c-.512 0-1.026.007-1.538 0-.277-.063-.3-.391-.277-.621h.276a.471.471 0 0 0 .069.284c.478-.007.957 0 1.435 0a.861.861 0 0 0-.142-.372m-3.444.2a.284.284 0 0 1 .307-.143.367.367 0 0 0-.216.334h.182v.324h-.324a1.228 1.228 0 0 1 .051-.518m-2.622.69h.281v.281h-.281v-.281m-16.333.022h.3v.3h-.3v-.3m12.552 0h.3v.3h-.3v-.3m9.031 0h.3v.324h-.3v-.324z" transform="translate(255.852 269.918)"/>
    </g>
</svg>
