<svg clip-rule="evenodd" fill-rule="evenodd" height="1108" image-rendering="optimizeQuality" shape-rendering="geometricPrecision" text-rendering="geometricPrecision" viewBox="0 0 1610 1134" width="1574" xmlns="http://www.w3.org/2000/svg"><path d="m347 239c-4-8-2-19 5-25 14-14 35-17 54-19 42-4 84-5 125 2 37 5 73 15 110 17 33 3 65 5 98 7 8 0 16 0 25 1 10 1 20-1 30 1 14 1 28 0 42 1h774c0-23 0-46 0-70 0-39-15-78-42-106-26-28-64-47-103-47-8-1-15-1-23-1-429 0-858 0-1287 0-8 0-15 1-23 1-37 5-72 24-96 52-25 28-37 66-37 103v829c2 46 25 92 63 119 25 19 57 29 88 29h1318c12-1 23-3 35-7 10-6 20-11 31-14 40-23 68-66 74-112 3-30 1-60 1-90-254 0-509 0-763 0-46 1-92 3-138 6-31 2-62 4-93 8-24 5-48 10-72 14-38 8-77 10-116 6-7 0-15-1-22-2-18-2-37-6-52-18-9-7-13-20-8-31 7-13 22-19 36-23 15-2 30-1 44-2 20 1 39-3 59 0 11 0 23 0 34 2l24 3c24 3 48 8 72 11 43 5 87 7 131 10 17 0 33 1 50 2 41 2 82 1 123 1h691c0-22 0-44 0-66-107 0-213 0-320 0-14 2-29 1-43 1-129 0-258 0-387 0-30 2-60 0-90 1-7 1-13 2-20 2-12 1-25 3-37 4-6 1-12 2-17 2-6 1-12 2-17 2-22 3-43 5-65 7-12 2-25 2-37 2-14 2-28 0-43 1-65 0-131 0-196 0-30-3-59 1-89-2-17 0-35-2-50-12-7-5-13-13-11-22 3-12 14-21 25-25 16-7 34-5 52-5 14-2 28 0 43-1 8-1 16-1 24-1h191c12 0 25-1 37 1 20 0 40 1 60 3 19 2 38 4 56 7l21 3c9 1 18 2 26 4 21 2 42 6 64 6h822c0-21 0-41 0-62-110 0-221 0-331 0-7 1-14 1-21 1h-296c-27 0-55-1-82 1-48 3-97 7-145 11-20 2-41 3-61 4-11 1-22 2-33 2-14 1-29 2-43 2-36 3-72 2-108 2-38-2-75-1-113-1-39 0-78 1-117-1-25 0-50 1-74-1-15 0-30-3-43-9-9-5-18-15-15-26 3-13 15-21 27-25 20-7 41-3 61-5 22 1 43-2 65-1h204c8 0 15 0 23 1 17 1 33-1 50 1 101 3 203 11 304 18 5 1 10 1 16 2 8 0 15 1 23 1h709v-59h-237c-30 0-59-1-89 1-121 0-242 0-363 0-18 1-37 3-55 5-9 1-17 2-26 2-19 2-38 3-57 4-59 4-117 8-176 10-17 2-34-1-51 2-21 0-42 0-63 0-51-3-103 1-154-2-30 0-60 1-89-1-20 0-39 0-59 0-14-2-28 0-42-2-14-1-29-4-41-12-6-4-11-10-10-18-1-11 8-20 17-25 14-9 31-9 47-9 11-2 21 0 32-1 22-2 45 1 67-2h281c6 0 11 0 17 1 19 1 37 0 56 1 14 2 28-1 42 2 17 0 33 1 50 2 20 1 41 2 61 4 8 0 16 1 24 2 14 1 28 3 41 4 7 1 13 1 20 2s13 1 20 2c9 1 19 2 28 3 6 1 12 2 19 2h694c0-21 0-41 0-62h-237c-21 0-42-1-63 1-119 0-238 0-357 0-12 1-24 3-36 4-7 1-13 1-20 2-8 1-16 1-24 2-12 1-24 3-37 3-61 5-123 8-184 10-15 2-30-1-45 2-39 0-78 0-118 0-39-2-78-1-118-1-33-3-67 1-100-2-20 0-39 0-59 0-21-2-41 1-62-2-16 0-32-1-47-8-8-4-17-10-18-19-2-11 5-22 15-28 18-11 40-10 60-10 17-2 34 0 51-1 7-1 14-1 21-1h352c32 2 64 0 96 1 14 2 29 0 43 1 12 2 24 0 36 2 26 1 52 3 78 5 7 0 15 1 22 2 13 1 26 3 39 4 6 1 12 1 17 2 12 1 24 4 36 4h657v-59h-207c-36 0-71-1-107 1-105 0-210 0-315 0-32 0-65-1-97 3-5 1-10 1-16 1-21 2-42 4-63 5-67 5-133 10-200 12-16 2-33-1-49 2-30 0-61 1-91-1-28 0-55 0-83 0-15 0-29 1-44-1-26 0-52 0-78 0-25-2-49 0-74-1-15-2-31 0-46-2s-31-5-42-17c-7-8-5-22 3-29 10-11 26-16 41-17 15 0 30-2 46-1 22-2 44 0 66-1 3-1 5-1 8-1h278c23 2 45 0 68 1 14 2 28-1 42 2 36 1 73 3 109 6 15 1 29 3 43 4 7 1 13 1 20 2s13 1 20 2 13 1 20 2c19 1 38 5 57 5h689v-62c-97 0-194 0-291 0-15 2-30 1-46 1-122 0-244 0-365 0-28 1-56 3-83 5-83 6-166 12-249 16-38 1-75 4-113 1-35 0-70 0-104 0-36 0-73 1-109-1-20 0-40 1-60-1-17 0-35-2-50-11-7-4-11-11-12-18 0-14 12-25 25-29 20-8 43-4 64-7h40c3-1 7-1 10-1h152c30 0 61-1 91 1 51-1 101 1 151 4 32 1 64 4 96 6 39 3 78 7 117 9 13 1 25 2 38 2h698v-64c-112 0-223 0-335 0-6 0-12 1-17 1-135 0-270 0-405 0-32 3-65-1-97 4l-6 1c-12 1-25 3-37 4-6 1-12 2-17 2-21 2-42 5-63 7-9 1-19 2-28 2-48 4-97 3-145 3-30-2-59-1-89-1-27 0-54 1-81-1-24 0-48 2-71-4-12-3-25-8-29-20-5-12 3-25 13-31 18-13 41-11 62-11 19-2 39 0 59-2h211c17 2 34-1 51 2 54 2 107 11 161 17 9 1 17 2 26 3 4 1 8 1 11 2h827v-65c-262 0-523 0-785 0-21 1-43 2-64 2-51 3-103 4-155 11-13 2-26 4-40 6h-6c-39 6-79 8-119 7-12-2-23 0-35-1-9-2-18 0-26-2-13-3-26-9-33-21z" fill="#3497fd"/></svg>