<svg xmlns="http://www.w3.org/2000/svg" viewBox="0 0 256 256" fill="#3497fd"><path d="M128 183H256v10a24 24 0 01-22 25H24A24 24 0 010 194V63A24 24 0 0124 38H233a24 24 0 0123 25V73H131c-19 0-32-1-46-4-4-1-30-2-30 6s27 5 31 4c12-2 32-4 45-4H256V86H125c-7 0-15-4-53-4-32 0-42 0-42 6s20 5 42 5c42 0 46-3 53-3H256v10H143c-14 0-23-4-71-4-35 0-52 0-52 6s17 5 52 5c33 0 54-3 71-3H256v9H144c-5 0-21-4-73-4-34 0-56-1-56 6s13 6 56 6c54 0 65-4 73-4H256v9H154c-11 0-15-3-81-3-48 0-59-2-59 6 0 6 11 5 59 5 64 0 72-4 81-4H256v10H147c-12 0-19-4-74-4-40 0-58-1-58 6s15 5 58 5c53 0 62-3 74-3H256v9H147c-8 0-51-4-74-4-39 0-53 0-53 6s10 6 53 6c46 0 58-4 74-4H256v9H124c-10 0-12-3-52-3-29 0-42-1-42 5s12 6 42 6c41 0 45-4 52-4H256v11H128c-29 0-36-5-55-5-5 0-18 0-18 6s13 6 18 6c17 0 27-5 55-5Z"/></svg>