<svg height="24" viewBox="0 0 24 24" width="24" xmlns="http://www.w3.org/2000/svg" xmlns:xlink="http://www.w3.org/1999/xlink"><clipPath id="a"><path d="m0 0h20v20h-20z"/></clipPath><path d="m0 0h24v24h-24z" fill="none"/><g clip-path="url(#a)" transform="translate(2 2)"><path d="m0 0h20v20h-20z" fill="none"/><path d="m4.247 17.513-.553-.332 8.534-4.981v-4.3l-3.06-1.783 4.812-2.89 3.1 1.847v9.95l-8.554 4.976zm-4.247-2.587v-9.951l8.558-4.975 4.279 2.488.553.331-8.535 4.981v4.3l3.061 1.779-4.816 2.894z" fill="#277eb5" transform="translate(1.667)"/><path d="m2.917 5.833a2.917 2.917 0 1 0 -2.917-2.916 2.922 2.922 0 0 0 2.917 2.916" fill="#dbaf2e" transform="translate(7.292 7.083)"/></g></svg>