<svg xmlns="http://www.w3.org/2000/svg" id="Component_127_1" width="24" height="24" viewBox="0 0 24 24">
    <defs>
        <clipPath id="clip-path">
            <path d="M0 0H20V20H0z" class="cls-1"/>
        </clipPath>
        <style>
            .cls-1{fill:none}
        </style>
    </defs>
    <path id="Rectangle_1286" d="M0 0H24V24H0z" class="cls-1"/>
    <g id="Bank_Tejarat_Color" clip-path="url(#clip-path)" transform="translate(2 2)">
        <path id="Boundary" d="M0 0H20V20H0z" class="cls-1"/>
        <path id="Shape" fill="#2e4a98" fill-rule="evenodd" d="M17.381-28H3.006v-2.261l.281-.33a10.056 10.056 0 0 1-1.911-2.348l3.717 2.129H5.5l-4.49-2.808q-.216-.441-.389-.906l5.34 3.714h.282L.4-35.177a9.932 9.932 0 0 1-.259-1.116l6.52 5.483h.3L.031-37.2Q0-37.6 0-38v-.176l7.239 7.366h.2l-7.4-8.136a9.965 9.965 0 0 1 .165-1.1l7.512 9.236H7.9L.412-40.846q.139-.469.322-.918L8.108-30.81h.174L1.1-42.562a10 10 0 0 1 .531-.911L8.48-30.81h.16l-1.758-3.633-.056-.028a1.109 1.109 0 0 1-.253-.176 1.018 1.018 0 0 1-.173-.233c-.062-.109-.109-.225-.163-.338l-.053-.1a.171.171 0 0 0-.035-.045c-.024-.02-.05-.037-.074-.057a.292.292 0 0 1-.063-.068.382.382 0 0 1-.029-.069.118.118 0 0 1-.044-.037.1.1 0 0 1-.018-.054.258.258 0 0 1 0-.033v-.012a.1.1 0 0 1 .008-.037c0-.026.008-.051.012-.077a.245.245 0 0 1 .023-.069.344.344 0 0 1 .162-.124l-1.078-2.232-.035-.011a.61.61 0 0 1-.3-.182.424.424 0 0 1-.047-.077.456.456 0 0 1-.033-.1.726.726 0 0 1-.013-.126v-.124a.009.009 0 0 0 0-.006l-.023-.028c-.035-.038-.071-.075-.1-.114a.666.666 0 0 1-.074-.1.367.367 0 0 1-.049-.19.345.345 0 0 1 .016-.087l.048-.132-2.28-4.691q.307-.388.651-.743l.65 1.532a.858.858 0 0 1 .013-.144.464.464 0 0 1 .293-.339.322.322 0 0 1 .176-.02.505.505 0 0 1 .119.044.772.772 0 0 1 .1.06L3.5-45.6q.354-.3.735-.573l.88 2.775.084-.075c.1-.091.188-.187.284-.279a1.029 1.029 0 0 1 .218-.169l-.735-2.722a9.971 9.971 0 0 1 .927-.478l.865 4.028.02-.02a.612.612 0 0 0 .063-.078.39.39 0 0 0 .04-.075.493.493 0 0 0 .024-.188c0-.075-.013-.15-.017-.225a.453.453 0 0 1 .025-.2.352.352 0 0 1 .237-.172l.057-.015c.03-.007.06-.012.09-.016H7.3l-.56-3.374q.433-.149.883-.26l.435 3.608.16-.006c.109 0 .219-.006.328-.008h.271l-.276-3.768q.48-.07.974-.094l.114 4.713a.25.25 0 0 1 .024.029.345.345 0 0 1 .042.091.979.979 0 0 1 .044.238c0 .035 0 .07.006.105 0 .056 0 .112.007.168 0 .035.006.07.009.105l.029.275q0 .033.005.067c.018-.008.035-.016.052-.026a1.346 1.346 0 0 0 .2-.147c.056-.049.112-.1.168-.147l.061-.05c.032-.024.065-.048.1-.069l.042-1.645.094-3.705q.482.024.951.093l-.373 5.09a2.972 2.972 0 0 1 .458-.015 1.207 1.207 0 0 1 .239.035l.594-4.932q.45.11.883.26l-.855 5.1.2-.011h.389c.03 0 .061 0 .091.01l1.023-4.764a9.981 9.981 0 0 1 .926.478l-1.269 4.7.03.014a1.44 1.44 0 0 1 .139.076.911.911 0 0 1 .326.335l.018.035 1.488-4.69q.381.269.736.573l-2.366 6.406a.333.333 0 0 1 .041.136.463.463 0 0 1-.006.093c0 .024-.005.048-.008.072 0 .052 0 .052-.007.1a6 6 0 0 0 .043.9l2.995-7.058q.343.355.651.743L14.7-37.716a.518.518 0 0 1 .234.183.422.422 0 0 1 .05.1.385.385 0 0 1 .021.12.373.373 0 0 1-.005.065l3.367-6.225a10.005 10.005 0 0 1 .531.911l-4.143 6.782c.03.024.061.046.093.068.073.048.149.091.223.138l.02.014 4.176-6.2q.183.449.322.918l-4.2 5.63a.662.662 0 0 1 .02.068 2.021 2.021 0 0 1 .031.289c.032.016.067.027.1.041l4.249-5.227a9.969 9.969 0 0 1 .165 1.1l-5.114 5.622V-33.12h.013l.083-.006H15.039L20-38.176V-38q0 .4-.031.8l-4.6 4.25-.006.036c0 .033 0 .108-.006.141 0 .067 0 .133-.007.2a.242.242 0 0 1-.017.084.091.091 0 0 1-.008.014l4.534-3.816-.013.071a9.91 9.91 0 0 1-.247 1.045l-5.842 4.365h.283l5.339-3.715-.022.058q-.164.434-.367.848L14.5-30.81h.411l3.717-2.129-.02.035a10.052 10.052 0 0 1-1.676 2.112l.453.531zm-14.125-.25h13.875v-1.761H3.256zm9.644-.55a.536.536 0 0 1-.071.22.8.8 0 0 1-.139.206.349.349 0 0 1-.124-.032.359.359 0 0 1-.112-.065 1.1 1.1 0 0 0 .217-.13.356.356 0 0 0 .133-.157.3.3 0 0 0-.124-.147l.093-.179a.365.365 0 0 1 .088.13.389.389 0 0 1 .039.154zm4 .245l-.108.1-.106-.106.11-.1zm-3.084-.009l-.108.1-.108-.106.11-.1zM5.18-29.623h.146V-29a.857.857 0 0 1-.016.188.273.273 0 0 1-.077.138.207.207 0 0 1-.147.052.19.19 0 0 1-.166-.078.417.417 0 0 1-.058-.24L5-28.963a.343.343 0 0 0 .018.12.077.077 0 0 0 .072.053.072.072 0 0 0 .069-.038.394.394 0 0 0 .02-.158zm.956.987h-.16l-.063-.224h-.29l-.06.224h-.155l.282-.987h.155zm-1.355-.82h-.392v.219h.364v.166h-.364v.269h.405v.166h-.551v-.987h.537zm1.58.82h-.147v-.987h.308a.4.4 0 0 1 .169.027.19.19 0 0 1 .084.095.365.365 0 0 1 .032.156.325.325 0 0 1-.048.183.213.213 0 0 1-.143.091.38.38 0 0 1 .078.083 1.178 1.178 0 0 1 .083.16l.089.193h-.175l-.106-.215a1.448 1.448 0 0 0-.077-.15.118.118 0 0 0-.044-.041.181.181 0 0 0-.074-.011h-.03zm1.238 0h-.16l-.063-.224h-.29l-.06.224h-.155l.282-.987h.155zm.527-.82h-.215v.82h-.147v-.82h-.215v-.167h.576zm.623.82H8.5v-.987h.29a.619.619 0 0 1 .128.01.164.164 0 0 1 .082.04.241.241 0 0 1 .056.082.288.288 0 0 1 .022.115.293.293 0 0 1-.027.127.2.2 0 0 1-.074.087.2.2 0 0 1 .1.09.3.3 0 0 1 .036.149.382.382 0 0 1-.023.131.26.26 0 0 1-.063.1.176.176 0 0 1-.1.047q-.038.007-.178.009zm1.138 0h-.16l-.063-.224h-.29l-.06.224h-.155l.282-.987H9.6zm.215 0h-.136v-.987h.142l.3.659v-.659h.136v.987h-.147l-.297-.644zm.742 0H10.7v-.987h.146v.438l.3-.438h.2l-.273.384.288.6h-.189l-.2-.463-.119.165zm-6.7-.82h-.21v.82h-.147v-.82h-.215v-.167h.576zm11.8.684H15.9a.227.227 0 0 1-.142-.052.629.629 0 0 1-.1-.1.636.636 0 0 0-.093-.1.308.308 0 0 1 0 .05.384.384 0 0 1-.007.073.309.309 0 0 1-.194.117 1.085 1.085 0 0 1-.233.02.848.848 0 0 1-.271-.028.167.167 0 0 1-.1-.173.465.465 0 0 1 .083-.249.034.034 0 0 1 .04.022.236.236 0 0 0-.039.123.107.107 0 0 0 .1.108 1.183 1.183 0 0 0 .226.013 1.575 1.575 0 0 0 .232-.012.264.264 0 0 0 .112-.044.584.584 0 0 0-.271-.218 1.512 1.512 0 0 1 .022-.229 2.013 2.013 0 0 1 .558-.222l-.081.173a1.8 1.8 0 0 0-.243.084 1.864 1.864 0 0 0-.172.077.975.975 0 0 1 .242.145 1.294 1.294 0 0 1 .126.116.889.889 0 0 0 .1.091.179.179 0 0 0 .107.037h.069q.146 0 .146-.044a.354.354 0 0 0-.076-.133l.1-.141a.351.351 0 0 1 .077.214.446.446 0 0 1-.064.194.257.257 0 0 1-.21.088zm.681 0h-.044a.16.16 0 0 1-.167-.106 1.327 1.327 0 0 1-.035-.321q0-.123-.01-.171a.587.587 0 0 0-.043-.165l.123-.129a.337.337 0 0 1 .038.151v.357a.468.468 0 0 0 .013.129.09.09 0 0 0 .091.072h.058q.146 0 .146-.044a.354.354 0 0 0-.076-.133l.1-.141a.351.351 0 0 1 .077.214.446.446 0 0 1-.064.194.257.257 0 0 1-.206.093zm-4.225-.317a.336.336 0 0 1-.038.114.323.323 0 0 1-.062.1.637.637 0 0 1-.185.059 1.54 1.54 0 0 1-.342.042.4.4 0 0 1-.29-.083.216.216 0 0 1-.05-.155.477.477 0 0 1 .08-.263h.007a.042.042 0 0 1 .041.023.421.421 0 0 0-.041.148q0 .149.32.149a1.2 1.2 0 0 0 .455-.069.56.56 0 0 0-.074-.134l.1-.138a.368.368 0 0 1 .056.111.333.333 0 0 1 .023.096zm.949.316h-.089a.16.16 0 0 1-.167-.106 1.325 1.325 0 0 1-.035-.321q0-.123-.01-.171a.585.585 0 0 0-.043-.165l.123-.129a.337.337 0 0 1 .038.151v.357a.468.468 0 0 0 .013.129.09.09 0 0 0 .091.072h.109a.605.605 0 0 0 .179-.022 1.5 1.5 0 0 0 .179-.081 1.819 1.819 0 0 0-.289-.1.063.063 0 0 0-.048.019.326.326 0 0 0-.044.07.049.049 0 0 1-.02 0 .033.033 0 0 1-.029-.018 1.655 1.655 0 0 1 .07-.164q.045-.085.087-.085a.876.876 0 0 1 .184.071.657.657 0 0 0 .229.071 1.467 1.467 0 0 0 .247-.032l-.071.163q-.088.009-.145.021a.156.156 0 0 0 .156.084h.142q.146 0 .146-.044a.354.354 0 0 0-.076-.133l.1-.141a.351.351 0 0 1 .077.214.445.445 0 0 1-.065.194.257.257 0 0 1-.212.095h-.056a.243.243 0 0 1-.181-.068.45.45 0 0 1-.093-.175q-.215.152-.256.175a.5.5 0 0 1-.238.07zm-4.586-.295h-.115v.264h.136a.489.489 0 0 0 .1-.006.088.088 0 0 0 .053-.039.151.151 0 0 0 .021-.084.164.164 0 0 0-.016-.075.1.1 0 0 0-.046-.045.371.371 0 0 0-.13-.014zm.851.04l-.1-.366-.1.366zm-3.751 0l-.1-.366-.1.366zm1.463 0l-.1-.366-.1.366zm-.855-.43H6.36v.25h.108a.417.417 0 0 0 .132-.012.087.087 0 0 0 .041-.042.164.164 0 0 0 .015-.074.147.147 0 0 0-.02-.08.085.085 0 0 0-.055-.039.9.9 0 0 0-.107-.001zm2.258 0h-.081v.228h.1a.948.948 0 0 0 .106 0 .088.088 0 0 0 .059-.035.127.127 0 0 0 .022-.077.135.135 0 0 0-.019-.074.077.077 0 0 0-.055-.035q-.025-.008-.129-.008zm3.174.091l-.1.094-.1-.1.1-.091zm.246-.013l-.1.093-.1-.1.1-.091zm4.079-.092l-.108.1-.106-.106.11-.1zm-1.675.005l-.093.093-.094-.083-.086.087-.1-.087.093-.095.094.084.086-.088zM8.962-30.81l-.521-1.411h-.012l-.037-.007a.118.118 0 0 1-.048-.023.105.105 0 0 1-.03-.115.118.118 0 0 1 .031-.044l.02-.017-.172-.465a.28.28 0 0 1-.053.027.426.426 0 0 1-.076.021l-.04.006a.409.409 0 0 1-.076 0l.861 2.03zm.146 0h.133l-.369-1.368c-.067 0-.135-.008-.2-.014zm.288 0h.133L9.3-32.168h-.2zm.265 0h.133l-.1-1.356H9.497zm.41 0l.035-1.37a.216.216 0 0 1-.157.013H9.9l.033 1.358zm.267 0l.227-1.88-.011.029a.42.42 0 0 1-.032.06.7.7 0 0 1-.165.161l-.033.023-.118 1.606zm.265 0l.508-2.365-.035.076-.03.058a.4.4 0 0 1-.221.21h-.016l-.338 2.017zm.155 0h.133l.58-1.828a.13.13 0 0 1-.025-.024.182.182 0 0 1-.03-.062.36.36 0 0 1-.006-.154c0-.012 0-.028.007-.04l.016-.081c.009-.056.015-.113.021-.169a2.059 2.059 0 0 0 .012-.212v-.045zm.279 0h.155l.673-1.587a.177.177 0 0 1-.034-.01.167.167 0 0 1-.1-.1.266.266 0 0 1-.01-.071v-.008h-.028zm.322 0h.16l.794-1.469a1 1 0 0 1-.161-.016.479.479 0 0 1-.067-.016zm.532 0l1-1.48h-.269l-.9 1.477zm.393 0l1.226-1.508h-.01l-.292.016L12.1-30.81zm.476 0l1.532-1.56-.174.011-.165.011-1.4 1.537zm.578 0l1.937-1.63a.267.267 0 0 1-.1.023h-.127c-.026 0-.051 0-.077-.005-.042 0-.084 0-.126.008l-.069.006-1.736 1.6zm-5.131-2.348H8.363a.814.814 0 0 1 .1.058.683.683 0 0 1 .156.134.438.438 0 0 1 .074.4.385.385 0 0 1-.057.122c.055.006.111.01.166.013h1.113a.488.488 0 0 1 .061 0h.008c0-.013.009-.026.014-.039a.194.194 0 0 1 .048-.064l.069-.05.059-.04.03-.02.029-.021.05-.04.017-.015.008-.008.008-.008.008-.008.005-.007a.244.244 0 0 0 .024-.053l.024-.067c.008-.022.008-.02.017-.039a.32.32 0 0 1 .049-.071.265.265 0 0 1 .141-.075H10.604c.046-.006.093 0 .139-.007a.05.05 0 0 0 .019-.006l.007-.006.007-.006.007-.007.006-.007.006-.007.006-.007.005-.008.005-.007.008-.012.006-.01.006-.01v-.007l.017-.031c.031-.062.059-.126.089-.189l.056-.1.064-.122c.013-.022.026-.043.04-.063a.614.614 0 0 1 .051-.063.524.524 0 0 1 .051-.047l.015-.011h.007l.008-.006.011-.007.015-.009a.266.266 0 0 1 .231-.052.177.177 0 0 1 .049.031.219.219 0 0 1 .039.045.293.293 0 0 1 .036.082.9.9 0 0 1 .022.167c0 .057.008.114.007.171s0 .1-.008.149v.214c-.006.046-.018.09-.025.136v.038c.031 0 .062 0 .093.006h.065a.27.27 0 0 1 .044.012.174.174 0 0 1 .108.108.255.255 0 0 1 .011.073h.047a.209.209 0 0 1 .116.041.313.313 0 0 1 .029.025.211.211 0 0 0 .028.027H12.173l.028.005a1.223 1.223 0 0 0 .227.01H12.87l.166-.005H13.392l.3-.019.226-.015.2-.013h.045l.2-.013.17-.015.171-.017H14.843l.125-.008h.06c.04 0 .079.007.119.008 0-.077.006-.154.009-.231v-.073H14.85l-.2.02-.082.006h-.133a.371.371 0 0 1-.113-.031c-.042-.019-.081-.043-.123-.061l-.035-.011H14.08l-.083-.007-.047-.008a.458.458 0 0 1-.074-.023.662.662 0 0 1-.073-.037l-.02-.012-.013-.008h-.016l-.008-.005-.013-.008-.032-.021-.017-.011-.011-.007h-.005l-.019-.012a.637.637 0 0 0-.059-.03h-.019a.622.622 0 0 0-.087-.018l-.1-.012c-.042 0-.084-.007-.126-.009H12.957l-.04.006-.11.016-.065.007a.961.961 0 0 1-.19 0 .359.359 0 0 1-.14-.043H12.399l-.012-.009-.007-.006h-.011l-.008-.007-.012-.011-.041-.036c-.055-.043-.115-.08-.171-.122l-.018-.014-.012-.01-.107-.09-.005-.005-.005-.006-.011-.012-.01-.012v-.006l-.005-.008-.064-.073V-33.689l-.006-.012-.006-.012v-.022c-.006-.016-.01-.032-.015-.049-.02-.077-.027-.157-.039-.236 0-.018-.007-.035-.012-.053a.2.2 0 0 0-.033-.07.129.129 0 0 0-.056-.038H11.691a.342.342 0 0 0-.052-.005h-.031a.543.543 0 0 0-.2.066l-.03.016c-.065.035-.127.074-.192.109a1.32 1.32 0 0 1-.128.058h-.063l-.02.007h-.188l-.034.008h-.036c-.092.019-.186.033-.278.045h-.026l-.093.011h-.163a.449.449 0 0 1-.178-.033.476.476 0 0 1-.115-.073h-.005l-.024-.022L9.8-34l-.008-.008-.006-.006-.016-.017-.008-.009-.015-.017-.047-.06-.015-.017-.009-.01-.016-.018-.041-.04-.009-.007h-.034a.973.973 0 0 0-.267-.077l-.041-.008H9.211l-.054-.011c-.035-.008-.07-.016-.1-.025l-.019-.006H9.003L9-34.4H8.982l-.014-.005h-.016l-.013-.005H8.926a1.153 1.153 0 0 1-.17-.092 1.962 1.962 0 0 1-.183-.139l-.013-.011h-.005l-.014-.012h-.005l-.032-.028-.01-.009-.044-.038-.046-.039-.038-.031-.014-.011-.024-.02-.045-.037-.034-.028-.02-.017L8.168-35h-.007l-.012-.01-.012-.01h-.006l-.008-.007-.012-.01-.011-.009-.016-.013c-.069-.059-.137-.12-.2-.185a.959.959 0 0 1-.11-.123.848.848 0 0 1-.115-.256 2 2 0 0 1-.07-.377c0-.043 0-.086-.007-.128a.509.509 0 0 0-.008-.053.1.1 0 0 0-.022-.048.038.038 0 0 0-.015-.008.153.153 0 0 0-.053 0l-.08.014H7.353a.317.317 0 0 1-.059-.006.619.619 0 0 1-.077-.024.351.351 0 0 1-.172-.11.617.617 0 0 1-.057-.117v-.005a.141.141 0 0 0-.034-.01h-.043l-.008.006-.008.006-.022.02c-.031.031-.059.065-.089.1s-.088.084-.129.129l-.028.034-.041.061-.007.011-.007.012-.012.019-.006.01v.006l-.007.011v.007l-.005.008-.008.011-.036.046a.369.369 0 0 1-.053.052.548.548 0 0 1-.1.058l-.053.024h-.01l-.026.012-.03.015a.29.29 0 0 0-.036.023l-.006.005c0 .014-.006.029-.008.043v.015a.4.4 0 0 1 .02.04c.011.026.019.054.03.08a.165.165 0 0 0 .026.024c.023.017.046.033.068.051l.027.025a.406.406 0 0 1 .027.032l.039.063c.061.11.11.227.165.341.016.032.033.063.051.094a.83.83 0 0 0 .125.163l.01.009.01.009a1.024 1.024 0 0 0 .259.16l.036.016h.011l.021.009.052.023.062.026.057.024.072.032.08.04a.9.9 0 0 1 .119.073 1.127 1.127 0 0 1 .2.213l.031.041.006.008v.011l.005.008v.006l.005.008.012.019.008.012.006.01.011.018.006.011.007.013v.008l.006.011v.009l.006.013a.815.815 0 0 1 .057.171v.152c.006.069.009.139.01.208s.006.125.008.188v.139a.3.3 0 0 0 .005.043.208.208 0 0 0 .106-.008h.011a.191.191 0 0 1 .01-.021.14.14 0 0 1 .025-.032l.007-.006H8.2zm.281.392l.028.088a.219.219 0 0 0-.028-.088zM6.422-42.7a.409.409 0 0 0-.092-.025h-.305l-.053.007h-.018l.019-.157V-43.081c0-.047.006-.094.008-.141v-.1-.093-.088a.594.594 0 0 0-.039-.191.11.11 0 0 0-.069-.07.128.128 0 0 0-.031 0h-.023l-.011.006-.01.005-.008.005-.011.007-.013.009a1.3 1.3 0 0 0-.119.1c-.083.08-.164.163-.246.243l-.118.109c-.04.036-.068.058-.1.084s-.056.041-.085.06-.043.027-.065.039a.685.685 0 0 1-.225.081H4.723a.266.266 0 0 1-.061-.007.284.284 0 0 1-.093-.041.653.653 0 0 1-.157-.165l-.019-.027v-.006c-.042-.06-.082-.122-.124-.181-.023-.032-.047-.063-.072-.093a.746.746 0 0 0-.205-.177.533.533 0 0 0-.062.013.116.116 0 0 0-.03-.01.138.138 0 0 0-.063.011.268.268 0 0 0-.11.077.234.234 0 0 0-.048.092.377.377 0 0 0-.009.062v.116a2.458 2.458 0 0 0 .038.376c.016.094.036.188.06.281v.008l.01.037v.005l.01.036v.005l.009.03v.009l.011.035a1.879 1.879 0 0 0 .082.213l.011.023v.007l.008.015.009.018.011.019.006.011.017.026.008.012.007.01.007.01.007.009.013.016.012.127v.06l.006.06a1.352 1.352 0 0 0 .114.465.743.743 0 0 0 .064.1c.032.043.065.086.1.128l.043.052.009.011.022.027.045.055.022.027.009.011.023.028.015.018.042.051q.06.076.118.153c.026.035.051.071.075.107a.466.466 0 0 1 .062.113.566.566 0 0 1 .023.156 1.323 1.323 0 0 1-.009.186v.027a3.406 3.406 0 0 1-.137.594q-.027.087-.058.173a.935.935 0 0 0-.035.1.168.168 0 0 0 0 .018.243.243 0 0 0 .073.15c.04.045.083.088.123.134a.31.31 0 0 1 .037.055.28.28 0 0 1 .022.106V-38.682a.29.29 0 0 0 .017.07.2.2 0 0 0 .055.077.273.273 0 0 0 .028.022l.011.007.011.007.011.006.01.005.012.006.015.006.015.006h.007l.016.006h.006l.02.007.06.019c.091.026.183.049.274.075l.031.009.028.009H5.588l.054.023a1.18 1.18 0 0 1 .16.087.957.957 0 0 1 .083.061.371.371 0 0 1 .06.057.439.439 0 0 1 .07.263v.346a.241.241 0 0 0 .067.172.428.428 0 0 0 .06.034l.02.016a.346.346 0 0 1 .076.134.97.97 0 0 1 .038.155 2.626 2.626 0 0 1 .032.368V-36.31l.053.037.024-.039.025-.039.01-.013.01-.013.008-.01.012-.015c.05-.056.106-.105.158-.16l.065-.072a.649.649 0 0 1 .065-.059.367.367 0 0 1 .047-.031h.194a.337.337 0 0 1 .075.019.222.222 0 0 1 .072.04.268.268 0 0 1 .063.1.474.474 0 0 0 .024.056.078.078 0 0 0 .017.013.332.332 0 0 0 .057.025l.022.008H7.362c.037 0 .073-.013.11-.018h.051a.289.289 0 0 1 .075.01.241.241 0 0 1 .047.019.245.245 0 0 1 .047.033.333.333 0 0 1 .1.212c.005.051.005.1.009.154a1.794 1.794 0 0 0 .062.346.582.582 0 0 0 .1.2l.037.039.033.033.029.028.029.028.012.011.018.016.012.011.017.016.013.011.017.015.012.011.018.016.012.01.019.016.01.009.018.015.025.021.042.035.011.009.181.149c.066.057.132.115.2.171a1.8 1.8 0 0 0 .16.118l.021.013.022.013.022.012.011.006.011.006.011.006.011.005.003.04.011.005h.048l.02.007.02.006H9.21l.188.036.083.02.055.017h.009l.016.006.016.006.015.006h.011l.013.006h.022l.012.006.013.007.011.006h.014l.009.006.011.008.009.007.008.006.014.011.007.007.006.006.005.005.005.005.006.007.008.008.008.008.006.007.014.015.01.011c.032.036.064.074.1.109l.041.038a.271.271 0 0 0 .078.047.268.268 0 0 0 .087.013h.138l.092-.011h.068c.088-.012.177-.027.264-.047l.03-.007H10.765l.018-.005.018-.005.018-.005.019-.006.019-.006H10.901l.018-.007.018-.008h.018l.045.032.018-.009c.081-.042.158-.091.239-.134a1.027 1.027 0 0 1 .133-.057H11.708l.03.009a.354.354 0 0 1 .141.084.329.329 0 0 1 .053.07.432.432 0 0 1 .04.1V-33.918c0 .02.009.039.014.058v.07l.005.009.005.009.006.009.006.009.006.009.006.009.007.008.007.008.008.008a.558.558 0 0 0 .066.059c.053.039.108.075.162.114l.015.012.015.012.007.006.033.029.015.012.014.012.015.011a.169.169 0 0 0 .034.02.23.23 0 0 0 .044.008h.092a3.192 3.192 0 0 0 .325-.039l.067-.006h.312l.064.006a.888.888 0 0 1 .223.045l.013.006.017.008h.012l.01.005h.006l.01.005h.031l.008.005h.007l.015.009.016.01.009.006.031.021.032.021.015.01.016.01.015.008.016.008.028.014a.287.287 0 0 0 .067.016l.14.013a.593.593 0 0 1 .078.017h.019l.013.005c.044.018.085.044.128.064l.029.011h.091c.042 0 .084 0 .125-.009a2.193 2.193 0 0 1 .038-.577v-.076l.026-.1a.885.885 0 0 1 .056-.151 1.281 1.281 0 0 1 .209-.28l.077-.084.033-.037.018-.012a.194.194 0 0 1 .119 0c.045.01.09.025.135.035a.252.252 0 0 0 .049.006h.006a.07.07 0 0 0 .031-.009.127.127 0 0 0 .038-.038.184.184 0 0 0 .032-.117.1.1 0 0 0-.018-.051.082.082 0 0 0-.025-.019c-.025-.013-.051-.023-.077-.033l-.053-.022a.558.558 0 0 1 .064.013.16.16 0 0 1-.043-.039.2.2 0 0 1-.027-.087c-.006-.052-.008-.1-.012-.156v-.053a.513.513 0 0 0-.04-.152V-35.224l-.006-.008v-.005l-.011-.012-.071-.051-.012-.011-.007-.006-.009-.007-.007-.006-.009-.007-.007-.006-.008-.006-.008-.006-.008-.006-.038-.027-.035-.023c-.068-.042-.136-.082-.2-.125-.035-.024-.07-.048-.1-.075l-.007-.006-.007-.006-.015-.014-.012-.012-.006-.006-.006-.007-.014-.015a.769.769 0 0 1-.113-.17l-.008-.018-.007-.017-.007-.017V-35.999a1.458 1.458 0 0 1 .016-.518l.02-.113c0-.013.006-.025.009-.038a.571.571 0 0 1 .12-.193c.055-.062.116-.119.173-.18l.034-.038a.25.25 0 0 0 .074-.216.215.215 0 0 0-.022-.052.237.237 0 0 0-.044-.054.352.352 0 0 0-.087-.057l-.015-.007-.012-.005h-.677q-.038-.254-.06-.51c-.015-.175-.025-.35-.025-.526V-38.794c0-.027.005-.054.009-.08s0-.029 0-.043a.17.17 0 0 0 0-.025.291.291 0 0 0-.145-.153l-.037-.023-.073-.047-.033-.024-.011-.009-.008-.008-.01-.011a.145.145 0 0 1-.02-.039.176.176 0 0 1 0-.1.723.723 0 0 1 .118-.222c.021-.03.044-.059.066-.088l.072-.089c.041-.05.082-.1.121-.151l.067-.091a.813.813 0 0 0 .122-.242 1.322 1.322 0 0 0 .04-.285V-40.942l-.009-.045-.017-.069a.833.833 0 0 0-.108-.261.769.769 0 0 0-.251-.224c-.029-.017-.058-.032-.088-.046a.45.45 0 0 0-.05-.021.471.471 0 0 0-.078-.017c-.067-.009-.134-.012-.2-.02a.217.217 0 0 1-.137-.05.208.208 0 0 1-.036-.07l-.036-.123a.192.192 0 0 0-.045-.079H13.096a1.29 1.29 0 0 0-.14-.009c-.149 0-.3 0-.448.015l-.071.005-.078.006h-.029l-.027-.043c-.018-.026-.037-.051-.056-.075a1.217 1.217 0 0 0-.249-.232.776.776 0 0 0-.128-.074h-.037a.739.739 0 0 0-.111-.025 1.507 1.507 0 0 0-.233-.015 3.437 3.437 0 0 0-.348.021h-.015L11-42.586l-.063.007-.175.022-.072.008-.045.01a.817.817 0 0 0-.272.158c-.085.069-.165.144-.249.214l-.056.045a.846.846 0 0 1-.237.132H9.8a1.035 1.035 0 0 1-.021.181l-.009.076c-.005.037-.01.075-.017.112s-.009.05-.016.074a.658.658 0 0 1-.019.065.333.333 0 0 1-.044.086l-.007.006-.008.006h-.038a.173.173 0 0 1-.041.014h-.041a.078.078 0 0 1-.049-.017.192.192 0 0 1-.042-.05l-.016.037a.885.885 0 0 1-.129.04 1.582 1.582 0 0 1-.319.034H8.564c-.065 0-.1-.007-.154-.013l-.11-.02h-.088a.471.471 0 0 1-.2-.038l-.027-.014-.067-.005h-.225a.277.277 0 0 1-.082-.022.277.277 0 0 1-.063-.043.771.771 0 0 1-.075-.077c-.052-.06-.1-.123-.154-.183l-.048-.05a.308.308 0 0 0-.179-.1h-.01l-.047-.009H6.92a.485.485 0 0 1-.055 0 .284.284 0 0 1-.086-.023.211.211 0 0 1-.09-.077l-.138-.042c-.024-.057-.053-.112-.077-.169a.72.72 0 0 1-.025-.069 1.086 1.086 0 0 1-.028-.143.7.7 0 0 1 .001-.277zm.939 8.479l.364.857v-.054c0-.045 0-.089-.005-.134s-.005-.071-.01-.107a.749.749 0 0 0-.048-.191.912.912 0 0 0-.135-.209.762.762 0 0 0-.162-.162zm-.242-6.234A1.626 1.626 0 0 1 8.146-39.1a.446.446 0 0 1 .254.1 1.774 1.774 0 0 0-.116.309h-.32a2.088 2.088 0 0 0 0 .929h.323a1.776 1.776 0 0 0 .174.419l-.228.228a2.088 2.088 0 0 0 .657.657l.228-.228a1.774 1.774 0 0 0 .419.173v.323a2.089 2.089 0 0 0 .929 0v-.323a1.774 1.774 0 0 0 .419-.173l.514.514a2.471 2.471 0 0 1-1.4.43 2.485 2.485 0 0 1-2.484-2.484c0-.19.017-.387.026-.6a.965.965 0 0 0-.218-.655 4.131 4.131 0 0 0-.586-.484zM12.881-36a1.626 1.626 0 0 1-1.026-1.352.446.446 0 0 1-.257-.1 1.774 1.774 0 0 0 .116-.309h.323a2.088 2.088 0 0 0 0-.929h-.323a1.776 1.776 0 0 0-.174-.419l.228-.228a2.088 2.088 0 0 0-.657-.663l-.228.228a1.775 1.775 0 0 0-.419-.174v-.323a2.088 2.088 0 0 0-.929 0v.323a1.775 1.775 0 0 0-.419.174l-.516-.51a2.471 2.471 0 0 1 1.4-.43 2.485 2.485 0 0 1 2.484 2.484c0 .19-.017.387-.026.6a.965.965 0 0 0 .218.655 4.131 4.131 0 0 0 .586.484zm1.971-.967c-.054.06-.113.115-.167.173-.015.017-.03.033-.044.051a.3.3 0 0 0-.049.085.827.827 0 0 0-.017.087c0 .026-.007.044-.011.069l-.013.092zm-4.514-2.963a1.734 1.734 0 0 0-.677 0l.008.264a1.476 1.476 0 0 0-.453.187l-.181-.193a1.735 1.735 0 0 0-.479.479l.193.181a1.475 1.475 0 0 0-.188.453l-.261-.008a1.736 1.736 0 0 0 0 .677l.264-.008a1.475 1.475 0 0 0 .188.453l-.193.181a1.735 1.735 0 0 0 .479.479l.181-.193a1.475 1.475 0 0 0 .453.187l-.008.264a1.736 1.736 0 0 0 .677 0l-.008-.264a1.475 1.475 0 0 0 .453-.187l.181.193a1.735 1.735 0 0 0 .479-.479l-.193-.181a1.475 1.475 0 0 0 .188-.453l.264.008a1.736 1.736 0 0 0 0-.677l-.264.008a1.475 1.475 0 0 0-.187-.453l.193-.181a1.735 1.735 0 0 0-.479-.479l-.181.193a1.476 1.476 0 0 0-.453-.187zm-.414.756v-.157h.15v.156a.43.43 0 0 0 .249-.155.367.367 0 0 1-.249.315v.322a.681.681 0 0 0 .444-.251.565.565 0 0 1-.444.506v.292a.821.821 0 0 0 .546-.283.644.644 0 0 1-.546.568v.353a1.012 1.012 0 0 0 .7-.363.8.8 0 0 1-.773.732.789.789 0 0 1-.77-.734.987.987 0 0 0 .695.365v-.353a.636.636 0 0 1-.546-.57.8.8 0 0 0 .546.284v-.292a.558.558 0 0 1-.444-.508.664.664 0 0 0 .444.253v-.321a.362.362 0 0 1-.249-.317.419.419 0 0 0 .248.158zm-4.146 1.225l.056.132a.424.424 0 0 0-.006-.053.137.137 0 0 0-.017-.05.155.155 0 0 0-.033-.029zm1.933-3.672h.241c.15.013.3.042.445.064l.118.014H8.98a1.468 1.468 0 0 0 .251-.023.671.671 0 0 0 .149-.047.372.372 0 0 0 .137-.1.313.313 0 0 0 .054-.116.827.827 0 0 0 .023-.2v-.11c0-.037-.005-.077-.009-.115-.011-.116-.026-.232-.036-.349-.007-.092-.008-.183-.013-.275 0-.031 0-.061-.008-.092a.693.693 0 0 0-.027-.127.128.128 0 0 0-.018-.042.14.14 0 0 0-.023-.017l-.029-.016c-.049-.024-.1-.046-.147-.071a.656.656 0 0 1-.169-.123.759.759 0 0 1-.108-.159 1.173 1.173 0 0 1-.088-.2 1.522 1.522 0 0 1-.047-.192v-.014h-.789l-.209.009h-.381c-.051 0-.1 0-.154.01H7.21a.342.342 0 0 0-.079.033.074.074 0 0 0-.025.019.077.077 0 0 0-.007.026.517.517 0 0 0 0 .106v.008c0 .026 0 .053.007.079s.005.061.007.092v.026a.68.68 0 0 1-.044.29.634.634 0 0 1-.07.122.91.91 0 0 1-.106.119h-.005l-.01.009-.006.006h-.005l-.006.005-.006.005H6.85l-.007.006-.021.018-.1.085a.334.334 0 0 0-.08.1.349.349 0 0 0-.011.164c0 .032.008.064.014.1a.589.589 0 0 0 .018.078.865.865 0 0 0 .041.1l.008.018.415.125H7.1h.04l.038.008a.488.488 0 0 1 .084.032.764.764 0 0 1 .226.189l.01.012.01.012.01.012.01.011.008.01.033.04.017.021.015.018.01.011.01.012.01.011.009.01.043.043a.057.057 0 0 0 .017.012zm1.8-6.368Q9.756-48 10-48t.508.013z" transform="translate(0 48)"/>
    </g>
</svg>
