<svg fill="none" height="48" viewBox="0 0 48 48" width="48" xmlns="http://www.w3.org/2000/svg"><path clip-rule="evenodd" d="m41.7143 48h-34.501v-5.426l.6752-.7919c-1.7985-1.6307-3.3488-3.5302-4.5874-5.6347l8.9217 5.1087h.9858l-10.7843-6.7395c-.3453-.7064-.6569-1.4322-.9327-2.1754l12.8145 8.9149h.678l-14.0129-10.4816c-.2568-.8731-.4653-1.7668-.6223-2.6777l15.6373 13.1593h.7085l-16.6192-15.342c-.0501-.6314-.0755-1.2698-.0755-1.9141 0-.1415.0012-.2828.0038-.4236l17.3703 17.6797h.4919l-17.7598-19.5255c.0839-.8932.2169-1.7723.3962-2.6343l18.0151 22.1598h.4489l-17.9786-24.0872c.2227-.7504.4812-1.4854.7735-2.2033l17.6987 26.2905h.4187l-17.2372-28.2059c.3871-.7529.8129-1.4828 1.2748-2.1871l16.4366 30.393h.3833l-4.2202-8.7199c-.0451-.0216-.0898-.0438-.1344-.0665-.219-.1166-.4282-.2496-.6076-.4226-.1694-.1633-.3079-.3552-.4236-.5595-.148-.2611-.261-.5404-.3914-.8103-.0407-.0798-.0819-.1585-.1266-.236-.0256-.0427-.0475-.075-.0846-.1076-.0582-.0471-.1202-.089-.1786-.1358-.0558-.0482-.1119-.0997-.1501-.1637-.0311-.0521-.0502-.1089-.0705-.1659l-.0014-.0004c-.0421-.0239-.077-.0473-.1046-.0883-.0259-.0384-.0407-.0838-.0425-.1301-.0015-.0395.0055-.0387.0073-.078.0004-.01-.0025-.0199-.002-.0299.002-.0441.006-.0475.019-.0889.0086-.0619.0184-.1234.0298-.1849.0126-.0585.0265-.1128.0554-.1654.0825-.1501.2414-.2413.3931-.313l-2.5873-5.3458c-.0213-.0066-.0412-.013-.0837-.0267-.2635-.0911-.5414-.2084-.7161-.4371-.0441-.0578-.0822-.1184-.1132-.1842-.0368-.078-.0627-.1607-.0802-.245-.0207-.0998-.0282-.2014-.0312-.3031-.003-.0987.0033-.1988-.0093-.2971-.0013-.0078-.0005-.0077-.005-.0142-.0174-.0234-.0359-.0447-.055-.0671-.0833-.0916-.1695-.1803-.2518-.2729-.0659-.0782-.1285-.1589-.1785-.2485-.0777-.1394-.1232-.2957-.118-.456.0024-.0718.0173-.1409.0377-.2094.0376-.1057.0772-.2106.1149-.3162l-5.4462-11.2532c.4914-.6202 1.0127-1.2156 1.5619-1.784l1.5602 3.6767c.0026-.1155.0091-.2334.0312-.3466.0724-.3723.3506-.6828.7039-.8141.131-.0487.2829-.0779.4217-.0477.1002.0218.1936.0608.2852.1067.0837.042.1636.0906.2397.1445l-1.5818-4.2829c.5662-.4849 1.1552-.9438 1.7652-1.375l2.1128 6.6609c.0683-.0587.1345-.1196.2007-.1807.2309-.2195.4523-.4484.6817-.6695.1585-.1479.3271-.305.5228-.4065l-1.764-6.5337c.7183-.4196 1.4603-.8029 2.2236-1.1475l2.0761 9.6661c.0165-.0161.0328-.0323.0491-.0488.0551-.0593.1075-.1204.1522-.188.0375-.0567.0709-.1169.0952-.1805.0548-.1436.0605-.2981.0573-.4501-.0083-.1808-.0305-.3604-.0418-.541-.0068-.1623-.0066-.332.0596-.4837.099-.2271.3433-.3449.5685-.4121.0451-.0135.0911-.0251.1371-.0353.0716-.0159.144-.0281.2167-.0378l.0174-.0023-1.3562-8.0936c.693-.2392 1.4002-.4475 2.1201-.6232l1.0439 8.6596c.1297-.0056.2047-.0081.3836-.0146.2626-.008.5252-.0152.7879-.0188.1829-.0026.3682.0015.5509-.0046.0332-.0023.0663-.005.0994-.0079l-.6632-9.0428c.7679-.1125 1.5476-.1885 2.3373-.2262l.2746 11.3119c.021.0214.0406.0445.0587.0696.0463.0645.0751.143.1004.2174.0626.184.0898.3783.1052.5713.0067.0839.0111.168.0142.2521.0051.1341.0084.2683.0156.4024.006.0843.0134.1684.0216.2526.0237.2201.0492.4399.0704.6603.0046.0533.0089.1065.0128.1598l.005-.0019c.0426-.0186.0836-.0394.1241-.0621.169-.0994.3202-.225.4681-.353.135-.1169.2679-.2362.4042-.3516.0731-.0602.0728-.0599.1472-.1189.0768-.0581.1551-.1144.2358-.1663l.3266-12.8409c.7706.0387 1.5316.1137 2.2814.2235l-.8959 12.216c.3648-.0345.7321-.0578 1.0984-.0358.1919.0115.3864.0349.5732.0848l1.4268-11.8359c.72.1758 1.4273.3841 2.1201.6232l-2.0523 12.2474c.1584-.0106.3169-.0196.4754-.0274.1437-.0057.2055-.0089.3496-.0118.1944-.0039.3896-.0046.5837.0092.0725.0052.1463.0116.2191.0236l2.4557-11.4339c.7632.3446 1.5052.7279 2.2236 1.1475l-3.0455 11.2802c.0243.0106.0484.0219.0724.0334.1142.0545.2248.1154.3324.1821.3204.1985.6023.4713.7817.8048.015.0279.0292.0561.0427.0847l3.5703-11.2557c.61.4312 1.199.8902 1.7652 1.375l-5.6785 15.3754c.055.1005.09.2112.0982.3272.0053.0758-.0044.1482-.0141.2231-.0074.0572-.0132.1146-.0188.172-.0099.1252-.0098.1247-.0171.2499-.0286.7201.0237 1.4388.1028 2.1542l7.1876-16.9384c.5491.5683 1.0705 1.1637 1.5619 1.784l-7.5343 15.5677c.2227.0946.4224.2337.5609.4387.0502.0744.0906.1553.1195.2403.0314.0925.0489.1893.0499.287.0006.0526-.0036.1051-.0122.1568l8.0797-14.9403c.4618.7042.8876 1.4341 1.2748 2.1871l-9.9474 16.2774c.071.0578.1459.1109.2221.162.1757.1142.3576.2183.5343.3309.0163.0108.0327.0217.0489.0327l10.0223-14.8876c.2923.7178.5507 1.4529.7735 2.2033l-10.0846 13.511c.0189.0535.0347.1082.0478.1636.0539.228.0541.4611.0748.6934.0775.0374.1598.0652.2392.0982l.0107.0049 10.1975-12.5437c.1793.8621.3123 1.7412.3962 2.6343l-12.273 13.4932c-.0018.0413-.003.0826-.0037.1238-.0019.1182.0005.2363.0083.3539l.0316-.0031c.0991-.0079.0987-.0078.1981-.0138.1014-.0038.101-.0046.2021-.0047.0154 0 .0309.0005.0464.001l11.8926-12.1045.0017.1057c.0014.1058.0021.2118.0021.3179 0 .6443-.0254 1.2827-.0755 1.9141l-11.0496 10.2004c-.0043.0297-.0093.0588-.0136.0868-.0094.0791-.0112.2591-.0142.3375-.0061.16-.0113.3199-.0172.4799-.005.0717-.0132.1351-.0418.2009-.0053.0123-.0116.0238-.0188.0346l10.8818-9.1574-.0301.1706c-.1531.8521-.3514 1.6886-.5922 2.5071l-14.0129 10.4816h.678l12.8145-8.9149-.0522.1391c-.2627.6947-.5568 1.3741-.8805 2.0363l-10.7843 6.7395h.9858l8.9217-5.1087-.0491.0829c-1.1094 1.8679-2.4649 3.5727-4.0218 5.0695l1.0863 1.2742zm-.6-4.826h-33.301v4.226h33.301zm-10.1536 2.9021c0 .129-.0565.3053-.1694.5289-.1086.2151-.2198.3796-.3338.4935-.0742 0-.1736-.0258-.2984-.0774-.1247-.0516-.2139-.1037-.2677-.1564.1946-.0893.3683-.193.5209-.3113.1796-.1387.286-.2639.3194-.3757-.0484-.1344-.1479-.2522-.2984-.3532l.2226-.4306c.0795.0688.1502.1731.212.3128.0619.1398.0928.2629.0928.3694zm9.5913.5886-.2597.2451-.2548-.2548.2645-.2419zm-7.4013-.0226-.2596.2452-.2548-.2549.2645-.2419zm-20.7185-2.5383h.3502v1.4994c0 .196-.0127.3468-.038.4523-.034.1379-.0957.2486-.1852.3321-.0894.0834-.2073.1252-.3537.1252-.1717 0-.3039-.0654-.3965-.1963s-.1392-.3229-.14-.576l.3311-.0517c.004.1357.0186.2316.044.2876.038.0851.0957.1276.1733.1276.0783 0 .1337-.0304.1662-.0913.0324-.0608.0486-.1871.0486-.3788zm2.2934 2.3686h-.3823l-.1519-.538h-.6956l-.1436.538h-.3728l.6778-2.3686h.3716zm-3.2525-1.9679h-.9389v.5251h.8736v.3991h-.8736v.6446h.9721v.3991h-1.3235v-2.3686h1.2903zm3.7914 1.9679h-.3514v-2.3686h.7395c.186 0 .3211.0213.4054.0638.0843.0426.1518.1182.2024.227s.076.2332.076.3733c0 .1777-.0384.3244-.1152.4402-.0767.1158-.1915.1888-.3442.219.076.0603.1387.1265.1881.1987.0495.0721.1162.2003.2.3845l.2125.4621h-.4202l-.254-.5154c-.0902-.1842-.1519-.3003-.1852-.3482-.0332-.0479-.0684-.0808-.1056-.0985-.0372-.0178-.0962-.0267-.1769-.0267h-.0712zm2.9723 0h-.3822l-.152-.538h-.6956l-.1436.538h-.3727l.6778-2.3686h.3715zm1.2642-1.9679h-.5152v1.9679h-.3513v-1.9679h-.5164v-.4007h1.3829zm1.4956 1.9679h-.5923v-2.3686h.6956c.1377 0 .2404.0078.308.0234.0677.0157.1282.0482.1817.0978.0534.0495.0979.1155.1335.1979s.0534.1748.0534.2771c0 .1109-.0219.2127-.0659.3054-.0439.0926-.1034.1621-.1786.2084.106.042.1875.1136.2445.2149.057.1012.0855.2202.0855.357 0 .1077-.0184.2125-.0552.3143s-.0871.1831-.1508.2439c-.0637.0609-.1422.0983-.2356.1123-.0585.0087-.1998.014-.4238.0162zm2.7314 0h-.3822l-.152-.538h-.6956l-.1436.538h-.3727l.6778-2.3686h.3715zm.5164 0h-.3265v-2.3686h.3419l.7122 1.5818v-1.5818h.3264v2.3686h-.3525l-.7015-1.5446zm1.7817 0h-.3514v-2.3686h.3514v1.0518l.7098-1.0518h.4725l-.6553.9226.6909 1.446h-.4547l-.4783-1.1116-.2849.3958zm-16.07-1.9679h-.5152v1.9679h-.3513v-1.9679h-.5164v-.4007h1.3829zm28.3106 1.6425h-.1048c-.1193 0-.2327-.0419-.3403-.1258-.0591-.0462-.1354-.1295-.229-.2499-.0935-.1205-.1682-.2027-.2241-.2468.0064.0387.0096.079.0096.121 0 .0548-.0059.1128-.0177.1741-.0957.1377-.251.2312-.4661.2806-.1354.0312-.3214.0468-.558.0468-.3214 0-.5381-.0226-.6499-.0677-.1634-.0656-.2451-.2043-.2451-.4161 0-.1903.0661-.3892.1983-.5967.0506-.0043.0828.0134.0968.0532-.0624.1022-.0935.2005-.0935.2951 0 .1355.0768.2221.2306.2597.0871.0215.2682.0322.5435.0322.2537 0 .4392-.0096.5563-.029.1054-.0172.1952-.0521.2694-.1048-.1247-.2086-.3419-.3833-.6516-.5241.0065-.2183.0237-.4016.0516-.55.4656-.2623.9123-.4397 1.3402-.5322l-.1935.4161c-.1505.0366-.3451.1038-.5838.2016-.1903.0774-.3279.1392-.4129.1855.1688.0634.3623.1795.5806.3483.0817.0634.1822.1564.3016.279.1075.1107.186.1838.2354.2193.0817.0592.1672.0887.2565.0887h.1645c.2333 0 .3499-.0349.3499-.1048 0-.0484-.0607-.1548-.1822-.3193l.2483-.3387c.1226.1634.1839.3344.1839.5129-.0376.2279-.0893.3827-.1548.4644-.1215.1516-.2914.2274-.5097.2274zm1.6353 0h-.1048c-.2053 0-.3392-.0849-.4016-.2548-.0419-.115-.0698-.3715-.0838-.7693-.0065-.1967-.0145-.3333-.0242-.4096-.0183-.1484-.0527-.2801-.1032-.3951l.2951-.3097c.0495.0785.0801.1995.0919.3629.0043.0591.0065.1844.0065.3758v.4757c0 .1419.0102.2452.0306.3097.0366.115.1097.1725.2194.1725h.1387c.2333 0 .3499-.0349.3499-.1048 0-.0484-.0607-.1548-.1822-.3193l.2483-.3387c.1226.1634.1839.3344.1839.5129-.0376.2279-.0893.3827-.1548.4644-.1215.1516-.2914.2274-.5097.2274zm-10.1331-.7596c0 .0506-.0307.1414-.092.2726-.0612.1311-.1112.2123-.1499.2435-.0473.0376-.1952.0849-.4435.1419-.2957.0677-.5693.1016-.8209.1016-.3376 0-.5698-.0661-.6967-.1984-.0806-.0838-.121-.208-.121-.3725 0-.2236.064-.4343.192-.6322.0053-.001.0112-.0016.0177-.0016.0473 0 .0801.0183.0984.0548-.0656.1549-.0984.2731-.0984.3548 0 .2377.2559.3565.7676.3565.4645 0 .8284-.0554 1.0919-.1662-.0452-.1171-.1043-.2247-.1774-.3225l.2451-.3322c.0494.0613.0941.15.1338.2661.0355.1032.0533.1811.0533.2338zm2.2771.7596h-.2209c-.2054 0-.3392-.0849-.4016-.2548-.0419-.115-.0699-.3715-.0838-.7693-.0065-.1967-.0146-.3333-.0242-.4096-.0183-.1484-.0527-.2801-.1033-.3951l.2952-.3097c.0494.0785.0801.1995.0919.3629.0043.0591.0065.1844.0065.3758v.4757c0 .1419.0102.2452.0306.3097.0365.115.1097.1725.2193.1725h.2613c.1752 0 .3188-.0177.4306-.0532.0763-.0236.2198-.0882.4306-.1935-.4097-.1613-.6408-.2419-.6935-.2419-.0473 0-.0855.015-.1145.0451-.0258.0258-.0613.0817-.1064.1678-.0172.0075-.0328.0112-.0468.0112-.029 0-.0521-.0145-.0694-.0435.0732-.1903.1291-.3215.1678-.3935.072-.1355.1414-.2032.208-.2032.043 0 .1906.0564.4427.1693s.4357.1694.5507.1694c.1269 0 .3247-.0258.5935-.0774l-.1709.3902c-.1409.0151-.257.0323-.3484.0516.0645.1344.1893.2016.3742.2016h.3419c.2333 0 .3499-.0349.3499-.1048 0-.0484-.0607-.1548-.1822-.3193l.2484-.3387c.1225.1634.1838.3344.1838.5129-.0376.2279-.0892.3827-.1548.4644-.1215.1516-.2914.2274-.5096.2274h-.1339c-.1817 0-.3263-.0543-.4338-.1629-.086-.0871-.1607-.2268-.2242-.4193-.344.243-.5488.3828-.6144.4193-.1946.1086-.3914.1629-.5903.1629zm-11.0066-.707h-.2837v.6333h.3252c.1266 0 .207-.0048.241-.0145.0522-.0129.0948-.0445.1276-.0945.0328-.0501.0493-.1172.0493-.2012 0-.0711-.0127-.1314-.038-.1809-.0254-.0496-.062-.0857-.1098-.1083-.0479-.0226-.1517-.0339-.3116-.0339zm2.0417.0953-.2398-.8789-.235.8789zm-9.0025 0-.2397-.8789-.2351.8789zm3.5113 0-.2398-.8789-.235.8789zm-2.0512-1.0308h-.2742v.601h.2599c.1686 0 .2738-.0097.3158-.029.0419-.0194.0748-.0528.0985-.1002.0238-.0474.0356-.1067.0356-.1777 0-.0798-.0156-.1441-.0469-.1931-.0312-.049-.0753-.08-.1323-.0929-.0285-.0054-.114-.0081-.2564-.0081zm5.4188-.0065h-.2018v.5478h.2303c.1369 0 .2219-.0027.2552-.0081.0601-.0097.1074-.038.1418-.0848.0344-.0469.0517-.1086.0517-.185 0-.0733-.0149-.1328-.0446-.1786-.0296-.0458-.0738-.0735-.1323-.0832-.0348-.0054-.1349-.0081-.3003-.0081zm7.618.2185-.2387.2258-.2339-.2371.2435-.2177zm.5902-.0306-.2387.2242-.2338-.2355.2451-.2193zm9.7897-.221-.2597.2452-.2548-.2548.2645-.2419zm-4.0194.013-.2225.2225-.2258-.1984-.2064.2081-.2371-.2081.2225-.2274.2258.2016.2064-.2112zm-13.4267-3.2218-1.251-3.3873-.0289-.0048-.0897-.0169c-.0437-.0122-.0812-.0257-.1163-.0558-.0787-.0673-.1078-.1796-.0718-.2767.016-.0433.0422-.0733.0744-.1053l.0479-.0398-.412-1.1157c-.0397.0263-.0826.0475-.1281.0652-.0593.023-.121.0396-.1835.0512-.0322.006-.0642.0104-.0968.0135-.0585.0056-.1206.0065-.1824.0008l2.0672 4.8716zm.3515 0h.3184l-.8862-3.2823c-.1617-.0079-.323-.0188-.4841-.034zm.6908 0h.3184l-.5464-3.2604-.1468-.001-.3264-.0032zm.6354 0h.3184l-.2386-3.2534-.0529.0004c-.1398-.0017-.2797-.003-.4195-.004zm.9845 0 .0837-3.2884c-.1169.0742-.2473.0528-.3776.0321-.0288-.0031-.058-.0019-.0871-.0022l-.0333-.0002.0791 3.2587zm.6415 0 .5438-4.5109c-.0087.0235-.0176.047-.0271.0702-.0228.0502-.0466.0994-.0772.1452-.1028.1536-.2498.2767-.396.3867-.0262.0188-.0527.0372-.0793.0554l-.2826 3.8534zm.6354 0 1.2191-5.6759c-.0281.0609-.0562.1219-.0852.1826-.0356.071-.0355.0707-.0727.1404-.1228.2124-.2781.4389-.5293.504-.013.0033-.026.0062-.0392.0085l-.8111 4.8404zm.3724 0h.3184l1.3917-4.3875c-.0223-.0164-.0426-.0351-.06-.057-.0345-.0432-.0564-.0964-.072-.1489-.0355-.12-.032-.2468-.0142-.3695.0043-.0291.011-.0674.0167-.0963.013-.0651.0274-.1299.0392-.1952.0204-.1348.0355-.2705.0499-.4061.0164-.1692.0288-.3387.0277-.5089-.0003-.0362-.001-.0724-.0024-.1086zm.6699 0h.371l1.6164-3.8093c-.0275-.0051-.0545-.0123-.081-.0229-.1119-.0445-.1975-.137-.2336-.252-.0175-.0558-.0218-.1135-.0237-.1716l-.0005-.0182c-.0224-.003-.0449-.0055-.0674-.0074zm.7731 0h.3833l1.9066-3.5255c-.1293-.0037-.2583-.0143-.3858-.0389-.0536-.0103-.1081-.0213-.16-.0393zm1.2762 0 2.3916-3.5526c-.2149.0033-.4298.0036-.6446.0089l-2.1657 3.5437zm.9425 0 2.9415-3.6182-.0173.0011c-.2339.0139-.4678.0271-.7018.0381l-2.6713 3.579zm1.1434 0 3.6779-3.7434c-.139.009-.2781.0174-.4171.0268l-.3968.0271-3.3559 3.6895zm1.3879 0 4.6496-3.9128c-.0718.0356-.1587.0493-.2327.0546-.018.0013-.0361.0021-.0543.0025-.0346.0009-.0705.0002-.1051-.0012-.0503-.002-.0945-.0056-.146-.0096-.0615-.0049-.1226-.0109-.1843-.0125-.101.0018-.202.0108-.3027.0182-.0555.0046-.1109.0093-.1663.0143l-4.1667 3.8465zm-12.3168-5.6353c.0061-.0006.0122-.0011.0184-.0015.041.0005.0407.0004.0818.0038.0117.0017.0234.0036.035.0058l.0033.0006c.011.0022.022.0045.0329.007l.0048.0011c.0106.0025.0212.0052.0316.008l.0118.0033.0115.0035.0154.0045.0119.0039.0103.0036.0132.0044.0147.0053.0203.0078.0175.007.0171.0072.0201.0088.0141.0064.0227.0108c.0824.0398.1614.088.2375.1391.1365.0915.2711.1928.3746.3217.2169.27.2733.6262.1783.9561-.0305.1056-.0721.2048-.137.2938l-.0011.0013c.1327.0137.2655.0241.3983.0321l.018.0011.1159.0063.0323.0015.1203.0052.1427.0049.1455.0038.1082.0024c.1336.0016.2672.0027.4009.0037l.4942.0035c.1608.0011.3215.0025.4822.0045l.1427-.0012.2575-.0034.0102-.0001c.0567-.0006.1134-.001.1701-.0008.0737.0016.0734-.0014.1464.0063l.0182.0029c.0101-.0323.0214-.0633.0343-.0946.0296-.0593.065-.11.1158-.1531.0541-.0411.1089-.081.1646-.1201l.1428-.0964.0711-.0487.0705-.0495c.0413-.0311.0814-.063.1208-.0965l.0404-.0372.0199-.0188.0198-.0195.0193-.02.0086-.0095.0099-.0112.0083-.01.0091-.0113.0127-.0168.0075-.0109c.0259-.0388.0425-.0842.0582-.1278.0194-.0538.0381-.1077.0585-.1612.0197-.0473.0196-.0469.0415-.0933.0336-.0615.0695-.1196.1184-.1703.0921-.0955.2109-.1539.3392-.1792l.0223-.0041c.0084-.0015.017-.0028.0256-.0039.1109-.0148.2234-.0012.334-.0159.0156-.0027.0315-.0055.045-.014l.0169-.0136.0165-.0147.0054-.0051.0156-.0156.0147-.0161.0142-.0169.0139-.0176.0048-.0063.0131-.0182.012-.0176.019-.0297.0138-.0231.014-.0241.0094-.0167c.014-.0251.0273-.0503.0403-.0746.0749-.1494.1412-.3029.2147-.4529.0429-.0823.091-.1615.1343-.2435.0517-.0978.1013-.1966.1547-.2935.0304-.0517.0615-.1025.0954-.152.038-.0526.0778-.1034.1224-.1506.0384-.0406.0794-.0786.1228-.1137l.0208-.0161.0145-.0113.016-.0118.0202-.0144.0109-.0075.0261-.0175.0027-.0017c.0116-.0076.0233-.015.0351-.0222.1627-.1.3626-.1994.5543-.1238.0431.0171.0835.045.1183.0752l.001.0009c.036.0313.0672.0679.0934.1077.0398.0605.0675.1284.0869.1979.0367.1309.0425.2672.0539.4018.0116.137.0183.2736.0165.4112-.0016.1191-.0083.238-.0183.3567l-.0003.0041-.0004.0038c-.0022.0264-.0046.0528-.0071.0791-.0032.0323-.0065.0647-.01.097l-.0035.0306-.0052.0468-.0029.0239-.0017.0148-.0026.0201-.0032.0268-.0055.0432-.0023.0189-.0144.1088c-.0146.1095-.0433.2164-.0609.3254-.004.0303-.0069.06-.008.0906l.0001.0052c.0744.0069.1494.0084.2239.0133l.0386.0036.0271.0029.0328.0041.0172.0025.0154.0024.0228.0041c.0357.0067.0707.0157.1049.0283.1219.0448.2182.1357.2591.2601.0186.0567.0236.1156.0253.1749l.0474-.0009.0093-.0001.0236-.0001.033.0005c.1029.0075.1953.0343.2782.0972.0244.0186.047.0394.0689.0608.0217.0213.0425.0467.0681.0638l.0155.0048.0156.0042.0311.0071c.0223.0045.0449.0082.067.0122.1805.0281.363.0302.5457.0244l.0415-.0013.0622-.0025.2527-.0118.065-.0026c.0211-.0007.0424-.0014.0635-.0019l.0015-.0001c.192-.0019.384-.003.5761-.0061.1328-.0034.2655-.0075.3982-.0124l.1468-.0056.0443-.0018.1867-.008.0184-.0009.1724-.0082.0386-.0019.2209-.0116c.241-.0143.4819-.0296.7229-.0454l.542-.036.5785-.0392.4711-.0315c.1364-.0102.2726-.0225.4087-.0356.1368-.013.2735-.0268.4102-.0398l.0467-.0045.0589-.0054.0393-.0038.0461-.0041.0144-.0013c.0433-.0038.0866-.0076.1299-.0111.1003-.0073.2005-.0137.3009-.019l.0268-.0002h.009l.0179.0003.018.0004.0356.0014.0359.002c.0951.0058.19.0163.2853.0189h.0038c.0031-.1844.0141-.3691.0212-.5534l.0077-.176c-.0472.0029-.0943.0065-.1416.009l-.0472.0021c-.0343-.0002-.0685-.0007-.1027-.0012l-.0513-.0004c-.0171-.0001-.0343-.0001-.0514 0l-.0502.0022-.0485.0026-.0978.0065-.0478.0039-.0555.0046-.0525.0049c-.1593.015-.3183.0337-.4778.0491-.098.0082-.0976.0082-.1959.0146-.0836.0035-.1669.006-.2506.0053l-.0252-.0007-.0147-.0003-.0032-.0002c-.0089-.0002-.0188-.0007-.0369-.0018-.0951-.0098-.1845-.0363-.2717-.075-.1006-.0446-.1942-.1033-.2951-.1475-.0277-.0108-.0541-.0186-.0831-.026l-.025-.0047-.0251-.0042-.0098-.0015-.0154-.0022-.0099-.0013-.0151-.002-.0189-.0022-.0321-.0035-.0512-.0047c-.0666-.0057-.1333-.0101-.1996-.0175-.0567-.0081-.0562-.0081-.1122-.0184-.0607-.0143-.12-.0301-.1776-.0544-.061-.0257-.1194-.0559-.1763-.0887l-.004-.0023c-.0159-.0091-.0317-.0185-.0475-.0281l-.0018-.0011-.0319-.0197-.0129-.0081-.0048-.003-.0061-.0039-.0121-.0077-.0136-.0089-.0188-.012-.0306-.0202-.0081-.0052-.0091-.006-.0025-.0017-.0765-.0505-.0414-.027-.0253-.0164-.0128-.0081-.0461-.0288c-.0463-.0264-.0928-.0515-.1417-.073l-.0219-.0085-.0057-.0021-.0116-.004-.0231-.0075-.0085-.0027c-.0675-.0202-.1365-.0318-.2076-.0425-.0787-.0118-.1578-.0212-.237-.0287-.1002-.0096-.2011-.017-.3023-.0213l-.0081-.0003-.057-.0019-.0129-.0004-.0453-.0009-.0155-.0002-.0467-.0003-.0118-.0001-.0582.0006-.0093.0002-.0477.0011-.0189.0007-.0388.0016-.0204.001-.0575.0035-.0569.0045-.0653.0064-.0193.0022-.0486.0058-.0181.0022-.0637.0086-.0969.0142c-.0877.0132-.1751.027-.2628.0385-.0782.009-.0779.0089-.1566.0163-.1525.0105-.3046.0137-.4565-.006-.1197-.0156-.23-.0426-.335-.104l-.0173-.0104-.0044-.0028-.0025-.0015-.0035-.0022-.0066-.0042-.0047-.0032-.009-.0058-.0155-.0108-.0041-.0027-.0015-.0011c-.0096-.0068-.0192-.0138-.0287-.021l-.0021-.0016-.0048-.0037-.0117-.0089-.011-.0088-.0042-.0032-.0027-.0023-.0042-.0033-.0072-.006-.0169-.0138-.0137-.0117-.0056-.0046-.0054-.0047-.0059-.005-.0122-.0107-.0192-.0166-.0291-.0257c-.0328-.0289-.0655-.0578-.099-.0855-.1328-.1033-.2759-.1926-.4111-.2927-.0146-.0114-.0291-.023-.0434-.0347l-.0118-.0096-.0111-.0092-.0027-.0022c-.0098-.0081-.0194-.0163-.0291-.0246l-.0056-.0049-.021-.0185-.0029-.0027-.0029-.0026-.0204-.0187-.0059-.0055-.0049-.0046-.0059-.0057-.009-.0086-.009-.009-.0064-.0063-.0041-.0042-.0056-.0057-.0198-.0207-.0021-.0022c-.009-.0096-.0178-.0195-.0266-.0295-.0084-.0097-.0167-.0195-.0249-.0294l-.0022-.0026-.0055-.0069-.0112-.0138-.0054-.0071-.004-.0049-.0045-.0061-.007-.0091-.0084-.0115-.0051-.0068-.0029-.004-.0038-.0053-.0174-.0249-.001-.0014c-.0071-.0106-.0142-.0213-.0211-.032l-.0009-.0014-.0042-.0068-.0119-.019-.0033-.0055-.0026-.0042-.0044-.0077-.0072-.012-.0054-.0097-.004-.0068-.0031-.0058-.0042-.0074-.008-.0151-.0045-.0084-.0017-.0032-.0018-.0035-.014-.0277-.0014-.0028-.0013-.0028-.0133-.0281-.0015-.0034-.0016-.0035-.0041-.0095-.0066-.0148-.0031-.0074-.0029-.0066-.0032-.0081-.004-.0095-.0045-.0117-.0038-.0095-.0021-.0055-.002-.0052-.0064-.0176-.004-.0109-.0008-.0025-.0004-.0011c-.0134-.0382-.0252-.0772-.0354-.1165-.0483-.1858-.0638-.3778-.0945-.5669-.008-.0429-.0169-.0851-.0276-.1274-.018-.0592-.0383-.1185-.0783-.1669-.0356-.0431-.0837-.0712-.1355-.0902l-.0239-.0081-.0018-.0005-.0233-.0066-.0042-.0011-.0226-.0053-.0305-.0061c-.0413-.0074-.0831-.0118-.1249-.0128l-.0251-.0001c-.0168.0001-.0335.0009-.0503.0022-.1705.0134-.3293.0823-.48.1586l-.0708.038c-.155.0847-.3058.1769-.4608.2614-.1.052-.2026.098-.3071.1389l-.0012.0005-.0028.0011-.0134.0051-.0252.0097-.0071.0026-.0074.0028-.0127.0046-.0157.0058-.0136.0048-.0114.0042-.0089.0031-.0091.0032-.0221.0075-.0136.0047-.0043.0015c-.0158.0053-.0317.0105-.0475.0156l-.0022.0007-.0125.0039-.0281.0089-.0067.002-.0069.0022-.0134.004-.0168.0051-.0129.0038-.0114.0034-.0099.0028-.0097.0028-.0204.0057-.0147.0042-.0055.0015-.0035.001-.0379.0102-.0081.0022-.0165.0042-.026.0068-.0049.0012-.0077.002-.017.0042-.0149.0037-.0055.0013c-.0276.0067-.0552.0132-.0828.0194l-.001.0003-.0023.0005-.043.0095-.0443.0094-.0116.0025c-.2212.0458-.4453.0793-.6678.1077-.021.0027-.042.0054-.0629.008-.0746.0093-.1492.0182-.2239.0271-.0332.0039-.0667.0078-.1003.0114l-.0023.0002-.0163.0017-.0266.0027-.0041.0003-.0047.0005-.0168.0015-.0233.002-.0055.0005-.0062.0005-.0166.0011-.0208.0016-.0069.0003-.0077.0006-.016.0007-.0184.001-.0083.0003-.0093.0004-.0152.0004-.0163.0005-.0096.0001-.0109.0002-.0142-.0001-.0143.0001c-.1463-.0008-.2909-.0212-.4275-.0803-.1027-.0445-.1934-.1047-.2768-.1741l-.0041-.0034-.012-.0101-.0125-.0109-.0039-.0033-.0023-.0021c-.0196-.0173-.0388-.035-.0577-.0532l-.0028-.0027-.0041-.004-.0096-.0093-.0131-.013-.0094-.0094-.0063-.0065-.0182-.0185-.0138-.0146-.0058-.006-.0042-.0045c-.0126-.0134-.0251-.0269-.0375-.0404l-.0016-.0017-.0057-.0064-.0193-.0212-.008-.009-.0097-.0107-.0361-.0409-.0035-.0039-.0016-.0019-.001-.0011-.0646-.0736-.035-.0396-.0207-.0233-.0099-.011-.0384-.0421c-.0321-.0329-.065-.0647-.0994-.0953l-.0215-.0174-.0074-.0056-.0145-.011-.0093-.0066-.013-.0093-.0105-.007-.0122-.0082-.0117-.0073-.0114-.0072-.0129-.0077-.0105-.0061-.0145-.0081-.0092-.0051-.0165-.0086c-.197-.102-.4249-.1445-.6409-.1855l-.1444-.0274-.0144-.0028c-.0433-.0082-.0865-.0166-.1298-.0253-.0837-.0182-.1668-.0374-.2495-.0598-.0149-.0043-.0297-.0087-.0444-.0133l-.0035-.0011-.0106-.0034-.021-.0067-.009-.003-.0068-.0022-.0096-.0033-.014-.0047-.0139-.005-.0096-.0033-.0068-.0025-.0087-.0031-.0199-.0074-.0112-.0041-.0038-.0015-.0038-.0014-.0333-.013-.0053-.0021-.0071-.0029-.031-.0127-.0032-.0014-.0045-.0019-.0302-.013c-.1413-.0618-.2767-.1361-.407-.2214-.1541-.101-.299-.2144-.4401-.3326l-.0038-.0031-.0074-.0062-.0319-.0269-.0125-.0106-.0035-.003-.0062-.0052-.0455-.039-.0023-.0019-.083-.0719-.0246-.0214-.0046-.0039-.0009-.0008-.1048-.0913-.1092-.0942-.0901-.075-.0325-.0269-.0572-.0471-.1899-.1558-.0482-.0397-.1082-.0889-.0168-.014-.0118-.0097-.0588-.0489-.0135-.0113-.0198-.0164-.0277-.0234-.0261-.0219-.0378-.0319c-.1653-.1428-.328-.2884-.4825-.4429-.0932-.0931-.1876-.1865-.2637-.2945-.13-.1849-.2145-.399-.2763-.6152-.0818-.286-.1258-.5827-.153-.8786-.0094-.1025-.0094-.2056-.0165-.3082-.0043-.0431-.0092-.0857-.018-.128-.0098-.04-.0212-.0844-.0518-.114-.0112-.0092-.0229-.015-.0368-.0185-.0423-.0079-.0866-.0001-.1283.0071-.0642.0109-.1278.0243-.1922.0344-.0236.0026-.0469.005-.0701.0066l-.0047.0004-.011.0007-.0064.0004-.0027.0001c-.0094.0006-.0188.001-.0283.0012-.0478-.0007-.095-.0036-.1421-.0132-.0623-.0128-.1243-.0365-.1837-.0571-.1559-.0541-.3105-.1291-.4124-.2638-.0634-.084-.0924-.1875-.1362-.2818l-.0063-.0124c-.0266-.0108-.0538-.0198-.0824-.0236l-.0116-.0011-.003-.0002-.0106-.0002-.0111.0005-.0149.0016-.0147.0031-.0044.0011-.0108.0032-.0037.0012-.0137.0053-.0031.0014-.0105.0049-.0045.0023-.0097.0053-.0037.002-.0119.0074-.0191.0132-.0027.002-.0183.0141c-.0187.0151-.0365.0313-.0537.0469-.0749.0747-.1423.1559-.2146.233-.1026.1039-.2106.2027-.3102.3096-.0233.0262-.0457.0527-.0673.0804-.0344.0478-.0663.0972-.0976.1471l-.0158.0255-.0176.0283-.0286.0463-.0148.0237-.0087.014-.0031.0049-.0046.0073-.017.0264-.0109.0171-.0025.0037-.0015.0023-.0023.0034-.012.0181-.0186.0273c-.0275.0378-.0557.0745-.0854.1106-.0395.0449-.0789.0886-.1267.1249-.076.0578-.1634.0996-.2498.1394-.0419.0193-.0841.038-.1261.0571l-.025.0113-.0623.029-.0052.0024c-.0238.0114-.0475.023-.071.0351-.0299.0167-.0588.034-.086.0549-.0075.0064-.0074.0061-.0144.013-.0075.0346-.0134.0693-.0192.1043l-.0055.0369c.0184.0307.0337.0623.0486.0948.0262.0633.0452.1295.0722.1924.0178.0219.0404.0395.0623.057.0541.041.1095.0801.1623.1228.0338.0297.0335.0295.0659.061.034.0373.0337.0371.0651.0767.0333.0496.0634.1006.0932.1524.1469.2651.2637.5446.3951.8174.0389.0764.0783.1518.1212.226.0854.1414.1819.275.2991.391l.0237.0228.0066.0063.0235.0215c.1821.1629.4.2827.6209.3841l.0856.0386.0267.0118.0501.022.125.0541.1476.0631.0045.002c.0454.0194.0908.039.1361.0588l.0045.002c.0577.0252.1151.0508.1722.0772.0647.0309.1288.0627.1925.0956.0981.053.1966.1064.2856.1741.188.1431.3466.3258.49.5123.0249.0323.0495.065.0736.0982l.0143.0195.0089.0126.0107.0149.0128.0184.0101.0143.0127.0186c.01.0148.0199.0297.0297.0447l.0186.0289.0151.0241c.009.0146.0178.0292.0264.0439l.0155.0267.0178.0321.0109.0203.0134.0258.011.022c.0049.01.0097.02.0145.0302.0611.1307.1048.2689.1357.4097.0036.0166.007.0331.0103.0497l.0077.0409.0029.016.0049.0294.0039.0242.0032.0214.0046.0322.0072.057.0056.0507.0042.0432c.0154.1658.0204.3325.025.4987.0041.1505.0136.3005.019.4508.004.1115-.0009.223.0043.3345.0027.0349.0048.0701.0125.1043.0814.0227.177.0033.2555-.0185.0132-.0043.0127-.0042.0256-.0089l.0073-.0029c.0067-.0171.0142-.0338.0229-.05.0177-.0278.035-.0553.0603-.0773.0056-.0049.0112-.0095.017-.0139l.0141-.0106.0144-.0098.0157-.0097.016-.0088.0163-.008.0166-.0073.0169-.0065.0171-.0058.0175-.005.0177-.0045.0231-.0048.017-.0028.0173-.0024zm.6745.94.0668.2105c-.0073-.0739-.0294-.1454-.0668-.2105zm-4.9583-23.8353c-.0708-.0298-.1481-.0471-.2209-.059l-.0495-.0073-.0162-.002-.0338-.0039-.0189-.0019-.0315-.0028-.0195-.0015-.0318-.002-.0187-.001-.0352-.0013-.0152-.0005-.0497-.0007h-.0127l-.0374.0003-.0206.0004-.0295.0009-.023.0008-.0269.0013-.0244.0013-.0509.0033-.0201.0016c-.04.0032-.0799.007-.1197.0114l-.0462.0053c-.0424.0051-.0847.0107-.1266.0167l-.0427.0068c.0165-.1251.0312-.2503.0452-.3758l.0077-.0788.0078-.0826.0096-.1056.0062-.0724.0034-.0409.009-.1154c.0072-.1129.014-.2257.0181-.3388.0027-.076.0046-.1529.0051-.2289.0005-.074-.0002-.1493-.0025-.2233-.0026-.0823-.0056-.129-.0118-.2107-.0119-.1536-.0323-.3169-.0947-.4592-.0328-.0746-.0821-.1466-.1647-.1671-.0258-.0038-.0483-.0042-.0742-.002l-.0174.0036-.0056.0013-.0115.0029-.0066.0019-.0103.003-.0068.0022-.01.0034-.0067.0024-.01.0038-.0063.0025-.0106.0044-.0055.0024-.0143.0066-.0015.0007-.0267.0136-.0034.0019-.0228.013-.0197.0121-.0102.0064-.0264.0176-.0026.0018-.0302.0216c-.1012.0739-.193.1594-.2845.2448-.1994.1921-.3927.3903-.5912.5834-.0932.0886-.1871.1761-.2837.2611-.0801.0705-.1629.1382-.2479.2027-.0665.0505-.1347.0989-.2048.1443-.0513.0332-.1035.0648-.157.0943-.1681.0926-.3495.1658-.5401.1949-.0365.0056-.0733.0096-.11.0114l-.0368.0009c-.0489.0001-.0978-.0044-.1461-.0156-.0802-.0186-.1554-.0537-.2237-.0993-.1527-.1018-.271-.2497-.3778-.3965l-.0463-.0647-.0048-.0068-.0026-.0037-.0096-.0139c-.1008-.1439-.1962-.2918-.2973-.4355-.0556-.0761-.1124-.1504-.1718-.2236-.1416-.1664-.3001-.3189-.4931-.4246-.0418-.0229-.0848-.0435-.1289-.0616-.0227-.0093-.0464-.0205-.0712-.0234-.0504-.006-.1034.0083-.1502.0257-.1015.0378-.194.1033-.2638.1859-.0543.0642-.0948.1398-.1158.2214-.0126.0488-.0175.0992-.0218.1493-.0079.0923-.01.1851-.0089.2778.0037.3023.0396.6044.0899.9022.0384.2268.0858.4524.1437.6752l.005.0186.0237.0878.0033.012.025.0876.0035.012.022.0731.0069.0224.0267.084c.0564.1734.1201.3449.1971.5102l.0264.0551.0089.0178.0186.0369.0225.0423.0039.007.0255.0451.0152.0256.0059.0095c.0127.0208.0259.0414.0396.0615l.0192.0277.0172.0236.0173.0229.0172.0218c.0105.0131.0212.0259.0322.0384l.0285.3057.0089.0926.0048.0505.0144.1431c.0441.3781.0967.774.2732 1.1171.0436.0846.0969.163.1533.2395.0768.1042.1563.206.2378.3065l.1023.125.0208.0253.0534.0644.1623.1953.0216.0259.0549.0661.0367.0444c.0339.041.0676.0822.1012.1234.0964.121.1908.2429.2835.3667.0616.0848.1225.1701.1807.2574.0582.0872.1168.1716.1493.2719.039.1208.0521.2493.056.3755.0047.1491-.0045.2985-.0208.4467l-.001.0094-.0001.0014-.0003.0023-.0077.0653c-.0605.4842-.1821.9615-.328 1.4265-.0437.1393-.0902.2778-.1398.4151-.028.0775-.0652.1542-.0844.2345-.0025.0142-.0043.028-.0053.0424.0008.1422.0865.2564.1745.3609.0967.1088.1996.2117.2941.3225.033.0416.0664.0841.0899.1321.0388.0793.0483.1681.0539.255.0047.1091.0032.2183.008.3274l.003.0352.0007.0068.0037.0334c.0071.0576.0187.1145.04.1691.0289.0743.0748.1343.1309.1839.0212.0188.0439.0361.0677.0522l.0258.0166.0266.0157.0269.0147.0244.0125.0067.0032.03.014.01.0045.0351.015.0371.0146.0096.0037.0179.0066.0374.0135.0144.005.0479.0163c.0579.0193.0846.0268.1434.0446.2184.0626.4386.1184.6569.1811.0249.0074.0498.0149.0746.0226l.0661.0205.0168.0054.0532.0172.0251.0083.019.0065.0255.0086.017.0059.0163.0057.0166.0059.0195.0069.0209.0077.0205.0074.0135.0052.014.0051.0247.0096.0246.0095.0213.0085c.0438.0175.0874.0359.1306.0554.1329.0598.2621.1282.3843.2078.0691.045.1359.0935.1998.1457.0514.0419.1025.0849.1436.1375.1378.1764.1633.4156.1681.6317.0011.0512.0007.103-.0003.1542-.0016.0811-.005.1481-.0083.2327-.0044.1132-.0049.1128-.0075.226-.0004.0703.0009.1399.0047.2101.0124.1465.0399.3122.1597.4118.0431.0358.0954.053.1429.0812.0246.018.0242.0177.0472.0377.0882.09.1417.2037.182.322.0411.121.0696.2469.0902.3729.0479.2921.0698.5879.0762.8842l.0016.0866.0003.0278v.0234l.0004.0464-.0001.0256.0001.0161-.0002.0226-.0001.0332-.0005.0557-.0003.0185-.0002.0233-.0009.0434-.0004.0262-.0003.013-.0003.0149-.0015.0569-.0006.0265-.0003.0067c-.0009.0348-.0021.0697-.0033.1045l-.0045.0941.127.0879.0585-.0939c.0197-.0313.0395-.0624.0599-.0932l.0228-.0311.0233-.0304.0196-.0247c.0093-.0118.0189-.0235.0287-.0351.1195-.1345.2551-.2528.378-.3839.0518-.058.1029-.1163.1561-.1729.0498-.0497.1-.0985.1561-.1411.0361-.0274.0741-.0522.1137-.0736l.0169-.0089.0171-.0085.0178-.0084.017-.0074.0177-.0072.0171-.0065.0251-.0086.0118-.0037.0161-.0047.025-.0064.0143-.0033.015-.003.0249-.0042.0169-.0024.0137-.0014c.0083-.0009.0165-.0016.0248-.0021.0111-.0007.0223-.0012.0334-.0013l.0335.0004c.0223.0008.0445.0027.0667.0056.0615.0081.1219.0241.1799.046.0625.0235.1229.0512.1729.096.0706.0632.1143.1516.1502.2375.0186.0444.0333.0931.0577.135.0114.0129.0256.0224.0399.0317.0435.0251.0899.0431.1372.0596.0156.0053.0335.0122.0522.0189l.02.0069.0251.0077c.0098.0027.0196.005.0291.0067.0187.0021.0371.0019.0559.0007.0888-.0099.1759-.0304.2642-.0441.0415-.0045.0814-.008.123-.0089.061.0014.1208.0072.1796.0243.0392.0114.0773.0267.1132.0461.0402.0218.0778.0479.1119.0784.1479.1321.2018.32.2283.5096.0122.123.0132.2464.0226.3695.0282.2799.0665.5608.149.8305.0519.1695.1213.3352.2331.4741.0285.0321.0579.0633.0878.0941l.0785.0801.0691.067.07.066.0282.0261.0425.0391.03.0271.0415.0374.0305.027.0419.037.0299.0261.0433.0376.0283.0243.0461.0394.025.0212.043.0363.0601.0502.1014.0844.0254.0209c.1445.1194.2901.238.4341.3585.1593.1362.3162.275.4767.4096.1232.1001.2499.1978.3835.2837l.0512.0322.0518.0308.0525.0295.0262.0141.0267.0138.0269.0134.0271.013.0273.0126.0275.0121.0277.0117.028.0113.0281.0107.0284.0103.0472.0159.0474.0148.0192.0056.0285.0081.0208.0056.0271.0071.0221.0056.0255.0063.0239.0056.0228.0052.0272.0061.0507.0108c.1499.0309.3015.0551.4505.0858.067.0153.1334.0309.1998.0486.0439.0126.0876.0259.131.0406l.0216.0073.0376.0134.0374.014.0371.0148.0261.011.0303.0133.0166.0077.0133.0062.0226.011.0071.0036.0289.0149c.0108.0057.0215.0116.032.0176l.026.015.0108.0065.0174.0108.0164.0105.0114.0075.0218.0149.0056.0039.0269.0197.021.0161.0183.0146c.0112.009.0222.0182.033.0276l.0095.0082.0119.0107.0175.0156.0097.0089.0109.0104.0145.0137.0126.0122.0094.0095.0123.0122.0154.0156.0182.0189.0181.0191.015.0161.0325.0357.0234.0262c.0779.0873.1534.1775.2335.2624.0316.0317.0639.0621.0979.0913.0567.0456.1175.0891.1868.1135.0663.0233.138.0295.2078.0301l.0485-.0005.0397-.0016.0399-.0025.0399-.0033.0401-.0039.0399-.0043.0805-.0095c.0734-.0087.1467-.0175.22-.0266l.0879-.0113.0747-.0101c.2123-.0291.4239-.0647.6327-.112.0244-.0056.0488-.0113.0731-.0172l.047-.0117.037-.0095.0438-.0118.0443-.0123.0441-.0129.0429-.0132.0452-.0145.0449-.0152.02-.007.0248-.0089.0197-.0072.0248-.0093.0194-.0075.025-.0099.019-.0076.0253-.0106.0183-.0077.0262-.0115.0171-.0076.043-.0199.0426-.0207c.1946-.1012.3797-.2194.5739-.3214.1032-.0523.2088-.1002.318-.1374l.0222-.0075.0353-.0111.0355-.0104.0358-.0094.036-.0086.0375-.0078c.0117-.0023.0236-.0045.0355-.0065l.0299-.0046.0303-.004.0306-.0033.0184-.0017.0124-.001.0275-.0017c.0231-.0012.0463-.0019.0696-.0019h.0027l.0251.0002.0315.001.0188.001.0127.0008.0274.0022c.0238.0021.0475.0049.071.0084l.027.0043.031.0057.0308.0066.0253.0062c.0241.006.0479.0129.0714.0207.1271.0417.2444.1076.339.2021.0497.0496.0921.1062.1269.1671.0425.0745.0728.1532.0957.2345l.0051.0183.0061.0236c.0029.0115.0056.023.0082.0346.0035.0155.0068.0311.01.0467l.0076.0394.0028.016.0042.0248.0056.0351.0073.0487.0111.0804.0045.0338.0106.0774.006.0416.0042.0279.0024.0149.0082.0485c.0097.0469.0206.0929.0335.139l.0084.0248.0089.0245.0095.0242.0101.0239.0107.0237.0113.0233.0118.023.0125.0227.013.0223.0137.022.0142.0216.0149.0212.0155.0207.0162.0204.0167.0199.0182.0203c.0485.0525.1032.0975.1593.1416.1273.0942.26.1808.3877.2745l.0361.029.0354.0298.0177.0153c.0264.0228.0524.046.0788.0689l.0106.0092.035.0299.0347.0286.0353.0275c.0261.0181.0522.0357.082.0474.034.0116.0713.0155.1067.0201l.0263.0031.0263.0026.0262.002.0261.0015.0257.001.0229.0005.0482.0002.0182-.0003c.2623-.0055.5214-.0608.781-.0931.0809-.0082.0806-.0081.1619-.0141.0282-.0014.0564-.0026.0846-.0035l.0159-.0006c.0272-.0009.0544-.0016.0816-.002l.0446-.0007.0555-.0002c.0285 0 .0572.0002.0857.0007l.0142.0003c.028.0005.0559.0012.0838.0021l.0113.0004c.0591.0021.1181.0051.177.0091l.0068.0004c.0304.0021.0607.0044.091.007.0511.0043.1023.0093.1534.0151.1806.0203.3654.0427.5359.1089l.0417.017.0409.0184.0163.0079.0111.0053.0129.0064.0251.013.0145.0077.0229.0126.0163.0091.0207.0119.018.0106.0186.0112.0197.012.0166.0104.036.0228.0386.025.022.0143.0754.0498.0767.0501.0365.0233.0372.0231.0361.0202.038.0202c.0221.0115.0446.0224.0675.0325.0515.0206.105.03.1597.0379.1117.0125.2239.0181.3355.0317.0635.0099.1259.0222.1868.0403l.0229.0069.0117.0038.0222.0078.0026.001c.0104.0038.0208.0078.0311.0121.1058.0436.2034.1045.3071.1527.0227.0096.0452.0183.0687.0256.0135.0033.0266.0065.0404.0079.0293.0017.0588.0021.0882.0019l.0882-.0013c.1006-.0043.2008-.0119.301-.0212-.0323-.4625.0019-.9296.0918-1.3844.0037-.0188.0075-.0374.0114-.0561l.0107-.0497.0118-.0527.0056-.0238c.0188-.0798.0395-.159.0624-.2377.0363-.1246.0765-.2473.1349-.3635.1262-.2512.3133-.4651.5014-.6714.0613-.0673.1232-.1341.184-.2018.0265-.0295.0513-.0607.0804-.0877.014-.0114.0282-.0207.0441-.0291.0909-.041.1921-.0258.2867-.0066l.0068.0014c.1087.025.2151.0594.324.0836.0367.0071.0782.0154.1184.015l.0134-.0004c.0265-.0017.0522-.0077.0752-.0211.0368-.0215.0675-.0563.0915-.0911.0553-.0805.0851-.184.0766-.2817-.0038-.0431-.0158-.0877-.0432-.1221-.0165-.0208-.0367-.0325-.0594-.0459-.0603-.0304-.1225-.0545-.1853-.0793-.043-.0172-.0855-.0349-.1278-.0536-.0408-.0197-.0797-.0404-.1184-.0641-.0387-.0265-.0758-.0558-.1027-.0947-.0424-.0611-.0553-.1374-.0659-.2094-.015-.1247-.0189-.2503-.028-.3755l-.0025-.0317-.0034-.0392-.0055-.0541c-.017-.1252-.0426-.2493-.0969-.3642l-.0106-.0214-.0036-.0069-.0076-.0142-.0045-.008-.0074-.0128-.0048-.0081-.0077-.0125-.0049-.0077-.0085-.013-.0046-.0068-.0111-.0159-.0024-.0034-.014-.0189-.0044-.0057-.0101-.0128-.0058-.0071-.0092-.0112-.0063-.0074-.0092-.0106-.0065-.0073-.0057-.0063-.0268-.0285-.0013-.0013-.028-.0276-.0031-.003-.0288-.0266-.0044-.004-.0175-.0152-.0212-.018-.0163-.0134-.0206-.0165-.0174-.0136-.0201-.0152-.0184-.0137-.0184-.0134c-.0304-.022-.0613-.0432-.0924-.0638l-.0085-.0057c-.0281-.0186-.0562-.0367-.0841-.0545-.1624-.1002-.327-.1969-.487-.3009-.0847-.0568-.1677-.1162-.247-.1799l-.0036-.0028-.0073-.006-.0167-.0135-.0105-.0088-.0065-.0054-.0058-.0049-.0098-.0082-.0169-.0147-.0078-.0067-.003-.0027c-.0122-.0107-.0244-.0217-.0364-.0326l-.0011-.0011-.0296-.0278-.0045-.0044-.0035-.0033-.0074-.0073-.0151-.0148-.009-.0092-.0062-.0061-.0058-.006-.0089-.0091-.0146-.0156-.0075-.0079-.003-.0033c-.0111-.0119-.022-.024-.0327-.0363-.1076-.1233-.2009-.26-.2722-.4074-.0067-.014-.0132-.028-.0195-.0421l-.0012-.0025-.0005-.0012c-.0059-.0135-.0117-.027-.0172-.0406l-.0014-.0032-.0009-.0021c-.0054-.0134-.0107-.0269-.0157-.0404l-.0011-.0028-.0009-.0026-.0031-.0082-.0059-.017-.0064-.0179-.0021-.0066-.0027-.0078-.0054-.0175-.0046-.014-.0021-.0073-.0034-.0108-.005-.0183-.0029-.0099-.0018-.0069-.0042-.0149-.0048-.0194-.0013-.0053-.0012-.0048-.0051-.0208-.0046-.0212-.0063-.0294c-.0819-.4059-.0289-.8371.0378-1.2432.0173-.1059.0256-.1491.0474-.2712.0064-.0307.0138-.0606.0226-.0907.0589-.1759.1655-.3255.2873-.464.1317-.1498.278-.286.4143-.4314.0414-.0459.0411-.0455.081-.0922.1166-.1462.2316-.3233.1783-.519-.012-.0442-.0293-.0865-.0524-.126-.0285-.0486-.065-.0922-.1065-.1303-.0619-.0567-.1343-.1012-.2099-.1371-.0122-.0058-.0244-.0114-.0367-.0167l-.0294-.0123-.0285-.0113-.0071-.0027-.0257-.0094-.0104-.0036-.024-.0082-.0124-.004-.023-.0071-.0138-.0041-.0221-.0064-.0151-.0041-.0214-.0057-.036-.0089-.0365-.0083-.0167-.0035-.0212-.0043-.0168-.0032-.0212-.004-.0168-.003-.0215-.0036-.0164-.0027-.0221-.0034-.0158-.0024-.0231-.0033-.0148-.002-.0754-.0092-.0492-.0051-.0163-.0015-.033-.003-.0494-.0038-.0207-.0014-.0288-.0018-.0212-.0012-.0284-.0014-.0215-.0009-.0282-.001-.0216-.0007-.0282-.0007-.0215-.0005-.0286-.0003-.0212-.0002h-.048l-.0277.0003-.0204.0002-.0484.0011-.0327.001-.0153.0005-.0349.0014-.0121.0005-.0381.0019-.0075.0004-.0427.0025-.0326.0021c-.0172.0012-.0345.0025-.0517.0038l-.0186.0017c-.0606-.4065-.108-.8151-.1432-1.2246-.0361-.4195-.0599-.8406-.0596-1.2617.0001-.0644.0008-.1288.0023-.1932l.0016-.0662.0031-.0865.0011-.0257.0016-.0362.0012-.0244.0011-.0195.0014-.027.0023-.0399.002-.0309.0044-.0621c.0019-.0266.004-.053.0062-.0795.0055-.0643.0128-.1285.021-.1925.0046-.0352.0102-.0685.0116-.1037-.0007-.0203-.0027-.0393-.0063-.0593-.0431-.1707-.2079-.2781-.347-.367-.0293-.0188-.0588-.0372-.0883-.0558-.0585-.037-.1167-.0738-.1741-.1126-.0406-.0289-.0403-.0286-.0798-.0587-.0086-.0072-.0173-.0144-.0259-.0219l-.003-.0025-.005-.0045-.0119-.0103-.0063-.0059-.0052-.0046-.0085-.0081-.0022-.002-.0009-.0008c-.0065-.0063-.0129-.0126-.0192-.0192l-.0014-.0013-.0016-.0018c-.0085-.0089-.0167-.0179-.0246-.0273l-.004-.0047-.0008-.001-.0023-.0027-.004-.0052-.0022-.0029-.0016-.0021-.0037-.0048-.0028-.0039-.0009-.0012-.0019-.0027c-.0201-.0282-.0366-.0587-.0478-.0924-.0269-.0806-.0123-.1661.0097-.2462.0535-.1948.1681-.3712.2844-.5334.0513-.0715.1049-.1413.1594-.2103.058-.0736.1124-.14.1728-.2142.0979-.1203.196-.2404.2915-.3626.055-.0722.1087-.145.1611-.2191.1208-.1794.2384-.3689.2938-.5803.0584-.2234.0878-.4531.0965-.6837l.0022-.076.0003-.0248.0005-.0515-.0001-.0293-.0004-.0472-.0006-.0307-.0013-.0465-.0011-.0306-.0022-.0477-.0015-.0289-.0035-.0534-.0016-.023-.0062-.0752-.0021-.0208-.0056-.0548-.0036-.031-.0054-.0445-.0045-.034-.0058-.0413-.0053-.0356-.0062-.0392-.006-.0368-.0067-.0374-.0069-.038-.0065-.0336c-.0071-.0364-.0147-.0726-.0227-.1087-.0123-.0552-.0257-.1102-.0401-.1649-.0578-.2189-.13-.4383-.2587-.6267-.1536-.2251-.3692-.4006-.6029-.5373-.0685-.0401-.1389-.0769-.2105-.1111-.0394-.0188-.0788-.0377-.1202-.0516-.0606-.0204-.1234-.032-.1865-.0419-.1604-.0208-.322-.029-.4827-.0469-.1102-.0158-.25-.0301-.3283-.12-.0417-.048-.0648-.1084-.0854-.1676-.0302-.0982-.0545-.1979-.0853-.2959-.0244-.0683-.053-.1387-.1071-.1892l-.0112-.0097-.0038-.003-.0079-.0058-.0047-.0032-.0074-.0048-.0052-.003-.0074-.0041-.0054-.0028-.0077-.0036-.0054-.0025-.0082-.0033-.0052-.0021-.0091-.0032-.0045-.0016-.0137-.0041-.0035-.001-.0103-.0027-.0214-.0047-.0174-.0032-.0117-.0021-.0175-.0026-.0121-.0017-.0274-.0036c-.1114-.0143-.2241-.0186-.3363-.0207-.358-.0069-.7165.0105-1.074.0352l-.1696.0122-.1876.0143-.0685.0058c-.0209-.0349-.0429-.0688-.0654-.1027-.0432-.0617-.0881-.1213-.1346-.1805-.1736-.211-.3713-.4012-.5969-.5563-.0967-.0665-.1983-.131-.3062-.178l-.0255-.0106-.008-.0032-.018-.007-.0087-.0032-.0188-.0067-.0069-.0024-.0253-.0084-.0054-.0017c-.0871-.0274-.1771-.0458-.267-.0594-.1845-.028-.3718-.0357-.5582-.0349-.2792.0011-.5579.0222-.8356.0516l-.0362.0039-.1129.0126-.1505.0179c-.1398.0171-.2794.0361-.4195.0517-.0577.0064-.115.0109-.1723.0193-.0368.0068-.0728.015-.109.0246-.2447.0741-.4553.2188-.6526.3782-.2044.1651-.3962.3451-.5975.514-.0672.0547-.067.0545-.1353.1078-.1766.1315-.3581.2477-.5679.3176l-.0374.0111-.0364.0095-.0003.0088c-.0055.1433-.02.2911-.0514.4344-.007.0609-.0142.1218-.0215.1827-.0124.0898-.0242.1795-.0401.2688-.0106.0599-.0226.1195-.0372.1786-.013.0529-.028.1053-.0464.1566-.0259.072-.0595.1442-.1055.2061l-.0078.0105-.0064.0078-.0013.0017-.002.0023-.0074.0091-.005.0054-.0021.0024-.0039.0041-.0073.008-.0038.0037-.0024.0025-.0058.0055-.0073.0072-.0045.0039-.0016.0014c-.0057.0051-.0115.01-.0176.0147l-.001.0009-.0013.0009c-.0059.0047-.012.0092-.0183.0135l-.0093.0062-.0011.0007-.0011.0008-.0055.0034-.0039.0024-.0015.0009-.0069.0039-.0036.0021-.0123.0065c-.0308.0156-.0636.027-.0973.0345-.0224.0051-.044.0085-.065.0094l-.0125.0002c-.0416-.0003-.0807-.0115-.1183-.0409-.0413-.0323-.0738-.0763-.1014-.1203-.0129-.0204-.0252-.0411-.0373-.0619-.1002.0402-.2038.0717-.3089.0962-.2508.0584-.5079.0753-.7646.082-.181.0028-.3618.0004-.5428-.0012-.1553-.0014-.3107.0023-.466-.0022-.1237-.0056-.2464-.0173-.3695-.0317-.0905-.0123-.1808-.0261-.271-.0405-.013.0011-.0259.0021-.0389.003-.0412.0029-.0826.0051-.124.006l-.0413.0006c-.1652.0004-.3288-.0206-.4815-.0908-.0223-.0102-.0441-.0212-.0655-.0328-.0536-.0058-.1072-.0102-.161-.012-.1253-.0042-.2508.0054-.3761.0061-.0551-.0011-.1092-.0039-.164-.0091-.0674-.0091-.1343-.0226-.1962-.0517-.0553-.026-.1044-.0641-.1502-.104-.0648-.0565-.1242-.1197-.1804-.1846-.1254-.1447-.2432-.2957-.3705-.4387-.0377-.0409-.076-.0807-.1156-.1197-.1222-.1133-.258-.2191-.4293-.2331l-.0217-.0006-.1126-.034c-.0285.0026-.057.005-.0856.0072l-.012.001-.049.0034c-.033.0014-.066.0026-.099.0029h-.033c-.044-.0004-.088-.0026-.1318-.008-.0706-.0087-.1409-.0251-.2056-.0553-.0944-.0443-.1634-.1164-.2156-.2017l-.3321-.1c-.0581-.1365-.1262-.2685-.1846-.4048-.0222-.0548-.0433-.1098-.0598-.1666-.0324-.1118-.051-.2289-.068-.3439-.0314-.2114-.0492-.4403.0042-.6512zm2.2541 20.3507.8732 2.0578c-.0017-.0432-.0031-.0864-.0043-.1296-.003-.1071-.0068-.2139-.0121-.3209-.0059-.0858-.0127-.1709-.023-.2562-.0217-.1563-.0533-.3114-.1151-.4573-.0772-.1825-.2-.3478-.3233-.5013-.113-.1408-.2372-.287-.3888-.3882zm-.5814-14.9621c1.2236.5293 2.2075 1.473 2.4634 3.2443.2297.0126.4295.0919.6162.237-.1153.2381-.2083.4865-.2776.7423h-.7747c-.1673.7335-.1673 1.4953 0 2.2288h.7747c.0953.3515.2352.6893.4164 1.0052l-.5478.5478c.4004.637.9391 1.1757 1.5761 1.5761l.5478-.5478c.3159.1812.6537.3211 1.0052.4163v.7748c.7335.1672 1.4953.1672 2.2288 0v-.7748c.3515-.0952.6893-.2351 1.0052-.4163l1.233 1.233c-.9555.6516-2.1099 1.0327-3.3526 1.0327-3.2902 0-5.9614-2.6712-5.9614-5.9614 0-.4555.0407-.9297.0625-1.4293.0191-.4368-.1251-1.1738-.5232-1.5721-.698-.6986-1.4055-1.1618-1.4055-1.1618zm13.8282 10.676c-1.2236-.5293-2.2075-1.473-2.4634-3.2443-.2297-.0127-.4295-.0919-.6162-.237.1153-.2381.2083-.4865.2776-.7423h.7747c.1673-.7335.1673-1.4953 0-2.2288h-.7747c-.0953-.3515-.2352-.6893-.4164-1.0052l.5478-.5478c-.4004-.637-.9391-1.1757-1.5761-1.5761l-.5478.5478c-.3159-.1812-.6537-.3211-1.0052-.4164v-.7747c-.7335-.1673-1.4953-.1673-2.2288 0v.7747c-.3515.0953-.6893.2352-1.0052.4164l-1.233-1.233c.9555-.6516 2.1099-1.0327 3.3526-1.0327 3.2902 0 5.9614 2.6712 5.9614 5.9614 0 .4555-.0407.9297-.0625 1.4293-.0191.4368.1251 1.1738.5232 1.5721.698.6986 1.4055 1.1618 1.4055 1.1618zm4.7293-2.3199c-.1286.1439-.2724.2768-.4009.4142-.036.04-.071.0804-.1048.1223-.0476.0632-.0935.1276-.1188.2032-.0196.0672-.0285.1455-.0397.2093-.0108.0616-.0174.1047-.0273.1663-.0109.0724-.0218.1464-.0312.2211zm-10.8312-7.1013c-.5362-.1067-1.0882-.1067-1.6244 0l.0199.6343c-.3846.0884-.7517.2405-1.0862.4499l-.4344-.4626c-.4546.3038-.8449.6941-1.1487 1.1487l.4627.4344c-.2095.3344-.3616.7016-.45 1.0862l-.6343-.0199c-.1066.5362-.1066 1.0882 0 1.6244l.6343-.0199c.0884.3846.2405.7517.45 1.0862l-.4627.4344c.3038.4546.6941.8449 1.1487 1.1487l.4344-.4627c.3345.2095.7016.3616 1.0862.45l-.0199.6343c.5362.1066 1.0882.1066 1.6244 0l-.0199-.6343c.3846-.0884.7517-.2405 1.0862-.45l.4344.4627c.4546-.3038.8449-.6941 1.1487-1.1487l-.4627-.4344c.2095-.3345.3616-.7016.45-1.0862l.6343.0199c.1066-.5362.1066-1.0882 0-1.6244l-.6343.0199c-.0884-.3846-.2405-.7518-.45-1.0862l.4627-.4344c-.3038-.4546-.6941-.8449-1.1487-1.1487l-.4344.4626c-.3345-.2094-.7016-.3615-1.0862-.4499zm-.9926 1.8143v-.3761h.3608v.3748c.4155-.0779.6027-.3983.5974-.3718-.0682.3218-.2266.6702-.5974.757v.7722c.742-.0842 1.0751-.6471 1.0661-.603-.1157.5379-.3936 1.1229-1.0661 1.2147v.702c.9122-.0809 1.3213-.7282 1.3104-.6781-.1404.6106-.4804 1.2755-1.3104 1.3634v.8483c1.1659-.0845 1.6883-.9366 1.6745-.8717-.1866.8366-.6575 1.7527-1.8549 1.7572-1.2001.0037-1.6704-.9189-1.8484-1.7609-.0114-.0607.5029.797 1.668.8763v-.8476c-.8358-.0807-1.1763-.7519-1.3105-1.3679-.009-.0469.3954.6073 1.3105.6823v-.7015c-.6774-.0858-.9555-.6764-1.0661-1.2191-.0075-.0413.3218.5277 1.0661.6069v-.7716c-.3737-.0838-.5322-.4357-.5974-.7605-.0044-.0249.1807.2991.5974.3747zm-9.9517 2.9392.1342.3163c-.0026-.0424-.0071-.0847-.015-.1266-.0077-.0408-.0179-.084-.0409-.1192-.0203-.0276-.0503-.0494-.0783-.0705zm4.6385-8.8122c.0151.0023.0302.0036.0457.0051.1337.007.2675-.0029.4013-.0042.0658.001.0653.001.1308.0044.3592.0319.7118.1002 1.068.1539.0947.0129.1891.0239.2843.0329.076.0056.1518.0091.228.01.2961-.0014.5922.0059.8883.0013.2017-.0053.4038-.0164.6021-.0562.1229-.0247.2441-.0604.3581-.113.1194-.0551.2463-.1292.329-.2338.0638-.0807.1025-.1789.1284-.2777.041-.1563.0528-.3199.0546-.4809.001-.088-.0015-.176-.0061-.2639-.0047-.0925-.0124-.1848-.0204-.2771-.0269-.2794-.0625-.5579-.0867-.8375-.0158-.2197-.0182-.4399-.0303-.6598-.0052-.0738-.0117-.147-.02-.2205-.0146-.1034-.0317-.2062-.0654-.3053-.0108-.0317-.0209-.0738-.0433-.0997-.0163-.0164-.0353-.0292-.0545-.0419-.0227-.0138-.0456-.0267-.069-.0392-.1167-.0581-.2359-.1109-.3519-.1705-.1479-.0799-.2885-.1715-.4048-.2944-.1062-.1121-.1843-.2464-.2586-.3808-.0846-.1529-.1568-.3125-.2117-.4786-.05-.1512-.0841-.3059-.114-.462l-.0039-.0334c-.0175.0016-.0351.0032-.0527.0048l-.0335.0031-.009.0008-.0234.0022-.0092.0007-.0193.0016-.0095.0008-.0397.0028c-.1036.0035-.2073.0017-.311.0024-.2272.0016-.2908.0033-.5181.0072l-.0851.0021-.0131.0004-.0092.0002-.1479.0043-.0471.0015-.0198.0006-.0079.0003c-.0327.001-.0654.0021-.0981.0032l-.0014.0001-.0084.0003-.0725.0025-.0169.0007-.0095.0003-.0927.0035-.0146.0005-.0125.0005-.0239.0009-.071.0028-.0024.0001c-.035.0014-.0699.0028-.1049.0043-.1673.0068-.3347.0141-.5021.0213-.3046.0083-.6093-.0036-.9139.0038-.1226.0043-.2467.0101-.3695.0248-.0257.003-.0513.0065-.0769.0104l-.0018.0002-.0016.0003-.0106.0017-.0074.0011-.0011.0002-.0021.0004-.0085.0014-.0078.0013-.0021.0004-.0028.0005-.0072.0013-.0074.0013-.0031.0006-.0034.0006-.0063.0012-.0067.0013-.004.0008-.0041.0008-.0113.0023-.005.0011-.0047.0009-.0046.001-.0051.0011-.006.0014-.0053.0011-.0038.0009-.0043.001-.007.0016-.0058.0014-.003.0007-.0034.0008-.0082.0021-.0062.0015-.0023.0006-.0026.0006-.0095.0025-.0079.0021-.0017.0005-.0116.0032-.0059.0016c-.0066.0019-.014.004-.0207.006-.0658.0197-.1312.0443-.1902.08-.0195.0118-.0461.0251-.059.0451-.0106.0184-.0142.0406-.0178.0613-.0121.0842-.0069.1697-.0016.2543l.0016.0194c.005.063.0108.126.0164.189.0066.0736.013.1471.0178.2209.001.0209.0018.0419.0023.0629.0068.2376-.0119.4755-.1065.6968-.0441.1032-.1017.2008-.1674.2917-.075.1037-.1621.1965-.2538.2854l-.0129.0119-.0044.004-.0083.0076-.0229.0207-.0029.0026-.027.024-.0264.023-.014.0121-.0121.0104-.0167.0144-.0569.0483c-.0787.0667-.1575.1331-.233.2035-.0749.0729-.1514.1529-.1926.2508-.0503.1199-.0389.2696-.0263.3944.0077.0772.0198.154.0338.2303.0115.0631.0223.1268.0423.1878.0259.0789.0621.154.0972.2291l.0201.0423.9955.2999-.0314-.0009c.0481.004.0477.0039.0955.0104.0458.0086.0455.0085.0907.0194.0697.0203.1367.0448.2016.0775.2144.1084.3846.2744.5415.4542l.0247.0285.0244.0286.0239.0284.0231.0276.0198.0239c.0263.0318.0524.0637.0786.0955l.042.0509.037.0444.0228.0269.0246.0288.0229.0264.0214.0241c.033.0357.0664.0703.1024.1029.0106.0089.0256.0258.0398.0298.0077.0018.0153.0032.023.0044zm4.3318-15.2824c.3849-.01850001.7723-.0278 1.1618-.0278.4089 0 .8162.0103 1.2202.0306z" fill="#2f4a98" fill-rule="evenodd"/></svg>