<svg fill="none" height="48" viewBox="0 0 48 48" width="48" xmlns="http://www.w3.org/2000/svg"><path clip-rule="evenodd" d="m42.917 18.5915c1.2159 2.6404 1.894 5.5784 1.894 8.6734 0 2.4714-.4324 4.8427-1.2256 7.0424-.3204-.0514-.6491-.0781-.9839-.0781-3.406 0-6.1713 2.7632-6.1713 6.1667 0 1.0702.2734 2.077.7543 2.9546-3.2046 2.6266-7.2069 4.3165-11.5864 4.6495v-5.4966c7.7123-.7997 13.7341-7.3219 13.7341-15.2385 0-2.098-.423-4.0982-1.1884-5.9196zm-37.89935.1429 4.77802 2.7566c-.72713 1.7823-1.12793 3.7317-1.12793 5.7739 0 7.8091 5.85956 14.2615 13.42096 15.2026v5.5063c-4.2569-.3879-8.1451-2.0594-11.2732-4.6233.4808-.8776.7542-1.8844.7542-2.9546 0-3.4035-2.76526-6.1667-6.17127-6.1667-.33485 0-.66349.0267-.98393.0781-.79318-2.1997-1.2255-4.571-1.2255-7.0424 0-3.0392.65378-5.927 1.82865-8.5305zm.38078 17.0164c2.56559 0 4.64857 2.0814 4.64857 4.6451 0 2.5636-2.08298 4.645-4.64857 4.645-2.56549 0-4.64843-2.0814-4.64843-4.645 0-2.5637 2.08294-4.6451 4.64843-4.6451zm37.20307 0c2.5656 0 4.6485 2.0814 4.6485 4.6451 0 2.5636-2.0829 4.645-4.6485 4.645s-4.6485-2.0814-4.6485-4.645c0-2.5637 2.0829-4.6451 4.6485-4.6451zm-25.0483-.833c.4124.7872.892 1.5395 1.4348 2.2434.629.8158 1.3431 1.5666 2.132 2.2297.3845.3231.7868.6252 1.2047.9035-2.9261-.3726-5.5532-1.7081-7.5525-3.6782.8449-.6629 1.7684-1.2258 2.7414-1.6802zm12.9178.0112.0154.007c.973.4544 1.8964 1.0173 2.7413 1.6802-1.9907 1.9617-4.6039 3.2943-7.5151 3.6734.4153-.2771.8152-.5775 1.1974-.8987.8777-.7377 1.6627-1.584 2.3413-2.5076.4552-.6194.8626-1.2738 1.2197-1.9543zm-6.0673-1.4036c.5745.0163 1.1472.0589 1.7171.136 1.2485.1689 2.4766.4903 3.6449.9616-.4101.7743-.889 1.5126-1.4323 2.2004-.6036.7642-1.2869 1.466-2.0404 2.0836-.5896.4832-1.2222.9144-1.8893 1.2831zm-.8075 0v6.6479c-.656-.3649-1.2785-.7904-1.8591-1.2663-.7535-.6176-1.4369-1.3194-2.0405-2.0836-.5456-.6908-1.0262-1.4324-1.4376-2.2104 1.1609-.4658 2.3804-.7839 3.6201-.9516.5699-.0771 1.1426-.1197 1.7171-.136zm13.5427-5.857c-.0977 3.2338-1.3677 6.1753-3.3993 8.4142-.9043-.717-1.8956-1.3247-2.9414-1.8131.9629-2.0651 1.471-4.3277 1.5248-6.6011zm-26.2779 0h4.8461c.0536 2.269.56 4.5272 1.52 6.5894l-.0254.0117c-1.0457.4884-2.0371 1.0961-2.9414 1.8131-2.0315-2.2389-3.3015-5.1804-3.3993-8.4142zm20.6954 0c-.0536 2.1683-.5406 4.3258-1.4615 6.2939-1.241-.5059-2.547-.8503-3.8752-1.0301-.6028-.0815-1.2084-.1262-1.816-.1428v-5.121zm-7.9602 0v5.121c-.6076.0166-1.2132.0613-1.8159.1428-1.3192.1786-2.6165.5195-3.8499 1.0199-.9178-1.9654-1.4033-4.1191-1.4567-6.2837zm-12.7352-.807c.0978-3.2339 1.3679-6.1754 3.3995-8.4144.9117.7225 1.9112 1.3332 2.9669 1.8243-.9596 2.0621-1.4665 4.3205-1.5202 6.5901zm5.6127 0c.0537-2.1651.5395-4.3189 1.4569-6.2841.4561.1853.9211.3488 1.3924.49 1.3858.4153 2.8271.6388 4.2732.6738v5.1203zm15.8494 0c-.0537-2.2737-.5621-4.5364-1.5256-6.6018 1.0464-.489 2.0374-1.0957 2.9419-1.8126 2.0317 2.239 3.3018 5.1805 3.3995 8.4144zm-7.9194-5.1203c1.4462-.035 2.8875-.2585 4.2733-.6738.4801-.1438.9535-.3108 1.4177-.5003.9205 1.9679 1.4079 4.1255 1.4616 6.2944h-7.1526zm-.8075-7.3849v6.6489c-1.3746-.0348-2.7444-.2478-4.0617-.6426-.4315-.1292-.8573-.2781-1.2754-.4461.022-.0418.0443-.0834.0669-.125.3701-.6842.7943-1.3394 1.2693-1.9555.6608-.8569 1.4206-1.6384 2.2664-2.3142.5447-.4354 1.1251-.8266 1.7345-1.1655zm.8075-.0166c.6205.3427 1.211.7395 1.7647 1.1821.8457.6758 1.6055 1.4573 2.2663 2.3142.4752.6161.8993 1.2713 1.2695 1.9555.0206.0382.0411.0765.0614.115-.4261.1721-.8602.3243-1.3002.4561-1.3172.3948-2.6871.6078-4.0617.6426zm-2.0795-.1041c-.3708.2468-.729.5123-1.0734.7946-.8857.726-1.6798 1.5619-2.3682 2.4764-.4934.6555-.9326 1.3514-1.3148 2.0772l-.0144.0276c-.988-.4581-1.9247-1.0264-2.7809-1.6979 1.9991-1.9699 4.6259-3.3053 7.5517-3.6779zm3.3892.0049c2.9108.3792 5.5235 1.7116 7.514 3.673-.8492.666-1.7775 1.2305-2.7567 1.6866-.411-.783-.8884-1.5313-1.4286-2.2317-.6291-.8158-1.3431-1.5666-2.1321-2.2296-.382-.3211-.7815-.6214-1.1966-.8983zm-18.98769 1.4302c2.72971-4.0513 6.84859-7.0918 11.67189-8.4378.9797 2.1123 3.121 3.5789 5.6024 3.5789s4.6227-1.4666 5.6024-3.5789c4.7717 1.3316 8.8539 4.3216 11.5837 8.308l-4.7632 2.748c-2.7867-3.8432-7.3148-6.3448-12.4229-6.3448-5.1646 0-9.7361 2.5571-12.5147 6.4725zm17.27429-15.6706c2.5655 0 4.6485 2.0814 4.6485 4.645 0 2.5637-2.083 4.6451-4.6485 4.6451s-4.6485-2.0814-4.6485-4.6451c0-2.5636 2.083-4.645 4.6485-4.645z" fill="#00920a" fill-rule="evenodd"/></svg>