<svg xmlns="http://www.w3.org/2000/svg" id="Component_155_1" width="24" height="24" viewBox="0 0 24 24">
    <defs>
        <clipPath id="clip-path">
            <path d="M0 0H20V20H0z" class="cls-1"/>
        </clipPath>
        <style>
            .cls-1{fill:none}
        </style>
    </defs>
    <path id="Rectangle_1289" d="M0 0H24V24H0z" class="cls-1"/>
    <g id="Bank_Tosee_Taavon_Color" clip-path="url(#clip-path)" transform="translate(2 2)">
        <path id="Boundary" d="M0 0H20V20H0z" class="cls-1"/>
        <path id="Shape" fill="#ccc" d="M22.768-27.263a3.044 3.044 0 0 0-3.025-3.046 3.03 3.03 0 0 0-3.043 3.025 3.058 3.058 0 0 0 3.025 3.046 3 3 0 0 0 3.043-3.025z" transform="translate(-9.74 37.68)"/>
        <path id="Shape-2" fill="#50b4d0" fill-rule="evenodd" d="M9.184-33.413a4.218 4.218 0 0 1-1.744-.84.571.571 0 0 0-.735.021L3.68-31.438a.383.383 0 0 0-.063.462l1.113 2.1a1.848 1.848 0 0 0 1.954.924l2.353-.42a.427.427 0 0 0 .315-.357l.294-4.071a.576.576 0 0 0-.462-.613zm4.139-.861a.6.6 0 0 0-.756-.021 3.93 3.93 0 0 1-1.723.861.576.576 0 0 0-.462.609l.336 4.076a.4.4 0 0 0 .336.336l2.353.4a1.818 1.818 0 0 0 1.933-.966l1.092-2.1a.415.415 0 0 0-.063-.483zm-6.87-1.26a3.851 3.851 0 0 1-.441-1.766v-.084a.554.554 0 0 0-.483-.588L1.495-38.6a.428.428 0 0 0-.4.231L.15-36.207a1.843 1.843 0 0 0 .483 2.122L2.4-32.53a.381.381 0 0 0 .483.042l3.361-2.29a.622.622 0 0 0 .209-.757zm13.382-.714l-.945-2.164a.346.346 0 0 0-.4-.231l-4.034.651a.554.554 0 0 0-.483.588v.126a3.836 3.836 0 0 1-.42 1.765.559.559 0 0 0 .189.714l3.382 2.29a.381.381 0 0 0 .483-.042l1.765-1.576a1.811 1.811 0 0 0 .463-2.122zM1.768-39.736L5.676-38.6a.594.594 0 0 0 .693-.294 3.91 3.91 0 0 1 1.2-1.534.58.58 0 0 0 .126-.735l-2.062-3.531a.41.41 0 0 0-.441-.168l-2.29.651a1.849 1.849 0 0 0-1.3 1.7l-.084 2.374a.4.4 0 0 0 .25.401zM12.4-40.45a3.8 3.8 0 0 1 1.2 1.513.634.634 0 0 0 .714.315L18.2-39.8a.411.411 0 0 0 .273-.4l-.084-2.374a1.842 1.842 0 0 0-1.344-1.681l-2.29-.63a.387.387 0 0 0-.441.168l-2.059 3.55a.624.624 0 0 0 .145.717zM8.386-41.5a.547.547 0 0 0 .651.336A5.041 5.041 0 0 1 10-41.27a3.583 3.583 0 0 1 .966.126.573.573 0 0 0 .672-.357l1.513-3.8a.388.388 0 0 0-.147-.441l-1.904-1.41a1.8 1.8 0 0 0-2.164 0L7.02-45.765a.4.4 0 0 0-.147.462z" transform="translate(0 47.717)"/>
    </g>
</svg>
