<svg xmlns="http://www.w3.org/2000/svg" xmlns:xlink="http://www.w3.org/1999/xlink" viewBox="0 0 256 256" fill="#00920a"><style>*{transform-origin:128px 145px}</style><path id="o" d="M36 84A111 111 0 0198 39a33 33 0 0060 0 111 111 0 0162 44L194 98A82 82 0 0061 98L36 84ZM128 0a1 1 0 000 50 1 1 0 000-50Z"/><path id="c" d="M137 76a70 70 0 0126 28 70 70 0 0014-9A70 70 0 00137 76Zm-7 1v35a70 70 0 0029-6A70 70 0 00130 77Zm0 39v27h38a70 70 0 00-7-33 84 84 0 01-31 6Zm42 27h26A70 70 0 00180 98a70 70 0 01-15 10 70 70 0 017 35Z"/><use xlink:href="#o" style="rotate:120deg"/><use xlink:href="#o" style="rotate:240deg"/><use xlink:href="#c" style="scale:-1"/><use xlink:href="#c" style="scale:-1 1"/><use xlink:href="#c" style="scale:1 -1"/></svg>