<svg height="24" viewBox="0 0 24 24" width="24" xmlns="http://www.w3.org/2000/svg" xmlns:xlink="http://www.w3.org/1999/xlink"><clipPath id="a"><path d="m0 0h20v20h-20z"/></clipPath><path d="m0 0h24v24h-24z" fill="none"/><g clip-path="url(#a)" transform="translate(2 2)"><path d="m0 0h20v20h-20z" fill="none"/><path d="m14.142 20h-8.284l-5.858-5.858v-8.284l5.858-5.858h8.284l5.858 5.858v8.284zm-7.076-17.083-4.149 4.149v5.868l4.149 4.149h5.868l4.149-4.149v-5.868l-4.149-4.149zm2.909 13.958-4.893-4.893-1.957-1.982 2.422-2.4h3.913l-2.421 2.4 4.893 4.918zm4.479-4.48h-3.914l2.421-2.395-4.892-4.918 1.957-1.957 4.893 4.893 1.956 1.982-2.422 2.4z" fill="#006d08"/></g></svg>