<svg height="24" viewBox="0 0 24 24" width="24" xmlns="http://www.w3.org/2000/svg" xmlns:xlink="http://www.w3.org/1999/xlink"><clipPath id="a"><path d="m0 0h20v20h-20z"/></clipPath><path d="m0 0h24v24h-24z" fill="none"/><g clip-path="url(#a)" transform="translate(2 2)"><path d="m0 0h20v20h-20z" fill="none"/><path d="m17.955 18.333h-17.955v-10.812h2.923v7.944h12.109v-4.574a4.968 4.968 0 0 1 -4.972-4.952 4.88 4.88 0 0 1 .392-1.939l4.548 3.439v-2.89l-3.168-2.4a4.959 4.959 0 0 1 7.615 6.063 5.015 5.015 0 0 1 -1.492 1.728v-2.419h-2.923v3.37a4.942 4.942 0 0 0 2.923-.951zm-15-10.894v-2.89l6.023-4.549 2.85 2.154a5.012 5.012 0 0 0 -1.376 1.846l-1.474-1.11-6.019 4.549z" fill="#8f2426" transform="translate(0 .833)"/></g></svg>